<svg width="25" height="25" viewBox="0 0 25 25" fill="none" xmlns="http://www.w3.org/2000/svg">
<path d="M14.9183 5.98976C14.4422 5.90182 14.005 6.20561 13.9144 6.67029C13.8238 7.13497 14.1285 7.58866 14.5916 7.6796C15.9859 7.95141 17.0624 9.03067 17.3353 10.4297V10.4307C17.413 10.8334 17.7675 11.1262 18.1759 11.1262C18.2306 11.1262 18.2854 11.1212 18.3412 11.1112C18.8043 11.0183 19.109 10.5656 19.0184 10.0999C18.6111 8.01037 17.0027 6.39648 14.9183 5.98976Z" fill="black"/>
<path d="M14.8558 2.50793C14.6328 2.47595 14.4087 2.54191 14.2304 2.68381C14.0472 2.82771 13.9326 3.03557 13.9078 3.26841C13.855 3.73908 14.1946 4.16479 14.6646 4.21776C17.9063 4.57951 20.4259 7.10477 20.7904 10.3565C20.8392 10.7922 21.2047 11.121 21.6409 11.121C21.6738 11.121 21.7057 11.119 21.7385 11.115C21.9666 11.09 22.1698 10.9771 22.3132 10.7972C22.4556 10.6174 22.5203 10.3935 22.4944 10.1647C22.0403 6.10746 18.9002 2.95862 14.8558 2.50793Z" fill="black"/>
<path fill-rule="evenodd" clip-rule="evenodd" d="M11.5317 13.4724C15.5208 17.4604 16.4258 12.8467 18.9656 15.3848C21.4143 17.8328 22.8216 18.3232 19.7192 21.4247C19.3306 21.737 16.8616 25.4943 8.1846 16.8197C-0.493478 8.144 3.26158 5.67244 3.57397 5.28395C6.68387 2.17385 7.16586 3.58938 9.61449 6.03733C12.1544 8.5765 7.54266 9.48441 11.5317 13.4724Z" fill="black"/>
</svg>
