<svg width="34" height="34" viewBox="0 0 34 34" fill="none" xmlns="http://www.w3.org/2000/svg">
<path fill-rule="evenodd" clip-rule="evenodd" d="M9.78203 0.332031H24.232C29.882 0.332031 33.6654 4.2987 33.6654 10.1987V23.817C33.6654 29.7004 29.882 33.6654 24.232 33.6654H9.78203C4.13203 33.6654 0.332031 29.7004 0.332031 23.817V10.1987C0.332031 4.2987 4.13203 0.332031 9.78203 0.332031ZM22.0154 21.9987C22.582 21.4337 22.582 20.517 22.0154 19.9504L19.0487 16.9837L22.0154 14.0154C22.582 13.4504 22.582 12.517 22.0154 11.9504C21.4487 11.382 20.532 11.382 19.9487 11.9504L16.9987 14.9154L14.032 11.9504C13.4487 11.382 12.532 11.382 11.9654 11.9504C11.3987 12.517 11.3987 13.4504 11.9654 14.0154L14.932 16.9837L11.9654 19.9337C11.3987 20.517 11.3987 21.4337 11.9654 21.9987C12.2487 22.282 12.632 22.4337 12.9987 22.4337C13.382 22.4337 13.7487 22.282 14.032 21.9987L16.9987 19.0504L19.9654 21.9987C20.2487 22.3004 20.6154 22.4337 20.982 22.4337C21.3654 22.4337 21.732 22.282 22.0154 21.9987Z" fill="black"/>
</svg>
