<svg width="185" height="91" viewBox="0 0 185 91" fill="none" xmlns="http://www.w3.org/2000/svg">
<path d="M30.9918 10.7061H11.5824C11.5585 10.7061 11.5391 10.7255 11.5391 10.7494V84.8143C11.5391 84.8382 11.5585 84.8576 11.5824 84.8576H30.9918C31.0157 84.8576 31.0351 84.8382 31.0351 84.8143V10.7494C31.0351 10.7255 31.0157 10.7061 30.9918 10.7061Z" fill="#1E1ED8"/>
<path d="M61.6027 30.5433L55.6122 30.5316C55.5573 30.53 55.5306 30.5033 55.5306 30.45V27.9705C55.5306 27.8988 55.5656 27.8638 55.6372 27.8638L64.1838 27.8772C64.2422 27.8788 64.2771 27.9072 64.2855 27.9655C64.8704 32.0247 63.289 35.9005 59.3915 37.5485C56.0672 38.9549 52.1946 38.3517 49.4102 36.1255C44.0646 31.853 44.9361 23.7563 50.8266 20.457C54.4825 18.4091 58.9549 18.9823 62.0043 21.8134C62.0526 21.8567 62.0526 21.9017 62.0076 21.9484L60.3446 23.673C60.318 23.7004 60.2822 23.7169 60.2443 23.7194C60.2064 23.7219 60.1691 23.7101 60.1397 23.6863C59.6481 23.2948 59.1215 22.8782 58.565 22.6149C55.8105 21.3102 52.7262 21.8101 50.6316 23.9763C48.6837 25.9892 48.1804 29.2502 49.3968 31.748C52.0296 37.1553 60.5312 37.0903 61.6827 30.6399C61.6943 30.5749 61.6677 30.5433 61.6027 30.5433Z" fill="#1E1ED8"/>
<path d="M108.293 19.873H105.717C105.678 19.873 105.646 19.9051 105.646 19.9447V37.8377C105.646 37.8773 105.678 37.9094 105.717 37.9094H108.293C108.333 37.9094 108.365 37.8773 108.365 37.8377V19.9447C108.365 19.9051 108.333 19.873 108.293 19.873Z" fill="#1E1ED8"/>
<path d="M77.627 32.1485C77.627 33.7872 76.976 35.3588 75.8173 36.5175C74.6586 37.6762 73.087 38.3272 71.4483 38.3272C69.8096 38.3272 68.238 37.6762 67.0792 36.5175C65.9205 35.3588 65.2695 33.7872 65.2695 32.1485C65.2695 30.5098 65.9205 28.9382 67.0792 27.7794C68.238 26.6207 69.8096 25.9697 71.4483 25.9697C73.087 25.9697 74.6586 26.6207 75.8173 27.7794C76.976 28.9382 77.627 30.5098 77.627 32.1485ZM71.4449 35.8227C72.3509 35.8227 73.2198 35.4354 73.8604 34.7461C74.501 34.0567 74.8609 33.1217 74.8609 32.1468C74.8609 31.1719 74.501 30.2369 73.8604 29.5475C73.2198 28.8582 72.3509 28.4709 71.4449 28.4709C70.539 28.4709 69.6701 28.8582 69.0295 29.5475C68.3889 30.2369 68.029 31.1719 68.029 32.1468C68.029 33.1217 68.3889 34.0567 69.0295 34.7461C69.6701 35.4354 70.539 35.8227 71.4449 35.8227Z" fill="#1E1ED8"/>
<path d="M101.208 37.019C101.208 37.0148 101.207 37.0108 101.204 37.0073C101.202 37.0039 101.198 37.0012 101.195 36.9996C101.191 36.998 101.186 36.9976 101.182 36.9984C101.178 36.9992 101.174 37.0011 101.171 37.004C100.065 37.9822 99.0284 38.3804 97.5254 38.2671C94.1177 38.0122 91.7865 34.9311 92.0865 31.5702C92.3914 28.1608 95.4825 25.4281 99.0201 26.1263C99.8599 26.2912 100.54 26.6845 101.061 27.3044C101.073 27.3182 101.088 27.3283 101.105 27.3333C101.122 27.3383 101.14 27.338 101.157 27.3324C101.174 27.3268 101.189 27.3162 101.2 27.3019C101.211 27.2877 101.217 27.2705 101.218 27.2527L101.258 26.4762C101.263 26.4045 101.3 26.3695 101.371 26.3695H103.762C103.785 26.3695 103.807 26.3787 103.824 26.3949C103.84 26.4112 103.849 26.4332 103.849 26.4562C103.861 29.5139 103.861 32.5666 103.849 35.616C103.842 37.5139 103.901 39.1836 103.208 40.6966C102.409 42.4396 100.933 43.5111 98.9934 43.7143C96.069 44.0193 93.9294 42.8912 92.5731 40.3284C92.5624 40.3084 92.556 40.2864 92.5542 40.2639C92.5524 40.2413 92.5552 40.2186 92.5626 40.1972C92.5699 40.1758 92.5816 40.1561 92.5969 40.1394C92.6121 40.1227 92.6307 40.1093 92.6514 40.1001L94.8393 39.1486C94.8614 39.1389 94.8865 39.1381 94.9092 39.1465C94.9319 39.1549 94.9504 39.1718 94.9609 39.1936C95.8224 40.9782 97.2404 41.6348 99.2184 41.1615C100.878 40.7666 101.315 38.4304 101.208 37.019ZM98.0718 35.8374C98.5052 35.842 98.9355 35.7514 99.3379 35.5708C99.7403 35.3903 100.107 35.1234 100.417 34.7853C100.727 34.4471 100.975 34.0445 101.145 33.6003C101.316 33.156 101.406 32.679 101.411 32.1963C101.421 31.2214 101.083 30.2828 100.471 29.587C99.8597 28.8912 99.0242 28.4951 98.1487 28.486C97.7153 28.4814 97.2851 28.572 96.8826 28.7525C96.4802 28.9331 96.1135 29.2 95.8035 29.5381C95.4934 29.8762 95.246 30.2789 95.0754 30.7231C94.9049 31.1674 94.8145 31.6444 94.8095 32.1271C94.7992 33.102 95.1372 34.0406 95.749 34.7364C96.3608 35.4322 97.1963 35.8282 98.0718 35.8374Z" fill="#1E1ED8"/>
<path d="M112.846 34.1115C113.067 34.5864 113.329 34.928 113.63 35.1346C115.508 36.421 117.296 35.8845 118.663 34.1898C118.679 34.1703 118.701 34.1575 118.726 34.1538C118.751 34.1501 118.777 34.1558 118.798 34.1698L120.754 35.5062C120.807 35.5429 120.814 35.5879 120.776 35.6395C116.668 41.2434 108.062 37.3758 109.85 30.4223C110.448 28.0944 111.869 26.663 114.11 26.1298C117.358 25.3566 120.039 27.6112 120.891 30.6039C120.899 30.6355 120.889 30.6572 120.859 30.6689L112.897 33.9782C112.834 34.0049 112.817 34.0498 112.846 34.1115ZM117.651 29.5658C115.947 27.1196 112.261 29.0092 112.349 31.697C112.352 31.822 112.412 31.862 112.529 31.8136L117.61 29.7074C117.623 29.702 117.634 29.6937 117.644 29.6831C117.653 29.6726 117.66 29.6601 117.664 29.6465C117.668 29.6329 117.669 29.6186 117.667 29.6047C117.665 29.5907 117.659 29.5774 117.651 29.5658Z" fill="#1E1ED8"/>
<path d="M91.0165 32.1489C91.0165 33.7885 90.3652 35.3609 89.2058 36.5203C88.0464 37.6796 86.474 38.3309 84.8344 38.3309C83.1948 38.3309 81.6224 37.6796 80.463 36.5203C79.3037 35.3609 78.6523 33.7885 78.6523 32.1489C78.6523 30.5093 79.3037 28.9368 80.463 27.7775C81.6224 26.6181 83.1948 25.9668 84.8344 25.9668C86.474 25.9668 88.0464 26.6181 89.2058 27.7775C90.3652 28.9368 91.0165 30.5093 91.0165 32.1489ZM84.7731 35.8294C85.6803 35.8421 86.5558 35.467 87.2069 34.7866C87.858 34.1063 88.2314 33.1764 88.2451 32.2016C88.2587 31.2268 87.9113 30.2869 87.2795 29.5886C86.6476 28.8904 85.7829 28.491 84.8757 28.4783C83.9685 28.4657 83.0931 28.8407 82.442 29.5211C81.7908 30.2014 81.4174 31.1313 81.4038 32.1061C81.3902 33.0809 81.7375 34.0209 82.3694 34.7191C83.0012 35.4174 83.8659 35.8168 84.7731 35.8294Z" fill="#1E1ED8"/>
<path d="M50.6475 75.0749L46.9066 75.0715C46.8516 75.0715 46.8232 75.0432 46.8232 74.9865V45.3676C46.8232 45.3126 46.8516 45.2843 46.9066 45.2843C49.811 45.2809 52.7137 45.2793 55.6131 45.2809C57.1945 45.2826 58.3009 45.3426 58.9358 45.4642C61.1103 45.8791 62.935 46.9822 64.4113 48.7719C67.0391 51.9579 66.9458 56.7003 64.2147 59.828C62.3734 61.9375 59.9506 62.999 56.9478 63.0123C54.8866 63.0206 52.832 63.029 50.7808 63.034C50.7258 63.034 50.6975 63.0606 50.6975 63.1156V75.0249C50.6975 75.0314 50.6962 75.0379 50.6936 75.044C50.6911 75.0501 50.6875 75.0556 50.6828 75.0602C50.6782 75.0649 50.6727 75.0685 50.6666 75.0711C50.6605 75.0736 50.654 75.0749 50.6475 75.0749ZM50.6725 49.1368L50.7258 59.2281C50.7258 59.2626 50.7395 59.2956 50.7639 59.32C50.7882 59.3444 50.8213 59.3581 50.8558 59.3581L57.0495 59.3247C58.4631 59.3175 59.816 58.7653 60.8107 57.7897C61.8054 56.8141 62.3603 55.495 62.3534 54.1225C62.35 53.4427 62.2088 52.7703 61.9377 52.1437C61.6666 51.517 61.2711 50.9484 60.7736 50.4702C60.2761 49.9921 59.6865 49.6138 59.0383 49.357C58.3902 49.1002 57.6963 48.9699 56.9962 48.9735L50.8024 49.0068C50.768 49.0068 50.7349 49.0205 50.7105 49.0449C50.6862 49.0693 50.6725 49.1023 50.6725 49.1368Z" fill="#1E1ED8"/>
<path d="M107.867 54.6976C107.897 54.6976 107.925 54.686 107.945 54.6654C107.966 54.6448 107.977 54.6168 107.977 54.5876V48.4905C107.977 48.4356 108.006 48.4072 108.061 48.4072H111.768C111.823 48.4072 111.852 48.4356 111.852 48.4905V54.621C111.852 54.6329 111.854 54.6448 111.859 54.6558C111.863 54.6668 111.87 54.6768 111.878 54.6852C111.887 54.6936 111.896 54.7002 111.907 54.7046C111.918 54.709 111.93 54.7112 111.942 54.7109L116.697 54.6593C116.711 54.6591 116.725 54.6616 116.737 54.6667C116.75 54.6718 116.762 54.6793 116.771 54.689C116.781 54.6986 116.789 54.71 116.794 54.7227C116.8 54.7353 116.802 54.7489 116.802 54.7626L116.824 58.0986C116.824 58.1552 116.796 58.1836 116.741 58.1836L111.948 58.2319C111.887 58.2319 111.857 58.2619 111.857 58.3235C111.845 61.4846 111.845 64.6423 111.855 67.7949C111.862 69.8529 111.973 71.5492 114.301 71.7741C114.851 71.8275 115.466 71.6125 116.014 71.4592C116.074 71.4425 116.114 71.4642 116.136 71.5225L117.282 74.7552C117.304 74.8185 117.284 74.8602 117.221 74.8818C113.781 76.0099 109.359 75.53 108.221 71.4675C108.061 70.901 107.981 70.0378 107.979 68.8764C107.976 65.3421 107.976 61.8128 107.979 58.2852C107.979 58.2618 107.97 58.2393 107.953 58.2228C107.937 58.2062 107.914 58.1969 107.891 58.1969H104.43C104.418 58.1969 104.406 58.1946 104.395 58.19C104.384 58.1855 104.374 58.1788 104.366 58.1704C104.357 58.1621 104.351 58.1521 104.346 58.1412C104.342 58.1303 104.34 58.1187 104.34 58.1069L104.388 54.7843C104.39 54.7259 104.418 54.6976 104.475 54.6976H107.867Z" fill="#1E1ED8"/>
<path d="M81.9414 72.2385C81.942 72.2265 81.9385 72.2146 81.9315 72.2048C81.9245 72.195 81.9143 72.1879 81.9027 72.1846C81.8911 72.1813 81.8787 72.182 81.8676 72.1867C81.8565 72.1913 81.8473 72.1996 81.8415 72.2102C80.2968 74.6563 77.9389 75.8044 75.0778 75.7411C71.4969 75.6595 67.9426 73.1933 67.611 69.3757C67.4011 66.9629 68.1959 65.06 69.9939 63.6686C73.1349 61.2391 78.2755 61.3774 81.8265 62.9071C81.8748 62.9287 81.9031 62.9121 81.9098 62.8604C82.1797 60.6675 80.94 58.8279 78.9387 57.9464C76.3543 56.8066 73.3082 57.7365 71.7269 60.1376C71.6952 60.186 71.6569 60.1943 71.6085 60.1626L68.3126 58.0681C68.2592 58.0347 68.2509 57.9914 68.2876 57.9397C69.8822 55.7185 72.0735 54.4438 74.8579 54.1122C79.5069 53.559 84.2676 55.1753 85.4141 60.1793C85.574 60.8775 85.6524 61.9789 85.6507 63.4836C85.6457 67.3245 85.6457 71.1621 85.654 74.9963C85.654 75.0446 85.6307 75.0679 85.5824 75.0679L82.0264 75.0729C81.9698 75.0729 81.9414 75.0446 81.9414 74.9863V72.2385ZM71.7085 68.1193C71.1603 70.2372 73.1466 72.0719 75.1545 72.2352C77.4307 72.4201 79.2837 71.5903 80.715 69.749C81.1799 69.1508 82.4913 66.7829 81.7481 66.2214C79.2287 64.3218 72.7117 64.2435 71.7085 68.1193Z" fill="#1E1ED8"/>
<path d="M124.296 57.3566C124.295 57.4849 124.335 57.4983 124.413 57.3966C126.504 54.6772 129.625 53.4458 132.956 54.1756C137.371 55.1454 138.664 58.5097 138.675 62.6222C138.687 66.7464 138.687 70.8722 138.675 74.998C138.675 75.048 138.65 75.073 138.6 75.073L134.891 75.0664C134.829 75.0647 134.799 75.0347 134.799 74.973C134.808 70.9455 134.814 66.923 134.816 62.9055C134.816 60.4093 133.988 58.2215 131.265 57.7016C128.876 57.2466 126.993 57.9232 125.628 59.9394C124.631 61.4141 124.486 62.7405 124.481 64.6885C124.47 68.1178 124.468 71.5454 124.48 74.973C124.48 75.0364 124.448 75.068 124.386 75.068H120.684C120.629 75.068 120.601 75.0397 120.601 74.9847V54.7805C120.601 54.7238 120.629 54.6955 120.684 54.6955L124.213 54.6988C124.282 54.6988 124.315 54.7322 124.313 54.8005L124.296 57.3566Z" fill="#1E1ED8"/>
<path d="M145.912 65.6654C146.17 72.5423 154.708 74.7169 158.103 68.5981C158.131 68.5465 158.173 68.5331 158.226 68.5598L161.519 70.1795C161.574 70.2061 161.585 70.2461 161.557 70.2994C159.98 73.1838 157.596 74.9318 154.402 75.545C151.376 76.1266 148.18 75.49 145.788 73.5171C142.622 70.9076 141.614 67.2151 142.081 63.1176C142.766 57.0971 147.725 53.2512 153.757 54.1361C159.621 54.9959 162.155 60.0299 161.888 65.4821C161.887 65.5055 161.877 65.5275 161.86 65.5436C161.844 65.5598 161.821 65.5687 161.798 65.5687L145.997 65.5754C145.938 65.5754 145.91 65.6054 145.912 65.6654ZM157.794 62.3194C157.556 59.9149 155.71 58.0519 153.357 57.6787C150.319 57.1971 148.125 58.2436 146.77 60.8197C146.547 61.2446 146.4 61.7945 146.217 62.2711C146.211 62.286 146.209 62.3021 146.211 62.3179C146.212 62.3338 146.218 62.3489 146.227 62.362C146.236 62.3752 146.248 62.3859 146.262 62.3933C146.275 62.4006 146.291 62.4045 146.307 62.4044H157.718C157.774 62.4044 157.799 62.376 157.794 62.3194Z" fill="#1E1ED8"/>
<path d="M93.7237 57.9299C94.1136 57.3101 94.5019 56.6135 94.9818 56.1286C96.6814 54.4123 99.1226 53.9508 101.464 54.1357C101.522 54.1407 101.55 54.1724 101.552 54.2307L101.587 58.1216C101.589 58.1732 101.564 58.1966 101.512 58.1916C100.997 58.1499 100.487 58.1182 99.9791 58.0949C96.5848 57.9349 93.8053 60.3511 93.812 63.8221C93.8187 67.5363 93.8187 71.2522 93.8103 74.9681C93.8087 75.0298 93.7787 75.0598 93.717 75.0615L89.9961 75.0865C89.9888 75.0867 89.9814 75.0854 89.9746 75.0828C89.9677 75.0801 89.9614 75.0761 89.9561 75.0709C89.9509 75.0658 89.9467 75.0597 89.9438 75.0529C89.9409 75.0461 89.9394 75.0388 89.9395 75.0315V54.7806C89.9395 54.7256 89.9678 54.6973 90.0228 54.6973H93.5654C93.5879 54.6973 93.6095 54.7062 93.6255 54.7222C93.6414 54.7381 93.6504 54.7597 93.6504 54.7823L93.6387 57.905C93.6387 58.0133 93.667 58.0216 93.7237 57.9299Z" fill="#1E1ED8"/>
<path d="M169.137 57.9718C169.48 57.3735 169.81 56.7553 170.271 56.2854C172.291 54.2275 175.155 53.5577 177.887 54.5341C177.919 54.5459 177.946 54.5697 177.962 54.6008C177.977 54.6318 177.98 54.6676 177.97 54.7008L176.878 58.1917C176.868 58.2249 176.845 58.2529 176.816 58.2702C176.786 58.2875 176.75 58.2928 176.717 58.285C174.927 57.8784 173.151 57.8784 171.613 59.0965C169.438 60.8162 169.222 62.6142 169.22 65.4886C169.218 68.6479 169.215 71.8073 169.213 74.9683C169.213 75.0366 169.18 75.0699 169.112 75.0699L165.444 75.0666C165.376 75.0666 165.341 75.0316 165.341 74.9633V54.8007C165.341 54.7324 165.376 54.6974 165.446 54.6974H168.927C168.959 54.6974 168.989 54.7099 169.012 54.7321C169.034 54.7543 169.047 54.7844 169.047 54.8157L169.05 57.9484C169.05 58.0651 169.078 58.0734 169.137 57.9718Z" fill="#1E1ED8"/>
</svg>
