<svg width="337" height="337" viewBox="0 0 337 337" fill="none" xmlns="http://www.w3.org/2000/svg">
<rect x="1" y="1" width="67" height="67" stroke="#E4E4EA"/>
<rect x="68" y="1" width="67" height="67" stroke="#E4E4EA"/>
<rect x="135" y="1" width="67" height="67" stroke="#E4E4EA"/>
<rect x="202" y="1" width="67" height="67" stroke="#E4E4EA"/>
<rect x="269" y="1" width="67" height="67" stroke="#E4E4EA"/>
<rect x="1" y="68" width="67" height="67" stroke="#E4E4EA"/>
<rect x="68" y="68" width="67" height="67" stroke="#E4E4EA"/>
<rect x="135" y="68" width="67" height="67" stroke="#E4E4EA"/>
<rect x="202" y="68" width="67" height="67" stroke="#E4E4EA"/>
<rect x="269" y="68" width="67" height="67" stroke="#E4E4EA"/>
<rect x="1" y="135" width="67" height="67" stroke="#E4E4EA"/>
<rect x="68" y="135" width="67" height="67" stroke="#E4E4EA"/>
<rect x="135" y="135" width="67" height="67" stroke="#E4E4EA"/>
<rect x="202" y="135" width="67" height="67" stroke="#E4E4EA"/>
<rect x="269" y="135" width="67" height="67" stroke="#E4E4EA"/>
<rect x="1" y="202" width="67" height="67" stroke="#E4E4EA"/>
<rect x="68" y="202" width="67" height="67" stroke="#E4E4EA"/>
<rect x="135" y="202" width="67" height="67" stroke="#E4E4EA"/>
<rect x="202" y="202" width="67" height="67" stroke="#E4E4EA"/>
<rect x="269" y="202" width="67" height="67" stroke="#E4E4EA"/>
<rect x="1" y="269" width="67" height="67" stroke="#E4E4EA"/>
<rect x="68" y="269" width="67" height="67" stroke="#E4E4EA"/>
<rect x="135" y="269" width="67" height="67" stroke="#E4E4EA"/>
<rect x="202" y="269" width="67" height="67" stroke="#E4E4EA"/>
<rect x="269" y="269" width="67" height="67" stroke="#E4E4EA"/>
</svg>
