<svg width="228" height="35" viewBox="0 0 228 35" fill="none" xmlns="http://www.w3.org/2000/svg">
<g clip-path="url(#clip0_43_38346)">
<path fill-rule="evenodd" clip-rule="evenodd" d="M21.9225 5.35667C26.5406 7.02799 30.127 11.3511 30.1194 16.9446C30.1194 16.9695 30.1284 16.9849 30.1469 16.9911C30.1536 16.9936 30.1616 16.9948 30.1708 16.9948L34.4515 16.9918C34.4871 16.9918 34.5044 16.9745 34.5055 16.939C34.5747 11.9152 32.1808 7.04537 28.2484 3.92317C26.7301 2.71769 25.1017 1.80889 23.3631 1.19688C21.5764 0.567736 19.6733 0.252068 17.6542 0.250012C8.209 0.238862 0.583436 8.07982 0.898071 17.4991C1.13473 24.5904 5.72582 30.4991 12.0966 32.7407C13.8397 33.3542 15.7161 33.6931 17.673 33.7066C17.7046 33.7066 17.7208 33.6904 17.7208 33.659L17.728 29.4177C17.728 29.4022 17.7221 29.3872 17.7114 29.3761C17.7047 29.3691 17.6966 29.3639 17.6876 29.3609C17.6818 29.3588 17.6757 29.3575 17.6694 29.3573C16.1744 29.3029 14.7886 29.0512 13.512 28.6022C11.3887 27.8551 9.56761 26.5621 8.04863 24.7232C3.34234 19.0232 4.84831 10.422 11.0881 6.51723C14.5323 4.36222 18.4241 4.13479 21.7869 5.30848C21.8322 5.32429 21.8774 5.34035 21.9225 5.35667ZM31.8814 34.0905C31.8879 34.0951 31.8953 34.098 31.9031 34.0991C31.9069 34.1 31.9108 34.1005 31.9147 34.1005H40.9668C40.9747 34.1005 40.9825 34.0986 40.9896 34.095C40.9939 34.0927 40.9979 34.0898 41.0014 34.0863L41.0042 34.0834L41.0071 34.0795C41.0116 34.0731 41.0145 34.0656 41.0154 34.0578C41.0164 34.0499 41.0154 34.042 41.0126 34.0346L35.3604 18.9011C35.3569 18.8918 35.3506 18.8839 35.3424 18.8783C35.3361 18.8739 35.3289 18.8712 35.3214 18.8701C35.3175 18.8692 35.3135 18.8687 35.3094 18.8687H26.3774C26.3696 18.8686 26.3618 18.8703 26.3547 18.8739C26.3477 18.8774 26.3416 18.8826 26.337 18.8889C26.3324 18.8953 26.3294 18.9027 26.3283 18.9105C26.3272 18.9182 26.328 18.9262 26.3306 18.9336L31.8637 34.0671C31.867 34.0765 31.8732 34.0847 31.8814 34.0905ZM15.5459 18.9191C15.5406 18.9192 15.5353 18.9204 15.5305 18.9229C15.5258 18.9254 15.5217 18.929 15.5186 18.9333C15.5155 18.9377 15.5135 18.9427 15.5128 18.948C15.512 18.9533 15.5126 18.9587 15.5144 18.9637L21.0454 34.1023C21.0478 34.1088 21.052 34.1144 21.0577 34.1184C21.0596 34.1198 21.0616 34.1209 21.0637 34.1218C21.0668 34.1232 21.07 34.124 21.0733 34.1244C21.0762 34.1252 21.0792 34.1256 21.0822 34.1256H30.1689C30.1717 34.1255 30.1744 34.1251 30.1771 34.1244C30.1796 34.1237 30.1821 34.1227 30.1844 34.1215C30.1891 34.1189 30.1931 34.1152 30.1961 34.1107C30.1991 34.1062 30.201 34.1011 30.2016 34.0958C30.2022 34.0904 30.2014 34.085 30.1995 34.08L24.5462 18.9414C24.5438 18.9351 24.5394 18.9297 24.5338 18.9259C24.5293 18.9228 24.5241 18.9209 24.5187 18.9203L24.5156 18.9196C24.5136 18.9193 24.5115 18.9191 24.5095 18.9191H15.5459ZM71.3353 12.3333H64.0387V8.91844H75.8558C75.954 9.40979 76.0032 9.92572 76.0032 10.4662C76.0032 15.6008 72.9322 19.4825 64.53 19.4825C56.1279 19.4825 53.0569 15.6008 53.0569 10.4662C53.0569 5.33155 56.1279 1.44984 64.53 1.44984C71.3353 1.44984 74.6274 4.00489 75.6347 7.69005H70.7702C69.9104 6.19142 67.9941 5.20871 64.53 5.20871C59.0514 5.20871 57.4791 7.37067 57.4791 10.4662C57.4791 13.5617 59.0514 15.7237 64.53 15.7237C68.8048 15.7237 70.6965 14.397 71.3353 12.3333ZM78.8415 1.8675H90.634C96.3829 1.8675 98.6677 4.34884 98.6677 8.25511C98.6677 10.9575 97.5867 12.9721 95.0071 13.9548L98.9134 19.0649H94.1226L90.7569 14.6427H83.2637V19.0649H78.8415V1.8675ZM83.2637 10.9084H90.634C93.3119 10.9084 94.2455 9.90115 94.2455 8.25511C94.2455 6.63364 93.3119 5.62636 90.634 5.62636H83.2637V10.9084ZM111.938 1.44984C120.34 1.44984 123.411 5.30698 123.411 10.4416C123.411 15.5763 120.34 19.458 111.938 19.458C103.536 19.458 100.465 15.5763 100.465 10.4416C100.465 5.30698 103.536 1.44984 111.938 1.44984ZM111.938 15.2078C117.417 15.2078 118.989 13.2423 118.989 10.4416C118.989 7.66548 117.417 5.6755 111.938 5.6755C106.459 5.6755 104.887 7.66548 104.887 10.4416C104.887 13.2423 106.459 15.2078 111.938 15.2078ZM142.671 1.8675L147.609 13.7337L152.13 1.8675H156.724L150.287 19.0649H145.177L140.19 7.10043L135.203 19.0649H130.093L123.656 1.8675H128.25L132.771 13.7337L137.709 1.8675H142.671ZM166.288 6.09315H158.082V1.8675H178.891V6.09315H170.71V19.0649H166.288V6.09315ZM185.661 8.42708H197.626V1.8675H202.048V19.0649H197.626V12.5053H185.661V19.0649H181.239V1.8675H185.661V8.42708ZM215.81 10.2205L222.64 1.8675H227.602L218.021 13.832V19.0649H213.599V13.832L204.017 1.8675H208.956L215.81 10.2205ZM56.2393 31.7723H58.8085C58.5836 32.499 57.9175 32.9661 56.4123 32.9661C54.4832 32.9661 53.9296 32.2049 53.9296 31.1149C53.9296 30.0249 54.4832 29.2637 56.4123 29.2637C57.632 29.2637 58.3068 29.6097 58.6096 30.1374H60.3224C59.9677 28.8398 58.8085 27.9401 56.4123 27.9401C53.4538 27.9401 52.3725 29.3069 52.3725 31.1149C52.3725 32.9229 53.4538 34.2897 56.4123 34.2897C59.3708 34.2897 60.4521 32.9229 60.4521 31.1149C60.4521 30.9246 60.4348 30.7429 60.4002 30.5699H56.2393V31.7723ZM65.6038 28.0872H61.4515V34.1426H63.0087V32.5855H65.6471L66.8322 34.1426H68.5191L67.1436 32.3433C68.052 31.9973 68.4326 31.2879 68.4326 30.3363C68.4326 28.9609 67.6281 28.0872 65.6038 28.0872ZM65.6038 31.2706H63.0087V29.4107H65.6038C66.5468 29.4107 66.8755 29.7654 66.8755 30.3363C66.8755 30.9159 66.5468 31.2706 65.6038 31.2706ZM77.1451 31.1063C77.1451 29.2983 76.0638 27.9401 73.1053 27.9401C70.1468 27.9401 69.0654 29.2983 69.0654 31.1063C69.0654 32.9142 70.1468 34.281 73.1053 34.281C76.0638 34.281 77.1451 32.9142 77.1451 31.1063ZM75.588 31.1063C75.588 32.0924 75.0344 32.7845 73.1053 32.7845C71.1762 32.7845 70.6226 32.0924 70.6226 31.1063C70.6226 30.1287 71.1762 29.428 73.1053 29.428C75.0344 29.428 75.588 30.1287 75.588 31.1063ZM85.6656 32.2654L83.9268 28.0872H82.1794L80.4407 32.2654L78.8489 28.0872H77.2313L79.4977 34.1426H81.2971L83.0531 29.9298L84.8092 34.1426H86.6085L88.875 28.0872H87.2573L85.6656 32.2654ZM89.3531 29.5751H92.2425V34.1426H93.7996V29.5751H96.6802V28.0872H89.3531V29.5751ZM103.277 30.3969H99.0641V28.0872H97.507V34.1426H99.0641V31.8329H103.277V34.1426H104.834V28.0872H103.277V30.3969ZM113.226 28.0872H109.385V34.1426H113.226C115.752 34.1426 116.885 32.9229 116.885 31.1149C116.885 29.3069 115.752 28.0872 113.226 28.0872ZM113.226 32.6461H110.942V29.5751H113.226C114.809 29.5751 115.328 30.1979 115.328 31.1149C115.328 32.0232 114.809 32.6461 113.226 32.6461ZM117.892 34.1426H119.449V28.0872H117.892V34.1426ZM124.329 31.7723H126.898C126.673 32.499 126.007 32.9661 124.502 32.9661C122.573 32.9661 122.019 32.2049 122.019 31.1149C122.019 30.0249 122.573 29.2637 124.502 29.2637C125.722 29.2637 126.397 29.6097 126.699 30.1374H128.412C128.057 28.8398 126.898 27.9401 124.502 27.9401C121.544 27.9401 120.462 29.3069 120.462 31.1149C120.462 32.9229 121.544 34.2897 124.502 34.2897C127.461 34.2897 128.542 32.9229 128.542 31.1149C128.542 30.9246 128.525 30.7429 128.49 30.5699H124.329V31.7723ZM129.541 34.1426H131.098V28.0872H129.541V34.1426ZM131.939 29.5751H134.828V34.1426H136.385V29.5751H139.266V28.0872H131.939V29.5751ZM139.815 34.1426L140.411 33.044H144.166L144.763 34.1426H146.441L143.24 28.0872H141.328L138.136 34.1426H139.815ZM142.289 29.601L143.448 31.7291H141.129L142.289 29.601ZM148.678 28.0872H147.121V34.1426H153.41V32.7066H148.678V28.0872ZM161.915 31.4004L158.827 28.0872H157.529V34.1426H159.086V30.3277L161.915 33.39L164.744 30.3277V34.1426H166.301V28.0872H165.003L161.915 31.4004ZM168.672 34.1426L169.269 33.044H173.024L173.621 34.1426H175.299L172.098 28.0872H170.186L166.994 34.1426H168.672ZM171.147 29.601L172.306 31.7291H169.987L171.147 29.601ZM180.132 28.0872H175.979V34.1426H177.536V32.5855H180.175L181.36 34.1426H183.047L181.671 32.3433C182.58 31.9973 182.96 31.2879 182.96 30.3363C182.96 28.9609 182.156 28.0872 180.132 28.0872ZM180.132 31.2706H177.536V29.4107H180.132C181.074 29.4107 181.403 29.7654 181.403 30.3363C181.403 30.9159 181.074 31.2706 180.132 31.2706ZM189.75 28.0872L187.657 30.3969H185.494V28.0872H183.937V34.1426H185.494V31.8329H187.657L189.75 34.1426H191.671L188.954 31.1149L191.671 28.0872H189.75ZM198.906 28.0872H192.444V34.1426H198.906V32.8277H194.001V31.7204H198.673V30.518H194.001V29.4107H198.906V28.0872ZM199.48 29.5751H202.369V34.1426H203.926V29.5751H206.807V28.0872H199.48V29.5751ZM207.633 34.1426H209.19V28.0872H207.633V34.1426ZM216.233 31.9886L211.761 28.0872H210.463V34.1426H212.021V30.2325L216.493 34.1426H217.79V28.0872H216.233V31.9886ZM222.662 31.7723H225.231C225.007 32.499 224.34 32.9661 222.835 32.9661C220.906 32.9661 220.352 32.2049 220.352 31.1149C220.352 30.0249 220.906 29.2637 222.835 29.2637C224.055 29.2637 224.73 29.6097 225.032 30.1374H226.745C226.391 28.8398 225.231 27.9401 222.835 27.9401C219.877 27.9401 218.795 29.3069 218.795 31.1149C218.795 32.9229 219.877 34.2897 222.835 34.2897C225.794 34.2897 226.875 32.9229 226.875 31.1149C226.875 30.9246 226.858 30.7429 226.823 30.5699H222.662V31.7723Z" fill="white"/>
</g>
<defs>
<clipPath id="clip0_43_38346">
<rect width="228" height="35" fill="white"/>
</clipPath>
</defs>
</svg>
