<svg width="143" height="100" viewBox="0 0 143 100" fill="none" xmlns="http://www.w3.org/2000/svg">
<path d="M111.277 0.205378L142.975 99.0937C142.991 99.1419 142.996 99.1938 142.991 99.245C142.985 99.2961 142.969 99.3449 142.944 99.3873C142.919 99.4297 142.885 99.4643 142.845 99.4881C142.806 99.512 142.762 99.5244 142.718 99.5243H91.953C91.8965 99.5239 91.8416 99.5034 91.7956 99.4655C91.7496 99.4275 91.7148 99.374 91.696 99.3123L60.6661 0.423968C60.6513 0.375616 60.6469 0.32384 60.6531 0.273067C60.6594 0.222293 60.6761 0.174029 60.7019 0.132383C60.7277 0.0907372 60.7618 0.056953 60.8013 0.033908C60.8408 0.0108631 60.8845 -0.000759876 60.9288 3.85217e-05H111.02C111.076 -0.000111302 111.13 0.0194653 111.176 0.0561542C111.222 0.092843 111.257 0.144898 111.277 0.205378Z" fill="#00000E"/>
<path d="M0.187801 0.330085H50.4558C50.494 0.329738 50.5314 0.342854 50.563 0.367694C50.5946 0.392535 50.619 0.427932 50.6329 0.469191L82.3366 99.3906C82.3476 99.4234 82.3517 99.4588 82.3484 99.4937C82.3452 99.5287 82.3347 99.5622 82.3179 99.5914C82.3011 99.6207 82.2784 99.6448 82.2519 99.6618C82.2253 99.6787 82.1956 99.6879 82.1653 99.6887H31.2063C31.1675 99.6886 31.1296 99.6745 31.0979 99.6484C31.0662 99.6223 31.0422 99.5855 31.0293 99.543L0.0107819 0.621538C0.000750854 0.588628 -0.00234505 0.553408 0.00176366 0.518828C0.00587238 0.484248 0.0170629 0.451315 0.0343949 0.422779C0.0517268 0.394243 0.0747023 0.370933 0.101391 0.354807C0.12808 0.338681 0.157708 0.330204 0.187801 0.330085Z" fill="#00000E"/>
</svg>
