<svg width="44" height="30" viewBox="0 0 44 30" fill="none" xmlns="http://www.w3.org/2000/svg">
<path d="M33.4871 0.0618052L43.0261 29.8206C43.0309 29.8351 43.0325 29.8508 43.0309 29.8662C43.0293 29.8815 43.0244 29.8962 43.0168 29.909C43.0092 29.9217 42.999 29.9322 42.9872 29.9393C42.9753 29.9465 42.9622 29.9502 42.9488 29.9502H27.672C27.655 29.9501 27.6384 29.9439 27.6246 29.9325C27.6108 29.9211 27.6003 29.905 27.5946 29.8864L18.2567 0.127586C18.2522 0.113036 18.2509 0.0974545 18.2528 0.0821749C18.2547 0.0668954 18.2597 0.0523713 18.2675 0.0398386C18.2752 0.0273059 18.2855 0.0171391 18.2974 0.0102041C18.3093 0.00326907 18.3224 -0.000228672 18.3357 1.15925e-05H33.4098C33.4266 -3.34945e-05 33.443 0.00585776 33.4568 0.0168987C33.4706 0.0279396 33.4812 0.0436046 33.4871 0.0618052Z" fill="#4F4FE1"/>
<path d="M0.0565156 0.0996114H15.1839C15.1954 0.0995069 15.2066 0.103454 15.2161 0.110929C15.2256 0.118405 15.233 0.129057 15.2371 0.141473L24.7779 29.9103C24.7812 29.9201 24.7824 29.9308 24.7814 29.9413C24.7804 29.9518 24.7773 29.9619 24.7722 29.9707C24.7672 29.9795 24.7604 29.9868 24.7524 29.9919C24.7444 29.997 24.7354 29.9997 24.7263 30H9.39103C9.37934 29.9999 9.36795 29.9957 9.35841 29.9878C9.34887 29.98 9.34166 29.9689 9.33776 29.9561L0.00324464 0.18732C0.000225957 0.177416 -0.000705705 0.166817 0.000530746 0.156411C0.0017672 0.146004 0.00513481 0.136094 0.0103506 0.127506C0.0155663 0.118919 0.0224804 0.111904 0.030512 0.107051C0.0385436 0.102198 0.0474598 0.0996473 0.0565156 0.0996114Z" fill="#4F4FE1"/>
</svg>
