<svg width="139" height="83" viewBox="0 0 139 83" fill="none" xmlns="http://www.w3.org/2000/svg">
<path d="M107.71 0.169093L138.119 81.5862C138.134 81.6259 138.139 81.6686 138.134 81.7107C138.129 81.7529 138.114 81.7931 138.089 81.8279C138.065 81.8628 138.033 81.8913 137.995 81.911C137.957 81.9306 137.915 81.9408 137.872 81.9407H89.1728C89.1186 81.9404 89.0659 81.9235 89.0218 81.8923C88.9777 81.8611 88.9443 81.817 88.9262 81.7662L59.1586 0.349063C59.1445 0.309254 59.1402 0.266626 59.1462 0.224822C59.1522 0.183019 59.1682 0.143283 59.193 0.108994C59.2177 0.0747061 59.2504 0.0468907 59.2883 0.0279173C59.3262 0.00894385 59.3682 -0.000625624 59.4106 3.17158e-05H107.464C107.517 -9.16376e-05 107.57 0.0160262 107.614 0.0462331C107.658 0.0764399 107.691 0.119298 107.71 0.169093Z" fill="white"/>
<path d="M1.1411 0.273443H49.3642C49.4009 0.273157 49.4367 0.283956 49.467 0.304408C49.4974 0.324859 49.5207 0.354003 49.534 0.387973L79.9481 81.8324C79.9587 81.8593 79.9626 81.8885 79.9594 81.9172C79.9563 81.946 79.9463 81.9736 79.9301 81.9977C79.914 82.0218 79.8923 82.0416 79.8668 82.0556C79.8413 82.0695 79.8128 82.0771 79.7838 82.0778H30.8978C30.8605 82.0777 30.8242 82.0661 30.7938 82.0446C30.7634 82.0231 30.7404 81.9928 30.728 81.9578L0.971281 0.513404C0.961658 0.486308 0.958688 0.457311 0.962629 0.42884C0.966571 0.400369 0.977306 0.373254 0.993933 0.34976C1.01056 0.326266 1.0326 0.307075 1.0582 0.293798C1.08381 0.280521 1.11223 0.273541 1.1411 0.273443Z" fill="white"/>
</svg>
