<svg width="299" height="85" viewBox="0 0 299 85" fill="none" xmlns="http://www.w3.org/2000/svg">
<path d="M159.38 18.7401C176.422 12.9384 195.429 23.9296 189.584 43.6482C189.293 44.6164 189.001 45.6058 188.702 46.6167C188.638 46.8445 188.652 47.0652 188.744 47.2858C190.745 51.8774 191.186 56.533 190.076 61.2597C186.851 74.9845 172.008 78.793 160.049 75.2265C147.684 71.5533 143.705 58.3411 148.254 47.1577C148.346 46.937 148.339 46.7163 148.246 46.4957C143.662 35.5686 147.478 22.7906 159.38 18.7401ZM178.728 38.1455C180.067 23.0896 157.814 21.7086 158.305 38.0886C158.306 38.1256 158.316 38.1617 158.334 38.1942C158.352 38.2267 158.378 38.2547 158.409 38.276C158.44 38.2974 158.475 38.3114 158.513 38.3172C158.55 38.3229 158.589 38.3202 158.625 38.3092C165.239 36.1808 171.845 36.1879 178.451 38.3306C178.481 38.3403 178.514 38.3431 178.545 38.3386C178.577 38.3341 178.608 38.3226 178.634 38.3048C178.661 38.287 178.683 38.2635 178.699 38.2359C178.716 38.2083 178.726 38.1774 178.728 38.1455ZM173.119 46.8402C173.119 46.7402 173 46.6405 172.769 46.5469C172.537 46.4533 172.197 46.3675 171.769 46.2945C171.34 46.2215 170.831 46.1628 170.271 46.1216C169.71 46.0803 169.11 46.0575 168.503 46.0543C167.278 46.0479 166.102 46.122 165.235 46.2603C164.368 46.3986 163.88 46.5898 163.879 46.7918C163.879 46.8918 163.997 46.9915 164.229 47.0851C164.461 47.1788 164.801 47.2645 165.229 47.3375C165.658 47.4105 166.167 47.4693 166.727 47.5105C167.288 47.5517 167.888 47.5745 168.495 47.5777C169.72 47.5841 170.896 47.51 171.763 47.3717C172.63 47.2334 173.118 47.0422 173.119 46.8402ZM158.398 55.6431C156.817 71.0052 179.732 71.5177 178.736 55.5364C178.733 55.5017 178.722 55.4681 178.705 55.4381C178.687 55.408 178.664 55.3821 178.635 55.3624C178.606 55.3426 178.574 55.3295 178.539 55.3239C178.505 55.3182 178.47 55.3203 178.437 55.3299C171.887 57.3302 165.324 57.3587 158.754 55.4011C158.54 55.337 158.419 55.4225 158.398 55.6431Z" fill="#000010"/>
<path d="M123.367 30.2077C126.492 26.3067 129.603 22.4057 132.92 18.9033C132.976 18.8428 133.044 18.7944 133.12 18.7614C133.196 18.7283 133.278 18.7112 133.361 18.7111H145.933C146.217 18.7111 146.267 18.8179 146.082 19.0385L128.606 39.704C128.435 39.9104 128.35 40.1453 128.35 40.4087L128.3 46.4809C128.301 46.5461 128.322 46.6093 128.361 46.6618C128.399 46.7142 128.453 46.7534 128.515 46.7738C128.577 46.7941 128.644 46.7947 128.706 46.7754C128.768 46.7561 128.823 46.7178 128.862 46.666L132.507 41.6474C132.664 41.4267 132.877 41.3199 133.14 41.3199L145.434 41.2914C145.501 41.2925 145.566 41.3119 145.622 41.3476C145.679 41.3832 145.724 41.4336 145.753 41.493C145.782 41.5524 145.793 41.6183 145.786 41.6834C145.779 41.7485 145.753 41.81 145.712 41.8609L128.549 63.0389C128.397 63.2276 128.314 63.4637 128.314 63.708V74.5853C128.314 74.8202 128.2 74.9341 127.965 74.9341L117.294 74.9769C117.223 74.9778 117.152 74.9643 117.085 74.9372C117.019 74.9101 116.958 74.8698 116.907 74.8188C116.856 74.7678 116.816 74.7071 116.788 74.6401C116.76 74.5732 116.746 74.5013 116.746 74.4287V63.5728C116.746 63.3146 116.658 63.0657 116.497 62.868C110.702 55.8063 104.915 48.7375 99.1347 41.6687C99.1096 41.6363 99.094 41.5976 99.0896 41.5568C99.0853 41.5161 99.0924 41.4749 99.1101 41.4379C99.1278 41.401 99.1555 41.3697 99.19 41.3476C99.2246 41.3255 99.2646 41.3134 99.3056 41.3128H112.311C112.56 41.3128 112.76 41.4196 112.902 41.626L116.326 46.5663C116.358 46.6111 116.403 46.6449 116.455 46.6628C116.507 46.6808 116.563 46.6818 116.615 46.6658C116.667 46.6499 116.712 46.6177 116.744 46.5741C116.775 46.5305 116.791 46.4779 116.789 46.424L116.725 40.2379C116.725 40.0082 116.644 39.7863 116.497 39.6114L99.3056 19.0314C99.28 19.0002 99.2639 18.9625 99.2589 18.9225C99.2539 18.8825 99.2604 18.8419 99.2775 18.8054C99.2946 18.7689 99.3217 18.7381 99.3556 18.7163C99.3896 18.6946 99.429 18.6829 99.4693 18.6826L112.568 18.7253C112.774 18.7253 112.938 18.8036 113.073 18.9602L122.519 30.2148C122.571 30.277 122.636 30.3269 122.71 30.3609C122.784 30.3949 122.864 30.4122 122.945 30.4115C123.026 30.4108 123.106 30.3922 123.179 30.3569C123.251 30.3217 123.316 30.2707 123.367 30.2077Z" fill="#000010"/>
<path d="M29.415 68.3777L26.4821 74.7703C26.4548 74.8282 26.4115 74.8772 26.3572 74.9113C26.3029 74.9453 26.24 74.9631 26.176 74.9625L14.836 74.9838C14.7784 74.985 14.7215 74.9713 14.6707 74.944C14.62 74.9167 14.5772 74.8768 14.5464 74.8281C14.5156 74.7794 14.4979 74.7236 14.495 74.6661C14.4921 74.6086 14.5041 74.5513 14.5299 74.4998L24.1543 54.9235C24.1797 54.8725 24.1918 54.8159 24.1892 54.7589C24.1866 54.702 24.1696 54.6467 24.1396 54.5982C24.1097 54.5497 24.0678 54.5097 24.0181 54.4819C23.9683 54.4541 23.9123 54.4395 23.8553 54.4394L14.8004 54.5035C14.7428 54.5047 14.6859 54.4909 14.6351 54.4637C14.5844 54.4364 14.5416 54.3965 14.5108 54.3478C14.48 54.2991 14.4623 54.2433 14.4594 54.1858C14.4565 54.1282 14.4685 54.0709 14.4943 54.0194L31.7072 18.896C31.7349 18.8405 31.7776 18.7937 31.8304 18.761C31.8832 18.7283 31.944 18.711 32.0061 18.7109H44.6631C44.7252 18.711 44.7861 18.7283 44.8389 18.761C44.8917 18.7937 44.9343 18.8405 44.9621 18.896L62.1465 54.0123C62.1722 54.0638 62.1842 54.1211 62.1813 54.1786C62.1785 54.2362 62.1608 54.292 62.13 54.3407C62.0992 54.3894 62.0564 54.4293 62.0056 54.4565C61.9549 54.4838 61.898 54.4975 61.8404 54.4964L52.8709 54.4465C52.8133 54.4454 52.7564 54.4591 52.7056 54.4864C52.6549 54.5136 52.6121 54.5535 52.5813 54.6022C52.5505 54.6509 52.5328 54.7067 52.5299 54.7642C52.527 54.8218 52.539 54.8791 52.5648 54.9306L62.1038 74.5211C62.1279 74.5724 62.1386 74.6289 62.1349 74.6854C62.1312 74.7419 62.1132 74.7966 62.0826 74.8442C62.052 74.8919 62.0098 74.931 61.96 74.9579C61.9101 74.9848 61.8543 74.9986 61.7977 74.9981L49.9807 74.9198C49.9179 74.919 49.8565 74.9006 49.8036 74.8666C49.7507 74.8326 49.7085 74.7844 49.6817 74.7276L46.8058 68.3848C46.7801 68.3266 46.7383 68.2769 46.6853 68.2416C46.6324 68.2063 46.5704 68.1869 46.5068 68.1855H29.7211C29.657 68.1849 29.5941 68.2027 29.5398 68.2367C29.4856 68.2708 29.4422 68.3197 29.415 68.3777ZM33.5651 38.8709C33.5496 38.9045 33.5428 38.9414 33.5453 38.9783C33.5477 39.0151 33.5594 39.0508 33.5793 39.082C33.5991 39.1131 33.6265 39.1388 33.6588 39.1567C33.6912 39.1745 33.7275 39.184 33.7644 39.1842L42.4919 39.1699C42.5289 39.1698 42.5652 39.1603 42.5975 39.1424C42.6299 39.1246 42.6572 39.0989 42.6771 39.0677C42.6969 39.0365 42.7086 39.0009 42.7111 38.964C42.7135 38.9271 42.7067 38.8902 42.6912 38.8567L38.3133 29.5384C38.2963 29.4987 38.268 29.4648 38.2319 29.441C38.1958 29.4172 38.1536 29.4045 38.1104 29.4045C38.0672 29.4045 38.0249 29.4172 37.9888 29.441C37.9528 29.4648 37.9245 29.4987 37.9075 29.5384L33.5651 38.8709ZM33.6505 59.4367C33.635 59.4702 33.6282 59.5071 33.6307 59.544C33.6332 59.5809 33.6449 59.6165 33.6647 59.6477C33.6845 59.6789 33.7119 59.7046 33.7442 59.7224C33.7766 59.7403 33.8129 59.7498 33.8499 59.7499L42.5275 59.7214C42.5644 59.7213 42.6008 59.7118 42.6331 59.694C42.6655 59.6761 42.6928 59.6504 42.7127 59.6193C42.7325 59.5881 42.7442 59.5524 42.7467 59.5155C42.7491 59.4787 42.7423 59.4418 42.7268 59.4082L38.356 50.1042C38.3381 50.0665 38.3098 50.0346 38.2745 50.0123C38.2393 49.99 38.1984 49.9782 38.1566 49.9782C38.1149 49.9782 38.074 49.99 38.0387 50.0123C38.0035 50.0346 37.9752 50.0665 37.9573 50.1042L33.6505 59.4367Z" fill="#000010"/>
<path d="M78.2206 45.2279H99.7474C99.8663 45.2279 99.9804 45.2751 100.065 45.3592C100.149 45.4433 100.196 45.5574 100.196 45.6764V54.0337C100.196 54.1526 100.149 54.2667 100.065 54.3508C99.9804 54.4349 99.8663 54.4821 99.7474 54.4821H78.2206C78.1017 54.4821 77.9876 54.5294 77.9035 54.6135C77.8194 54.6976 77.7721 54.8117 77.7721 54.9306V65.2455C77.7721 65.3645 77.8194 65.4785 77.9035 65.5626C77.9876 65.6467 78.1017 65.694 78.2206 65.694H99.7474C99.8663 65.694 99.9804 65.7412 100.065 65.8253C100.149 65.9095 100.196 66.0235 100.196 66.1425V74.514C100.196 74.6329 100.149 74.747 100.065 74.8311C99.9804 74.9152 99.8663 74.9625 99.7474 74.9625H66.6528C66.5339 74.9625 66.4198 74.9152 66.3357 74.8311C66.2516 74.747 66.2043 74.6329 66.2043 74.514L66.2471 19.1594C66.2471 19.0405 66.2943 18.9264 66.3784 18.8423C66.4625 18.7582 66.5766 18.7109 66.6955 18.7109H77.3237C77.4426 18.7109 77.5567 18.7582 77.6408 18.8423C77.7249 18.9264 77.7721 19.0405 77.7721 19.1594V44.7794C77.7721 44.8383 77.7837 44.8966 77.8063 44.951C77.8288 45.0054 77.8619 45.0549 77.9035 45.0965C77.9451 45.1382 77.9946 45.1712 78.049 45.1938C78.1034 45.2163 78.1617 45.2279 78.2206 45.2279Z" fill="#000010"/>
<path d="M224.131 34.1655L224.032 18.9316C224.032 18.8731 224.055 18.817 224.096 18.7756C224.138 18.7342 224.194 18.7109 224.252 18.7109H234.873C234.932 18.7109 234.988 18.7342 235.029 18.7756C235.071 18.817 235.094 18.8731 235.094 18.9316V74.756C235.094 74.8146 235.071 74.8707 235.029 74.9121C234.988 74.9535 234.932 74.9767 234.873 74.9767L223.669 74.934C223.639 74.9342 223.611 74.9286 223.584 74.9176C223.557 74.9066 223.533 74.8904 223.512 74.8699L207.175 58.1909C207.144 58.1599 207.104 58.1386 207.061 58.13C207.018 58.1214 206.974 58.1258 206.933 58.1426C206.893 58.1594 206.858 58.1879 206.834 58.2244C206.81 58.2609 206.797 58.3037 206.797 58.3476V74.7631C206.797 74.8217 206.774 74.8778 206.733 74.9192C206.691 74.9606 206.635 74.9838 206.577 74.9838H196.162C196.104 74.9838 196.047 74.9606 196.006 74.9192C195.965 74.8778 195.941 74.8217 195.941 74.7631V18.9316C195.941 18.8731 195.965 18.817 196.006 18.7756C196.047 18.7342 196.104 18.7109 196.162 18.7109H208.143C208.172 18.7108 208.201 18.7164 208.227 18.7274C208.254 18.7384 208.279 18.7546 208.299 18.775L223.761 34.3221C223.792 34.3509 223.831 34.37 223.873 34.3773C223.915 34.3845 223.958 34.3796 223.997 34.3631C224.036 34.3466 224.069 34.3192 224.093 34.2841C224.117 34.2491 224.13 34.2079 224.131 34.1655ZM223.996 50.752C223.996 50.6935 223.973 50.6374 223.932 50.5954L207.189 33.8167C207.157 33.7842 207.117 33.7618 207.073 33.7523C207.029 33.7429 206.983 33.7468 206.941 33.7636C206.899 33.7804 206.862 33.8093 206.837 33.8466C206.811 33.884 206.798 33.9281 206.797 33.9733V41.5262C206.798 41.5847 206.821 41.6408 206.861 41.6828L223.818 58.6038C223.85 58.6368 223.891 58.6594 223.936 58.6686C223.981 58.6779 224.027 58.6734 224.07 58.6557C224.112 58.638 224.148 58.6079 224.173 58.5695C224.198 58.531 224.211 58.4859 224.21 58.4401L223.996 50.752Z" fill="#000010"/>
<path d="M248.562 54.4252L239.372 54.5106C239.324 54.5116 239.276 54.5002 239.233 54.4775C239.19 54.4548 239.154 54.4216 239.127 54.3809C239.101 54.3403 239.086 54.2937 239.082 54.2453C239.079 54.197 239.088 54.1487 239.109 54.1048L256.35 18.8676C256.374 18.8202 256.41 18.7804 256.456 18.7527C256.501 18.725 256.553 18.7106 256.606 18.7109H269.327C269.38 18.7106 269.432 18.725 269.478 18.7527C269.523 18.7804 269.56 18.8202 269.583 18.8676L286.846 54.0692C286.868 54.1128 286.879 54.1613 286.876 54.21C286.874 54.2587 286.86 54.3061 286.834 54.3476C286.808 54.389 286.772 54.4231 286.729 54.4467C286.687 54.4703 286.639 54.4825 286.59 54.4821H277.371C277.323 54.4818 277.274 54.494 277.232 54.5176C277.189 54.5411 277.153 54.5753 277.127 54.6167C277.102 54.6582 277.087 54.7055 277.085 54.7542C277.083 54.803 277.093 54.8514 277.115 54.895L286.832 74.6065C286.854 74.6501 286.864 74.6986 286.862 74.7473C286.86 74.796 286.845 74.8434 286.82 74.8848C286.794 74.9263 286.758 74.9604 286.715 74.984C286.673 75.0076 286.624 75.0198 286.576 75.0194L274.595 74.9269C274.54 74.926 274.487 74.9094 274.442 74.8791C274.396 74.8488 274.361 74.8061 274.339 74.756L271.491 68.3564C271.469 68.3052 271.432 68.2617 271.385 68.2314C271.338 68.201 271.284 68.185 271.228 68.1855H254.307C254.251 68.185 254.196 68.201 254.149 68.2314C254.103 68.2617 254.066 68.3052 254.043 68.3564L251.153 74.8343C251.131 74.8855 251.094 74.929 251.047 74.9593C251 74.9897 250.946 75.0056 250.89 75.0052L239.436 74.9482C239.388 74.948 239.341 74.9357 239.299 74.9125C239.258 74.8893 239.222 74.856 239.197 74.8155C239.171 74.7751 239.156 74.7289 239.153 74.6812C239.15 74.6334 239.159 74.5857 239.18 74.5425L248.826 54.8309C248.846 54.7871 248.855 54.7388 248.852 54.6904C248.849 54.6421 248.833 54.5955 248.807 54.5548C248.78 54.5142 248.744 54.481 248.701 54.4583C248.658 54.4356 248.611 54.4242 248.562 54.4252ZM258.286 38.814C258.268 38.8512 258.259 38.8924 258.262 38.9337C258.264 38.9751 258.277 39.0152 258.299 39.0502C258.321 39.0852 258.352 39.1139 258.388 39.1336C258.425 39.1534 258.465 39.1634 258.507 39.1628L266.999 39.1913C267.04 39.1913 267.08 39.1812 267.115 39.1618C267.151 39.1425 267.181 39.1145 267.203 39.0806C267.225 39.0466 267.238 39.0076 267.241 38.9673C267.244 38.9269 267.237 38.8865 267.22 38.8496L263.006 29.5242C262.987 29.4813 262.957 29.4448 262.918 29.4188C262.879 29.3929 262.834 29.3787 262.787 29.3779C262.741 29.3772 262.695 29.3899 262.655 29.4146C262.616 29.4393 262.584 29.4748 262.564 29.517L258.286 38.814ZM258.293 59.3726C258.278 59.4062 258.271 59.4431 258.273 59.48C258.276 59.5168 258.288 59.5525 258.307 59.5837C258.327 59.6148 258.355 59.6405 258.387 59.6584C258.419 59.6762 258.456 59.6857 258.493 59.6859L267.056 59.7286C267.093 59.7291 267.129 59.7204 267.162 59.7034C267.194 59.6865 267.222 59.6617 267.242 59.6313C267.263 59.6009 267.275 59.5659 267.279 59.5295C267.283 59.493 267.277 59.4562 267.263 59.4225L263.027 50.1042C263.011 50.0641 262.983 50.0298 262.948 50.0053C262.912 49.9809 262.87 49.9675 262.827 49.9667C262.783 49.9659 262.741 49.9779 262.704 50.0011C262.668 50.0242 262.639 50.0576 262.621 50.097L258.293 59.3726Z" fill="#000010"/>
</svg>
