<svg width="271" height="59" viewBox="0 0 271 59" fill="none" xmlns="http://www.w3.org/2000/svg">
<g clip-path="url(#clip0_0_2356)">
<path d="M-0.000244141 10.774V5.92518C0.177623 4.88118 1.14429 4.33985 2.90749 4.30118C6.00082 4.23158 9.61229 4.23931 13.7342 4.33211C14.5539 4.35531 14.9715 4.77291 14.9947 5.59265L15.219 16.0249C15.2218 16.1324 15.2503 16.2377 15.3022 16.3319C15.3541 16.4261 15.4279 16.5065 15.5172 16.5664C15.6066 16.6262 15.709 16.6637 15.8159 16.6758C15.9228 16.6879 16.031 16.6742 16.1315 16.6358C33.516 9.97745 41.2571 35.6057 26.8267 43.2463C21.3128 46.1694 16.7347 43.8649 12.087 40.4777C12.0009 40.4168 11.9024 40.3758 11.7987 40.3577C11.695 40.3396 11.5887 40.3448 11.4878 40.373C11.3868 40.4012 11.2937 40.4517 11.2154 40.5207C11.1371 40.5897 11.0755 40.6754 11.0352 40.7716L9.81336 43.6484C9.75508 43.7863 9.66719 43.9092 9.55612 44.0082C9.44506 44.1073 9.31364 44.1798 9.17149 44.2206C7.81816 44.6228 6.49576 44.5145 5.21202 43.8959C5.09429 43.8378 4.99586 43.7477 4.92862 43.6366C4.86138 43.5254 4.8282 43.3979 4.83309 43.2694C5.14242 33.7884 4.63976 23.8897 4.61656 14.3468C4.60882 11.1606 0.804022 13.8596 -0.000244141 10.774ZM18.8823 36.3558C19.8524 36.3608 20.7863 35.6984 21.4785 34.5143C22.1707 33.3301 22.5645 31.7212 22.5733 30.0414C22.5821 28.3617 22.2051 26.7487 21.5254 25.5573C20.8457 24.366 19.9188 23.6938 18.9487 23.6887C17.9786 23.6837 17.0447 24.3461 16.3525 25.5302C15.6603 26.7144 15.2665 28.3233 15.2577 30.0031C15.2489 31.6828 15.6258 33.2958 16.3056 34.4871C16.9853 35.6785 17.9122 36.3507 18.8823 36.3558Z" fill="black"/>
<path d="M79.9549 16.0104C79.9625 16.1252 79.9972 16.2365 80.0562 16.3354C80.1153 16.4342 80.197 16.5179 80.2948 16.5796C80.3926 16.6413 80.5037 16.6793 80.6193 16.6906C80.7349 16.7018 80.8517 16.6861 80.9602 16.6445C89.9541 13.149 98.2519 19.0573 99.0717 28.4688C100.139 40.8885 87.3711 50.2149 77.1399 40.5173C77.0458 40.4271 76.9319 40.3601 76.8073 40.3219C76.6827 40.2836 76.5508 40.275 76.4223 40.2968C76.2938 40.3186 76.1722 40.3701 76.0671 40.4474C75.9621 40.5246 75.8766 40.6254 75.8175 40.7416C75.1138 42.1026 74.7194 44.3376 72.7165 44.5309C70.6362 44.7397 69.5845 43.8117 69.5613 41.7469C69.453 32.4437 69.3911 23.1096 69.3834 13.729C69.3834 13.5267 69.3361 13.3271 69.2454 13.1463C69.1546 12.9654 69.0229 12.8083 68.8606 12.6873C68.6984 12.5664 68.5101 12.485 68.3109 12.4497C68.1117 12.4144 67.9069 12.4261 67.713 12.484C63.9469 13.613 64.6893 7.70476 64.8362 5.97249C64.8746 5.51066 65.0845 5.07971 65.4248 4.76372C65.7651 4.44773 66.2114 4.26936 66.6767 4.26342C70.1645 4.22476 73.6599 4.23249 77.1554 4.28662C79.0965 4.31756 80.0167 5.26876 79.9162 7.14022C79.7461 10.2181 79.7615 13.1722 79.9549 16.0104ZM83.6857 36.3568C84.1681 36.3559 84.6454 36.1913 85.0905 35.8722C85.5357 35.5531 85.9398 35.0859 86.2799 34.4972C86.6199 33.9084 86.8893 33.2097 87.0726 32.441C87.2558 31.6722 87.3494 30.8485 87.3479 30.0167C87.3465 29.185 87.25 28.3616 87.0641 27.5935C86.8781 26.8254 86.6063 26.1276 86.2642 25.5401C85.9221 24.9526 85.5163 24.4867 85.0701 24.1692C84.6239 23.8517 84.1459 23.6887 83.6635 23.6896C83.1812 23.6904 82.7038 23.8551 82.2587 24.1741C81.8135 24.4932 81.4094 24.9604 81.0693 25.5492C80.7293 26.1379 80.4599 26.8366 80.2767 27.6053C80.0934 28.3741 79.9998 29.1978 80.0013 30.0296C80.0027 30.8613 80.0992 31.6847 80.2851 32.4529C80.4711 33.221 80.7429 33.9187 81.085 34.5062C81.4271 35.0938 81.8329 35.5596 82.2791 35.8771C82.7253 36.1946 83.2033 36.3576 83.6857 36.3568Z" fill="black"/>
<path d="M51.511 40.6021C50.1267 42.1256 48.8584 43.5717 46.9251 44.2445C33.7475 48.8459 29.6875 28.4376 43.1358 27.0997C43.9787 27.0147 45.9971 26.9141 49.1832 26.8136C49.4205 26.8085 49.6518 26.7332 49.8483 26.5971C51.9363 25.1432 52.5704 22.2123 50.4747 20.6192C49.0672 19.552 46.9251 19.9 45.1464 19.9077C44.8603 19.9077 44.6206 20.0005 44.4118 20.1939C43.5456 20.9904 43.1976 22.0421 43.3755 23.3491C43.4142 23.6197 43.3678 23.8827 43.2518 24.1301C39.3078 32.3584 29.8654 21.5781 39.6403 16.6829C40.9627 16.0256 42.9888 15.6853 45.7187 15.6621C51.4491 15.608 58.8267 14.332 61.7731 20.9595C63.3352 24.4549 62.5542 30.8504 62.8558 35.2352C62.8652 35.378 62.9055 35.5165 62.9736 35.6408C63.0418 35.7651 63.1362 35.8722 63.2502 35.9544C64.2555 36.7045 65.4 36.9443 66.676 36.6813C66.9467 36.6272 67.1787 36.6891 67.3875 36.8669C68.7331 38.0347 68.8104 39.388 67.6118 40.9269C62.7166 47.2451 57.0867 45.3349 52.2534 40.5789C52.2046 40.5303 52.1463 40.4922 52.0821 40.467C52.0178 40.4417 51.9489 40.4298 51.8796 40.432C51.8102 40.4342 51.7418 40.4504 51.6785 40.4796C51.6151 40.5088 51.5581 40.5505 51.511 40.6021ZM46.4456 33.5261C44.2107 37.5552 50.436 38.8853 51.6579 33.4488C51.6949 33.2812 51.6883 33.107 51.6389 32.9427C51.5895 32.7783 51.4989 32.6294 51.3756 32.51C51.2523 32.3906 51.1006 32.3048 50.9348 32.2606C50.7689 32.2165 50.5946 32.2155 50.4283 32.2579L46.9483 33.1472C46.8435 33.1715 46.7447 33.2178 46.6581 33.283C46.5716 33.3482 46.4992 33.431 46.4456 33.5261Z" fill="black"/>
<path d="M130.802 24.6089C127.608 31.3524 124.406 38.0958 121.205 44.8393C119.836 47.7161 118.653 50.3686 115.954 52.0158C110.316 55.4649 101.222 53.2918 99.9766 45.8214C98.6851 38.0494 110.324 36.6497 110.625 44.2206C110.641 44.646 110.811 44.7156 111.128 44.4294C112.072 43.5942 112.234 42.4884 111.615 41.1196C108.112 33.3244 105.614 27.826 104.114 24.6321C103.998 24.3769 103.805 24.2377 103.534 24.199C101.516 23.9438 99.0254 24.7713 98.7083 21.7862C98.5459 20.2164 98.6078 18.7548 98.9094 17.4092C98.9956 17.0207 99.2113 16.6733 99.5206 16.4245C99.83 16.1756 100.215 16.0401 100.611 16.0404C106.241 16.0326 111.886 16.0404 117.547 16.079C121.042 16.0945 120.857 24.5316 117.322 24.1062C117.19 24.0902 117.056 24.1101 116.934 24.1638C116.812 24.2175 116.707 24.303 116.63 24.4113C116.552 24.5197 116.505 24.6469 116.494 24.7796C116.482 24.9124 116.507 25.0457 116.565 25.1657L119.41 31.1822C119.475 31.3182 119.576 31.4331 119.703 31.5132C119.831 31.5934 119.978 31.6356 120.128 31.6348C120.279 31.634 120.426 31.5902 120.552 31.5087C120.678 31.4271 120.779 31.3112 120.841 31.1745L123.695 25.0884C123.747 24.9771 123.77 24.8543 123.76 24.7317C123.751 24.6092 123.71 24.4911 123.641 24.3891C123.573 24.2871 123.479 24.2046 123.369 24.1496C123.259 24.0946 123.137 24.069 123.014 24.0753C119.805 24.23 120.756 18.3449 121.181 16.6204C121.213 16.4925 121.285 16.3783 121.387 16.2947C121.488 16.2111 121.614 16.1625 121.746 16.1564C124.097 16.0404 131.451 15.267 134.73 16.3806C134.888 16.4352 135.025 16.5375 135.122 16.6732C135.219 16.809 135.271 16.9716 135.272 17.1385L135.241 23.039C135.24 23.2045 135.182 23.3643 135.077 23.4902C134.973 23.616 134.828 23.7 134.668 23.7273L131.096 24.3846C131.033 24.397 130.973 24.4236 130.922 24.4625C130.871 24.5014 130.83 24.5515 130.802 24.6089Z" fill="black"/>
<path d="M202.033 30.1795C202.053 34.0148 200.409 37.7017 197.463 40.4292C194.517 43.1567 190.511 44.7013 186.325 44.7232C182.139 44.7451 178.116 43.2426 175.142 40.5461C172.168 37.8496 170.486 34.1801 170.466 30.3448C170.445 26.5095 172.089 22.8225 175.035 20.095C177.981 17.3675 181.987 15.8229 186.173 15.801C190.359 15.7791 194.382 17.2817 197.356 19.9781C200.33 22.6746 202.012 26.3441 202.033 30.1795ZM186.241 36.5957C186.83 36.5957 187.414 36.4315 187.958 36.1124C188.502 35.7934 188.996 35.3257 189.413 34.7361C189.829 34.1466 190.16 33.4466 190.385 32.6763C190.611 31.906 190.727 31.0804 190.727 30.2467C190.727 28.5628 190.254 26.9479 189.413 25.7572C188.572 24.5665 187.431 23.8976 186.241 23.8976C185.052 23.8976 183.911 24.5665 183.07 25.7572C182.229 26.9479 181.756 28.5628 181.756 30.2467C181.756 31.0804 181.872 31.906 182.097 32.6763C182.323 33.4466 182.653 34.1466 183.07 34.7361C183.486 35.3257 183.981 35.7934 184.525 36.1124C185.069 36.4315 185.652 36.5957 186.241 36.5957Z" fill="black"/>
<path d="M216.997 19.5523C217.036 19.7099 217.119 19.8535 217.236 19.9664C217.352 20.0794 217.498 20.1573 217.657 20.1912C217.816 20.225 217.981 20.2135 218.134 20.158C218.287 20.1025 218.421 20.0051 218.521 19.8771C223.006 14.0616 232.332 14.9741 234.923 22.0888C236.168 25.4837 235.704 31.3688 235.665 35.5293C235.663 35.6546 235.69 35.7787 235.744 35.8917C235.799 36.0047 235.879 36.1034 235.979 36.18C236.079 36.2567 236.196 36.309 236.32 36.333C236.444 36.357 236.572 36.3519 236.694 36.3181C240.994 35.0885 240.151 40.6333 240.112 42.76C240.104 43.2141 239.917 43.6468 239.592 43.965C239.266 44.2832 238.828 44.4614 238.372 44.4613H223.091C222.725 44.4617 222.37 44.3334 222.089 44.0988C221.807 43.8641 221.617 43.538 221.552 43.1776C221.127 40.8731 220.392 36.1635 224.189 36.3181C224.321 36.3244 224.452 36.3041 224.576 36.2585C224.699 36.2129 224.812 36.1429 224.908 36.0528C225.004 35.9626 225.081 35.854 225.134 35.7335C225.187 35.6131 225.216 35.4831 225.218 35.3515C225.256 33.1397 225.728 28.5229 224.653 26.5664C223.238 23.9912 219.077 23.968 217.608 26.2493C216.216 28.4147 216.703 32.7299 216.742 35.4907C216.742 35.6145 216.783 35.7346 216.859 35.8315C216.935 35.9284 217.041 35.9963 217.16 36.0243L219.356 36.5811C219.475 36.6124 219.585 36.6723 219.677 36.7558C219.768 36.8392 219.839 36.9438 219.882 37.0605C220.446 38.584 221.513 44.5232 218.265 44.5155C213.231 44.5 208.189 44.4768 203.131 44.4381C202.756 44.4341 202.398 44.284 202.132 44.0197C201.866 43.7553 201.714 43.3977 201.708 43.0229L201.623 37.888C201.619 37.5451 201.74 37.2127 201.964 36.9544C202.188 36.6961 202.499 36.5301 202.837 36.4883L205.629 36.1403C205.757 36.1234 205.875 36.0601 205.96 35.962C206.045 35.8638 206.093 35.7376 206.093 35.6067V25.708C206.093 24.9269 205.706 24.5016 204.925 24.432C200.378 24.0299 201.554 20.5189 201.654 17.5416C201.668 17.1926 201.807 16.8605 202.046 16.6072C202.285 16.354 202.608 16.1968 202.953 16.1651C206.905 15.7784 210.841 15.732 214.778 16.0336C215.183 16.0655 215.568 16.2239 215.878 16.4863C216.187 16.7487 216.406 17.1018 216.502 17.4952L216.997 19.5523Z" fill="black"/>
<path d="M270.666 28.6458V29.4037C270.411 30.9426 269.576 31.7082 268.16 31.7082C262.678 31.7005 257.311 31.6928 252.06 31.7005C250.992 31.7082 250.621 32.2186 250.938 33.2394C252.168 37.1989 255.656 37.5546 258.339 34.6469C258.509 34.4613 258.718 34.3685 258.973 34.3762L266.776 34.4845C266.977 34.4894 267.172 34.557 267.333 34.6778C268.918 35.9074 269.011 37.3149 267.611 38.908C260.961 46.4325 248.897 46.8346 242.292 39.0008C236.794 32.4584 238.557 23.0624 245.997 18.4688C255.702 12.4677 268.516 17.0149 270.666 28.6458ZM251.812 28.785L257.983 28.8005C258.204 28.8005 258.415 28.7136 258.571 28.5586C258.728 28.4036 258.817 28.1932 258.819 27.973V27.8802C258.821 27.3724 258.723 26.8692 258.53 26.3993C258.338 25.9294 258.055 25.502 257.697 25.1415C257.339 24.781 256.914 24.4945 256.446 24.2983C255.978 24.1021 255.475 24.0001 254.967 23.9981H254.859C254.351 23.9961 253.848 24.0941 253.378 24.2865C252.908 24.4789 252.481 24.762 252.12 25.1197C251.76 25.4773 251.473 25.9024 251.277 26.3708C251.081 26.8391 250.979 27.3415 250.977 27.8493V27.9421C250.976 28.0524 250.997 28.1619 251.038 28.2641C251.08 28.3663 251.141 28.4593 251.219 28.5377C251.297 28.616 251.389 28.6783 251.491 28.7207C251.593 28.7632 251.702 28.785 251.812 28.785Z" fill="black"/>
<path d="M144.35 24.4781L143.994 27.5869C143.987 27.6476 143.967 27.7054 143.937 27.7562C143.906 27.807 143.865 27.8496 143.816 27.8807C142.092 29.033 137.073 29.4042 136.934 26.249C136.794 23.2794 136.825 20.4413 137.019 17.7269C137.05 17.2699 137.254 16.8419 137.59 16.529C137.926 16.2162 138.368 16.0418 138.828 16.041H168.006C168.191 16.0412 168.371 16.0916 168.529 16.1869C168.687 16.2822 168.816 16.4188 168.902 16.5819C168.988 16.745 169.027 16.9285 169.017 17.1125C169.006 17.2966 168.946 17.4742 168.841 17.6263L156.94 35.0727C156.871 35.1704 156.83 35.285 156.821 35.4042C156.813 35.5234 156.837 35.6427 156.891 35.7492C156.945 35.8558 157.027 35.9456 157.128 36.009C157.229 36.0724 157.346 36.107 157.466 36.109L161.185 36.1941C161.303 36.1991 161.418 36.1601 161.509 36.0846C161.601 36.009 161.661 35.9021 161.68 35.7842L162.245 32.3429C162.261 32.2486 162.301 32.1605 162.361 32.0872C162.42 32.0139 162.498 31.9581 162.585 31.9253C164.333 31.237 169.329 30.3245 169.491 33.2554C169.684 36.5421 169.708 39.7669 169.561 42.9143C169.539 43.3321 169.359 43.7255 169.058 44.0133C168.757 44.3011 168.359 44.4614 167.944 44.461H137.467C137.276 44.4611 137.093 44.3869 136.956 44.2541C136.819 44.1213 136.739 43.9403 136.733 43.7495C136.709 43.1618 136.934 42.5509 137.413 41.9167C141.172 36.9674 144.938 32.0258 148.704 27.0842C149.261 26.3573 149.647 25.6303 149.856 24.9111C149.887 24.8023 149.893 24.6876 149.873 24.5763C149.853 24.465 149.807 24.36 149.739 24.2699C149.672 24.1797 149.584 24.1069 149.483 24.0571C149.383 24.0073 149.272 23.982 149.16 23.9831L144.837 24.0373C144.715 24.0401 144.599 24.0864 144.509 24.1674C144.42 24.2485 144.363 24.3589 144.35 24.4781Z" fill="black"/>
</g>
<defs>
<clipPath id="clip0_0_2356">
<rect width="270.667" height="58" fill="white" transform="translate(0 0.380859)"/>
</clipPath>
</defs>
</svg>
