<svg width="303" height="189" viewBox="0 0 303 189" fill="none" xmlns="http://www.w3.org/2000/svg">
<path d="M72.0602 65.075C79.3023 65.0178 91.7103 63.7345 98.0614 67.2166C107.976 72.6604 111.107 85.7714 108.867 96.3402C106.521 107.408 99.1976 114.511 87.6806 114.519C78.0027 114.527 68.2675 114.527 58.4752 114.519C58.4408 114.519 58.4068 114.512 58.3751 114.499C58.3434 114.486 58.3145 114.467 58.2902 114.442C58.2659 114.418 58.2467 114.389 58.2335 114.358C58.2204 114.326 58.2136 114.292 58.2136 114.257L58.3281 48.0487C58.3302 47.9592 58.3664 47.8739 58.4291 47.8113C58.4917 47.7487 58.5757 47.7136 58.6632 47.7136L71.2265 47.6973C71.3349 47.6973 71.4388 47.7403 71.5155 47.817C71.5921 47.8936 71.6352 47.9976 71.6352 48.106V64.65C71.6352 64.936 71.7741 65.075 72.0602 65.075ZM71.6352 76.1343V103.337C71.6352 103.517 71.7067 103.69 71.8339 103.817C71.9611 103.944 72.1337 104.016 72.3136 104.016H83.6181C86.8309 104.016 89.9121 102.585 92.1838 100.039C94.4556 97.4928 95.7319 94.0395 95.7319 90.4387V89.0327C95.7319 85.4319 94.4556 81.9786 92.1838 79.4324C89.9121 76.8863 86.8309 75.4559 83.6181 75.4559H72.3136C72.2245 75.4559 72.1363 75.4734 72.054 75.5075C71.9717 75.5416 71.8969 75.5916 71.8339 75.6546C71.7709 75.7176 71.7209 75.7924 71.6868 75.8747C71.6527 75.957 71.6352 76.0452 71.6352 76.1343Z" fill="#000010"/>
<path d="M168.505 47.7069L183.758 47.7232C184.077 47.7232 184.232 47.8785 184.232 48.1973C184.224 63.033 184.232 77.8523 184.248 92.6552C184.273 115.992 154.528 116.376 138.605 113.335C129.565 111.611 121.023 107.099 118.301 97.6822C117.745 95.745 117.459 92.4672 117.435 87.849C117.386 74.599 117.386 61.341 117.427 48.091C117.427 47.8049 117.566 47.666 117.852 47.6742L133.611 47.7886C133.81 47.7886 134.002 47.8687 134.143 48.0113C134.284 48.1538 134.363 48.3472 134.363 48.5488C134.379 61.439 134.379 74.4274 134.363 87.5056C134.347 95.6305 137.044 101.123 145.627 102.66C154.888 104.319 167.835 102.587 168.023 90.2603C168.121 83.6966 168.138 69.662 168.064 48.1564C168.056 47.854 168.203 47.7069 168.505 47.7069Z" fill="#000010"/>
<path d="M230.824 64.6578V48.2119C230.824 47.8767 230.995 47.7133 231.331 47.7133L243.191 47.7051C243.526 47.7051 243.689 47.8767 243.689 48.2119L243.706 114.143C243.706 114.38 243.591 114.502 243.354 114.502C233.946 114.543 224.563 114.543 215.203 114.51C211.174 114.494 208.19 114.102 206.253 113.342C187.527 105.944 187.633 72.5293 207.446 66.08C213.716 64.0366 223.696 65.0093 230.391 65.0828C230.677 65.091 230.824 64.9439 230.824 64.6578ZM230.415 103.369V76.0522C230.415 75.894 230.352 75.7422 230.24 75.6303C230.128 75.5184 229.977 75.4555 229.818 75.4555H218.628C217.01 75.4555 215.407 75.7951 213.911 76.4548C212.416 77.1145 211.057 78.0814 209.912 79.3004C208.768 80.5194 207.86 81.9665 207.24 83.5592C206.621 85.1519 206.302 86.8589 206.302 88.5828V90.8388C206.302 92.5627 206.621 94.2697 207.24 95.8624C207.86 97.4551 208.768 98.9022 209.912 100.121C211.057 101.34 212.416 102.307 213.911 102.967C215.407 103.627 217.01 103.966 218.628 103.966H229.818C229.897 103.966 229.974 103.951 230.047 103.921C230.119 103.891 230.185 103.847 230.24 103.791C230.296 103.736 230.34 103.67 230.37 103.598C230.4 103.525 230.415 103.448 230.415 103.369Z" fill="#000010"/>
<path d="M58.1411 130.426C58.1411 130.352 58.1557 130.278 58.184 130.21C58.2124 130.141 58.2539 130.079 58.3063 130.027C58.3587 129.975 58.4209 129.933 58.4893 129.905C58.5577 129.876 58.631 129.862 58.7051 129.862L63.871 129.854C65.2128 129.852 66.5006 130.414 67.4509 131.416C68.4013 132.419 68.9365 133.779 68.9389 135.199V135.984C68.94 136.687 68.8102 137.384 68.557 138.034C68.3037 138.684 67.932 139.274 67.4629 139.772C66.9938 140.27 66.4366 140.666 65.8231 140.936C65.2096 141.206 64.5519 141.345 63.8874 141.346L58.7215 141.354C58.6474 141.354 58.5741 141.34 58.5056 141.311C58.4372 141.283 58.375 141.241 58.3227 141.189C58.2703 141.137 58.2287 141.074 58.2004 141.006C58.1721 140.938 58.1575 140.864 58.1575 140.79L58.1411 130.426ZM60.8957 132.298L60.9121 139C60.9142 139.096 60.9539 139.188 61.0227 139.255C61.0914 139.322 61.1837 139.36 61.2799 139.36H63.5849C64.2635 139.358 64.9134 139.105 65.3916 138.657C65.8699 138.21 66.1374 137.604 66.1352 136.973V134.292C66.1341 133.98 66.0669 133.671 65.9373 133.382C65.8078 133.094 65.6184 132.833 65.3801 132.612C65.1418 132.392 64.8591 132.218 64.5483 132.099C64.2375 131.981 63.9046 131.92 63.5686 131.922H61.2635C61.2145 131.922 61.166 131.931 61.1209 131.95C61.0757 131.969 61.0348 131.997 61.0005 132.032C60.9663 132.067 60.9393 132.109 60.9213 132.154C60.9033 132.2 60.8946 132.249 60.8957 132.298Z" fill="#000010"/>
<path d="M78.3781 134.546H84.8273C84.9654 134.546 85.0982 134.6 85.1973 134.698C85.2965 134.796 85.3544 134.929 85.3586 135.069L85.3831 136.042C85.3853 136.113 85.3732 136.184 85.3475 136.25C85.3218 136.316 85.283 136.377 85.2334 136.428C85.1839 136.479 85.1246 136.52 85.059 136.547C84.9935 136.575 84.923 136.589 84.8518 136.589H78.5416C78.4527 136.588 78.365 136.608 78.2851 136.647C78.2053 136.686 78.1357 136.743 78.0818 136.814C78.0278 136.885 77.9911 136.967 77.9744 137.054C77.9578 137.141 77.9616 137.231 77.9857 137.317C78.7623 140.104 82.7021 139.09 84.8845 139.401C85.0518 139.424 85.2064 139.503 85.3236 139.624C85.4407 139.746 85.5135 139.903 85.5303 140.071C85.7183 142.033 76.0567 142.654 75.035 137.284C73.5637 129.609 79.6532 129.862 84.8764 129.846C84.9812 129.846 85.0818 129.886 85.1567 129.958C85.2316 130.029 85.2747 130.127 85.2769 130.23L85.2851 131.391C85.2932 131.742 85.1134 131.914 84.7619 131.906C82.1544 131.848 78.2473 131.26 78.0184 134.153C77.9939 134.415 78.1165 134.546 78.3781 134.546Z" fill="#000010"/>
<path d="M101.094 129.773L103.358 129.994C103.416 130 103.471 130.019 103.519 130.051C103.568 130.083 103.607 130.126 103.636 130.177C103.664 130.227 103.679 130.284 103.681 130.341C103.682 130.399 103.67 130.457 103.645 130.509L98.5441 141.037C98.5152 141.097 98.4701 141.148 98.4137 141.184C98.3574 141.22 98.2922 141.24 98.2253 141.241L95.9039 141.314C95.8342 141.317 95.7655 141.298 95.706 141.262C95.6465 141.226 95.5988 141.173 95.5688 141.11L90.4274 130.28C90.3999 130.223 90.3879 130.16 90.3926 130.097C90.3973 130.033 90.4186 129.973 90.4542 129.921C90.4898 129.868 90.5386 129.826 90.5956 129.799C90.6526 129.772 90.7158 129.76 90.7788 129.765L93.1738 129.961C93.2373 129.967 93.298 129.99 93.3497 130.027C93.4014 130.065 93.4423 130.115 93.4681 130.173L96.7622 137.898C96.7897 137.963 96.8358 138.018 96.8947 138.057C96.9536 138.096 97.0226 138.117 97.0932 138.117C97.1638 138.117 97.2328 138.096 97.2917 138.057C97.3505 138.018 97.3967 137.963 97.4242 137.898L100.726 129.994C100.756 129.922 100.808 129.862 100.874 129.822C100.94 129.783 101.017 129.765 101.094 129.773Z" fill="#000010"/>
<path d="M112.996 138.837C114.835 139.336 116.772 139.508 118.807 139.36C119.061 139.344 119.257 139.442 119.388 139.655C119.968 140.603 119.486 141.232 118.472 141.265C114.508 141.404 109.628 141.927 108.941 136.622C108.1 130.116 113.772 129.233 119.069 130.042C119.191 130.063 119.301 130.128 119.375 130.226C119.45 130.323 119.483 130.445 119.469 130.565L119.388 131.399C119.355 131.726 119.175 131.89 118.84 131.89C116.731 131.881 112.448 131.097 112.195 134.203C112.17 134.432 112.276 134.546 112.513 134.546H118.742C119.053 134.546 119.257 134.693 119.363 134.996L119.568 135.609C119.605 135.72 119.616 135.839 119.598 135.956C119.581 136.072 119.536 136.183 119.467 136.279C119.398 136.375 119.308 136.453 119.203 136.507C119.099 136.561 118.982 136.589 118.865 136.59H113.29C113.014 136.592 112.748 136.694 112.541 136.877C112.334 137.06 112.2 137.311 112.164 137.585C112.128 137.859 112.193 138.137 112.346 138.367C112.498 138.597 112.729 138.764 112.996 138.837Z" fill="#000010"/>
<path d="M127.545 129.863C127.733 129.854 127.913 129.846 128.085 129.846C128.461 129.838 128.649 130.026 128.649 130.402V137.407C128.649 137.949 128.864 138.469 129.248 138.852C129.631 139.235 130.15 139.451 130.692 139.451H134.338C134.722 139.451 134.967 139.639 135.066 140.015L135.196 140.521C135.286 140.873 135.147 141.077 134.796 141.134C124.685 142.818 125.788 137.832 125.788 130.451C125.788 130.322 125.827 130.196 125.9 130.089C125.973 129.983 126.076 129.901 126.197 129.854C126.442 129.765 126.695 129.756 126.965 129.814C127.155 129.852 127.35 129.868 127.545 129.863Z" fill="#000010"/>
<path d="M153.55 136.393C153.556 137.716 153.038 138.987 152.108 139.927C151.177 140.867 149.912 141.399 148.59 141.405L146.187 141.418C144.864 141.425 143.593 140.906 142.653 139.976C141.713 139.046 141.181 137.781 141.174 136.458L141.166 134.872C141.159 133.55 141.678 132.279 142.608 131.339C143.538 130.399 144.804 129.867 146.126 129.86L148.529 129.848C149.852 129.841 151.122 130.359 152.062 131.29C153.002 132.22 153.534 133.485 153.541 134.808L153.55 136.393ZM147.32 139.573C147.776 139.569 148.227 139.465 148.647 139.265C149.067 139.065 149.448 138.773 149.768 138.406C150.088 138.04 150.341 137.605 150.512 137.128C150.684 136.651 150.77 136.14 150.766 135.625C150.759 134.584 150.386 133.589 149.729 132.858C149.073 132.127 148.186 131.719 147.265 131.726C146.809 131.729 146.358 131.834 145.938 132.034C145.518 132.234 145.137 132.526 144.817 132.892C144.497 133.259 144.244 133.693 144.073 134.17C143.901 134.647 143.815 135.158 143.819 135.674C143.826 136.714 144.199 137.709 144.855 138.441C145.512 139.172 146.399 139.579 147.32 139.573Z" fill="#000010"/>
<path d="M162.571 137.816V140.644C162.571 141.061 162.359 141.265 161.942 141.273L160.209 141.298C159.857 141.298 159.678 141.118 159.686 140.767L159.776 130.279C159.784 129.993 159.931 129.854 160.217 129.846C162.628 129.838 168.571 129.2 170.214 131.007C171.579 132.519 171.546 134.881 170.026 136.263C168.375 137.775 165.26 137.481 163.013 137.391C162.718 137.383 162.571 137.521 162.571 137.816ZM162.563 132.356V134.889C162.565 135.016 162.617 135.137 162.707 135.225C162.797 135.314 162.919 135.364 163.045 135.364H165.62C165.956 135.363 166.288 135.32 166.598 135.236C166.908 135.153 167.19 135.03 167.426 134.876C167.663 134.722 167.851 134.539 167.979 134.338C168.106 134.137 168.171 133.922 168.17 133.704V133.508C168.168 133.071 167.898 132.653 167.42 132.345C166.942 132.037 166.295 131.864 165.62 131.865H163.045C162.981 131.865 162.918 131.878 162.859 131.903C162.8 131.927 162.746 131.964 162.701 132.009C162.656 132.055 162.621 132.109 162.597 132.168C162.574 132.228 162.562 132.292 162.563 132.356Z" fill="#000010"/>
<path d="M189.307 140.937L189.323 133.58C189.332 133.512 189.313 133.442 189.272 133.387C189.23 133.331 189.169 133.294 189.101 133.282C189.032 133.271 188.962 133.286 188.905 133.325C188.847 133.363 188.807 133.423 188.792 133.491L186.659 139.662C186.209 141.223 185.122 141.722 183.397 141.158C183.275 141.119 183.163 141.053 183.069 140.964C182.976 140.874 182.904 140.765 182.858 140.643C182.547 139.85 180.365 133.335 180.038 133.335C179.785 133.343 179.662 133.474 179.678 133.728C179.834 135.885 179.923 138.06 179.948 140.242C179.953 140.581 179.824 140.908 179.588 141.15C179.352 141.392 179.028 141.53 178.689 141.534C178.35 141.537 178.022 141.405 177.779 141.168C177.535 140.93 177.395 140.606 177.39 140.267L177.242 130.564C177.234 130.164 177.439 129.935 177.839 129.886C178.836 129.763 179.817 129.804 180.774 130C181.125 130.074 181.37 130.278 181.493 130.613L184.362 138.321C184.381 138.369 184.415 138.409 184.457 138.438C184.5 138.466 184.55 138.482 184.6 138.482C184.651 138.482 184.699 138.466 184.74 138.438C184.781 138.409 184.811 138.369 184.828 138.321L187.558 130.409C187.664 130.098 187.877 129.935 188.212 129.927L191.302 129.845C191.367 129.843 191.433 129.854 191.494 129.877C191.556 129.901 191.612 129.937 191.659 129.983C191.706 130.028 191.744 130.083 191.77 130.144C191.795 130.204 191.808 130.27 191.808 130.335L191.759 140.487C191.759 140.823 191.604 141.051 191.302 141.19C190.574 141.509 189.904 141.419 189.307 140.937Z" fill="#000010"/>
<path d="M201.601 134.546H207.936C208.23 134.546 208.402 134.693 208.443 134.979L208.581 136.025C208.591 136.096 208.585 136.168 208.564 136.236C208.543 136.304 208.508 136.367 208.461 136.421C208.413 136.474 208.355 136.517 208.29 136.546C208.225 136.575 208.154 136.59 208.083 136.589H201.568C201.506 136.589 201.444 136.603 201.387 136.63C201.331 136.657 201.281 136.697 201.242 136.746C201.203 136.796 201.175 136.853 201.161 136.915C201.146 136.977 201.146 137.042 201.16 137.104C201.83 140.071 205.672 139.27 207.919 139.238C208.222 139.229 208.402 139.385 208.443 139.687L208.581 140.733C208.622 141.069 208.483 141.24 208.148 141.248C204.086 141.428 198.887 142.066 198.021 136.851C196.917 130.197 203.023 129.094 208.091 130.066C208.295 130.107 208.426 130.238 208.483 130.442C209.309 133.802 201.617 129.748 201.233 134.145C201.209 134.415 201.331 134.546 201.601 134.546Z" fill="#000010"/>
<path d="M217.297 141.223L215.147 141.321C215.113 141.322 215.079 141.317 215.047 141.304C215.016 141.292 214.987 141.274 214.962 141.25C214.938 141.226 214.919 141.198 214.905 141.167C214.892 141.136 214.885 141.102 214.885 141.068V130.033C214.885 129.999 214.892 129.964 214.906 129.932C214.92 129.9 214.94 129.872 214.965 129.848C214.99 129.824 215.02 129.806 215.053 129.794C215.086 129.782 215.12 129.778 215.155 129.78L218.4 130.017C218.439 130.019 218.478 130.031 218.512 130.051C218.546 130.071 218.575 130.098 218.596 130.131L223.402 137.888C223.432 137.934 223.476 137.969 223.528 137.988C223.579 138.007 223.635 138.009 223.687 137.993C223.74 137.978 223.786 137.945 223.818 137.901C223.851 137.857 223.869 137.804 223.868 137.749L223.877 130.164C223.877 130.098 223.902 130.035 223.948 129.988C223.994 129.94 224.056 129.913 224.122 129.911L226.304 129.813C226.338 129.811 226.372 129.817 226.404 129.829C226.435 129.842 226.464 129.86 226.489 129.884C226.513 129.907 226.532 129.936 226.546 129.967C226.559 129.998 226.566 130.032 226.566 130.066L226.623 141.027C226.623 141.094 226.596 141.159 226.549 141.206C226.501 141.254 226.437 141.281 226.37 141.281H223.1C223.058 141.281 223.016 141.27 222.979 141.25C222.942 141.23 222.911 141.201 222.888 141.166L218.008 133.474C217.978 133.429 217.934 133.394 217.883 133.375C217.831 133.356 217.775 133.354 217.723 133.37C217.67 133.385 217.624 133.417 217.592 133.461C217.559 133.505 217.542 133.559 217.542 133.613V140.97C217.542 141.036 217.516 141.099 217.47 141.146C217.425 141.194 217.362 141.221 217.297 141.223Z" fill="#000010"/>
<path d="M235.884 131.889H232.818C232.708 131.888 232.601 131.847 232.519 131.773C232.436 131.7 232.383 131.598 232.369 131.489L232.23 130.361C232.222 130.297 232.227 130.232 232.246 130.17C232.265 130.108 232.297 130.051 232.339 130.002C232.382 129.954 232.434 129.915 232.493 129.888C232.551 129.861 232.615 129.846 232.679 129.846L242.856 129.854C242.918 129.855 242.98 129.868 243.036 129.894C243.093 129.92 243.144 129.956 243.186 130.002C243.229 130.048 243.261 130.102 243.281 130.161C243.302 130.22 243.31 130.282 243.306 130.344L243.224 131.456C243.216 131.572 243.164 131.68 243.079 131.759C242.994 131.838 242.882 131.881 242.766 131.881L239.48 131.889C239.359 131.889 239.242 131.937 239.157 132.023C239.071 132.109 239.022 132.226 239.022 132.347L239.047 140.831C239.047 140.953 238.999 141.069 238.913 141.155C238.827 141.241 238.711 141.289 238.589 141.289H236.799C236.678 141.289 236.561 141.241 236.475 141.155C236.39 141.069 236.341 140.953 236.341 140.831V132.347C236.341 132.226 236.293 132.109 236.207 132.023C236.121 131.937 236.005 131.889 235.884 131.889Z" fill="#000010"/>
</svg>
