<svg width="303" height="37" viewBox="0 0 303 37" fill="none" xmlns="http://www.w3.org/2000/svg">
<g clip-path="url(#clip0_0_3469)">
<path d="M0.503906 35.3808V1.78084H36.3599V9.74884H9.14391V16.5168H35.7359V24.4848H9.14391V35.3808H0.503906ZM61.8134 18.1008L75.1574 1.78084H84.8534L66.1334 25.1568V35.3808H57.4934V25.1568L38.7734 1.78084H48.4214L61.8134 18.1008ZM109.308 29.2848H88.4755L85.1635 35.3808H75.8515L93.5635 1.78084H104.172L121.932 35.3808H112.62L109.308 29.2848ZM92.4595 21.9888H105.324L98.8915 10.1808L92.4595 21.9888ZM158.347 15.0768V23.0448H125.707V15.0768H158.347ZM199.682 22.2288H185.426V15.5568H208.514C208.706 16.5168 208.802 17.5248 208.802 18.5808C208.802 28.6128 202.802 36.1968 186.386 36.1968C169.97 36.1968 163.97 28.6128 163.97 18.5808C163.97 8.54885 169.97 0.964844 186.386 0.964844C199.682 0.964844 206.114 5.95684 208.082 13.1568H198.578C196.898 10.2288 193.154 8.30884 186.386 8.30884C175.682 8.30884 172.61 12.5328 172.61 18.5808C172.61 24.6288 175.682 28.8528 186.386 28.8528C194.738 28.8528 198.434 26.2608 199.682 22.2288ZM214.348 1.78084H237.388C248.62 1.78084 253.084 6.62884 253.084 14.2608C253.084 19.5408 250.972 23.4768 245.932 25.3968L253.564 35.3808H244.204L237.628 26.7408H222.988V35.3808H214.348V1.78084ZM222.988 19.4448H237.388C242.62 19.4448 244.444 17.4768 244.444 14.2608C244.444 11.0928 242.62 9.12484 237.388 9.12484H222.988V19.4448ZM289.73 29.2848H268.898L265.586 35.3808H256.274L273.986 1.78084H284.594L302.354 35.3808H293.042L289.73 29.2848ZM272.882 21.9888H285.746L279.314 10.1808L272.882 21.9888Z" fill="black"/>
</g>
<defs>
<clipPath id="clip0_0_3469">
<rect width="303" height="36" fill="white" transform="translate(0 0.380859)"/>
</clipPath>
</defs>
</svg>
