<svg width="320" height="140" viewBox="0 0 320 140" fill="none" xmlns="http://www.w3.org/2000/svg">
<g clip-path="url(#clip0_0_2476)">
<path d="M312.05 0.380859H314.358C314.349 0.41002 314.339 0.439181 314.329 0.463482L312.05 0.380859Z" fill="#000010"/>
<path d="M314.358 0.380859H317.289L314.329 0.463482C314.339 0.439181 314.348 0.41002 314.358 0.380859Z" fill="#000010"/>
<path d="M197.695 57.1958C197.693 57.2302 197.703 57.2644 197.722 57.2929C197.742 57.3213 197.77 57.3425 197.803 57.3531C197.836 57.3637 197.871 57.363 197.904 57.3513C197.936 57.3395 197.964 57.3173 197.982 57.2881C202.483 50.5617 210.186 48.676 217.855 50.3187C228.198 52.5349 230.205 61.8761 230.229 70.9014C230.258 80.6362 230.263 90.3565 230.239 100.062C230.239 100.11 230.228 100.157 230.208 100.201C230.189 100.244 230.16 100.283 230.124 100.314C230.088 100.346 230.046 100.37 230.001 100.384C229.955 100.398 229.907 100.403 229.86 100.398C222.127 99.4595 218.283 94.3953 218.341 86.9593C218.38 81.4722 218.356 75.9851 218.268 70.498C218.205 66.3814 217.049 61.8226 212.388 60.7583C203.187 58.6538 197.919 66.43 197.817 74.6485C197.71 83.1392 197.666 91.6299 197.681 100.121C197.681 100.291 197.598 100.378 197.428 100.378H185.983C185.793 100.378 185.701 100.286 185.701 100.096L185.647 21.0315C185.647 20.8322 185.744 20.7204 185.944 20.6961C186.493 20.6232 187.003 20.6427 187.479 20.7447C192.276 21.7605 195.431 24.3607 196.942 28.5355C197.414 29.8429 197.666 31.6946 197.705 34.0907C197.827 41.8329 197.822 49.5313 197.695 57.1958Z" fill="#000010"/>
<path d="M112.546 88.4853C123.102 93.2482 134.086 83.3044 133.765 72.7725C133.6 67.3291 134.655 63.3535 138.538 59.3196C138.566 59.2889 138.601 59.2647 138.64 59.2486C138.679 59.2325 138.721 59.2249 138.763 59.2263C138.805 59.2276 138.847 59.238 138.885 59.2566C138.924 59.2752 138.958 59.3016 138.985 59.3342C143.476 64.6755 145.765 71.4699 144.822 78.4102C143.277 89.7635 133.454 99.5567 121.95 100.884C110.796 102.176 100.323 94.9493 95.5063 85.1269C90.8405 75.6011 92.9401 65.0643 100.08 57.4436C109.552 47.3345 123.967 46.1049 134.689 55.0864C134.81 55.1885 134.81 55.2905 134.698 55.4023C132.351 57.6428 129.649 59.1349 126.601 59.8834C123.107 60.7388 119.112 59.6841 115.438 61.1664C110.548 63.1397 107.107 66.5806 105.12 71.4894C102.422 78.1478 106.276 85.6567 112.546 88.4853Z" fill="#000010"/>
<path d="M55.5266 58.4015C55.5261 58.4197 55.5315 58.4374 55.5419 58.4521C55.5524 58.4668 55.5674 58.4778 55.5849 58.4836C55.6025 58.4895 55.6217 58.4899 55.64 58.4847C55.6582 58.4796 55.6746 58.4692 55.687 58.455C61.2081 51.2717 68.2213 48.5403 76.7314 50.2656C85.9948 52.1417 89.5767 60.0783 89.5816 68.7876C89.5865 79.2515 89.567 89.7105 89.5233 100.174C89.5233 100.345 89.4358 100.422 89.2657 100.403C83.487 99.7564 79.837 96.9813 78.3061 92.0823C77.8541 90.6291 77.6305 88.3643 77.6354 85.2878C77.6451 80.6367 77.6402 75.9855 77.6257 71.3392C77.6111 67.9906 77.2952 64.4767 74.5686 62.2216C71.2929 59.5048 65.4024 60.1463 62.1024 62.484C58.8218 64.8072 57.1304 68.2141 57.0284 72.7098C56.9263 76.9478 56.9312 86.0703 57.0332 100.077C57.0332 100.157 57.002 100.234 56.9464 100.29C56.8908 100.347 56.8154 100.379 56.7368 100.379H45.2182C45.1486 100.379 45.0819 100.351 45.0327 100.302C44.9834 100.252 44.9558 100.186 44.9558 100.116C44.9607 87.6304 44.9509 75.1496 44.9364 62.6833C44.9315 60.0054 45.1599 58.0224 45.6216 56.7442C47.0651 52.7346 50.2874 50.8391 55.2982 51.053C55.4488 51.0578 55.5266 51.1405 55.5266 51.2911V58.4015Z" fill="#000010"/>
<path d="M149.653 56.1121C157.318 47.7381 171.373 49.478 180.257 54.586C180.299 54.61 180.336 54.6422 180.365 54.6807C180.394 54.7193 180.414 54.7633 180.426 54.8102C180.437 54.857 180.439 54.9057 180.431 54.9532C180.423 55.0007 180.405 55.0461 180.379 55.0866C178.313 58.2749 175.48 60.0051 171.869 60.2724C168.306 60.5348 160.433 58.2214 158.644 62.7219C157.366 65.9393 160.467 68.0486 162.887 69.1518C167.704 71.3535 172.481 72.831 176.933 76.1942C185.166 82.4006 183.295 94.721 174.386 99.1972C165.935 103.445 152.89 101.384 145.085 96.218C144.924 96.1159 144.895 95.9798 144.987 95.8146C147.695 91.003 151.826 89.8706 156.939 91.0128C160.691 91.8487 170.824 92.952 170.348 86.2304C170.158 83.533 167.597 82.2353 165.176 81.1661C159.31 78.5708 150.776 75.8443 147.928 69.4143C146.134 65.3658 146.475 59.5871 149.653 56.1121Z" fill="#000010"/>
<path d="M266.685 93.472C265.12 95.1925 263.531 97.015 261.558 98.1474C255.74 101.496 249.626 102.259 243.22 100.427C233.996 97.7878 231.425 86.6581 236.314 79.1151C242.068 70.2405 255.4 69.7351 264.751 70.3231C264.916 70.3377 265.008 70.26 265.028 70.0947C266.792 55.5143 247.181 60.8021 240.362 64.0681C239.891 64.2966 239.565 64.1653 239.395 63.6648C238.963 62.3963 238.87 61.0549 239.109 59.6406C240.635 50.6201 250.894 50.2994 257.844 50.3528C266.704 50.4257 274.427 53.925 276.639 63.1204C277.052 64.8409 277.28 68.0632 277.329 72.7872C277.421 82.2548 277.387 89.093 277.227 93.297C277.115 96.1596 275.885 98.2203 273.533 99.4743C271.759 100.422 269.343 100.354 267.268 100.398C267.23 100.398 267.192 100.391 267.156 100.377C267.121 100.363 267.088 100.342 267.061 100.316C267.033 100.289 267.011 100.257 266.996 100.222C266.981 100.187 266.972 100.149 266.972 100.111L266.928 93.5692C266.923 93.331 266.845 93.297 266.685 93.472ZM264.906 78.0945C259.371 77.487 247.191 77.2683 246.02 84.923C245.252 89.9338 248.231 92.2278 252.911 92.2667C260.799 92.3299 265.358 86.0749 265.368 78.6097C265.368 78.2986 265.212 78.1285 264.906 78.0945Z" fill="#000010"/>
</g>
<defs>
<clipPath id="clip0_0_2476">
<rect width="319.311" height="139" fill="white" transform="translate(0 0.380859)"/>
</clipPath>
</defs>
</svg>
