<svg width="313" height="95" viewBox="0 0 313 95" fill="none" xmlns="http://www.w3.org/2000/svg">
<path fill-rule="evenodd" clip-rule="evenodd" d="M165.362 38.2241C162.736 39.557 159.075 39.9151 154.36 39.2586L158.538 2.31381C158.638 1.41854 159.135 0.960959 160.01 0.901275L168.147 0.384004C168.844 0.344214 169.162 0.682427 169.102 1.37875L165.362 38.2241ZM150.718 39.5357L140.492 41.2267C139.716 41.3461 139.119 41.0676 138.721 40.3912L131.857 28.7129C131.579 28.2553 131.201 28.1558 130.743 28.4542C129.848 29.0511 129.192 29.7474 128.794 30.5631C126.605 33.5075 125.65 37.5263 125.929 42.6194L114.967 43.2162L119.025 6.0526C119.085 5.35628 119.483 4.95838 120.179 4.89869L128.833 4.12279C129.002 4.10536 129.172 4.12733 129.331 4.18703C129.49 4.24673 129.634 4.34258 129.751 4.46729C129.868 4.592 129.955 4.74228 130.007 4.90668C130.058 5.07108 130.072 5.24526 130.047 5.41596L128.495 15.9603C128.472 16.0911 128.492 16.226 128.554 16.3437C128.616 16.4613 128.715 16.555 128.836 16.6098C128.957 16.6646 129.093 16.6775 129.223 16.6463C129.352 16.6151 129.467 16.5417 129.55 16.4377L140.472 3.22753C140.616 3.04587 140.797 2.89691 141.002 2.79057C141.208 2.68423 141.434 2.62294 141.666 2.6108L152.21 1.89458C153.463 1.7951 153.682 2.23278 152.847 3.18773L139.577 18.3874C139.402 18.5847 139.295 18.833 139.27 19.0973C139.245 19.3616 139.303 19.6283 139.437 19.8596L150.718 39.5357ZM88.9657 46.1609L99.9676 45.0866L102.832 17.194C102.912 16.3584 103.37 15.9406 104.205 15.9406H110.432C112.203 15.9406 113.198 15.0652 113.456 13.3145L114.252 7.52508C114.283 7.30552 114.264 7.08184 114.195 6.87072C114.126 6.65959 114.01 6.46648 113.855 6.3058C113.7 6.14513 113.51 6.02104 113.3 5.94279C113.09 5.86454 112.864 5.83417 112.641 5.85392L84.0914 8.71879C83.2161 8.81826 82.7187 9.29572 82.6192 10.1512L81.6245 17.572C81.525 18.2882 81.8234 18.6065 82.5595 18.527L90.8557 17.6914C91.6316 17.6317 91.9897 17.9699 91.9101 18.7458L88.9657 46.1609ZM72.2738 44.73C66.3252 49.7634 59.7202 51.6336 52.4187 50.3603C15.0363 35.9166 57.6511 -7.71285 76.4318 17.3945C83.1762 26.4069 80.4108 37.5679 72.2738 44.73ZM52.0815 38.649C53.0516 39.4601 54.1918 40.0485 55.4369 40.3806C56.682 40.7128 58.0078 40.7821 59.3384 40.5846C60.669 40.3872 61.9785 39.9268 63.192 39.2298C64.4055 38.5329 65.4993 37.613 66.411 36.5226C67.3227 35.4322 68.0343 34.1928 68.5054 32.8751C68.9764 31.5573 69.1976 30.187 69.1563 28.8425C69.115 27.4979 68.812 26.2054 68.2646 25.0388C67.7173 23.8722 66.9362 22.8542 65.9661 22.0431C64.996 21.232 63.8559 20.6436 62.6107 20.3114C61.3656 19.9793 60.0399 19.91 58.7093 20.1075C57.3786 20.3049 56.0692 20.7653 54.8557 21.4622C53.6422 22.1592 52.5483 23.0791 51.6367 24.1695C50.725 25.2598 50.0133 26.4993 49.5423 27.817C49.0712 29.1348 48.8501 30.505 48.8914 31.8496C48.9327 33.1941 49.2357 34.4866 49.783 35.6533C50.3304 36.8199 51.1114 37.8378 52.0815 38.649ZM0.213119 27.8779C-1.57742 40.6703 8.19096 46.3801 19.1331 41.108C19.9488 40.7101 20.2871 40.9488 20.1876 41.8441L19.0934 51.9905C19.075 52.1657 19.0957 52.3428 19.154 52.5091C19.2122 52.6753 19.3065 52.8266 19.4301 52.9522C19.5537 53.0777 19.7036 53.1743 19.8689 53.235C20.0343 53.2958 20.2111 53.3192 20.3865 53.3036L28.5434 52.5476C28.8698 52.5181 29.1763 52.3776 29.4116 52.1495C29.6469 51.9214 29.7969 51.6195 29.8366 51.2942L33.6763 15.185C33.7559 14.5284 33.4773 14.23 32.8208 14.2499L24.5048 14.4688C23.7289 14.4887 23.2912 14.8866 23.1917 15.6625L21.242 30.703C21.1425 31.3993 20.7446 31.8171 20.0284 31.9564L14.0202 33.0506C13.5974 33.1261 13.163 33.1028 12.7507 32.9827C12.3385 32.8625 11.9596 32.6486 11.6437 32.3577C11.3278 32.0669 11.0834 31.7069 10.9297 31.306C10.7759 30.905 10.717 30.4739 10.7574 30.0464L11.9113 17.4132C11.9256 17.258 11.9066 17.1015 11.8555 16.9542C11.8044 16.8069 11.7224 16.6722 11.615 16.5592C11.5076 16.4462 11.3773 16.3574 11.2329 16.2988C11.0884 16.2402 10.9331 16.2132 10.7773 16.2195L2.6204 16.5179C2.30886 16.5351 2.01363 16.6627 1.78761 16.8778C1.56158 17.0929 1.41953 17.3814 1.38692 17.6917C1.08849 21.1335 0.690596 24.5157 0.213119 27.8779ZM299.89 51.0167C295.334 56.448 290.918 62.0186 286.68 67.7284C283.477 72.0456 280.214 72.5828 275.28 72.6027C274.285 72.6226 273.848 72.1252 273.947 71.1305L277.707 35.638C277.753 35.2137 277.947 34.8184 278.255 34.5205C278.564 34.2226 278.968 34.0409 279.398 34.0066L287.575 33.4496C288.073 33.4098 288.311 33.6485 288.272 34.1658L286.62 52.1507C286.561 52.8869 286.74 52.9664 287.197 52.3895L302.417 32.6737C302.827 32.1488 303.417 31.8002 304.068 31.6988L312.046 30.4256C312.742 30.3062 313.061 30.6046 312.981 31.3208L309.3 67.9672C309.273 68.2698 309.139 68.5532 308.92 68.7678C308.702 68.9825 308.414 69.1146 308.107 69.141L299.771 69.7975C298.796 69.8771 298.378 69.4394 298.497 68.4646L300.547 51.2953C300.646 50.4796 300.427 50.3801 299.89 51.0167ZM256.977 50.3191L245.915 51.7714C245.781 51.7901 245.645 51.7781 245.516 51.7364C245.387 51.6946 245.269 51.6242 245.171 51.5303C245.074 51.4364 244.999 51.3216 244.952 51.1945C244.905 51.0674 244.888 50.9313 244.901 50.7965L246.015 38.8397C246.027 38.7105 246.01 38.5801 245.967 38.4578C245.923 38.3355 245.854 38.2241 245.763 38.1314C245.672 38.0387 245.562 37.9668 245.441 37.9208C245.319 37.8747 245.19 37.8557 245.06 37.8649L236.207 38.5015C235.993 38.515 235.791 38.6047 235.638 38.7544C235.484 38.904 235.39 39.1037 235.371 39.3172L231.571 76.1824C231.556 76.3132 231.57 76.4458 231.612 76.5705C231.655 76.6953 231.724 76.8093 231.815 76.9043C231.906 76.9993 232.017 77.073 232.14 77.1202C232.263 77.1673 232.395 77.1868 232.526 77.1771L241.32 76.4609C241.527 76.4437 241.722 76.3548 241.871 76.2096C242.019 76.0644 242.113 75.8719 242.135 75.6651L243.727 62.2759C243.749 62.0722 243.839 61.8821 243.984 61.7373C244.129 61.5925 244.319 61.5017 244.523 61.4801L255.565 60.3262C255.697 60.3134 255.832 60.3306 255.957 60.3763C256.082 60.4221 256.196 60.4954 256.29 60.5907C256.383 60.6861 256.454 60.8012 256.497 60.9275C256.54 61.0539 256.555 61.1883 256.539 61.3209L254.948 73.8547C254.93 73.993 254.946 74.1334 254.992 74.2648C255.039 74.3962 255.115 74.5149 255.216 74.6115C255.316 74.7081 255.438 74.78 255.571 74.8213C255.704 74.8626 255.845 74.8722 255.982 74.8494L264.935 73.5165C265.131 73.4866 265.312 73.3921 265.449 73.248C265.586 73.104 265.671 72.9184 265.691 72.7207L269.57 36.711C269.582 36.5835 269.566 36.455 269.524 36.3342C269.481 36.2133 269.414 36.103 269.325 36.0106C269.236 35.9182 269.129 35.8459 269.01 35.7985C268.891 35.7512 268.763 35.7299 268.635 35.7361L259.663 36.1539C259.449 36.1674 259.247 36.2571 259.094 36.4068C258.94 36.5565 258.846 36.7561 258.827 36.9696L257.753 49.5034C257.736 49.7076 257.65 49.9 257.509 50.0484C257.368 50.1969 257.18 50.2924 256.977 50.3191ZM213.168 60.3261L197.133 80.8576C197.076 80.9306 197.004 80.99 196.921 81.0313C196.839 81.0726 196.748 81.0948 196.655 81.0963H188.479C188.392 81.0967 188.307 81.079 188.228 81.0444C188.149 81.0097 188.078 80.9589 188.02 80.8951C187.962 80.8314 187.918 80.7561 187.89 80.6743C187.863 80.5924 187.853 80.5058 187.862 80.4199L191.542 43.316C191.556 43.1696 191.622 43.033 191.728 42.9309C191.834 42.8287 191.973 42.7677 192.119 42.7589L201.768 41.8835C201.86 41.8768 201.952 41.8906 202.037 41.9238C202.122 41.957 202.199 42.0088 202.262 42.0755C202.325 42.1422 202.372 42.2221 202.4 42.3093C202.429 42.3966 202.437 42.489 202.425 42.5798L200.336 60.1669C200.32 60.3 200.348 60.4346 200.416 60.5504C200.483 60.6661 200.587 60.7567 200.71 60.8084C200.834 60.8601 200.971 60.8702 201.101 60.837C201.231 60.8038 201.346 60.7292 201.43 60.6245L216.948 40.6302C217 40.5621 217.066 40.5057 217.142 40.4646C217.217 40.4235 217.3 40.3986 217.386 40.3914L226.219 39.6553C226.309 39.6491 226.398 39.6625 226.482 39.6945C226.566 39.7266 226.642 39.7766 226.705 39.841C226.767 39.9054 226.815 39.9827 226.844 40.0675C226.874 40.1522 226.885 40.2424 226.876 40.3317L223.076 77.0378C223.064 77.1751 223.007 77.3045 222.913 77.4055C222.819 77.5064 222.695 77.5731 222.558 77.5948L212.929 79.1267C212.835 79.14 212.738 79.1311 212.648 79.1008C212.557 79.0705 212.475 79.0196 212.408 78.9521C212.34 78.8846 212.289 78.8023 212.259 78.7118C212.229 78.6213 212.22 78.525 212.233 78.4304L214.262 60.7837C214.278 60.6506 214.25 60.516 214.182 60.4002C214.115 60.2845 214.011 60.1939 213.888 60.1422C213.764 60.0904 213.627 60.0804 213.497 60.1136C213.367 60.1468 213.252 60.2214 213.168 60.3261ZM178.054 62.3756C183.644 58.2175 183.923 53.0847 178.929 46.957C171.33 45.4251 163.193 45.445 154.518 46.9968C153.583 47.156 153.185 47.912 153.285 49.245L149.744 84.3992C149.664 85.1552 150.002 85.5133 150.758 85.4735C157.662 85.1353 164.506 84.3196 171.31 83.0265C180.899 81.1961 187.524 70.1147 178.074 63.5693C177.497 63.1913 177.497 62.7934 178.054 62.3756ZM162.121 57.6107C162.206 57.1231 162.442 56.6743 162.795 56.3275C164.645 54.4972 166.953 53.9202 169.678 54.5768C170.29 54.7143 170.833 55.0646 171.21 55.565C171.588 56.0655 171.775 56.6837 171.739 57.3096C171.704 57.9354 171.447 58.5282 171.015 58.9823C170.582 59.4364 170.003 59.7224 169.38 59.7892L164.744 60.3662C164.253 60.427 163.755 60.3323 163.321 60.0955C162.886 59.8587 162.537 59.4916 162.321 59.0459C162.106 58.6002 162.036 58.0983 162.121 57.6107ZM162.954 68.722L169.877 68.3838C170.202 68.3666 170.526 68.4291 170.821 68.566C171.115 68.703 171.372 68.91 171.569 69.1691C171.765 69.4283 171.895 69.7316 171.947 70.0525C171.999 70.3734 171.971 70.7021 171.867 71.01C170.494 75.1282 167.45 76.5805 162.755 75.347C161.661 75.0685 161.223 74.3722 161.402 73.278L161.999 69.5775C162.098 69.0404 162.417 68.7419 162.954 68.722ZM135.917 51.0764C161.283 66.9326 131.739 101.47 109.715 84.9773C99.9867 77.6958 102.036 63.3317 110.591 55.2544C118.429 48.4304 126.865 47.0378 135.917 51.0764ZM117.947 77.7063C119.982 79.257 122.627 79.8355 125.298 79.3146C127.97 78.7936 130.45 77.2159 132.193 74.9284C133.935 72.6409 134.798 69.8311 134.59 67.117C134.383 64.403 133.123 62.007 131.088 60.4563C129.052 58.9056 126.407 58.327 123.736 58.848C121.064 59.369 118.584 60.9467 116.842 63.2342C115.099 65.5217 114.237 68.3315 114.444 71.0455C114.651 73.7596 115.911 76.1555 117.947 77.7063ZM95.2917 90.3082L99.3702 53.2639C94.3367 51.6922 90.5965 52.4681 88.1096 55.5916L87.0751 66.3348C86.9955 67.0909 86.5777 67.5086 85.8018 67.5882L75.3371 68.6426C74.7005 68.7023 74.422 68.4238 74.4817 67.7872L75.7151 55.711C71.3781 55.0544 67.797 55.3927 64.9918 56.7455L60.9929 93.1531C60.8935 94.0683 61.3112 94.4662 62.2264 94.3667L70.821 93.2526C71.5969 93.1531 72.0147 92.7154 72.0744 91.9395L72.8901 79.9032C72.9498 79.167 73.3278 78.7691 74.044 78.6697L84.5684 77.3765C85.3841 77.277 85.7422 77.6152 85.6825 78.4309L84.6877 90.4673C84.628 91.2034 84.9464 91.5616 85.6825 91.5616L93.9587 91.5218C94.2864 91.523 94.6034 91.3999 94.8493 91.1761C95.0951 90.9522 95.2526 90.6433 95.2917 90.3082Z" fill="black"/>
</svg>
