<svg width="247" height="55" viewBox="0 0 247 55" fill="none" xmlns="http://www.w3.org/2000/svg">
<g clip-path="url(#clip0_0_3220)">
<path d="M0.38501 20.3811V0.97424H23.8674V20.3811H18.877V5.57645H5.37535V20.3811H0.38501ZM31.2466 11.2321V0.97424H53.0655V20.3811H48.0751V5.57645H36.2369V11.2321C36.2369 17.3314 34.4071 20.4643 28.0028 20.4643C27.3929 20.4643 26.7552 20.4365 26.0899 20.3811V15.7512C26.5612 15.8066 27.0048 15.8343 27.4206 15.8343C30.6089 15.8343 31.2466 14.2263 31.2466 11.2321ZM74.5998 16.8601H62.5675L60.6545 20.3811H55.276L65.5062 0.97424H71.6333L81.8912 20.3811H76.5127L74.5998 16.8601ZM64.8686 12.6461H72.2986L68.5836 5.82597L64.8686 12.6461ZM87.5053 5.74279H78.2455V0.97424H101.728V5.74279H92.4957V20.3811H87.5053V5.74279ZM121.025 2.55452H123.631C131.366 2.55452 134.333 5.82597 134.333 10.6777C134.333 15.5571 131.366 18.8285 123.631 18.8285H121.025V20.7692H116.035V18.8285H113.456C105.721 18.8285 102.727 15.5571 102.727 10.6777C102.727 5.82597 105.721 2.55452 113.456 2.55452H116.035V0.613825H121.025V2.55452ZM113.456 14.3095H116.035V7.07355H113.456C109.048 7.07355 107.718 8.54293 107.718 10.6777C107.718 12.8401 109.048 14.3095 113.456 14.3095ZM121.025 14.3095H123.631C128.039 14.3095 129.342 12.8401 129.342 10.6777C129.342 8.54293 128.039 7.07355 123.631 7.07355H121.025V14.3095ZM149.416 0.50293C158.897 0.50293 162.363 4.85562 162.363 10.6499C162.363 16.4443 158.897 20.8247 149.416 20.8247C139.934 20.8247 136.468 16.4443 136.468 10.6499C136.468 4.85562 139.934 0.50293 149.416 0.50293ZM149.416 16.0284C155.598 16.0284 157.372 13.8105 157.372 10.6499C157.372 7.51714 155.598 5.27148 149.416 5.27148C143.233 5.27148 141.459 7.51714 141.459 10.6499C141.459 13.8105 143.233 16.0284 149.416 16.0284ZM165.566 0.97424H178.125C184.612 0.97424 187.191 3.77438 187.191 8.18252C187.191 12.5906 184.612 15.3908 178.125 15.3908H170.556V20.3811H165.566V0.97424ZM170.556 11.149H178.125C181.147 11.149 182.2 10.04 182.2 8.18252C182.2 6.35272 181.147 5.21603 178.125 5.21603H170.556V11.149ZM194.2 0.97424L204.097 11.5925L213.995 0.97424H218.153V20.3811H213.163V8.15479L204.097 17.9691L195.031 8.15479V20.3811H190.041V0.97424H194.2ZM239.699 16.8601H227.667L225.754 20.3811H220.375L230.606 0.97424H236.733L246.991 20.3811H241.612L239.699 16.8601ZM229.968 12.6461H237.398L233.683 5.82597L229.968 12.6461ZM61.2975 41.3765H74.7991V33.9742H79.7895V53.3811H74.7991V45.9788H61.2975V53.3811H56.3071V33.9742H61.2975V41.3765ZM95.9572 33.5029C105.439 33.5029 108.904 37.8556 108.904 43.6499C108.904 49.4443 105.439 53.8247 95.9572 53.8247C86.4755 53.8247 83.01 49.4443 83.01 43.6499C83.01 37.8556 86.4755 33.5029 95.9572 33.5029ZM95.9572 49.0284C102.14 49.0284 103.914 46.8105 103.914 43.6499C103.914 40.5171 102.14 38.2714 95.9572 38.2714C89.7747 38.2714 88.0004 40.5171 88.0004 43.6499C88.0004 46.8105 89.7747 49.0284 95.9572 49.0284ZM131.57 43.345C133.899 44.0935 135.035 45.7847 135.035 48.0858C135.035 51.3295 132.845 53.3811 127.882 53.3811H112.107V33.9742H127.245C132.096 33.9742 134.204 35.9703 134.204 39.1032C134.204 41.0439 133.344 42.541 131.57 43.345ZM126.857 38.0219H117.098V41.6538H126.857C128.381 41.6538 129.213 40.9607 129.213 39.8517C129.213 38.7428 128.381 38.0219 126.857 38.0219ZM117.098 49.3334H127.605C129.158 49.3334 130.045 48.5848 130.045 47.4204C130.045 46.256 129.158 45.5074 127.605 45.5074H117.098V49.3334ZM143.17 33.9742V46.4778L157.504 33.9742H161.662V53.3811H156.672V40.8775L142.339 53.3811H138.18V33.9742H143.17ZM170.705 41.3765H184.207V33.9742H189.197V53.3811H184.207V45.9788H170.705V53.3811H165.715V33.9742H170.705V41.3765Z" fill="black"/>
</g>
<defs>
<clipPath id="clip0_0_3220">
<rect width="247" height="54" fill="white" transform="translate(0 0.380859)"/>
</clipPath>
</defs>
</svg>
