<svg width="270" height="72" viewBox="0 0 270 72" fill="none" xmlns="http://www.w3.org/2000/svg">
<g clip-path="url(#clip0_0_1772)">
<path fill-rule="evenodd" clip-rule="evenodd" d="M30.936 0H45.084C44.455 0.339172 43.7848 0.301223 43.1271 0.263985C42.505 0.22876 41.8942 0.194172 41.34 0.48C40.872 0.72 40.896 0.84 41.424 0.852C58.548 1.104 71.1 16.26 73.392 32.136C73.452 32.58 73.692 32.88 74.112 33.036L74.796 33.288C75.132 33.408 75.3 33.648 75.3 34.008V38.412C75.3 38.796 75.108 39.012 74.724 39.048C74.016 39.132 73.596 39.492 73.488 40.152C70.764 55.908 59.904 69.696 43.284 71.28C43.152 71.292 43.056 71.352 42.984 71.472C42.9679 71.5015 42.9597 71.5351 42.9606 71.5688C42.9614 71.6025 42.9711 71.6349 42.9887 71.6625C43.0062 71.6901 43.0308 71.7116 43.0597 71.7246C43.0886 71.7376 43.1206 71.7415 43.152 71.736C44.196 71.592 45.096 71.676 45.84 72H29.904L31.584 71.628C32.076 71.52 32.088 71.364 31.62 71.16C31.392 71.064 31.14 71.016 30.888 71.028C26.712 71.208 20.76 68.076 17.412 65.676C8.496 59.304 3.36 50.532 1.992 39.36C1.96895 39.1713 1.87981 38.9969 1.7404 38.8678C1.60098 38.7386 1.42031 38.663 1.23044 38.6543C1.04057 38.6457 0.853781 38.7046 0.703221 38.8206C0.552661 38.9366 0.448067 39.1022 0.408 39.288C0.324 39.684 0.18 39.876 0 39.84V32.004C0.216 32.832 0.408 33.276 0.588 33.312C0.727753 33.346 0.872577 33.3535 1.01339 33.3339C1.15419 33.3144 1.28795 33.2682 1.40625 33.1984C1.52456 33.1285 1.62487 33.0364 1.70089 32.928C1.77691 32.8195 1.82699 32.6969 1.848 32.568C4.344 16.848 17.7 -0.492 35.4 0.912C35.544 0.924 35.664 0.912 35.748 0.876C36 0.768 35.964 0.684 35.64 0.636L30.936 0ZM69.54 33.456L70.848 32.952C70.9698 32.9058 71.0715 32.8191 71.1352 32.7071C71.1988 32.5951 71.2204 32.4651 71.196 32.34C63.792 -7.128 10.26 -6.96 4.56 32.112C4.5 32.508 4.668 32.784 5.04 32.916L5.712 33.168C6.036 33.288 6.216 33.528 6.228 33.888L6.432 38.256C6.43831 38.4233 6.38512 38.5875 6.28186 38.7193C6.1786 38.8511 6.03197 38.9421 5.868 38.976C4.8 39.192 4.368 39.864 4.572 40.992C11.244 79.308 64.344 78.876 71.064 40.188C71.148 39.696 70.956 39.384 70.488 39.24L69.54 38.94C69.24 38.844 69.084 38.64 69.096 38.328L69.18 33.972C69.1803 33.8596 69.215 33.7499 69.2793 33.6577C69.3436 33.5655 69.4346 33.4951 69.54 33.456ZM211.32 13.0681C211.435 13.1257 211.538 13.2067 211.62 13.3058C211.703 13.4049 211.764 13.5201 211.8 13.6441C211.837 13.7681 211.847 13.8982 211.83 14.0262C211.813 14.1542 211.77 14.2774 211.704 14.3881L210.312 16.6921C210.202 16.8716 210.031 17.0055 209.831 17.0694C209.63 17.1333 209.413 17.1229 209.22 17.0401C208.739 16.8317 208.283 16.5953 207.84 16.3657C206.038 15.4313 204.451 14.6082 202.284 16.2361C202.01 16.4419 201.796 16.7163 201.662 17.0317C201.528 17.347 201.481 17.692 201.523 18.0318C201.566 18.3716 201.697 18.6941 201.905 18.9667C202.112 19.2393 202.388 19.4523 202.704 19.5841C203.4 19.8763 204.153 20.1405 204.92 20.4095L204.921 20.4098L204.921 20.4098C208.437 21.6429 212.245 22.9782 212.196 27.5881C212.124 35.8081 201.96 37.5841 196.908 33.3841C196.488 33.0411 196.2 32.5622 196.096 32.03C195.991 31.4978 196.075 30.9458 196.334 30.4692C196.593 29.9926 197.01 29.6214 197.514 29.4196C198.017 29.2178 198.575 29.1982 199.092 29.3641C199.661 29.5361 200.226 29.8687 200.811 30.2135C202.063 30.9514 203.411 31.7453 205.104 31.1401C207.36 30.3361 207.96 28.2601 206.064 26.5561C205.764 26.2921 205.428 26.1241 205.044 26.0401C189.216 22.5841 197.628 6.16808 211.32 13.0681ZM240.786 29.9072C240.568 30.3079 240.218 30.6206 239.795 30.7919C227.507 35.6639 224.795 9.67186 242.699 17.5919C242.876 17.669 243.073 17.6873 243.261 17.6441C243.449 17.6009 243.618 17.4984 243.743 17.3519L245.711 15.0119C245.963 14.7119 245.939 14.4479 245.627 14.2199C234.947 6.32386 219.539 15.3719 225.575 28.8119C228.815 36.0359 238.751 37.2719 245.231 33.2039C245.543 33.0119 245.699 32.7239 245.699 32.3519V23.6999C245.699 23.3039 245.495 23.0999 245.099 23.0999H237.527C237.083 23.0999 236.879 23.3279 236.927 23.7719L237.215 26.2559C237.239 26.4614 237.337 26.651 237.489 26.7883C237.642 26.9256 237.839 27.0009 238.043 26.9999H239.063C239.519 27.0015 239.961 27.1614 240.312 27.4523C240.663 27.7432 240.902 28.1471 240.989 28.5948C241.075 29.0426 241.004 29.5065 240.786 29.9072ZM270.001 11.2562V35.3041L266.413 35.3761C266.211 35.3797 266.011 35.336 265.828 35.2486C265.645 35.1612 265.483 35.0324 265.357 34.8722L254.485 20.8202C254.434 20.7555 254.365 20.7081 254.286 20.6846C254.207 20.6611 254.123 20.6626 254.045 20.689C253.968 20.7153 253.9 20.7652 253.852 20.8317C253.804 20.8982 253.777 20.978 253.777 21.0601L253.861 34.5242C253.861 35.0401 253.609 35.2921 253.093 35.2801L249.529 35.2201C249.157 35.2081 248.977 35.0281 248.977 34.6561L249.013 13.1642C249.012 12.6654 249.167 12.1789 249.456 11.7724C249.745 11.3658 250.154 11.0595 250.625 10.8958C251.096 10.7321 251.607 10.7194 252.085 10.8592C252.564 10.9991 252.988 11.2846 253.297 11.6761L264.457 25.7281C264.515 25.8038 264.596 25.8589 264.688 25.8859C264.78 25.9129 264.878 25.9102 264.968 25.8784C265.059 25.8465 265.137 25.787 265.191 25.7084C265.246 25.6297 265.274 25.5359 265.273 25.4401L265.129 12.2162C265.129 11.7242 265.381 11.4601 265.873 11.4361L270.001 11.2562ZM154.598 11.5105C154.535 11.5735 154.5 11.659 154.5 11.7481V35.0281C154.5 35.1172 154.535 35.2027 154.598 35.2657C154.661 35.3287 154.747 35.3641 154.836 35.3641H164.064C165.61 35.3641 167.141 35.0776 168.569 34.521C169.997 33.9644 171.295 33.1485 172.388 32.12C173.481 31.0915 174.348 29.8705 174.94 28.5267C175.532 27.1829 175.836 25.7426 175.836 24.2881V22.4881C175.836 19.5506 174.596 16.7333 172.388 14.6562C170.18 12.579 167.186 11.4121 164.064 11.4121H154.836C154.747 11.4121 154.661 11.4475 154.598 11.5105ZM159.876 30.2761L159.9 16.2601C159.9 16.0882 159.968 15.9234 160.09 15.8019C160.211 15.6804 160.376 15.6121 160.548 15.6121L163.956 15.6241C165.592 15.6273 167.159 16.2663 168.314 17.4006C169.468 18.5348 170.115 20.0713 170.112 21.6721V24.9121C170.11 25.7048 169.949 26.4894 169.638 27.2211C169.327 27.9529 168.871 28.6174 168.297 29.1768C167.723 29.7361 167.042 30.1794 166.293 30.4813C165.544 30.7832 164.742 30.9377 163.932 30.9361L160.524 30.9241C160.439 30.9241 160.355 30.9073 160.276 30.8748C160.197 30.8422 160.126 30.7945 160.066 30.7343C160.006 30.6741 159.958 30.6027 159.925 30.5241C159.893 30.4455 159.876 30.3612 159.876 30.2761ZM184.2 16.0442V20.8562C184.2 20.9739 184.247 21.0868 184.33 21.1701C184.413 21.2534 184.526 21.3002 184.644 21.3002H191.352C191.412 21.3001 191.472 21.3123 191.527 21.3361C191.583 21.3599 191.633 21.3948 191.675 21.4386C191.716 21.4824 191.748 21.5342 191.769 21.5909C191.79 21.6475 191.799 21.7079 191.796 21.7682L191.664 25.0802C191.658 25.1937 191.608 25.3006 191.526 25.3787C191.443 25.4569 191.334 25.5003 191.22 25.5002H184.644C184.526 25.5002 184.413 25.5469 184.33 25.6302C184.247 25.7135 184.2 25.8264 184.2 25.9442V30.4562C184.2 30.5739 184.247 30.6868 184.33 30.7701C184.413 30.8534 184.526 30.9002 184.644 30.9002H193.524C193.634 30.8995 193.74 30.9396 193.822 31.0128C193.904 31.0859 193.956 31.1869 193.968 31.2962L194.328 34.5722C194.334 34.6324 194.329 34.6933 194.311 34.7513C194.293 34.8092 194.264 34.8628 194.224 34.9089C194.185 34.955 194.136 34.9926 194.082 35.0193C194.028 35.046 193.968 35.0612 193.908 35.0642L179.256 35.4482C179.197 35.4498 179.137 35.4395 179.082 35.4179C179.027 35.3963 178.977 35.3638 178.934 35.3224C178.892 35.281 178.858 35.2315 178.835 35.1769C178.812 35.1222 178.8 35.0635 178.8 35.0042V11.8442C178.8 11.7264 178.847 11.6135 178.93 11.5302C179.013 11.4469 179.126 11.4002 179.244 11.4002H193.86C193.922 11.3998 193.984 11.4127 194.042 11.4379C194.099 11.4632 194.15 11.5002 194.192 11.5467C194.234 11.5931 194.266 11.6479 194.285 11.7075C194.304 11.767 194.311 11.8299 194.304 11.8922L193.98 15.2042C193.968 15.3134 193.916 15.4144 193.834 15.4875C193.752 15.5607 193.646 15.6008 193.536 15.6002H184.644C184.526 15.6002 184.413 15.6469 184.33 15.7302C184.247 15.8135 184.2 15.9264 184.2 16.0442ZM216.087 11.416L220.815 11.4078C221.12 11.4072 221.368 11.654 221.368 11.9588L221.408 34.8308C221.409 35.1356 221.162 35.3832 220.857 35.3837L216.129 35.392C215.824 35.3925 215.577 35.1458 215.576 34.841L215.536 11.969C215.536 11.6641 215.782 11.4166 216.087 11.416ZM92.9156 27.9841L93.2876 34.9801C93.3116 35.4721 93.0836 35.7121 92.5916 35.7001L88.5476 35.5801C88.0796 35.5681 87.8516 35.3161 87.8516 34.8481L87.8876 12.4921C87.8876 12.0841 88.0916 11.8561 88.4996 11.8201C93.1676 11.3521 100.44 11.0761 103.68 14.7481C106.368 17.7961 104.928 22.8121 101.124 24.9241C100.776 25.1161 100.704 25.3801 100.92 25.7161L106.74 34.8361C107.172 35.5081 106.992 35.8201 106.2 35.7721L101.364 35.5201C100.944 35.4961 100.632 35.3041 100.428 34.9441L95.8436 27.1081C95.666 26.8033 95.391 26.567 95.0629 26.4374C94.7348 26.3078 94.3727 26.2923 94.0347 26.3934C93.6967 26.4945 93.4026 26.7064 93.1996 26.9949C92.9966 27.2834 92.8966 27.6318 92.9156 27.9841ZM93.2996 16.2601V22.6201C93.2995 22.7071 93.3333 22.7908 93.3937 22.8535C93.4541 22.9162 93.5365 22.953 93.6236 22.9561H94.7516C95.4055 22.9578 96.0534 22.8702 96.6579 22.6985C97.2625 22.5268 97.8119 22.2743 98.2746 21.9554C98.7372 21.6366 99.1041 21.2576 99.3541 20.8404C99.6042 20.4232 99.7324 19.9759 99.7316 19.5241V19.3561C99.7298 18.4481 99.2073 17.5771 98.2784 16.9338C97.3495 16.2905 96.09 15.9275 94.7756 15.9241H93.6476C93.6024 15.9225 93.5574 15.93 93.5153 15.9461C93.4731 15.9623 93.4347 15.9868 93.4022 16.0181C93.3697 16.0495 93.3439 16.0871 93.3262 16.1287C93.3086 16.1702 93.2995 16.2149 93.2996 16.2601ZM110.409 11.7081L115.209 11.7164C115.381 11.7167 115.52 11.8567 115.52 12.029L115.479 35.381C115.479 35.5533 115.339 35.6927 115.167 35.6924L110.367 35.684C110.195 35.6837 110.055 35.5438 110.055 35.3715L110.096 12.0195C110.096 11.8472 110.236 11.7078 110.409 11.7081ZM143.667 24.4316C143.481 27.6629 141.987 30.686 139.514 32.8359C137.041 34.9858 133.792 36.0864 130.481 35.8955C127.17 35.7046 124.069 34.2379 121.86 31.8181C119.651 29.3982 118.514 26.2234 118.7 22.9921C118.887 19.7607 120.381 16.7376 122.853 14.5877C125.326 12.4378 128.575 11.3372 131.886 11.5281C135.197 11.719 138.298 13.1857 140.507 15.6056C142.717 18.0254 143.853 21.2002 143.667 24.4316ZM131.486 31.2297C132.386 31.1935 133.27 30.9633 134.087 30.552C134.904 30.1408 135.638 29.5567 136.247 28.833C136.856 28.1093 137.328 27.2602 137.636 26.3343C137.944 25.4083 138.082 24.4236 138.042 23.4363C137.962 21.4424 137.163 19.5593 135.82 18.2011C134.477 16.8429 132.701 16.1209 130.882 16.1939C129.981 16.2301 129.097 16.4604 128.28 16.8716C127.463 17.2828 126.729 17.867 126.12 18.5907C125.512 19.3143 125.04 20.1634 124.732 21.0894C124.424 22.0153 124.286 23.0001 124.325 23.9873C124.405 25.9812 125.205 27.8644 126.548 29.2226C127.89 30.5808 129.667 31.3027 131.486 31.2297ZM35.592 44.1479L31.128 37.5719C30.876 37.1879 30.96 36.9239 31.404 36.7679C33.048 36.1799 33.984 35.1239 34.188 33.5879C35.1582 26.4842 28.0551 26.7801 22.7315 27.0019C22.3266 27.0187 21.932 27.0352 21.552 27.0479C21.18 27.0599 21 27.2519 21 27.6239V44.3999C21 44.7959 21.204 44.9999 21.6 44.9999H24.792C25.32 44.9999 25.572 44.7359 25.56 44.2079L25.344 39.2519C25.3333 39.0071 25.4052 38.7657 25.5482 38.5667C25.6912 38.3677 25.897 38.2226 26.1325 38.1548C26.368 38.0869 26.6194 38.1002 26.8464 38.1925C27.0734 38.2849 27.2628 38.4509 27.384 38.6639L30.696 44.3519C30.948 44.7839 31.332 44.9999 31.836 44.9999H35.136C35.82 44.9999 35.964 44.7119 35.592 44.1479ZM25.356 34.4759V31.1159C25.356 30.8804 25.4496 30.6545 25.6161 30.488C25.7826 30.3214 26.0085 30.2279 26.244 30.2279H26.904C27.344 30.2275 27.7797 30.2893 28.1861 30.4098C28.5926 30.5302 28.9619 30.7069 29.2728 30.9298C29.5837 31.1527 29.8303 31.4174 29.9983 31.7088C30.1663 32.0002 30.2525 32.3125 30.252 32.6279V32.9639C30.2509 33.5999 29.8978 34.2099 29.27 34.6599C28.6422 35.11 27.7913 35.3631 26.904 35.3639H26.244C26.0085 35.3639 25.7826 35.2703 25.6161 35.1038C25.4496 34.9373 25.356 34.7114 25.356 34.4759ZM37.7285 27.4079C37.7285 27.2933 37.774 27.1834 37.855 27.1024C37.9361 27.0214 38.0459 26.9759 38.1605 26.9759L44.8565 26.9639C46.0795 26.9622 47.2907 27.1912 48.4212 27.6377C49.5516 28.0843 50.5791 28.7397 51.4449 29.5665C52.3107 30.3934 52.998 31.3754 53.4673 32.4566C53.9367 33.5378 54.1791 34.6969 54.1805 35.8679V36.0839C54.1835 38.4484 53.2053 40.7174 51.4613 42.3917C49.7172 44.066 47.3501 45.0085 44.8805 45.0119L38.1845 45.0239C38.1278 45.0239 38.0716 45.0127 38.0192 44.991C37.9668 44.9693 37.9192 44.9375 37.879 44.8973C37.8389 44.8572 37.8071 44.8096 37.7854 44.7572C37.7637 44.7048 37.7525 44.6486 37.7525 44.5919L37.7285 27.4079ZM41.9885 30.8999L41.8685 41.0759C41.8669 41.1594 41.8818 41.2424 41.9123 41.3202C41.9428 41.398 41.9883 41.469 42.0463 41.5291C42.1042 41.5893 42.1735 41.6375 42.25 41.6709C42.3266 41.7043 42.409 41.7223 42.4925 41.7239L44.4725 41.7479C45.1635 41.757 45.8495 41.6226 46.4914 41.3524C47.1332 41.0822 47.7184 40.6815 48.2132 40.1733C48.7081 39.665 49.103 39.0592 49.3754 38.3904C49.6478 37.7217 49.7922 37.0031 49.8005 36.2759V35.8919C49.8175 34.4262 49.2811 33.0141 48.3091 31.9656C47.3371 30.9171 46.0091 30.318 44.6165 30.2999L42.6365 30.2759C42.553 30.2743 42.47 30.2892 42.3922 30.3197C42.3144 30.3502 42.2434 30.3957 42.1833 30.4536C42.1231 30.5116 42.0749 30.5808 42.0415 30.6574C42.0081 30.734 41.9901 30.8164 41.9885 30.8999ZM266.833 46.26L266.413 46.956C266.113 47.46 265.765 47.508 265.345 47.1L264.481 46.224C264.109 45.852 263.869 45.924 263.761 46.44C263.629 47.112 264.133 47.604 265.273 47.916C265.53 47.9903 265.802 48.003 266.066 47.953C266.331 47.903 266.581 47.7917 266.797 47.628C267.385 47.196 267.637 46.788 267.565 46.404C267.553 46.3232 267.516 46.2481 267.46 46.189C267.403 46.1299 267.33 46.0897 267.25 46.0739C267.169 46.0581 267.086 46.0675 267.012 46.1009C266.937 46.1342 266.875 46.1898 266.833 46.26ZM114.42 52.0079L116.004 48.6479C116.083 48.4777 116.223 48.3435 116.397 48.2723C116.571 48.2011 116.765 48.1981 116.94 48.2639C117.456 48.4439 117.612 48.7319 117.432 49.1159C116.268 51.5039 115.104 53.9039 113.964 56.3159C113.484 57.3239 112.776 57.6479 111.828 57.2879C111.444 57.1439 111.384 56.9159 111.648 56.5919L112.896 55.0679C113.124 54.7919 113.16 54.4919 112.98 54.1799L109.956 48.9719C109.911 48.8955 109.882 48.8109 109.87 48.7231C109.858 48.6353 109.863 48.546 109.885 48.4602C109.93 48.2869 110.042 48.1386 110.196 48.0479C110.351 47.9572 110.535 47.9315 110.708 47.9765C110.881 48.0215 111.03 48.1335 111.12 48.2879L113.412 52.0679C113.467 52.1552 113.545 52.2262 113.636 52.2734C113.728 52.3206 113.831 52.3423 113.934 52.3361C114.037 52.33 114.137 52.2963 114.222 52.2385C114.308 52.1808 114.376 52.1011 114.42 52.0079ZM154.305 54.392C154.737 54.7218 155.023 55.2078 155.113 55.7641C155.257 56.6401 155.725 57.1441 156.517 57.3001C157.153 57.4201 157.345 57.1801 157.093 56.5801L153.589 48.4081C153.529 48.2728 153.431 48.1574 153.307 48.0763C153.183 47.9952 153.038 47.9519 152.891 47.9519C152.744 47.9519 152.601 47.9952 152.48 48.0763C152.358 48.1574 152.264 48.2728 152.209 48.4081L148.693 56.6401C148.653 56.7357 148.642 56.8414 148.662 56.9433C148.682 57.0452 148.732 57.1386 148.804 57.2112C148.877 57.2839 148.969 57.3324 149.069 57.3503C149.169 57.3683 149.272 57.355 149.365 57.3121C149.917 57.0841 150.241 56.7121 150.337 56.1961C150.441 55.6222 150.741 55.0832 151.183 54.6743C151.497 54.3838 151.868 54.1721 152.262 54.0555C152.355 54.1854 152.48 54.2909 152.626 54.3607C152.846 54.4653 153.097 54.4815 153.328 54.4059C153.505 54.3482 153.659 54.2403 153.774 54.097C153.964 54.1694 154.143 54.2682 154.305 54.392ZM153.774 54.097C153.809 54.0529 153.841 54.0054 153.868 53.955C153.984 53.7409 154.012 53.4907 153.949 53.2561L153.565 51.4201C153.538 51.289 153.473 51.1694 153.377 51.0766C153.281 50.9837 153.159 50.9218 153.026 50.8986C152.894 50.8754 152.757 50.8921 152.632 50.9465C152.508 51.0009 152.402 51.0906 152.329 51.2041C151.789 52.0561 151.729 52.9321 152.149 53.8441C152.178 53.9197 152.216 53.9906 152.262 54.0555C152.422 54.0079 152.586 53.9762 152.752 53.9612C153.109 53.9289 153.457 53.9764 153.774 54.097ZM91.7755 49.3201C91.5544 49.2148 91.3103 49.1672 91.0659 49.1817C90.8214 49.1961 90.5846 49.2721 90.3775 49.4026C90.1703 49.5332 89.9995 49.714 89.881 49.9282C89.7624 50.1425 89.7 50.3832 89.6995 50.6281L89.6875 56.9281C89.6843 57.1652 89.5871 57.3926 89.4172 57.5603C89.2473 57.7279 89.0186 57.8221 88.7815 57.8221C88.5444 57.8221 88.3183 57.7279 88.1529 57.5603C87.9874 57.3926 87.8963 57.1652 87.8995 56.9281V49.0801C87.8995 48.8732 87.9829 48.6748 88.1315 48.5285C88.28 48.3822 88.4814 48.3001 88.6915 48.3001H93.2755C93.3634 48.2996 93.4494 48.326 93.522 48.3757C93.5945 48.4254 93.6502 48.4961 93.6815 48.5783C93.7128 48.6604 93.7182 48.7502 93.6972 48.8356C93.6761 48.921 93.6295 48.9979 93.5635 49.0561C92.9995 49.5361 92.4115 49.6201 91.7755 49.3201ZM105.29 50.2082C105.135 49.7614 104.829 49.3837 104.425 49.1401C102.889 48.2041 101.209 47.9641 99.3727 48.4201C98.9767 48.5281 98.7847 48.7801 98.8207 49.1881C98.9527 51.0481 98.9647 52.8961 98.8447 54.7441C98.8207 55.1275 98.8287 55.5128 98.8687 55.8961C98.9887 56.9761 99.3367 57.4441 99.9007 57.3001C100.021 57.2723 100.131 57.2073 100.217 57.1133C100.302 57.0194 100.359 56.9006 100.381 56.7721L100.669 54.7681C100.701 54.5565 100.81 54.3644 100.974 54.2292C101.138 54.094 101.346 54.0251 101.557 54.0361C103.417 54.0961 104.653 53.2801 105.277 51.5881C105.441 51.143 105.446 50.655 105.29 50.2082ZM101.881 49.2001L103.729 50.1121C103.8 50.1467 103.863 50.1949 103.916 50.2541C103.968 50.3132 104.008 50.3821 104.034 50.4568C104.059 50.5315 104.07 50.6105 104.065 50.6893C104.06 50.7682 104.039 50.8452 104.005 50.9161L103.789 51.3361C103.477 51.965 103.04 52.4999 102.572 52.8238C102.104 53.1476 101.644 53.2341 101.293 53.0641L101.005 52.9201C100.656 52.7429 100.447 52.3238 100.422 51.7546C100.397 51.1854 100.559 50.5127 100.873 49.8841L101.077 49.4641C101.149 49.3228 101.274 49.2157 101.424 49.1662C101.575 49.1168 101.739 49.1289 101.881 49.2001ZM125.029 49.8721C124.681 50.0521 124.501 50.3521 124.501 50.7481V56.6161C124.501 57.1801 124.225 57.4081 123.673 57.3001L123.373 57.2401C122.881 57.1441 122.641 56.8441 122.653 56.3521L122.725 49.0801C122.725 48.8764 122.806 48.6811 122.95 48.537C123.094 48.393 123.289 48.3121 123.493 48.3121L129.409 48.2881C129.616 48.2881 129.814 48.3715 129.96 48.5201C130.107 48.6686 130.189 48.87 130.189 49.0801L130.201 56.6521C130.213 57.1321 129.973 57.3481 129.493 57.3121C129.337 57.3001 129.169 57.3001 128.989 57.3121C128.92 57.3155 128.851 57.3045 128.787 57.2798C128.723 57.2551 128.665 57.2172 128.616 57.1686C128.568 57.12 128.53 57.0617 128.505 56.9975C128.48 56.9334 128.469 56.8648 128.473 56.7961C128.509 55.2481 128.569 53.7001 128.677 52.1521C128.761 50.9641 128.617 50.1601 128.245 49.7401C127.609 49.0321 126.541 49.0801 125.029 49.8721ZM138.06 55.2001C137.808 53.1721 137.832 51.5881 138.132 50.4361C138.243 49.9961 138.508 49.6104 138.878 49.3489C139.249 49.0875 139.701 48.9677 140.153 49.0112C140.605 49.0548 141.026 49.2589 141.34 49.5864C141.654 49.9139 141.84 50.3431 141.864 50.7961C141.948 52.3921 141.948 54.2641 141.852 56.4121C141.828 57.0001 142.152 57.3001 142.824 57.3121C143.412 57.3241 143.7 57.0481 143.7 56.4601V49.0921C143.7 48.9897 143.68 48.8883 143.641 48.7936C143.602 48.699 143.544 48.613 143.472 48.5406C143.399 48.4682 143.313 48.4107 143.219 48.3715C143.124 48.3323 143.023 48.3121 142.92 48.3121L137.1 48.3001C136.983 48.2985 136.866 48.3206 136.757 48.3652C136.648 48.4097 136.548 48.4757 136.465 48.5595C136.381 48.6432 136.314 48.7429 136.269 48.8529C136.224 48.9629 136.2 49.0809 136.2 49.2001V56.7001C136.202 56.8582 136.252 57.0121 136.343 57.1413C136.434 57.2705 136.562 57.3689 136.71 57.4236C136.859 57.4782 137.02 57.4865 137.174 57.4473C137.327 57.4081 137.464 57.3233 137.568 57.2041C137.988 56.7001 138.156 56.0281 138.06 55.2001ZM186.744 53.1841C186.744 53.8082 186.621 54.4261 186.383 55.0026C186.144 55.5792 185.794 56.103 185.352 56.5443C184.911 56.9856 184.387 57.3356 183.811 57.5744C183.234 57.8132 182.616 57.9361 181.992 57.9361C181.368 57.9361 180.75 57.8132 180.174 57.5744C179.597 57.3356 179.073 56.9856 178.632 56.5443C178.191 56.103 177.841 55.5792 177.602 55.0026C177.363 54.4261 177.24 53.8082 177.24 53.1841C177.24 51.9238 177.741 50.7151 178.632 49.824C179.523 48.9328 180.732 48.4321 181.992 48.4321C183.253 48.4321 184.461 48.9328 185.352 49.824C186.244 50.7151 186.744 51.9238 186.744 53.1841ZM182.007 56.7235C182.406 56.7166 182.799 56.6163 183.164 56.4284C183.529 56.2404 183.859 55.9686 184.135 55.6283C184.411 55.288 184.628 54.886 184.773 54.4452C184.918 54.0043 184.988 53.5334 184.98 53.0591C184.963 52.1013 184.627 51.1883 184.046 50.521C183.465 49.8537 182.686 49.4867 181.881 49.5007C181.483 49.5077 181.09 49.608 180.724 49.7959C180.359 49.9838 180.029 50.2557 179.753 50.596C179.477 50.9362 179.261 51.3383 179.116 51.7791C178.971 52.2199 178.9 52.6909 178.909 53.1652C178.925 54.123 179.261 55.0359 179.842 55.7032C180.423 56.3706 181.202 56.7376 182.007 56.7235ZM226.774 55.0571C227.148 55.4176 227.349 55.922 227.34 56.4838C227.328 57.2278 227.652 57.6358 228.312 57.6958C228.996 57.7558 229.212 57.4798 228.948 56.8438L225.54 48.8278C225.479 48.6865 225.377 48.5662 225.248 48.4817C225.119 48.3973 224.968 48.3523 224.814 48.3523C224.66 48.3523 224.509 48.3973 224.38 48.4817C224.251 48.5662 224.15 48.6865 224.088 48.8278L220.476 57.2878C220.435 57.3781 220.423 57.4792 220.443 57.5765C220.463 57.6738 220.513 57.7623 220.587 57.8291C220.66 57.8959 220.753 57.9376 220.852 57.9482C220.951 57.9587 221.05 57.9376 221.136 57.8878C221.724 57.5638 222.132 57.1198 222.384 56.5318C222.615 55.9679 223.031 55.4575 223.561 55.0882C223.868 54.8741 224.202 54.7152 224.543 54.6184C224.623 54.64 224.705 54.6561 224.789 54.6662C225.101 54.704 225.413 54.6564 225.668 54.5336C226.099 54.5968 226.482 54.7766 226.774 55.0571ZM225.668 54.5336C225.697 54.5195 225.725 54.5045 225.753 54.4885C226.022 54.3325 226.191 54.0973 226.223 53.8346C226.255 53.572 226.148 53.3033 225.924 53.0878C225.696 52.8598 225.6 52.5958 225.636 52.2958C225.655 52.1487 225.624 51.9995 225.548 51.8722C225.472 51.745 225.355 51.6472 225.216 51.5945C225.077 51.5418 224.925 51.5373 224.784 51.5818C224.642 51.6263 224.52 51.7172 224.436 51.8398C223.596 53.0038 223.416 53.8198 223.896 54.2638C224.066 54.4274 224.292 54.5503 224.543 54.6184C224.79 54.5482 225.041 54.5106 225.287 54.5082C225.417 54.507 225.544 54.5155 225.668 54.5336ZM270 48.4321V57.6361C267.348 58.3681 266.724 56.6401 268.116 52.4761C268.153 52.3488 268.144 52.2125 268.091 52.0911C268.038 51.9697 267.943 51.8709 267.825 51.8122C267.706 51.7535 267.57 51.7385 267.441 51.77C267.312 51.8014 267.199 51.8772 267.12 51.9841L263.412 57.5041C263.313 57.6496 263.17 57.7596 263.004 57.8183C262.838 57.877 262.657 57.8812 262.489 57.8303C262.32 57.7795 262.172 57.6763 262.066 57.5356C261.961 57.3949 261.902 57.2242 261.9 57.0481V49.1641C261.885 48.9975 261.935 48.8315 262.04 48.7009C262.144 48.5703 262.295 48.4852 262.461 48.4635C262.627 48.4418 262.795 48.4851 262.93 48.5844C263.065 48.6837 263.156 48.8312 263.184 48.9961C263.544 50.3521 263.544 51.6961 263.172 53.0161C263.14 53.1192 263.128 53.225 263.136 53.3281C263.148 53.9281 263.34 54.2521 263.712 54.3121C263.841 54.3295 263.973 54.305 264.087 54.2424C264.202 54.1798 264.293 54.0823 264.348 53.9641C265.776 50.9281 267.66 49.0921 270 48.4321ZM169.71 50.3111C169.048 51.1434 168.353 52.0174 167.628 52.272C167.492 52.3194 167.344 52.3253 167.204 52.289C167.064 52.2527 166.939 52.1758 166.842 52.068C166.746 51.9602 166.684 51.8264 166.664 51.6833C166.643 51.5402 166.666 51.3943 166.728 51.264C167.052 50.628 167.148 49.992 167.016 49.356C166.98 49.1397 166.864 48.9451 166.69 48.8116C166.516 48.6781 166.298 48.6157 166.08 48.6371C165.861 48.6585 165.66 48.762 165.515 48.9267C165.37 49.0914 165.293 49.3049 165.3 49.524V57.024C165.304 57.2086 165.373 57.3868 165.494 57.5275C165.615 57.6682 165.78 57.7625 165.962 57.7939C166.143 57.8253 166.329 57.7919 166.486 57.6994C166.644 57.607 166.764 57.4614 166.824 57.288C167.076 56.532 167.052 55.74 166.728 54.888C166.645 54.6577 166.647 54.4042 166.734 54.1742C166.821 53.9441 166.987 53.753 167.202 53.6362C167.417 53.5193 167.666 53.4844 167.903 53.5381C168.14 53.5917 168.349 53.7302 168.492 53.928C169.428 55.212 170.412 56.388 171.432 57.456C171.732 57.756 172.044 57.9 172.356 57.888C172.872 57.852 172.98 57.624 172.668 57.204L169.776 53.388C169.536 53.064 169.536 52.752 169.776 52.44L172.128 49.392C172.181 49.3248 172.214 49.2449 172.226 49.1603C172.237 49.0757 172.226 48.9892 172.193 48.9094C172.161 48.8295 172.108 48.7591 172.04 48.7048C171.971 48.6506 171.89 48.6145 171.804 48.6C171.151 48.4986 170.451 49.3787 169.71 50.3111ZM193.236 52.4761L193.896 57.0841C193.91 57.1777 193.901 57.2731 193.872 57.363C193.843 57.4529 193.793 57.5347 193.727 57.6022C193.661 57.6696 193.58 57.7208 193.49 57.7516C193.401 57.7825 193.306 57.7923 193.212 57.7801C192.6 57.7081 192.3 57.4441 192.3 57.0001C192.3 54.3001 192.324 51.7561 192.372 49.3681C192.377 49.1845 192.443 49.007 192.558 48.8631C192.673 48.7192 192.832 48.6169 193.009 48.5718C193.186 48.5268 193.373 48.5416 193.54 48.6139C193.706 48.6863 193.844 48.8121 193.932 48.9721L196.548 53.6761C196.595 53.762 196.665 53.8339 196.749 53.8848C196.833 53.9357 196.929 53.9637 197.027 53.9661C197.125 53.9685 197.222 53.9453 197.309 53.8986C197.395 53.852 197.468 53.7836 197.52 53.7001L200.772 48.5161C200.841 48.4019 200.946 48.3142 201.07 48.2665C201.194 48.2187 201.331 48.2134 201.46 48.2514C201.589 48.2894 201.703 48.3686 201.784 48.477C201.866 48.5854 201.911 48.7171 201.912 48.8521L201.864 57.7201C201.86 57.8158 201.825 57.9084 201.765 57.9832C201.704 58.0579 201.62 58.1105 201.528 58.1326C201.436 58.1547 201.339 58.145 201.254 58.105C201.17 58.0651 201.101 57.9972 201.06 57.9121C200.208 56.1961 200.208 54.4201 201.072 52.5841C201.136 52.4648 201.151 52.3238 201.113 52.1922C201.075 52.0605 200.987 51.949 200.869 51.8822C200.752 51.8153 200.613 51.7987 200.485 51.8358C200.356 51.8729 200.248 51.9608 200.184 52.0801L197.796 55.7641C197.697 55.9202 197.555 56.0438 197.386 56.1201C197.218 56.1964 197.031 56.2221 196.848 56.1943C196.664 56.1664 196.492 56.0861 196.351 55.963C196.211 55.8399 196.108 55.6792 196.056 55.5001C195.672 54.1201 194.916 53.0041 193.788 52.1521C193.733 52.1116 193.667 52.0881 193.599 52.0845C193.531 52.0809 193.464 52.0974 193.405 52.1319C193.346 52.1664 193.299 52.2174 193.269 52.2786C193.239 52.3398 193.227 52.4085 193.236 52.4761ZM209.724 55.9681L209.64 51.2281C209.628 50.7841 209.808 50.4361 210.168 50.1841C210.948 49.6441 211.884 49.5481 212.976 49.8721C213.396 49.9921 213.612 50.2681 213.6 50.7121C213.588 52.6681 213.6 54.6121 213.636 56.5441C213.648 56.8321 213.708 57.0721 213.816 57.2521C213.996 57.5521 214.2 57.7561 214.44 57.8761C214.541 57.927 214.652 57.9511 214.765 57.9459C214.877 57.9406 214.986 57.9064 215.083 57.8463C215.179 57.7862 215.258 57.7023 215.314 57.6025C215.37 57.5027 215.399 57.3904 215.4 57.2761V49.3921C215.4 48.8761 215.136 48.6121 214.62 48.6121H208.68C208.474 48.6121 208.275 48.6942 208.129 48.8405C207.983 48.9868 207.9 49.1852 207.9 49.3921V55.8001C207.9 56.1241 207.948 56.4361 208.032 56.7361C208.452 58.1761 208.944 58.2721 209.508 57.0361C209.664 56.6881 209.736 56.3401 209.724 55.9681ZM236.4 52.1999H239.7C239.806 52.1989 239.91 52.1743 240.005 52.1278C240.1 52.0813 240.183 52.0142 240.249 51.9314C240.315 51.8485 240.361 51.752 240.384 51.649C240.408 51.5459 240.408 51.4389 240.384 51.3359C240.072 49.9919 240.192 49.0319 240.756 48.4679C240.855 48.3675 240.982 48.299 241.12 48.2711C241.259 48.2432 241.402 48.2572 241.532 48.3114C241.663 48.3655 241.774 48.4573 241.851 48.575C241.929 48.6927 241.97 48.8309 241.968 48.9719L241.86 56.9759C241.863 57.1671 241.796 57.3527 241.671 57.4975C241.546 57.6424 241.373 57.7363 241.183 57.7615C240.994 57.7866 240.801 57.7413 240.643 57.6341C240.485 57.5269 240.371 57.3652 240.324 57.1799C240.12 56.4239 240.156 55.5239 240.432 54.4799C240.458 54.3923 240.463 54.2999 240.447 54.21C240.43 54.12 240.392 54.035 240.336 53.9617C240.28 53.8883 240.208 53.8286 240.125 53.7873C240.041 53.7461 239.95 53.7243 239.856 53.7239L236.436 53.6879C236.336 53.6886 236.237 53.7106 236.146 53.7524C236.055 53.7942 235.975 53.8548 235.91 53.93C235.845 54.0052 235.797 54.0933 235.77 54.1882C235.743 54.2831 235.737 54.3826 235.752 54.4799C235.86 55.2599 235.86 56.0639 235.728 56.8799C235.693 57.0816 235.584 57.2628 235.422 57.3875C235.259 57.5123 235.056 57.5714 234.852 57.5533C234.648 57.5352 234.459 57.4411 234.321 57.2897C234.183 57.1383 234.107 56.9406 234.108 56.7359L234.192 49.4159C234.188 49.2058 234.266 49.0025 234.412 48.8506C234.557 48.6987 234.756 48.6106 234.966 48.6059C235.176 48.6011 235.38 48.68 235.532 48.8251C235.684 48.9703 235.772 49.1698 235.776 49.3799C235.812 50.1239 235.824 50.8559 235.8 51.5759C235.788 51.9959 235.98 52.1999 236.4 52.1999ZM253.787 49.188L250.115 54.42C250.057 54.5022 249.974 54.5631 249.879 54.5933C249.783 54.6236 249.68 54.6215 249.586 54.5873C249.492 54.5531 249.411 54.4888 249.357 54.4044C249.303 54.3199 249.278 54.2199 249.287 54.12C249.395 52.668 249.515 51.228 249.659 49.812C249.743 49.008 249.347 48.636 248.483 48.708C248.147 48.744 247.979 48.924 247.991 49.26L248.099 57.288C248.1 57.4402 248.15 57.588 248.241 57.7102C248.332 57.8323 248.459 57.9225 248.604 57.9679C248.75 58.0132 248.906 58.0113 249.05 57.9624C249.194 57.9136 249.319 57.8203 249.407 57.696L253.823 51.6C253.877 51.5278 253.952 51.4734 254.038 51.4439C254.123 51.4143 254.216 51.4109 254.303 51.4341C254.391 51.4572 254.469 51.5059 254.529 51.5739C254.589 51.6419 254.627 51.7262 254.639 51.816C254.699 52.449 254.528 53.2223 254.354 54.012C254.04 55.4377 253.715 56.9168 254.711 57.72C254.792 57.7859 254.89 57.8275 254.994 57.8397C255.098 57.852 255.203 57.8344 255.298 57.7892C255.392 57.7439 255.472 57.6727 255.527 57.584C255.582 57.4953 255.611 57.3926 255.611 57.288L255.659 49.788C255.659 49.5693 255.59 49.3562 255.461 49.1794C255.332 49.0027 255.15 48.8715 254.942 48.8047C254.734 48.738 254.509 48.7391 254.302 48.808C254.094 48.8769 253.914 49.01 253.787 49.188Z" fill="black"/>
</g>
<defs>
<clipPath id="clip0_0_1772">
<rect width="270" height="72" fill="white"/>
</clipPath>
</defs>
</svg>
