<svg width="294" height="51" viewBox="0 0 294 51" fill="none" xmlns="http://www.w3.org/2000/svg">
<path fill-rule="evenodd" clip-rule="evenodd" d="M23.1838 20.3038L23.2927 20.3199C24.0631 20.4337 24.8268 20.5434 25.5819 20.6519C37.3784 22.3471 47.0731 23.7402 47.0731 35.2592C47.0731 45.6859 41.0368 50.3809 25.122 50.3809C9.20735 50.3809 0 45.6859 0 32.2102H9.14635C9.14635 38.7956 13.0488 41.8443 25.122 41.8443C34.7561 41.8443 37.927 40.0152 37.927 35.8688C37.927 30.6487 32.2502 29.8491 23.9046 28.6735C22.6966 28.5033 21.4327 28.3253 20.122 28.1249C10.8537 26.7224 1.21951 24.7102 1.21951 13.9785C1.21951 5.68575 6.40244 0.380859 22.5001 0.380859C39.8172 0.380859 46.4635 5.07601 46.4635 16.1126H37.3171C37.3171 10.7467 33.5365 8.91748 22.5001 8.91748C12.683 8.91748 10.3659 10.7467 10.3659 13.9785C10.3659 18.4051 16.6376 19.3341 23.1838 20.3038ZM66.2803 0.990569V10.1369H58.0485V20.8077H66.2803V29.9541H58.0485V40.6247H66.2803V49.7712H48.9021V0.990569H66.2803ZM91.139 45.4418V37.8808C91.139 33.3077 89.7365 30.8077 86.6267 29.5272C89.4928 27.4541 91.139 23.9785 91.139 18.6126V14.2833C91.139 4.46618 87.6633 0.990569 77.2365 0.990569H68.09V49.7712H77.2365V31.9053C80.773 31.9053 81.9926 32.5151 81.9926 36.0517V45.4418C81.9926 47.2713 82.0536 49.0394 82.6633 49.7712H91.8097C91.2001 49.0394 91.139 47.2713 91.139 45.4418ZM81.9926 14.2833V18.6126C81.9926 22.1492 80.773 22.7589 77.2365 22.7589V10.1369C80.773 10.1369 81.9926 10.7467 81.9926 14.2833ZM104.12 40.0759L107.169 0.990569H116.315L110.339 49.7712H97.8394L91.8638 0.990569H101.01L104.12 40.0759ZM117.542 0.990569V49.7712H126.689V0.990569H117.542ZM151.44 20.8077H142.294V14.8931C142.294 10.7467 141.989 9.52722 139.977 9.52722C137.965 9.52722 137.66 10.7467 137.66 14.8931V35.8688C137.66 40.0152 137.965 41.2347 139.977 41.2347C141.989 41.2347 142.294 40.0152 142.294 35.8688V29.9541H151.44V36.4784C151.44 46.2956 147.355 50.3809 139.977 50.3809C132.599 50.3809 128.513 46.2956 128.513 36.4784V14.2833C128.513 4.46623 132.599 0.380859 139.977 0.380859C147.355 0.380859 151.44 4.46623 151.44 14.2833V20.8077ZM170.677 10.1369V0.990569H153.299V49.7712H170.677V40.6247H162.446V29.9541H170.677V20.8077H162.446V10.1369H170.677ZM217.061 13.6735C217.061 19.2223 214.866 22.2102 211.817 23.8565C216.086 25.3809 219.5 28.7345 219.5 35.8687C219.5 46.1736 214.195 49.7712 201.939 49.7712H172.488V0.990569H200.72C212.976 0.990569 217.061 4.46618 217.061 13.6735ZM200.11 9.52717H181.634V20.3809H200.11C205.476 20.3809 207.915 19.7711 207.915 14.5882C207.915 10.1369 205.476 9.52717 200.11 9.52717ZM181.634 41.2347H201.939C207.305 41.2347 210.354 40.6247 210.354 35.5639C210.354 29.8321 207.305 28.9175 201.939 28.9175H181.634V41.2347ZM244.257 0.990569H235.111V35.8687C235.111 40.0151 234.806 41.2347 232.794 41.2347C230.782 41.2347 230.477 40.0151 230.477 35.8687V0.990569H221.33V36.4783C221.33 46.2955 225.416 50.3808 232.794 50.3808C240.172 50.3808 244.257 46.2955 244.257 36.4783V0.990569ZM246.116 0.990569H270.384C283.25 0.990569 293.433 5.6857 293.433 23.4297V27.3321C293.433 44.9541 283.25 49.7712 270.384 49.7712H246.116V0.990569ZM255.262 41.2347H270.384C276.97 41.2347 284.287 40.0151 284.287 27.3321V23.4297C284.287 10.7467 276.97 9.52717 270.384 9.52717H255.262V41.2347Z" fill="black"/>
</svg>
