<svg width="352" height="73" viewBox="0 0 352 73" fill="none" xmlns="http://www.w3.org/2000/svg">
<g clip-path="url(#clip0_0_2040)">
<path d="M98.8461 38.3838L102.139 39.2161C101.453 41.914 100.218 43.9626 98.4346 45.3802C96.6512 46.7978 94.4654 47.502 91.8863 47.502C89.2158 47.502 87.0483 46.9624 85.3747 45.8649C83.7011 44.7766 82.4298 43.2036 81.561 41.1367C80.6922 39.0698 80.2532 36.8565 80.2532 34.4878C80.2532 31.9088 80.747 29.6498 81.7348 27.7292C82.7225 25.8087 84.1218 24.3454 85.9417 23.3485C87.7617 22.3516 89.7646 21.8486 91.9504 21.8486C94.438 21.8486 96.5232 22.4797 98.2059 23.7418C99.8979 25.0039 101.078 26.7781 101.745 29.0645L98.526 29.8236C97.9499 28.0219 97.1176 26.7049 96.0293 25.8818C94.941 25.0587 93.56 24.6472 91.9046 24.6472C90.0024 24.6472 88.411 25.1045 87.1306 26.019C85.8503 26.9336 84.954 28.1591 84.4418 29.6955C83.9205 31.2411 83.6645 32.8233 83.6645 34.4604C83.6645 36.573 83.9663 38.4113 84.579 39.9843C85.1918 41.5574 86.1429 42.7371 87.4416 43.5145C88.7311 44.2919 90.1304 44.6851 91.6394 44.6851C93.4777 44.6851 95.0233 44.1547 96.2945 43.0938C97.5383 42.0421 98.398 40.4782 98.8461 38.3838ZM118.088 41.2647L121.244 41.6762C120.75 43.5054 119.835 44.9321 118.491 45.9472C117.146 46.9624 115.445 47.4654 113.36 47.4654C110.735 47.4654 108.659 46.6606 107.123 45.0418C105.586 43.4322 104.818 41.1641 104.818 38.2467C104.818 35.2286 105.596 32.8873 107.15 31.2228C108.705 29.5492 110.717 28.7261 113.196 28.7261C115.592 28.7261 117.549 29.5401 119.067 31.1771C120.585 32.8142 121.344 35.1097 121.344 38.0729C121.344 38.2558 121.335 38.521 121.326 38.8777H107.928C108.047 40.844 108.595 42.3622 109.601 43.4048C110.598 44.4474 111.851 44.9778 113.351 44.9778C114.467 44.9778 115.418 44.6851 116.204 44.0907C117 43.4962 117.622 42.5634 118.088 41.2647ZM108.101 36.381H118.116C117.979 34.8719 117.595 33.7379 116.964 32.9788C116.003 31.8082 114.741 31.2137 113.196 31.2137C111.796 31.2137 110.626 31.6801 109.674 32.613C108.732 33.555 108.211 34.8079 108.101 36.381ZM125.094 53.9862V29.1011H127.865V31.4606C128.514 30.5461 129.255 29.8602 130.087 29.4029C130.911 28.9456 131.907 28.717 133.078 28.717C134.614 28.717 135.968 29.1102 137.139 29.8967C138.309 30.6833 139.196 31.799 139.8 33.2257C140.394 34.6616 140.696 36.2346 140.696 37.954C140.696 39.7831 140.367 41.4385 139.709 42.9109C139.05 44.3742 138.09 45.5082 136.828 46.2856C135.575 47.063 134.249 47.4563 132.868 47.4563C131.853 47.4563 130.938 47.2459 130.133 46.8161C129.328 46.3862 128.67 45.8558 128.149 45.1973V53.9679H125.094V53.9862ZM127.865 38.2009C127.865 40.5056 128.331 42.2067 129.264 43.3133C130.197 44.4199 131.331 44.9687 132.657 44.9687C134.011 44.9687 135.163 44.3925 136.124 43.2493C137.084 42.1061 137.569 40.341 137.569 37.9449C137.569 35.6585 137.102 33.9482 136.16 32.8142C135.218 31.6801 134.102 31.1131 132.795 31.1131C131.505 31.1131 130.353 31.7167 129.365 32.9239C128.359 34.1403 127.865 35.8962 127.865 38.2009ZM144.364 29.1011H151.378C153.098 29.1011 154.378 29.2474 155.229 29.5309C156.07 29.8236 156.793 30.3449 157.387 31.1131C157.991 31.8905 158.292 32.805 158.292 33.8842C158.292 34.7439 158.109 35.4938 157.762 36.134C157.405 36.7742 156.875 37.3138 156.152 37.7436C156.994 38.0272 157.698 38.5485 158.256 39.3258C158.814 40.0941 159.088 41.0086 159.088 42.0695C158.978 43.7706 158.366 45.0418 157.259 45.8558C156.152 46.6789 154.552 47.0904 152.448 47.0904H144.355V29.1011H144.364ZM147.418 36.6919H150.656C151.945 36.6919 152.832 36.6187 153.317 36.4907C153.802 36.3535 154.232 36.0792 154.616 35.6676C155 35.2561 155.192 34.7622 155.192 34.186C155.192 33.2349 154.854 32.5764 154.195 32.2014C153.528 31.8265 152.384 31.6435 150.766 31.6435H147.437V36.6919H147.418ZM147.418 44.5937H151.424C153.143 44.5937 154.332 44.3925 154.973 43.9901C155.613 43.5877 155.951 42.9018 155.988 41.914C155.988 41.3379 155.805 40.8074 155.43 40.3136C155.055 39.8197 154.57 39.5087 153.976 39.3807C153.381 39.2435 152.421 39.1887 151.104 39.1887H147.427L147.418 44.5937ZM161.877 54.0045L161.53 51.1876C162.198 51.3706 162.774 51.462 163.277 51.462C163.963 51.462 164.502 51.3431 164.905 51.1236C165.316 50.895 165.645 50.584 165.911 50.1725C166.103 49.8707 166.414 49.1116 166.844 47.8952C166.898 47.7306 166.99 47.4837 167.118 47.1544L160.286 29.1102H163.542L167.301 39.4996C167.795 40.8074 168.224 42.1975 168.609 43.6517C168.965 42.2799 169.377 40.9355 169.862 39.6002L173.694 29.1102H176.739L169.944 47.4105C169.212 49.3768 168.636 50.7304 168.224 51.4803C167.685 52.4772 167.054 53.2088 166.359 53.6844C165.655 54.1508 164.813 54.3795 163.844 54.3795C163.258 54.3612 162.6 54.2423 161.877 54.0045ZM190.704 40.5056L193.686 40.9172C193.357 42.9658 192.524 44.5662 191.18 45.7277C189.835 46.8892 188.18 47.4654 186.214 47.4654C183.763 47.4654 181.787 46.6606 180.297 45.0601C178.797 43.4505 178.056 41.1549 178.056 38.1643C178.056 36.2255 178.376 34.5336 179.016 33.0794C179.656 31.6253 180.635 30.5369 181.952 29.8144C183.26 29.0828 184.687 28.7261 186.241 28.7261C188.189 28.7261 189.79 29.22 191.024 30.2077C192.268 31.1954 193.064 32.5947 193.411 34.4147L190.467 34.8628C190.183 33.6556 189.689 32.7502 188.967 32.1374C188.253 31.5338 187.384 31.2228 186.369 31.2228C184.833 31.2228 183.589 31.7716 182.62 32.8691C181.659 33.9757 181.184 35.7042 181.184 38.082C181.184 40.4965 181.65 42.2433 182.574 43.3407C183.507 44.4291 184.714 44.9778 186.196 44.9778C187.394 44.9778 188.4 44.612 189.195 43.8803C189.982 43.1487 190.494 42.0238 190.704 40.5056Z" fill="#000010"/>
<path d="M216.751 21.8857C220.199 21.8857 223.016 23.0564 225.202 25.3885C227.397 27.7298 228.485 30.8027 228.485 34.6347C228.485 38.4484 227.387 41.5121 225.183 43.8351C222.979 46.1581 220.172 47.3196 216.742 47.3196C213.194 47.3196 210.349 46.1215 208.191 43.7162C206.033 41.3109 204.953 38.3752 204.953 34.909C204.953 30.8758 206.042 27.6932 208.237 25.3702C210.432 23.0472 213.267 21.8857 216.751 21.8857ZM216.724 44.5302C219.22 44.5302 221.242 43.6614 222.787 41.9146C224.333 40.1677 225.119 37.7442 225.129 34.6347C225.129 31.4337 224.333 28.9736 222.751 27.2542C221.168 25.5348 219.184 24.6751 216.788 24.6751C214.328 24.6751 212.306 25.5165 210.715 27.2085C209.124 28.9004 208.337 31.4886 208.337 34.9731C208.337 37.8265 209.115 40.1312 210.669 41.8963C212.215 43.6522 214.236 44.5302 216.724 44.5302Z" fill="#000010"/>
<path d="M249.072 51.9476H246.557V46.8992H232.583V51.9476H230.068V44.3842H231.641C232.629 43.0398 233.388 41.1101 233.927 38.5859C234.467 36.0617 234.741 33.19 234.741 29.9525V29.0928H247.134V44.375H249.063V51.9476H249.072ZM244.125 44.3842V31.617H237.247C237.009 37.3329 236.104 41.5856 234.531 44.3842H244.125Z" fill="#000010"/>
<path d="M267.866 38.7597H254.532C254.651 40.726 255.218 42.235 256.215 43.2685C257.211 44.3111 258.464 44.8324 259.964 44.8324C261.117 44.8324 262.086 44.5306 262.863 43.9178C263.65 43.3051 264.244 42.3905 264.656 41.1559L267.756 41.54C267.253 43.3965 266.33 44.8232 264.985 45.8201C263.641 46.817 261.967 47.3108 259.955 47.3108C257.285 47.3108 255.19 46.4877 253.69 44.8507C252.19 43.2136 251.431 40.9729 251.431 38.1287C251.431 35.321 252.163 33.0437 253.617 31.3061C255.08 29.5593 257.129 28.6904 259.781 28.6904C261.08 28.6904 262.324 28.9739 263.531 29.5501C264.729 30.1171 265.753 31.0866 266.595 32.4584C267.445 33.8302 267.866 35.9337 267.866 38.7597ZM264.756 36.2813C264.638 34.4704 264.071 33.1626 263.074 32.367C262.077 31.5713 260.979 31.1689 259.79 31.1689C258.373 31.1689 257.202 31.6444 256.288 32.5956C255.373 33.5467 254.843 34.7722 254.696 36.2813H264.756Z" fill="#000010"/>
<path d="M286.075 40.7439C285.681 43.012 284.785 44.6765 283.395 45.7374C281.996 46.7983 280.413 47.3196 278.648 47.3196C276.069 47.3196 274.066 46.4691 272.658 44.7771C271.25 43.0852 270.545 40.8354 270.545 38.046C270.545 35.7322 270.948 33.8756 271.762 32.4855C272.576 31.0954 273.591 30.1168 274.807 29.5498C276.024 28.9827 277.304 28.6992 278.648 28.6992C280.487 28.6992 282.051 29.1748 283.349 30.1259C284.648 31.0771 285.453 32.4763 285.755 34.3237L282.837 34.781C282.535 33.583 282.041 32.6867 281.374 32.0831C280.697 31.4795 279.837 31.1777 278.786 31.1777C277.094 31.1777 275.813 31.7721 274.944 32.9702C274.076 34.1683 273.637 35.8419 273.637 37.982C273.637 40.1769 274.066 41.8689 274.917 43.0578C275.777 44.2467 277.002 44.8412 278.612 44.8412C279.91 44.8412 280.926 44.4662 281.676 43.7254C282.416 42.9846 282.883 41.8689 283.075 40.3781L286.075 40.7439Z" fill="#000010"/>
<path d="M303.25 40.7439C302.857 43.012 301.961 44.6765 300.571 45.7374C299.171 46.7983 297.589 47.3196 295.824 47.3196C293.245 47.3196 291.242 46.4691 289.834 44.7771C288.425 43.0852 287.721 40.8354 287.721 38.046C287.721 35.7322 288.124 33.8756 288.938 32.4855C289.752 31.0954 290.767 30.1168 291.983 29.5498C293.199 28.9827 294.48 28.6992 295.824 28.6992C297.662 28.6992 299.226 29.1748 300.525 30.1259C301.824 31.0771 302.628 32.4763 302.93 34.3237L300.013 34.781C299.711 33.583 299.217 32.6867 298.55 32.0831C297.873 31.4795 297.013 31.1777 295.961 31.1777C294.269 31.1777 292.989 31.7721 292.12 32.9702C291.251 34.1683 290.812 35.8419 290.812 37.982C290.812 40.1769 291.242 41.8689 292.093 43.0578C292.952 44.2467 294.178 44.8412 295.788 44.8412C297.086 44.8412 298.101 44.4662 298.851 43.7254C299.592 42.9846 300.059 41.8689 300.251 40.3781L303.25 40.7439Z" fill="#000010"/>
<path d="M321.285 46.8992H318.112C317.819 46.3413 317.618 45.6097 317.49 44.7042C315.469 46.451 313.283 47.3199 310.933 47.3199C309.058 47.3199 307.576 46.8535 306.488 45.9115C305.399 44.9695 304.86 43.7348 304.86 42.1892C304.86 40.7168 305.381 39.5004 306.424 38.5401C307.466 37.5798 309.286 36.9488 311.865 36.6378L314.682 36.2171C315.734 36.0525 316.603 35.8422 317.28 35.5952C317.28 34.6898 317.252 34.0496 317.197 33.6747C317.142 33.2997 316.978 32.9156 316.703 32.5132C316.429 32.1108 315.99 31.7907 315.386 31.5438C314.783 31.2968 313.969 31.1779 312.954 31.1779C311.655 31.1779 310.631 31.4157 309.872 31.9004C309.113 32.3851 308.6 33.2723 308.317 34.5801L305.363 34.196C305.683 32.376 306.524 31.0042 307.86 30.0896C309.204 29.1751 311.042 28.7178 313.393 28.7178C315.533 28.7178 317.097 29.0379 318.094 29.6689C319.09 30.3 319.712 31.0682 319.941 31.9553C320.17 32.8516 320.288 34.0039 320.288 35.4123V39.473C320.288 41.9423 320.334 43.5976 320.435 44.4482C320.554 45.2713 320.828 46.0944 321.285 46.8992ZM317.289 39.0614V37.9731C315.716 38.4944 313.786 38.9151 311.5 39.226C309.222 39.537 308.079 40.4973 308.079 42.116C308.079 42.93 308.39 43.6068 309.003 44.1372C309.616 44.6677 310.503 44.9329 311.655 44.9329C313.146 44.9329 314.454 44.4847 315.588 43.5976C316.722 42.7105 317.289 41.2015 317.289 39.0614Z" fill="#000010"/>
<path d="M72.3603 32.7042L63.8641 24.2263L57.5445 30.5184L60.9923 33.9663C62.4373 35.4022 62.4373 37.7526 60.9923 39.1884L40.0947 60.0952C38.6588 61.5402 36.3084 61.5402 34.8726 60.0952L13.9658 39.1884C12.5208 37.7526 12.5208 35.4022 13.9658 33.9663L34.8726 13.0504C36.3084 11.6054 38.6588 11.6054 40.0947 13.0504L43.5792 16.5349L49.8622 10.2061L41.3659 1.70073C39.2259 -0.430191 35.7414 -0.430191 33.6105 1.70073L2.60698 32.7134C0.476059 34.8534 0.476059 38.3379 2.60698 40.4688L33.6105 71.4723C35.7505 73.6033 39.235 73.6033 41.3659 71.4723L72.3694 40.4688C74.4912 38.3196 74.4912 34.8352 72.3603 32.7042Z" fill="#000010"/>
<path d="M35.5221 18.9861L19.8831 34.6251C18.8039 35.7043 18.8039 37.4602 19.8831 38.5394L35.5221 54.1783C36.6012 55.2575 38.3572 55.2575 39.4364 54.1783L55.0753 38.5394C56.1545 37.4602 56.1545 35.7043 55.0753 34.6251L39.4272 18.9861C38.3663 17.907 36.6012 17.907 35.5221 18.9861ZM51.4536 36.6188H23.5139L33.3546 26.705H41.6039L51.4536 36.6188Z" fill="#000010"/>
</g>
<defs>
<clipPath id="clip0_0_2040">
<rect width="351.922" height="73" fill="white"/>
</clipPath>
</defs>
</svg>
