<svg width="299" height="46" viewBox="0 0 299 46" fill="none" xmlns="http://www.w3.org/2000/svg">
<g clip-path="url(#clip0_0_1905)">
<path d="M20.4601 40.6234C19.6135 40.5809 18.7592 40.5731 17.9049 40.5963C17.7774 40.6002 17.6691 40.6505 17.5841 40.7471C16.5829 41.9184 12.6362 47.535 10.7459 45.293C10.1429 44.574 10.4406 40.4765 10.2937 39.3516C10.2843 39.2883 10.2571 39.2291 10.2153 39.1811C10.1735 39.1331 10.1188 39.0983 10.0579 39.081C4.0083 37.3995 1.05889 32.3357 0.363094 26.3595C-0.498923 18.9377 -0.406151 8.26105 6.7915 4.09013C12.7251 0.64979 21.4999 0.591807 28.1254 1.535C33.6029 2.31971 38.918 4.62744 40.9359 10.0856C43.2629 16.3864 43.3286 25.2385 41.0286 31.5703C38.1179 39.5913 27.8935 40.9984 20.4601 40.6234ZM6.21553 9.07668C3.72612 12.3353 3.35116 17.1325 3.38595 21.1372C3.4362 26.7847 4.08561 33.418 10.3053 35.7258C11.291 36.0891 11.7278 36.6728 11.7085 37.6856C11.6659 39.7382 11.6273 41.8333 11.5925 43.971C11.591 44.0408 11.6058 44.11 11.6361 44.1742C11.6663 44.2383 11.7113 44.296 11.7682 44.3433C11.825 44.3907 11.8924 44.4268 11.9661 44.4492C12.0397 44.4716 12.1179 44.4799 12.1955 44.4735C12.8604 44.4194 17.8315 38.3389 18.6549 37.415C18.7399 37.3184 18.8481 37.2758 18.9796 37.2797C23.5641 37.4459 29.0145 37.1715 33.2589 35.2774C37.194 33.5263 38.8446 29.5254 39.1964 25.4434C39.7491 18.9995 39.9695 8.15668 32.0567 5.72525C25.4891 3.70744 11.1596 2.61735 6.21553 9.07668Z" fill="#000010"/>
<path d="M119.816 35.0341C119.983 35.2312 119.94 35.3279 119.681 35.3279L112.789 35.3163C112.665 35.3163 112.557 35.2737 112.46 35.1926C112.255 35.0147 112.066 34.8215 111.892 34.6127C109.982 32.2973 108.096 29.9625 106.237 27.6084C105.792 27.0478 105.328 26.5647 104.837 26.1588C104.811 26.1357 104.778 26.121 104.743 26.1165C104.708 26.112 104.673 26.1178 104.641 26.1334C104.609 26.1489 104.582 26.1734 104.563 26.204C104.545 26.2346 104.535 26.2699 104.536 26.3057L104.698 35.0534C104.699 35.0933 104.691 35.1329 104.676 35.17C104.661 35.207 104.639 35.2407 104.611 35.2691C104.583 35.2975 104.55 35.3201 104.513 35.3355C104.476 35.3509 104.437 35.3588 104.397 35.3588L99.3753 35.3433C99.2245 35.3433 99.1472 35.266 99.1472 35.1114L99.1511 3.96281C99.1511 3.83525 99.2168 3.76953 99.3444 3.76953H104.285C104.551 3.76953 104.683 3.90096 104.683 4.16768L104.594 19.4443C104.593 19.4852 104.605 19.5253 104.629 19.5589C104.652 19.5924 104.685 19.6177 104.724 19.631C104.763 19.6443 104.805 19.645 104.844 19.633C104.883 19.621 104.917 19.5969 104.942 19.5642L110.802 12.0263C110.976 11.806 111.204 11.6939 111.486 11.6939H118.088C118.135 11.694 118.181 11.7075 118.221 11.7328C118.261 11.7581 118.292 11.7941 118.312 11.8367C118.332 11.8793 118.339 11.9266 118.333 11.9732C118.327 12.0198 118.308 12.0637 118.278 12.0998L109.457 22.6836C109.383 22.7726 109.383 22.8615 109.457 22.9504L119.816 35.0341Z" fill="#000010"/>
<path d="M59.4327 26.2925V35.075C59.4327 35.2026 59.3708 35.2645 59.2433 35.2645L54.1407 35.2876C53.932 35.2915 53.8276 35.1871 53.8276 34.9784V6.09117C53.8276 5.99035 53.8674 5.89359 53.9384 5.82193C54.0093 5.75027 54.1056 5.7095 54.2065 5.70849C57.9444 5.68143 63.2016 5.22529 66.3829 6.30378C71.3308 7.97756 74.1102 13.3081 72.9234 18.3411C72.3745 20.6643 70.9172 22.6202 69.17 24.2245C69.1365 24.2549 69.1156 24.2967 69.1113 24.3417C69.107 24.3868 69.1196 24.4318 69.1468 24.468L76.9165 35.0402C76.9404 35.0721 76.9549 35.11 76.9583 35.1497C76.9617 35.1894 76.9539 35.2292 76.9358 35.2646C76.9176 35.3001 76.8899 35.3297 76.8558 35.3502C76.8216 35.3707 76.7824 35.3811 76.7426 35.3804L70.7007 35.2992C70.5333 35.2967 70.3687 35.2561 70.2193 35.1804C70.0699 35.1047 69.9398 34.996 69.8387 34.8624C67.8712 32.2571 65.8959 29.5898 63.9167 26.8569C63.0856 25.705 60.9016 26.0683 59.6182 26.0992C59.4945 26.1031 59.4327 26.1688 59.4327 26.2925ZM59.4559 11.615L59.4404 20.3512C59.4404 20.4178 59.4669 20.4817 59.514 20.5288C59.5611 20.576 59.625 20.6024 59.6917 20.6024L62.8923 20.6102C63.5142 20.6112 64.1302 20.4944 64.7051 20.2663C65.28 20.0382 65.8027 19.7034 66.2431 19.2809C66.6835 18.8584 67.0332 18.3565 67.2721 17.804C67.5109 17.2514 67.6344 16.6589 67.6354 16.0604V15.9367C67.6373 14.7281 67.1404 13.5681 66.2538 12.7119C65.3672 11.8558 64.1636 11.3736 62.9078 11.3715L59.7071 11.3638C59.6741 11.3638 59.6415 11.3703 59.611 11.3829C59.5805 11.3955 59.5528 11.414 59.5295 11.4374C59.5061 11.4607 59.4876 11.4884 59.475 11.5189C59.4624 11.5494 59.4559 11.582 59.4559 11.615Z" fill="#000010"/>
<path d="M143.597 17.3947H141.139C140.976 17.3947 140.895 17.3136 140.895 17.1512L140.907 11.9173C140.907 11.7665 140.98 11.6931 141.131 11.6931H143.601C143.729 11.6931 143.794 11.6312 143.794 11.5036L143.841 5.93339C143.841 5.7981 143.91 5.72852 144.05 5.72852L149.013 5.79036C149.066 5.79138 149.116 5.8126 149.153 5.84946C149.189 5.88632 149.21 5.93589 149.21 5.98751V11.4959C149.21 11.5233 149.216 11.5505 149.226 11.5758C149.237 11.6011 149.253 11.6241 149.272 11.6435C149.292 11.6629 149.316 11.6783 149.341 11.6888C149.367 11.6993 149.395 11.7047 149.423 11.7047L153.497 11.6699C153.667 11.666 153.752 11.751 153.748 11.9211L153.679 17.1589C153.678 17.2218 153.652 17.2818 153.606 17.3259C153.56 17.37 153.499 17.3948 153.435 17.3947H149.411C149.283 17.3947 149.218 17.4604 149.218 17.588C149.202 22.7601 149.198 26.0149 149.21 27.3485C149.229 29.2504 150.18 30.2477 152.067 30.3404C152.193 30.3454 152.318 30.3117 152.426 30.2438L153.176 29.7761C153.288 29.7065 153.385 29.722 153.466 29.8263L156.744 34.0514C156.781 34.0988 156.806 34.1537 156.819 34.2121C156.832 34.2706 156.832 34.3312 156.818 34.3896C156.805 34.4479 156.779 34.5027 156.742 34.5498C156.705 34.5969 156.658 34.6353 156.605 34.6621C152.751 36.6258 148.333 36.3784 145.561 32.9072C144.405 31.4576 143.821 29.7877 143.818 27.9052C143.806 24.4687 143.798 21.0283 143.794 17.588C143.794 17.4604 143.729 17.3947 143.597 17.3947Z" fill="#000010"/>
<path d="M218.102 24.8791C218.47 24.4501 218.729 24.0094 218.883 23.561C221.442 16.1971 223.306 11.083 224.477 8.2225C224.774 7.49191 225.428 7.04351 226.429 6.88502C230.298 6.2704 230.635 9.65275 229.575 12.3393C226.873 19.2084 224.175 26.0775 221.485 32.9504C221.071 33.998 220.36 35.2117 219.193 35.6022C216.46 36.5144 215.578 34.6435 214.674 32.386C211.891 25.4474 209.115 18.5126 206.347 11.5778C204.589 7.17494 210.364 4.70872 212.037 8.88737C213.58 12.7336 215.532 18.0487 217.894 24.8366C217.944 24.9719 218.014 24.9835 218.102 24.8791Z" fill="#000010"/>
<path d="M247.129 15.1997C251.427 12.2348 256.909 13.8043 259.537 18.1027C261.47 21.2609 262.077 25.9034 260.616 29.3979C258.799 33.7466 254.528 36.8043 249.692 35.6601C248.617 35.4049 247.573 34.5622 246.41 34.1293C246.275 34.079 246.174 34.1216 246.112 34.2491C244.493 37.5851 240.588 35.5557 240.569 32.297C240.527 24.3611 240.523 17.6427 240.565 12.1421C240.581 10.0585 240.465 8.5819 241.733 7.45316C243.093 6.24711 245.378 6.64913 246.217 8.22627C247.036 9.76089 246.704 13.0118 246.854 15.0683C246.87 15.2732 246.963 15.3157 247.129 15.1997ZM250.735 30.576C251.942 30.597 253.109 30.0085 253.981 28.9397C254.853 27.871 255.358 26.4097 255.385 24.8773C255.412 23.3448 254.958 21.8668 254.124 20.7683C253.29 19.6698 252.143 19.0408 250.937 19.0198C249.73 18.9987 248.563 19.5873 247.691 20.656C246.819 21.7247 246.314 23.186 246.287 24.7185C246.26 26.2509 246.714 27.729 247.548 28.8275C248.382 29.926 249.529 30.5549 250.735 30.576Z" fill="#000010"/>
<path d="M234.871 13.1556C236.688 13.3081 238.28 12.0107 238.427 10.2578C238.575 8.50479 237.221 6.96005 235.404 6.80749C233.588 6.65492 231.995 7.95232 231.848 9.70529C231.701 11.4583 233.054 13.003 234.871 13.1556Z" fill="#000010"/>
<path d="M31.9256 21.7632C31.8614 21.752 31.8024 21.721 31.7566 21.6745C31.7109 21.6281 31.6808 21.5686 31.6705 21.5042C31.5004 20.4644 31.5971 19.2893 31.3342 18.2997C29.9774 13.1315 26.4984 10.472 20.905 10.3251C20.8045 10.3212 20.7426 10.2709 20.7156 10.1704C20.4527 9.14994 21.0905 9.03011 21.8984 9.10355C28.6361 9.71045 33.0428 14.8825 32.6833 21.7168C32.6794 21.8289 32.6214 21.8753 32.5093 21.856L31.9256 21.7632Z" fill="#000010"/>
<path d="M29.9621 26.6689C31.346 27.7319 32.5559 28.4354 31.6011 30.2174C30.484 32.2894 28.7677 33.4181 26.3826 32.4904C18.7752 29.5255 13.3248 24.1176 10.0352 16.2628C9.35102 14.6315 9.32009 13.6304 10.5416 12.2426C11.6124 11.0289 13.7925 9.50196 15.0179 11.3497C15.7446 12.4436 16.5564 13.4873 17.2483 14.6122C18.5742 16.7576 17.1324 17.4109 15.764 18.6672C15.6557 18.7638 15.6209 18.8836 15.6596 19.0267C16.711 23.0816 19.2352 25.6986 23.2283 26.8853C23.2869 26.9028 23.3489 26.9045 23.408 26.8903C23.4671 26.876 23.5212 26.8463 23.5646 26.8041C24.4382 25.9924 25.3273 24.7979 26.5836 24.6588C26.7112 24.6472 26.8272 24.6704 26.9393 24.7284C28.0061 25.2927 29.0151 25.9383 29.9621 26.6689Z" fill="#000010"/>
<path d="M90.5504 12.4615C90.9833 11.3637 94.2922 11.7773 95.7689 11.9397C95.9042 11.9513 95.9699 12.0286 95.9699 12.1639L95.9583 35.1794C95.9583 35.3069 95.8926 35.3688 95.765 35.3688H91.2462C91.1032 35.3688 90.9911 35.3108 90.9022 35.1948L90.5968 34.7773C90.4847 34.6266 90.3494 34.6034 90.1909 34.7C87.6048 36.254 84.8294 36.4086 81.8645 35.16C72.6181 31.2713 72.6606 16.1377 81.6712 11.9861C84.6864 10.5983 87.5585 10.7839 90.2837 12.5466C90.4074 12.6278 90.4963 12.5968 90.5504 12.4615ZM85.5403 30.2701C86.9172 30.2749 88.2401 29.5696 89.2181 28.3095C90.1961 27.0493 90.749 25.3375 90.7552 23.5506C90.7583 22.6658 90.6271 21.7892 90.3691 20.9708C90.111 20.1525 89.7312 19.4084 89.2513 18.7811C88.7714 18.1537 88.2009 17.6555 87.5722 17.3147C86.9435 16.9739 86.2691 16.7972 85.5873 16.7949C84.2105 16.7901 82.8876 17.4953 81.9096 18.7555C80.9316 20.0156 80.3787 21.7274 80.3724 23.5143C80.3694 24.3991 80.5006 25.2757 80.7586 26.0941C81.0167 26.9124 81.3965 27.6565 81.8763 28.2839C82.3562 28.9112 82.9268 29.4095 83.5555 29.7503C84.1841 30.0911 84.8586 30.2677 85.5403 30.2701Z" fill="#000010"/>
<path d="M156.725 17.0824C160.428 9.35126 170.965 9.10774 174.928 16.7151C176.199 19.1543 176.594 21.9491 176.11 25.0918C176.095 25.1923 176.037 25.2425 175.937 25.2425L161.17 25.2812C160.78 25.2812 160.637 25.4706 160.741 25.8494C161.642 29.0308 164.286 31.7173 167.815 30.7045C169.056 30.3489 170.123 29.1661 171.147 28.3195C171.21 28.2681 171.286 28.2366 171.367 28.229C171.447 28.2215 171.528 28.2382 171.599 28.277L175.388 30.3296C175.747 30.5267 175.805 30.7896 175.562 31.1182C170.734 37.6973 161.711 37.6625 157.308 30.6659C154.626 26.3945 154.433 21.8679 156.725 17.0824ZM161.147 20.4763L170.362 20.4454C170.376 20.4454 170.389 20.4401 170.398 20.4307C170.407 20.4212 170.413 20.4085 170.413 20.3951V20.3719C170.411 19.8332 170.29 19.3001 170.056 18.8032C169.822 18.3063 169.48 17.8552 169.049 17.4758C168.619 17.0963 168.109 16.796 167.547 16.5918C166.986 16.3877 166.385 16.2838 165.778 16.2861H165.701C164.476 16.2906 163.303 16.7268 162.439 17.4988C161.576 18.2708 161.093 19.3154 161.097 20.4029V20.4261C161.097 20.4394 161.102 20.4522 161.111 20.4616C161.121 20.471 161.134 20.4763 161.147 20.4763Z" fill="#000010"/>
<path d="M183.636 23.2896C183.617 27.2286 183.609 31.1908 183.613 35.1723C183.613 35.1972 183.608 35.2218 183.598 35.2448C183.588 35.2677 183.574 35.2886 183.556 35.3062C183.538 35.3238 183.517 35.3378 183.493 35.3473C183.47 35.3568 183.445 35.3617 183.419 35.3617L178.572 35.3385C178.525 35.3385 178.48 35.3198 178.446 35.2864C178.413 35.2531 178.394 35.2078 178.394 35.1607V11.894C178.394 11.8012 178.441 11.7509 178.533 11.7393C180.466 11.519 182.36 11.6466 184.22 12.122C184.343 12.1568 184.463 12.1452 184.579 12.0872C191.46 8.80153 197.776 14.3525 197.861 21.3877C197.919 25.9993 197.935 30.6148 197.908 35.2419C197.908 35.2586 197.904 35.2752 197.898 35.2907C197.891 35.3062 197.882 35.3202 197.87 35.3321C197.858 35.3439 197.844 35.3533 197.829 35.3597C197.813 35.3661 197.797 35.3694 197.78 35.3694L192.708 35.3462C192.558 35.3424 192.484 35.2689 192.488 35.122C192.515 30.5568 192.515 26.0071 192.488 21.4805C192.469 18.2141 189.488 15.3343 186.203 17.0545C183.76 18.334 183.644 20.7693 183.636 23.2896Z" fill="#000010"/>
<path d="M133.721 11.8209C133.721 11.7358 133.763 11.6933 133.848 11.6933H138.387C138.54 11.6933 138.688 11.7544 138.797 11.8631C138.905 11.9719 138.966 12.1193 138.966 12.2731L138.97 35.0837C138.97 35.2113 138.908 35.277 138.781 35.2886C137.524 35.3775 136.264 35.3814 135 35.3041C134.127 35.2499 133.33 34.7088 132.352 35.1572C126.11 38.0293 119.813 32.8804 119.619 26.4751C119.472 21.6548 119.457 16.9156 119.577 12.2577C119.584 11.8943 119.77 11.7126 120.137 11.7088L124.358 11.6856C124.426 11.685 124.492 11.698 124.554 11.7236C124.616 11.7493 124.673 11.7871 124.72 11.835C124.768 11.8828 124.805 11.9397 124.831 12.0023C124.856 12.0649 124.869 12.132 124.869 12.1997C124.846 16.6528 124.838 21.0904 124.849 25.5126C124.865 32.142 133.647 32.0454 133.717 25.3155C133.759 20.8314 133.763 16.3319 133.721 11.8209Z" fill="#000010"/>
<path d="M22.4208 12.1151C26.8314 12.2697 29.9393 15.8724 29.8542 20.2482C29.8533 20.3154 29.8363 20.3813 29.8047 20.4406C29.7731 20.4998 29.7278 20.5506 29.6726 20.5888C29.6174 20.627 29.5539 20.6515 29.4873 20.6602C29.4207 20.6688 29.353 20.6614 29.2898 20.6386L28.9033 20.4995C28.7641 20.4492 28.6946 20.3487 28.6946 20.198C28.71 15.6212 26.1356 14.0363 22.0999 13.0003C22.0186 12.9795 21.9427 12.9414 21.8773 12.8888C21.812 12.8361 21.7588 12.7701 21.7214 12.6952C21.684 12.6204 21.6632 12.5384 21.6605 12.455C21.6577 12.3716 21.6732 12.2886 21.7056 12.2118C21.7946 12.0069 21.9453 11.9566 22.1579 12.0533C22.2391 12.0919 22.328 12.1113 22.4208 12.1151Z" fill="#000010"/>
<path d="M262.691 22.3537C265.351 10.0458 282.958 11.4181 283.178 24.186C283.205 25.8057 282.336 26.7179 280.751 26.7334C276.831 26.7759 272.908 26.7837 268.984 26.7605C268.905 26.7604 268.828 26.7817 268.76 26.8218C268.692 26.862 268.636 26.9197 268.598 26.9887C268.561 27.0577 268.543 27.1355 268.546 27.2137C268.549 27.292 268.574 27.3678 268.617 27.4331C271.655 32.0794 275.699 29.9457 279.796 28.5231C281.698 27.8621 283.31 30.1969 282.475 31.9944C282.135 32.725 281.594 33.3396 280.848 33.8344C271.937 39.768 260.271 33.5329 262.691 22.3537ZM268.528 22.891L277.388 22.9065C277.402 22.9065 277.416 22.9008 277.426 22.8907C277.436 22.8805 277.442 22.8667 277.442 22.8524V22.8176C277.444 21.6725 276.978 20.5734 276.146 19.7622C275.315 18.9511 274.186 18.4942 273.008 18.4921H272.923C272.34 18.491 271.762 18.6017 271.223 18.8177C270.684 19.0337 270.193 19.3509 269.78 19.7512C269.367 20.1514 269.039 20.6268 268.815 21.1503C268.591 21.6738 268.475 22.2351 268.474 22.8021V22.8369C268.474 22.8513 268.48 22.865 268.49 22.8752C268.5 22.8853 268.514 22.891 268.528 22.891Z" fill="#000010"/>
<path d="M284.968 20.4645C284.96 17.5344 284.744 12.6561 289.541 14.3105C289.666 14.3532 289.776 14.4358 289.854 14.5463C290.182 15.0102 290.604 15.3542 291.114 15.5823C291.175 15.6098 291.243 15.6189 291.309 15.6087C291.376 15.5984 291.438 15.5691 291.489 15.5243C292.451 14.6739 293.503 14.1443 294.651 13.9395C296.437 13.6186 298.648 15.1378 298.439 17.0512C298.169 19.5252 293.375 20.6037 291.632 21.8406C291.52 21.9179 291.458 22.0262 291.439 22.1615C290.983 25.4008 291.16 28.729 290.994 31.9954C290.928 33.2904 290.689 34.2026 290.275 34.7322C289.239 36.0581 286.247 36.1702 285.517 34.2761C285.227 33.5262 285.08 32.8497 285.072 32.2505C285.018 28.3232 284.983 24.3958 284.968 20.4645Z" fill="#000010"/>
<path d="M26.1465 19.7605C25.1028 17.3368 25.5009 16.6294 22.4239 15.9452C22.3644 15.9324 22.3093 15.9039 22.2644 15.8628C22.2194 15.8216 22.1862 15.7693 22.1681 15.7111C22.15 15.6529 22.1477 15.5909 22.1614 15.5316C22.1751 15.4722 22.2044 15.4175 22.2461 15.3731C22.6288 14.975 23.085 14.8513 23.6145 15.0059C25.9068 15.6669 26.9505 17.2209 26.7456 19.6639C26.7394 19.7332 26.7103 19.7985 26.6629 19.8495C26.6154 19.9004 26.5523 19.9341 26.4836 19.9452C26.4149 19.9562 26.3444 19.9441 26.2834 19.9107C26.2223 19.8772 26.1741 19.8244 26.1465 19.7605Z" fill="#000010"/>
<path d="M235.042 15.2994L234.849 15.2998C233.297 15.3025 232.041 16.5629 232.043 18.1149L232.069 32.8349C232.072 34.387 233.332 35.643 234.884 35.6403L235.077 35.6399C236.629 35.6372 237.885 34.3768 237.883 32.8248L237.857 18.1048C237.854 16.5527 236.594 15.2967 235.042 15.2994Z" fill="#000010"/>
<path d="M94.1951 46.0002H89.5642C87.6314 45.5209 84.3303 41.6824 82.9193 40.1207C82.784 39.9738 82.8188 39.9004 83.016 39.9004L167.613 39.9429C167.687 39.9429 167.702 39.9738 167.66 40.0318C167.432 40.3295 156.929 41.0098 155.758 41.0755C152.797 41.2417 149.608 41.6785 146.31 41.9298C136.906 42.6565 125.201 43.6577 111.188 44.9295C105.479 45.4475 99.8698 45.7064 94.1951 46.0002Z" fill="#000010"/>
</g>
<defs>
<clipPath id="clip0_0_1905">
<rect width="298.807" height="46" fill="white"/>
</clipPath>
</defs>
</svg>
