<svg width="900" height="700" viewBox="0 0 900 700" fill="none" xmlns="http://www.w3.org/2000/svg">
<rect x="0.5" y="0.5" width="99" height="99" stroke="#E4E4EA"/>
<mask id="path-2-inside-1_36_23985" fill="white">
<path d="M100 0H200V100H100V0Z"/>
</mask>
<path d="M200 0H201V-1H200V0ZM200 100V101H201V100H200ZM100 1H200V-1H100V1ZM199 0V100H201V0H199ZM200 99H100V101H200V99Z" fill="#E4E4EA" mask="url(#path-2-inside-1_36_23985)"/>
<mask id="path-4-inside-2_36_23985" fill="white">
<path d="M200 0H300V100H200V0Z"/>
</mask>
<path d="M300 0H301V-1H300V0ZM300 100V101H301V100H300ZM200 1H300V-1H200V1ZM299 0V100H301V0H299ZM300 99H200V101H300V99Z" fill="#E4E4EA" mask="url(#path-4-inside-2_36_23985)"/>
<mask id="path-6-inside-3_36_23985" fill="white">
<path d="M300 0H400V100H300V0Z"/>
</mask>
<path d="M400 0H401V-1H400V0ZM400 100V101H401V100H400ZM300 1H400V-1H300V1ZM399 0V100H401V0H399ZM400 99H300V101H400V99Z" fill="#E4E4EA" mask="url(#path-6-inside-3_36_23985)"/>
<mask id="path-8-inside-4_36_23985" fill="white">
<path d="M400 0H500V100H400V0Z"/>
</mask>
<path d="M500 0H501V-1H500V0ZM500 100V101H501V100H500ZM400 1H500V-1H400V1ZM499 0V100H501V0H499ZM500 99H400V101H500V99Z" fill="#E4E4EA" mask="url(#path-8-inside-4_36_23985)"/>
<mask id="path-10-inside-5_36_23985" fill="white">
<path d="M500 0H600V100H500V0Z"/>
</mask>
<path d="M600 0H601V-1H600V0ZM600 100V101H601V100H600ZM500 1H600V-1H500V1ZM599 0V100H601V0H599ZM600 99H500V101H600V99Z" fill="#E4E4EA" mask="url(#path-10-inside-5_36_23985)"/>
<mask id="path-12-inside-6_36_23985" fill="white">
<path d="M600 0H700V100H600V0Z"/>
</mask>
<path d="M700 0H701V-1H700V0ZM700 100V101H701V100H700ZM600 1H700V-1H600V1ZM699 0V100H701V0H699ZM700 99H600V101H700V99Z" fill="#E4E4EA" mask="url(#path-12-inside-6_36_23985)"/>
<mask id="path-14-inside-7_36_23985" fill="white">
<path d="M700 0H800V100H700V0Z"/>
</mask>
<path d="M800 0H801V-1H800V0ZM800 100V101H801V100H800ZM700 1H800V-1H700V1ZM799 0V100H801V0H799ZM800 99H700V101H800V99Z" fill="#E4E4EA" mask="url(#path-14-inside-7_36_23985)"/>
<mask id="path-16-inside-8_36_23985" fill="white">
<path d="M800 0H900V100H800V0Z"/>
</mask>
<path d="M900 0H901V-1H900V0ZM900 100V101H901V100H900ZM800 1H900V-1H800V1ZM899 0V100H901V0H899ZM900 99H800V101H900V99Z" fill="#E4E4EA" mask="url(#path-16-inside-8_36_23985)"/>
<mask id="path-18-inside-9_36_23985" fill="white">
<path d="M0 100H100V200H0V100Z"/>
</mask>
<path d="M100 200V201H101V200H100ZM0 200H-1V201H0V200ZM99 100V200H101V100H99ZM100 199H0V201H100V199ZM1 200V100H-1V200H1Z" fill="#E4E4EA" mask="url(#path-18-inside-9_36_23985)"/>
<mask id="path-20-inside-10_36_23985" fill="white">
<path d="M100 100H200V200H100V100Z"/>
</mask>
<path d="M200 200V201H201V200H200ZM199 100V200H201V100H199ZM200 199H100V201H200V199Z" fill="#E4E4EA" mask="url(#path-20-inside-10_36_23985)"/>
<mask id="path-22-inside-11_36_23985" fill="white">
<path d="M200 100H300V200H200V100Z"/>
</mask>
<path d="M300 200V201H301V200H300ZM299 100V200H301V100H299ZM300 199H200V201H300V199Z" fill="#E4E4EA" mask="url(#path-22-inside-11_36_23985)"/>
<mask id="path-24-inside-12_36_23985" fill="white">
<path d="M300 100H400V200H300V100Z"/>
</mask>
<path d="M400 200V201H401V200H400ZM399 100V200H401V100H399ZM400 199H300V201H400V199Z" fill="#E4E4EA" mask="url(#path-24-inside-12_36_23985)"/>
<mask id="path-26-inside-13_36_23985" fill="white">
<path d="M400 100H500V200H400V100Z"/>
</mask>
<path d="M500 200V201H501V200H500ZM499 100V200H501V100H499ZM500 199H400V201H500V199Z" fill="#E4E4EA" mask="url(#path-26-inside-13_36_23985)"/>
<mask id="path-28-inside-14_36_23985" fill="white">
<path d="M500 100H600V200H500V100Z"/>
</mask>
<path d="M600 200V201H601V200H600ZM599 100V200H601V100H599ZM600 199H500V201H600V199Z" fill="#E4E4EA" mask="url(#path-28-inside-14_36_23985)"/>
<mask id="path-30-inside-15_36_23985" fill="white">
<path d="M600 100H700V200H600V100Z"/>
</mask>
<path d="M700 200V201H701V200H700ZM699 100V200H701V100H699ZM700 199H600V201H700V199Z" fill="#E4E4EA" mask="url(#path-30-inside-15_36_23985)"/>
<mask id="path-32-inside-16_36_23985" fill="white">
<path d="M700 100H800V200H700V100Z"/>
</mask>
<path d="M800 200V201H801V200H800ZM799 100V200H801V100H799ZM800 199H700V201H800V199Z" fill="#E4E4EA" mask="url(#path-32-inside-16_36_23985)"/>
<mask id="path-34-inside-17_36_23985" fill="white">
<path d="M800 100H900V200H800V100Z"/>
</mask>
<path d="M900 200V201H901V200H900ZM899 100V200H901V100H899ZM900 199H800V201H900V199Z" fill="#E4E4EA" mask="url(#path-34-inside-17_36_23985)"/>
<mask id="path-36-inside-18_36_23985" fill="white">
<path d="M0 200H100V300H0V200Z"/>
</mask>
<path d="M100 300V301H101V300H100ZM0 300H-1V301H0V300ZM99 200V300H101V200H99ZM100 299H0V301H100V299ZM1 300V200H-1V300H1Z" fill="#E4E4EA" mask="url(#path-36-inside-18_36_23985)"/>
<mask id="path-38-inside-19_36_23985" fill="white">
<path d="M100 200H200V300H100V200Z"/>
</mask>
<path d="M200 300V301H201V300H200ZM199 200V300H201V200H199ZM200 299H100V301H200V299Z" fill="#E4E4EA" mask="url(#path-38-inside-19_36_23985)"/>
<mask id="path-40-inside-20_36_23985" fill="white">
<path d="M200 200H300V300H200V200Z"/>
</mask>
<path d="M300 300V301H301V300H300ZM299 200V300H301V200H299ZM300 299H200V301H300V299Z" fill="#E4E4EA" mask="url(#path-40-inside-20_36_23985)"/>
<mask id="path-42-inside-21_36_23985" fill="white">
<path d="M300 200H400V300H300V200Z"/>
</mask>
<path d="M400 300V301H401V300H400ZM399 200V300H401V200H399ZM400 299H300V301H400V299Z" fill="#E4E4EA" mask="url(#path-42-inside-21_36_23985)"/>
<mask id="path-44-inside-22_36_23985" fill="white">
<path d="M400 200H500V300H400V200Z"/>
</mask>
<path d="M500 300V301H501V300H500ZM499 200V300H501V200H499ZM500 299H400V301H500V299Z" fill="#E4E4EA" mask="url(#path-44-inside-22_36_23985)"/>
<mask id="path-46-inside-23_36_23985" fill="white">
<path d="M500 200H600V300H500V200Z"/>
</mask>
<path d="M600 300V301H601V300H600ZM599 200V300H601V200H599ZM600 299H500V301H600V299Z" fill="#E4E4EA" mask="url(#path-46-inside-23_36_23985)"/>
<mask id="path-48-inside-24_36_23985" fill="white">
<path d="M600 200H700V300H600V200Z"/>
</mask>
<path d="M700 300V301H701V300H700ZM699 200V300H701V200H699ZM700 299H600V301H700V299Z" fill="#E4E4EA" mask="url(#path-48-inside-24_36_23985)"/>
<mask id="path-50-inside-25_36_23985" fill="white">
<path d="M700 200H800V300H700V200Z"/>
</mask>
<path d="M800 300V301H801V300H800ZM799 200V300H801V200H799ZM800 299H700V301H800V299Z" fill="#E4E4EA" mask="url(#path-50-inside-25_36_23985)"/>
<mask id="path-52-inside-26_36_23985" fill="white">
<path d="M800 200H900V300H800V200Z"/>
</mask>
<path d="M900 300V301H901V300H900ZM899 200V300H901V200H899ZM900 299H800V301H900V299Z" fill="#E4E4EA" mask="url(#path-52-inside-26_36_23985)"/>
<mask id="path-54-inside-27_36_23985" fill="white">
<path d="M0 300H100V400H0V300Z"/>
</mask>
<path d="M100 400V401H101V400H100ZM0 400H-1V401H0V400ZM99 300V400H101V300H99ZM100 399H0V401H100V399ZM1 400V300H-1V400H1Z" fill="#E4E4EA" mask="url(#path-54-inside-27_36_23985)"/>
<mask id="path-56-inside-28_36_23985" fill="white">
<path d="M100 300H200V400H100V300Z"/>
</mask>
<path d="M200 400V401H201V400H200ZM199 300V400H201V300H199ZM200 399H100V401H200V399Z" fill="#E4E4EA" mask="url(#path-56-inside-28_36_23985)"/>
<mask id="path-58-inside-29_36_23985" fill="white">
<path d="M200 300H300V400H200V300Z"/>
</mask>
<path d="M300 400V401H301V400H300ZM299 300V400H301V300H299ZM300 399H200V401H300V399Z" fill="#E4E4EA" mask="url(#path-58-inside-29_36_23985)"/>
<mask id="path-60-inside-30_36_23985" fill="white">
<path d="M300 300H400V400H300V300Z"/>
</mask>
<path d="M400 400V401H401V400H400ZM399 300V400H401V300H399ZM400 399H300V401H400V399Z" fill="#E4E4EA" mask="url(#path-60-inside-30_36_23985)"/>
<mask id="path-62-inside-31_36_23985" fill="white">
<path d="M400 300H500V400H400V300Z"/>
</mask>
<path d="M500 400V401H501V400H500ZM499 300V400H501V300H499ZM500 399H400V401H500V399Z" fill="#E4E4EA" mask="url(#path-62-inside-31_36_23985)"/>
<mask id="path-64-inside-32_36_23985" fill="white">
<path d="M500 300H600V400H500V300Z"/>
</mask>
<path d="M600 400V401H601V400H600ZM599 300V400H601V300H599ZM600 399H500V401H600V399Z" fill="#E4E4EA" mask="url(#path-64-inside-32_36_23985)"/>
<mask id="path-66-inside-33_36_23985" fill="white">
<path d="M600 300H700V400H600V300Z"/>
</mask>
<path d="M700 400V401H701V400H700ZM699 300V400H701V300H699ZM700 399H600V401H700V399Z" fill="#E4E4EA" mask="url(#path-66-inside-33_36_23985)"/>
<mask id="path-68-inside-34_36_23985" fill="white">
<path d="M700 300H800V400H700V300Z"/>
</mask>
<path d="M800 400V401H801V400H800ZM799 300V400H801V300H799ZM800 399H700V401H800V399Z" fill="#E4E4EA" mask="url(#path-68-inside-34_36_23985)"/>
<mask id="path-70-inside-35_36_23985" fill="white">
<path d="M800 300H900V400H800V300Z"/>
</mask>
<path d="M900 400V401H901V400H900ZM899 300V400H901V300H899ZM900 399H800V401H900V399Z" fill="#E4E4EA" mask="url(#path-70-inside-35_36_23985)"/>
<mask id="path-72-inside-36_36_23985" fill="white">
<path d="M0 400H100V500H0V400Z"/>
</mask>
<path d="M100 500V501H101V500H100ZM0 500H-1V501H0V500ZM99 400V500H101V400H99ZM100 499H0V501H100V499ZM1 500V400H-1V500H1Z" fill="#E4E4EA" mask="url(#path-72-inside-36_36_23985)"/>
<mask id="path-74-inside-37_36_23985" fill="white">
<path d="M100 400H200V500H100V400Z"/>
</mask>
<path d="M200 500V501H201V500H200ZM199 400V500H201V400H199ZM200 499H100V501H200V499Z" fill="#E4E4EA" mask="url(#path-74-inside-37_36_23985)"/>
<mask id="path-76-inside-38_36_23985" fill="white">
<path d="M200 400H300V500H200V400Z"/>
</mask>
<path d="M300 500V501H301V500H300ZM299 400V500H301V400H299ZM300 499H200V501H300V499Z" fill="#E4E4EA" mask="url(#path-76-inside-38_36_23985)"/>
<mask id="path-78-inside-39_36_23985" fill="white">
<path d="M300 400H400V500H300V400Z"/>
</mask>
<path d="M400 500V501H401V500H400ZM399 400V500H401V400H399ZM400 499H300V501H400V499Z" fill="#E4E4EA" mask="url(#path-78-inside-39_36_23985)"/>
<mask id="path-80-inside-40_36_23985" fill="white">
<path d="M400 400H500V500H400V400Z"/>
</mask>
<path d="M500 500V501H501V500H500ZM499 400V500H501V400H499ZM500 499H400V501H500V499Z" fill="#E4E4EA" mask="url(#path-80-inside-40_36_23985)"/>
<mask id="path-82-inside-41_36_23985" fill="white">
<path d="M500 400H600V500H500V400Z"/>
</mask>
<path d="M600 500V501H601V500H600ZM599 400V500H601V400H599ZM600 499H500V501H600V499Z" fill="#E4E4EA" mask="url(#path-82-inside-41_36_23985)"/>
<mask id="path-84-inside-42_36_23985" fill="white">
<path d="M600 400H700V500H600V400Z"/>
</mask>
<path d="M700 500V501H701V500H700ZM699 400V500H701V400H699ZM700 499H600V501H700V499Z" fill="#E4E4EA" mask="url(#path-84-inside-42_36_23985)"/>
<mask id="path-86-inside-43_36_23985" fill="white">
<path d="M700 400H800V500H700V400Z"/>
</mask>
<path d="M800 500V501H801V500H800ZM799 400V500H801V400H799ZM800 499H700V501H800V499Z" fill="#E4E4EA" mask="url(#path-86-inside-43_36_23985)"/>
<mask id="path-88-inside-44_36_23985" fill="white">
<path d="M800 400H900V500H800V400Z"/>
</mask>
<path d="M900 500V501H901V500H900ZM899 400V500H901V400H899ZM900 499H800V501H900V499Z" fill="#E4E4EA" mask="url(#path-88-inside-44_36_23985)"/>
<mask id="path-90-inside-45_36_23985" fill="white">
<path d="M0 500H100V600H0V500Z"/>
</mask>
<path d="M100 600V601H101V600H100ZM0 600H-1V601H0V600ZM99 500V600H101V500H99ZM100 599H0V601H100V599ZM1 600V500H-1V600H1Z" fill="#E4E4EA" mask="url(#path-90-inside-45_36_23985)"/>
<mask id="path-92-inside-46_36_23985" fill="white">
<path d="M100 500H200V600H100V500Z"/>
</mask>
<path d="M200 600V601H201V600H200ZM199 500V600H201V500H199ZM200 599H100V601H200V599Z" fill="#E4E4EA" mask="url(#path-92-inside-46_36_23985)"/>
<mask id="path-94-inside-47_36_23985" fill="white">
<path d="M200 500H300V600H200V500Z"/>
</mask>
<path d="M300 600V601H301V600H300ZM299 500V600H301V500H299ZM300 599H200V601H300V599Z" fill="#E4E4EA" mask="url(#path-94-inside-47_36_23985)"/>
<mask id="path-96-inside-48_36_23985" fill="white">
<path d="M300 500H400V600H300V500Z"/>
</mask>
<path d="M400 600V601H401V600H400ZM399 500V600H401V500H399ZM400 599H300V601H400V599Z" fill="#E4E4EA" mask="url(#path-96-inside-48_36_23985)"/>
<mask id="path-98-inside-49_36_23985" fill="white">
<path d="M400 500H500V600H400V500Z"/>
</mask>
<path d="M500 600V601H501V600H500ZM499 500V600H501V500H499ZM500 599H400V601H500V599Z" fill="#E4E4EA" mask="url(#path-98-inside-49_36_23985)"/>
<mask id="path-100-inside-50_36_23985" fill="white">
<path d="M500 500H600V600H500V500Z"/>
</mask>
<path d="M600 600V601H601V600H600ZM599 500V600H601V500H599ZM600 599H500V601H600V599Z" fill="#E4E4EA" mask="url(#path-100-inside-50_36_23985)"/>
<mask id="path-102-inside-51_36_23985" fill="white">
<path d="M600 500H700V600H600V500Z"/>
</mask>
<path d="M700 600V601H701V600H700ZM699 500V600H701V500H699ZM700 599H600V601H700V599Z" fill="#E4E4EA" mask="url(#path-102-inside-51_36_23985)"/>
<mask id="path-104-inside-52_36_23985" fill="white">
<path d="M700 500H800V600H700V500Z"/>
</mask>
<path d="M800 600V601H801V600H800ZM799 500V600H801V500H799ZM800 599H700V601H800V599Z" fill="#E4E4EA" mask="url(#path-104-inside-52_36_23985)"/>
<mask id="path-106-inside-53_36_23985" fill="white">
<path d="M800 500H900V600H800V500Z"/>
</mask>
<path d="M900 600V601H901V600H900ZM899 500V600H901V500H899ZM900 599H800V601H900V599Z" fill="#E4E4EA" mask="url(#path-106-inside-53_36_23985)"/>
<mask id="path-108-inside-54_36_23985" fill="white">
<path d="M0 600H100V700H0V600Z"/>
</mask>
<path d="M100 700V701H101V700H100ZM0 700H-1V701H0V700ZM99 600V700H101V600H99ZM100 699H0V701H100V699ZM1 700V600H-1V700H1Z" fill="#E4E4EA" mask="url(#path-108-inside-54_36_23985)"/>
<mask id="path-110-inside-55_36_23985" fill="white">
<path d="M100 600H200V700H100V600Z"/>
</mask>
<path d="M200 700V701H201V700H200ZM199 600V700H201V600H199ZM200 699H100V701H200V699Z" fill="#E4E4EA" mask="url(#path-110-inside-55_36_23985)"/>
<mask id="path-112-inside-56_36_23985" fill="white">
<path d="M200 600H300V700H200V600Z"/>
</mask>
<path d="M300 700V701H301V700H300ZM299 600V700H301V600H299ZM300 699H200V701H300V699Z" fill="#E4E4EA" mask="url(#path-112-inside-56_36_23985)"/>
<mask id="path-114-inside-57_36_23985" fill="white">
<path d="M300 600H400V700H300V600Z"/>
</mask>
<path d="M400 700V701H401V700H400ZM399 600V700H401V600H399ZM400 699H300V701H400V699Z" fill="#E4E4EA" mask="url(#path-114-inside-57_36_23985)"/>
<mask id="path-116-inside-58_36_23985" fill="white">
<path d="M400 600H500V700H400V600Z"/>
</mask>
<path d="M500 700V701H501V700H500ZM499 600V700H501V600H499ZM500 699H400V701H500V699Z" fill="#E4E4EA" mask="url(#path-116-inside-58_36_23985)"/>
<mask id="path-118-inside-59_36_23985" fill="white">
<path d="M500 600H600V700H500V600Z"/>
</mask>
<path d="M600 700V701H601V700H600ZM599 600V700H601V600H599ZM600 699H500V701H600V699Z" fill="#E4E4EA" mask="url(#path-118-inside-59_36_23985)"/>
<mask id="path-120-inside-60_36_23985" fill="white">
<path d="M600 600H700V700H600V600Z"/>
</mask>
<path d="M700 700V701H701V700H700ZM699 600V700H701V600H699ZM700 699H600V701H700V699Z" fill="#E4E4EA" mask="url(#path-120-inside-60_36_23985)"/>
<mask id="path-122-inside-61_36_23985" fill="white">
<path d="M700 600H800V700H700V600Z"/>
</mask>
<path d="M800 700V701H801V700H800ZM799 600V700H801V600H799ZM800 699H700V701H800V699Z" fill="#E4E4EA" mask="url(#path-122-inside-61_36_23985)"/>
<mask id="path-124-inside-62_36_23985" fill="white">
<path d="M800 600H900V700H800V600Z"/>
</mask>
<path d="M900 700V701H901V700H900ZM899 600V700H901V600H899ZM900 699H800V701H900V699Z" fill="#E4E4EA" mask="url(#path-124-inside-62_36_23985)"/>
</svg>
