<svg width="21" height="21" viewBox="0 0 21 21" fill="none" xmlns="http://www.w3.org/2000/svg">
<path fill-rule="evenodd" clip-rule="evenodd" d="M5.125 0.566406C2.36358 0.566406 0.125 2.80498 0.125 5.56641V15.5664C0.125 18.3278 2.36358 20.5664 5.125 20.5664H15.125C17.8864 20.5664 20.125 18.3278 20.125 15.5664V5.56641C20.125 2.80498 17.8864 0.566406 15.125 0.566406H5.125ZM16.036 5.56679C16.752 5.56679 17.3324 4.98637 17.3324 4.27037C17.3324 3.55438 16.752 2.97396 16.036 2.97396C15.32 2.97396 14.7396 3.55438 14.7396 4.27037C14.7396 4.98637 15.32 5.56679 16.036 5.56679ZM10.125 5.56641C8.79892 5.56641 7.52715 6.09319 6.58947 7.03087C5.65178 7.96855 5.125 9.24032 5.125 10.5664C5.125 11.8925 5.65178 13.1643 6.58947 14.1019C7.52715 15.0396 8.79892 15.5664 10.125 15.5664C11.4511 15.5664 12.7229 15.0396 13.6605 14.1019C14.5982 13.1643 15.125 11.8925 15.125 10.5664C15.125 9.24032 14.5982 7.96855 13.6605 7.03087C12.7229 6.09319 11.4511 5.56641 10.125 5.56641ZM10.125 13.8136C9.2635 13.8136 8.43729 13.4714 7.82813 12.8622C7.21896 12.253 6.87673 11.4268 6.87673 10.5653C6.87673 9.70383 7.21896 8.87762 7.82813 8.26845C8.43729 7.65928 9.2635 7.31706 10.125 7.31706C10.9865 7.31706 11.8127 7.65928 12.4219 8.26845C13.031 8.87762 13.3733 9.70383 13.3733 10.5653C13.3733 11.4268 13.031 12.253 12.4219 12.8622C11.8127 13.4714 10.9865 13.8136 10.125 13.8136Z" fill="black"/>
</svg>
