<svg width="60" height="53" viewBox="0 0 60 53" fill="none" xmlns="http://www.w3.org/2000/svg">
<path d="M43.0502 25.419C43.0689 11.6733 27.7646 3.34379 16.0906 10.6481C7.25209 16.1791 5.11892 28.3626 11.7853 36.4365C15.2309 40.6078 19.7742 42.796 25.4151 43.0014C25.4368 43.0021 25.4573 43.0114 25.4724 43.0272C25.4875 43.043 25.4959 43.0641 25.4958 43.0861L25.4857 49.0938C25.4857 49.1383 25.4627 49.1613 25.418 49.1613C12.5165 49.0723 2.08574 38.9967 1.65882 26.2044C1.21315 12.8622 12.0146 1.75571 25.3934 1.7715C31.0357 1.77724 36.0377 3.51179 40.3978 6.9737C45.968 11.3962 49.3588 18.2942 49.2607 25.4104C49.2593 25.4607 49.2348 25.4851 49.1843 25.4851L43.1208 25.4894C43.0732 25.4894 43.0502 25.4664 43.0502 25.419Z" fill="#1E1ED8"/>
<path d="M50.4668 28.1881L58.4731 49.6243C58.477 49.6348 58.4784 49.646 58.477 49.6571C58.4757 49.6682 58.4716 49.6788 58.4653 49.688C58.4589 49.6972 58.4503 49.7047 58.4404 49.7098C58.4304 49.715 58.4194 49.7177 58.4082 49.7177H45.5861C45.5718 49.7176 45.5579 49.7131 45.5463 49.7049C45.5347 49.6967 45.5259 49.6851 45.5211 49.6717L37.6836 28.2355C37.6799 28.225 37.6788 28.2138 37.6804 28.2027C37.682 28.1917 37.6862 28.1813 37.6927 28.1723C37.6992 28.1632 37.7078 28.1559 37.7178 28.1509C37.7278 28.1459 37.7388 28.1434 37.75 28.1436H50.4019C50.416 28.1435 50.4298 28.1478 50.4414 28.1557C50.4529 28.1637 50.4618 28.175 50.4668 28.1881Z" fill="#00000E"/>
<path d="M22.4078 28.2158H35.1044C35.1141 28.2157 35.1235 28.2186 35.1315 28.224C35.1395 28.2294 35.1456 28.237 35.1491 28.246L43.1568 49.6894C43.1596 49.6965 43.1606 49.7042 43.1598 49.7118C43.159 49.7193 43.1563 49.7266 43.1521 49.7329C43.1478 49.7393 43.1421 49.7445 43.1354 49.7482C43.1287 49.7519 43.1212 49.7539 43.1136 49.754H30.2424C30.2326 49.754 30.223 49.7509 30.215 49.7453C30.207 49.7396 30.201 49.7317 30.1977 49.7224L22.3631 28.279C22.3605 28.2719 22.3598 28.2642 22.3608 28.2567C22.3618 28.2492 22.3647 28.2421 22.369 28.2359C22.3734 28.2297 22.3792 28.2247 22.386 28.2212C22.3927 28.2177 22.4002 28.2158 22.4078 28.2158Z" fill="#00000E"/>
</svg>
