<svg width="24" height="21" viewBox="0 0 24 21" fill="none" xmlns="http://www.w3.org/2000/svg">
<path d="M1.8766 9.27645C1.8766 9.27645 12.3005 4.88608 15.9157 3.34012C17.3016 2.72179 22.0013 0.742954 22.0013 0.742954C22.0013 0.742954 24.1705 -0.122711 23.9897 1.9797C23.9294 2.84546 23.4474 5.87541 22.9654 9.15279C22.2423 13.7906 21.4591 18.8612 21.4591 18.8612C21.4591 18.8612 21.3386 20.2835 20.3143 20.5308C19.29 20.7781 17.6028 19.6651 17.3016 19.4177C17.0605 19.2322 12.7825 16.4495 11.2159 15.0891C10.7941 14.7181 10.3121 13.9761 11.2761 13.1104C13.4453 11.0697 16.0362 8.53446 17.6028 6.92671C18.3259 6.18462 19.0489 4.4532 16.0362 6.55562C11.7582 9.58566 7.54046 12.4302 7.54046 12.4302C7.54046 12.4302 6.57637 13.0485 4.76878 12.492C2.96111 11.9355 0.852224 11.1934 0.852224 11.1934C0.852224 11.1934 -0.593782 10.2659 1.8766 9.27645Z" fill="black"/>
</svg>
