<svg width="220" height="67" viewBox="0 0 220 67" fill="none" xmlns="http://www.w3.org/2000/svg">
<path d="M174.126 20.7858C174.124 20.8308 174.138 20.8749 174.164 20.9114C174.19 20.9478 174.227 20.9749 174.271 20.9884C174.314 21.0019 174.36 21.0012 174.404 20.9863C174.447 20.9715 174.484 20.9434 174.511 20.9061C181.387 10.7382 194.594 9.4472 205.696 10.0687C208.302 10.213 212.852 9.73989 214.416 12.3941C215.066 13.4927 213.362 17.1132 212.929 18.3441C212.215 20.3608 211.313 19.8436 209.653 19.8436C205.078 19.8396 200.512 19.8356 195.945 19.8316C191.498 19.8235 187.525 21.8483 186.238 26.3148C183.864 34.538 181.487 42.7613 179.101 50.9846C178.356 53.5546 178.287 57.8166 174.727 57.8287C171.263 57.8407 167.001 58.2457 163.637 57.5681C163.58 57.5565 163.528 57.5276 163.488 57.4853C163.448 57.4431 163.422 57.3894 163.412 57.3315C163.296 56.5577 163.28 56.0244 163.368 55.7318C166.063 46.7146 168.661 37.7255 171.167 28.7565C171.18 28.7085 171.176 28.6577 171.156 28.6127C171.135 28.5676 171.099 28.5313 171.054 28.5099C171.009 28.4885 170.957 28.4834 170.908 28.4955C170.859 28.5076 170.816 28.5361 170.786 28.5761C166.937 33.9847 158.156 36.5949 151.938 37.4168C143.754 38.4953 135.571 39.5578 127.384 40.6043C126.859 40.6724 126.438 40.7807 126.113 40.933C125.973 41.0012 125.905 41.1135 125.913 41.2698C126.209 46.4339 129.417 47.7691 134.204 48.2903C142.54 49.1924 151.376 48.3304 159.76 47.9696C160.45 47.9415 161.107 47.9575 161.729 48.0257C161.773 48.0305 161.815 48.0447 161.853 48.0676C161.891 48.0904 161.923 48.1212 161.948 48.1578C161.973 48.1944 161.989 48.236 161.996 48.2796C162.004 48.3233 162.001 48.368 161.989 48.4106C161.38 50.5636 160.738 52.6766 160.069 54.7414C159.319 57.0468 154.644 57.3836 152.214 57.536C146.348 57.8968 140.475 58.0011 134.597 57.8487C127.348 57.6643 119.562 56.3211 114.75 50.2389C114.281 49.6455 114.017 49.7257 113.965 50.4834C113.756 53.3341 113.151 56.1688 109.863 56.8183C107.97 57.1912 106.066 57.4558 104.154 57.6041C93.4845 58.4461 72.9403 59.8614 70.2019 45.6481C70.0174 44.6979 69.8651 43.7476 69.7488 42.7974C69.7449 42.7688 69.7315 42.7423 69.7106 42.7223C69.6898 42.7022 69.6628 42.6898 69.634 42.687C69.6053 42.6842 69.5764 42.6912 69.5521 42.7069C69.5278 42.7226 69.5095 42.746 69.5002 42.7734C68.999 44.2929 68.7625 45.8766 68.2373 47.316C67.7241 48.7313 67.2509 50.1627 66.8179 51.6021C65.6592 55.4511 62.8566 56.0525 59.3484 56.4935C48.6192 57.8527 35.32 58.9152 23.7249 56.4214C17.9353 55.1785 13.0919 51.6863 14.3308 45.159C16.3395 34.6022 28.9411 31.6112 37.854 30.3522C45.0348 29.3379 52.2036 28.2593 59.3604 27.1166C60.6154 26.9162 61.7059 26.2506 62.0187 25.0598C63.7267 18.5405 54.501 18.5606 50.7001 18.5646C43.7358 18.5766 38.4313 18.8132 34.7868 19.2823C32.2248 19.611 29.7229 19.7995 27.2852 19.8476C27.2182 19.8489 27.1518 19.8348 27.0912 19.8064C27.0305 19.778 26.9772 19.736 26.9353 19.6837C26.8935 19.6313 26.8642 19.5701 26.8498 19.5047C26.8354 19.4392 26.8362 19.3714 26.8522 19.3063C27.197 17.875 27.61 16.4596 28.0871 15.0564C29.5706 10.6861 33.9769 10.6059 38.1988 10.3734C47.0155 9.88823 56.9708 9.25475 65.563 11.2835C71.7695 12.7469 76.5648 17.029 75.2898 23.9292C75.2794 23.9828 75.2878 24.0384 75.3138 24.0865C75.3397 24.1347 75.3815 24.1723 75.432 24.1931C75.4826 24.2139 75.5388 24.2165 75.5911 24.2006C75.6433 24.1846 75.6885 24.1511 75.7188 24.1056C84.1426 11.6002 99.4825 8.97409 113.668 10.213C116.366 10.4496 119.469 10.3213 120.392 13.621C120.901 15.4413 121.121 17.3016 121.053 19.2061C121.049 19.3344 120.989 19.4266 120.869 19.4787C120.279 19.7393 119.878 19.8636 119.662 19.8476C112.645 19.3063 106.736 18.8011 101.01 19.7153C89.5633 21.5476 84.6518 29.2897 83.5011 40.2835C82.9959 45.1028 85.9829 47.2679 90.297 48.0056C97.7264 49.2806 105.525 48.3825 113.078 47.7811C113.143 47.7761 113.205 47.7568 113.261 47.7244C113.316 47.6921 113.364 47.6477 113.401 47.5943C113.437 47.5409 113.461 47.4799 113.471 47.4159C113.482 47.3518 113.477 47.2862 113.459 47.2238C111.322 39.9187 114.566 30.2841 118.788 23.9813C128.422 9.60758 149.011 8.17221 164.471 11.3116C169.35 12.3019 174.246 15.1165 174.126 20.7858ZM143.69 18.6688C133.811 19.4106 131.137 24.1858 128.001 32.5935C127.982 32.6474 127.976 32.7055 127.985 32.7621C127.994 32.8188 128.018 32.8721 128.054 32.9169C128.09 32.9617 128.137 32.9965 128.19 33.0178C128.243 33.0391 128.301 33.0462 128.358 33.0385C135.319 32.1364 142.283 31.1421 149.247 30.0555C152.731 29.5143 155.658 28.5119 158.024 27.0525C159.84 25.9339 160.614 24.306 160.349 22.173C159.768 17.47 146.83 18.4323 143.69 18.6688ZM28.1472 43.042C26.4633 47.729 32.6177 48.9799 35.8693 49.1884C41.3823 49.5372 46.8952 49.4891 52.4081 49.0441C53.0376 48.9919 53.6671 48.8877 54.2966 48.7313C54.4409 48.6953 54.5371 48.603 54.5812 48.4627L58.7911 35.2718C58.7987 35.248 58.8002 35.2226 58.7955 35.1981C58.7907 35.1736 58.7798 35.1507 58.7638 35.1315C58.7478 35.1123 58.7272 35.0974 58.704 35.0883C58.6807 35.0792 58.6555 35.0761 58.6307 35.0793C50.9246 36.1137 43.2226 37.1522 35.5205 38.1986C32.325 38.6316 29.2418 39.9908 28.1472 43.042Z" fill="#000010"/>
</svg>
