<svg width="287" height="49" viewBox="0 0 287 49" fill="none" xmlns="http://www.w3.org/2000/svg">
<path fill-rule="evenodd" clip-rule="evenodd" d="M41.4663 0.779518C42.5163 0.969518 42.5363 1.23952 41.5263 1.57952C39.8363 2.15952 39.2663 3.41952 39.8263 5.35952C39.8468 5.43116 39.8492 5.50677 39.8332 5.57956C39.8172 5.65234 39.7835 5.72003 39.7349 5.77653C39.6863 5.83304 39.6245 5.8766 39.5549 5.9033C39.4853 5.93 39.4102 5.93901 39.3363 5.92952C38.6261 5.84096 37.9716 5.72824 37.3579 5.62251C34.5755 5.14322 32.6279 4.80773 30.0963 7.51952C30.0224 7.59814 29.9269 7.65327 29.8219 7.67804C29.7168 7.70281 29.6068 7.69612 29.5055 7.65881C29.4042 7.6215 29.3162 7.55521 29.2523 7.4682C29.1884 7.3812 29.1516 7.27732 29.1463 7.16952C29.0563 5.11952 27.9863 4.01952 25.9363 3.88952C25.4863 3.85952 25.4563 3.72952 25.8463 3.49952C30.6963 0.679518 35.8963 -0.230482 41.4663 0.779518ZM43.2163 2.75934C51.7563 0.419342 62.3463 11.8093 51.0063 17.2393C50.6111 17.4322 50.1616 17.4828 49.7334 17.3826C49.3053 17.2824 48.9249 17.0375 48.6563 16.6893C48.36 16.3052 48.0184 15.8761 47.6491 15.4122L47.6488 15.4118L47.6486 15.4116L47.6484 15.4113L47.6482 15.4111L47.6481 15.4109L47.6478 15.4106L47.6472 15.4098L47.6471 15.4097C45.2002 12.3361 41.5391 7.73723 41.7563 4.54934C41.8163 3.60934 42.3063 3.00934 43.2163 2.75934ZM15.4964 16.3794C16.2264 19.8294 20.1664 22.2094 23.4464 22.1894C23.6106 22.1895 23.7707 22.1397 23.9049 22.0467C24.0391 21.9536 24.1409 21.8219 24.1964 21.6694C26.5864 15.3394 27.7364 11.1894 27.6664 9.23936C27.3664 0.72936 14.1264 9.87936 15.4964 16.3794ZM28.4461 24.6795C27.7961 24.3095 27.4361 23.7595 27.3661 23.0295C26.9561 18.8995 29.2361 8.6495 34.4161 7.5395C39.8561 6.3695 45.6861 15.3495 47.0261 19.5895C47.1361 19.9395 47.0961 20.2595 46.8861 20.5695C42.1761 27.6195 36.0261 28.9895 28.4461 24.6795ZM101.426 31.4094H103.776C105.036 31.4094 105.256 31.8794 104.426 32.8294C102.576 34.9494 100.616 35.6094 98.5363 34.8194C93.5363 32.8994 93.9563 24.3394 95.1663 20.3194C96.6563 15.3594 102.416 14.3294 104.296 19.9194C104.343 20.0615 104.433 20.1854 104.555 20.2734C104.678 20.3614 104.825 20.409 104.976 20.4094H112.976C113.386 20.4094 113.556 20.2094 113.486 19.8094C112.456 13.5994 109.296 9.74942 103.996 8.25942C89.3563 4.12942 82.8863 19.3794 85.3263 31.0994C87.5863 41.9394 97.5663 47.8294 107.176 40.3294C107.236 40.2821 107.31 40.254 107.386 40.2489C107.462 40.2438 107.538 40.2619 107.604 40.3008C107.67 40.3397 107.723 40.3976 107.755 40.467C107.788 40.5363 107.799 40.6139 107.786 40.6894L107.536 42.0794C107.517 42.1807 107.521 42.2851 107.546 42.3849C107.572 42.4847 107.62 42.5776 107.686 42.6569C107.752 42.7362 107.834 42.8 107.928 42.8436C108.021 42.8873 108.123 42.9097 108.226 42.9094H113.356C113.776 42.9094 113.986 42.6994 113.986 42.2794V24.6894C113.986 24.4826 113.904 24.2842 113.758 24.1379C113.612 23.9916 113.413 23.9094 113.206 23.9094H101.446C100.926 23.9094 100.676 24.1694 100.686 24.6994L100.856 30.8494C100.866 31.2194 101.056 31.4094 101.426 31.4094ZM162.784 7.63614L155.144 7.66281C154.906 7.66363 154.715 7.85682 154.715 8.0943L154.738 14.4943C154.739 14.7317 154.932 14.9236 155.169 14.9228L162.809 14.8961C163.047 14.8953 163.238 14.7021 163.238 14.4646L163.215 8.06463C163.214 7.82715 163.021 7.63531 162.784 7.63614ZM215.195 7.67264L222.715 7.64639C222.98 7.64547 223.196 7.85962 223.196 8.12471L223.316 42.4045C223.317 42.6696 223.103 42.8853 222.838 42.8862L215.318 42.9124C215.053 42.9134 214.837 42.6992 214.836 42.4341L214.717 8.15431C214.716 7.88922 214.93 7.67357 215.195 7.67264ZM281.696 24.1994L281.846 34.6794C281.849 34.8686 281.926 35.0492 282.061 35.1821C282.195 35.315 282.377 35.3894 282.566 35.3894L285.736 35.4194C286.066 35.4194 286.236 35.5794 286.236 35.9094V42.3894C286.236 42.7194 286.076 42.8794 285.746 42.8894C284.987 42.9053 284.235 42.941 283.499 42.976L283.498 42.976C278.22 43.2265 273.756 43.4385 273.396 36.0494C273.206 32.0594 273.166 28.1694 273.276 24.3594C273.283 24.1769 273.237 23.9963 273.144 23.8389C273.051 23.6816 272.915 23.5539 272.753 23.471C272.59 23.388 272.407 23.3532 272.225 23.3707C272.043 23.3881 271.87 23.4571 271.726 23.5694C269.666 25.1594 264.206 26.5194 262.226 23.8594C262.006 23.5594 261.736 23.3094 261.416 23.1194C260.546 22.6094 259.666 22.6094 258.776 23.1094C258.551 23.2397 258.368 23.4317 258.249 23.6628C258.13 23.8938 258.079 24.1542 258.103 24.4131C258.128 24.672 258.225 24.9185 258.385 25.1234C258.546 25.3284 258.761 25.4831 259.006 25.5694C259.758 25.8294 260.61 26.0689 261.504 26.3202C265.114 27.3351 269.408 28.5426 270.586 32.0694C274.986 45.2194 251.246 48.3094 249.416 35.8894C249.316 35.2294 249.596 34.8994 250.266 34.8994L256.766 34.9094C256.895 34.9102 257.021 34.9547 257.124 35.0359C257.227 35.1172 257.301 35.2308 257.336 35.3594C257.806 37.1894 259.016 38.0294 260.976 37.8694C261.279 37.845 261.57 37.7402 261.818 37.5661C262.065 37.392 262.262 37.1549 262.386 36.8794C263.056 35.4094 262.536 34.4694 260.816 34.0394L260.411 33.9388C257.728 33.2732 254.623 32.5026 252.586 30.9894C246.926 26.7594 250.736 18.2994 257.416 17.2194C261.236 16.5894 265.166 17.5594 269.206 20.1194C269.242 20.1406 269.283 20.1512 269.324 20.1501C269.366 20.149 269.406 20.1362 269.44 20.1132C269.475 20.0902 269.502 20.058 269.519 20.0201C269.536 19.9823 269.542 19.9405 269.536 19.8994L269.316 18.6494C269.298 18.5498 269.303 18.4474 269.33 18.3498C269.356 18.2521 269.404 18.1616 269.471 18.085C269.537 18.0083 269.619 17.9474 269.712 17.9066C269.804 17.8659 269.905 17.8463 270.006 17.8494L272.966 17.9394C273.316 17.9494 273.486 17.7794 273.486 17.4294V8.15942C273.486 7.82942 273.656 7.65942 273.986 7.65942H281.236C281.369 7.65942 281.496 7.7121 281.59 7.80587C281.684 7.89964 281.736 8.02682 281.736 8.15942L281.746 17.3594C281.746 17.4321 281.761 17.5039 281.789 17.5708C281.818 17.6377 281.859 17.6981 281.911 17.7485C281.964 17.7989 282.026 17.8383 282.093 17.8642C282.161 17.8901 282.234 17.9021 282.306 17.8994L285.156 17.8094C285.506 17.7994 285.696 17.9794 285.716 18.3294L285.966 22.7194C285.975 22.8517 285.955 22.9843 285.909 23.1086C285.864 23.233 285.792 23.3464 285.7 23.4415C285.608 23.5366 285.496 23.6114 285.374 23.661C285.251 23.7106 285.119 23.7339 284.986 23.7294L282.266 23.6294C281.876 23.6194 281.686 23.8094 281.696 24.1994ZM69.4964 42.7194C66.0664 39.8594 62.2564 37.6594 58.0864 36.1094C58.0466 36.095 58.0118 36.0693 57.9862 36.0355C57.9606 36.0018 57.9453 35.9614 57.9422 35.9191C57.939 35.8769 57.9481 35.8346 57.9683 35.7974C57.9886 35.7602 58.0192 35.7297 58.0564 35.7094C62.2264 33.2494 83.2064 20.2794 76.8164 13.8494C73.3064 10.3194 65.8564 6.26943 64.5864 14.7294C62.6964 27.3094 55.4764 35.1694 42.9164 38.2994C42.8649 38.3141 42.8202 38.3463 42.79 38.3903C42.7597 38.4344 42.7457 38.4877 42.7504 38.541C42.7551 38.5942 42.7783 38.6442 42.8159 38.6823C42.8535 38.7203 42.9032 38.7441 42.9564 38.7494C48.4264 39.1394 53.5364 40.6894 58.2764 43.3994C58.4136 43.4846 58.5729 43.5296 58.7364 43.5294L69.2064 43.5394C69.3001 43.5392 69.3911 43.5099 69.4672 43.4557C69.5433 43.4014 69.6009 43.3247 69.6324 43.2357C69.6639 43.1467 69.6677 43.0496 69.6434 42.9574C69.6191 42.8652 69.5678 42.7822 69.4964 42.7194ZM70.8364 12.3294L72.3164 13.6094C72.367 13.6534 72.4084 13.7069 72.4383 13.7669C72.4682 13.8269 72.486 13.8922 72.4906 13.9591C72.4953 14.0259 72.4867 14.0931 72.4654 14.1566C72.4441 14.2202 72.4104 14.2789 72.3664 14.3294L72.0664 14.6794C71.7518 15.0403 71.35 15.2987 70.9489 15.398C70.5478 15.4973 70.1802 15.4295 69.9264 15.2094L69.5864 14.9294C69.3328 14.708 69.2145 14.3519 69.2577 13.9394C69.3008 13.5269 69.5018 13.0917 69.8164 12.7294L70.1164 12.3794C70.1603 12.3288 70.2139 12.2874 70.2739 12.2575C70.3338 12.2276 70.3992 12.2098 70.466 12.2052C70.5329 12.2005 70.6 12.2091 70.6636 12.2304C70.7271 12.2518 70.7858 12.2854 70.8364 12.3294ZM57.6865 24.9195C55.7965 23.5995 54.2865 21.9295 53.1565 19.9095C53.0693 19.7567 53.0376 19.5781 53.0667 19.4034C53.0958 19.2288 53.184 19.0686 53.3165 18.9495C55.5365 16.9495 57.0765 14.5095 57.9465 11.6395C57.9806 11.5206 58.044 11.4122 58.1308 11.3242C58.2176 11.2362 58.3251 11.1713 58.4435 11.1355C58.5618 11.0997 58.6873 11.0941 58.8083 11.1192C58.9294 11.1444 59.0422 11.1995 59.1365 11.2795C63.1865 14.6995 61.6665 20.8895 59.1165 24.6595C59.0408 24.7706 58.9438 24.8655 58.8308 24.9387C58.7179 25.0119 58.5914 25.0621 58.4585 25.0862C58.3256 25.1104 58.189 25.1081 58.0565 25.0795C57.924 25.0509 57.7983 24.9965 57.6865 24.9195ZM123.344 20.9103C123.284 20.8149 123.26 20.7011 123.276 20.5895L123.536 18.4695C123.586 18.0995 123.416 17.9095 123.046 17.9095H116.236C115.906 17.9095 115.736 18.0795 115.736 18.4095V42.1595C115.736 42.6595 115.986 42.9095 116.486 42.9095H123.726C123.799 42.9095 123.872 42.8949 123.939 42.8667C124.007 42.8384 124.068 42.797 124.119 42.7449C124.17 42.6927 124.21 42.6309 124.237 42.563C124.264 42.4951 124.278 42.4225 124.276 42.3495C124.26 41.6678 124.223 40.9145 124.185 40.1186C123.919 34.6334 123.554 27.1257 128.986 27.0995C129.336 27.0995 129.496 27.2695 129.446 27.6195C128.266 36.0795 132.666 43.9495 141.716 43.6595C147.216 43.4695 150.906 40.9095 152.776 35.9695C152.81 35.8786 152.822 35.7808 152.811 35.6845C152.8 35.5882 152.765 35.4963 152.711 35.4166C152.657 35.337 152.585 35.2719 152.5 35.2272C152.416 35.1824 152.322 35.1591 152.226 35.1595H145.466C145.305 35.1594 145.147 35.1974 145.004 35.2705C144.862 35.3435 144.739 35.4495 144.646 35.5795C142.126 39.0595 138.626 37.1495 137.656 33.7295C137.446 33.0195 137.716 32.6595 138.456 32.6595H152.706C153.056 32.6595 153.246 32.4795 153.256 32.1295C153.836 19.6695 140.596 10.7795 131.706 22.0395C131.65 22.1071 131.574 22.1561 131.489 22.1794C131.404 22.2027 131.314 22.1991 131.232 22.1693C131.15 22.1394 131.081 22.0847 131.033 22.0129C130.985 21.9411 130.962 21.856 130.966 21.7695L131.086 18.2795C131.091 18.1234 131.063 17.9681 131.004 17.8234C130.945 17.6787 130.857 17.5477 130.746 17.4387C130.634 17.3297 130.501 17.2451 130.354 17.1901C130.208 17.1352 130.052 17.1111 129.896 17.1195C127.256 17.2695 125.346 18.5095 124.166 20.8595C124.118 20.9616 124.035 21.0429 123.932 21.0887C123.829 21.1346 123.713 21.1417 123.605 21.109C123.497 21.0762 123.404 21.0057 123.344 20.9103ZM144.846 27.6995L137.866 27.5995C137.807 27.5982 137.749 27.5852 137.695 27.5614C137.641 27.5376 137.592 27.5033 137.551 27.4606C137.51 27.4179 137.478 27.3676 137.457 27.3125C137.435 27.2573 137.425 27.1986 137.426 27.1395V26.9895C137.442 25.9728 137.86 25.0039 138.587 24.2952C139.314 23.5866 140.292 23.1961 141.306 23.2095H141.526C142.029 23.216 142.526 23.3218 142.988 23.5208C143.45 23.7198 143.869 24.0082 144.22 24.3694C144.571 24.7306 144.848 25.1576 145.034 25.6261C145.22 26.0945 145.313 26.5952 145.306 27.0995L145.296 27.2495C145.296 27.3688 145.249 27.4833 145.165 27.5677C145.08 27.6521 144.966 27.6995 144.846 27.6995ZM173.237 20.7094C173.653 20.4106 174.034 20.0108 174.415 19.6115C174.939 19.062 175.463 18.5132 176.077 18.2294C189.884 11.8393 188.489 32.8888 187.96 40.8634C187.923 41.4249 187.89 41.9216 187.867 42.3394C187.847 42.7194 187.647 42.9094 187.267 42.9094H180.027C179.637 42.9094 179.447 42.7194 179.457 42.3394C179.537 37.7594 179.517 33.2294 179.387 28.7494C179.317 26.3194 178.157 25.0994 175.887 25.1094C175.709 25.1092 175.533 25.1454 175.368 25.2159C175.203 25.2863 175.053 25.3895 174.927 25.5194C172.97 27.5663 173.245 35.1508 173.415 39.8195C173.452 40.8529 173.485 41.7434 173.487 42.3994C173.487 42.7394 173.317 42.9094 172.977 42.9094H166.327C165.597 42.9094 165.227 42.5394 165.227 41.8094L165.237 18.4094C165.247 18.0794 165.407 17.9094 165.737 17.9094H172.277C172.647 17.9094 172.807 18.0894 172.777 18.4494L172.617 20.3694C172.567 20.9294 172.777 21.0394 173.237 20.7094ZM198.226 42.3895C198.196 41.0395 198.656 40.8595 199.596 41.8295C202.436 44.7795 207.046 43.6895 209.726 41.0695C213.656 37.2195 213.956 29.5495 212.586 24.7295C210.526 17.4695 203.976 14.3595 197.866 20.2395C197.81 20.2945 197.737 20.3299 197.658 20.3405C197.58 20.3511 197.5 20.3363 197.431 20.2982C197.362 20.2602 197.306 20.201 197.273 20.1292C197.24 20.0575 197.23 19.9769 197.246 19.8995L197.536 18.4895C197.606 18.0995 197.446 17.9095 197.056 17.9095H190.486C190.156 17.9095 189.986 18.0795 189.986 18.4095V47.6595C189.986 47.9895 190.156 48.1595 190.486 48.1595H197.776C198.136 48.1595 198.316 47.9795 198.306 47.6195L198.226 42.3895ZM202.958 35.5788C202.504 35.8637 202.021 36.0064 201.535 35.9988C200.554 35.9833 199.623 35.3565 198.946 34.2561C198.269 33.1558 197.903 31.6721 197.927 30.1314C197.939 29.3685 198.046 28.6146 198.243 27.9127C198.44 27.2108 198.723 26.5746 199.075 26.0406C199.427 25.5065 199.841 25.085 200.295 24.8001C200.748 24.5152 201.232 24.3725 201.718 24.3802C202.699 24.3956 203.63 25.0225 204.307 26.1228C204.983 27.2232 205.35 28.7069 205.326 30.2476C205.314 31.0105 205.206 31.7644 205.009 32.4663C204.812 33.1682 204.53 33.8043 204.178 34.3384C203.826 34.8724 203.411 35.2939 202.958 35.5788ZM239.697 40.7994C235.857 44.0194 227.767 45.4094 225.597 39.4694C222.143 29.9972 229.629 28.5162 236.222 27.2117L236.222 27.2116L236.222 27.2116L236.223 27.2115L236.223 27.2115L236.223 27.2115C237.056 27.0466 237.876 26.8845 238.657 26.7094C238.922 26.6498 239.166 26.5149 239.357 26.3208C239.548 26.1268 239.68 25.8817 239.736 25.615C239.792 25.3482 239.77 25.071 239.672 24.8165C239.575 24.5619 239.406 24.3408 239.187 24.1794C237.057 22.6194 235.417 22.9494 234.267 25.1794C234.191 25.3241 234.078 25.4454 233.939 25.53C233.799 25.6147 233.64 25.6595 233.477 25.6594H226.977C226.818 25.6603 226.661 25.6243 226.518 25.5543C226.375 25.4843 226.25 25.3821 226.152 25.2556C226.055 25.1291 225.987 24.9816 225.955 24.8245C225.923 24.6674 225.927 24.5049 225.967 24.3494C228.477 14.6994 247.747 13.7594 248.107 25.0994C248.267 30.2094 248.297 35.3294 248.197 40.4494C248.197 40.5417 248.217 40.6307 248.257 40.7094L249.047 42.1594C249.317 42.6594 249.167 42.9094 248.596 42.9094H240.987C240.657 42.9094 240.487 42.7394 240.487 42.4094V41.1594C240.485 41.0685 240.458 40.9797 240.409 40.9035C240.359 40.8273 240.288 40.7668 240.206 40.7291C240.123 40.6914 240.031 40.6779 239.941 40.6904C239.851 40.7028 239.766 40.7407 239.697 40.7994ZM234.687 37.7594C238.367 38.8194 240.157 35.1694 239.897 32.1794C239.89 32.1138 239.869 32.0504 239.836 31.9934C239.803 31.9365 239.758 31.8874 239.705 31.8494C239.652 31.8115 239.592 31.7856 239.528 31.7735C239.464 31.7614 239.399 31.7635 239.337 31.7794C237.147 32.3594 232.787 33.7094 233.287 36.2294C233.359 36.5885 233.528 36.9209 233.774 37.1906C234.021 37.4602 234.337 37.6569 234.687 37.7594ZM155.186 17.9094H162.786C163.035 17.9094 163.236 18.1109 163.236 18.3594V42.4594C163.236 42.708 163.035 42.9094 162.786 42.9094H155.186C154.938 42.9094 154.736 42.708 154.736 42.4594V18.3594C154.736 18.1109 154.938 17.9094 155.186 17.9094ZM21.3365 24.7695C21.4269 24.8016 21.5098 24.8519 21.5798 24.9173C21.6498 24.9827 21.7054 25.0617 21.7431 25.1492C21.7807 25.2367 21.7996 25.3309 21.7984 25.4256C21.7973 25.5204 21.7762 25.6137 21.7365 25.6995L19.0365 31.5995C18.9988 31.6798 18.9454 31.7516 18.8795 31.8106C18.8136 31.8697 18.7366 31.9146 18.6533 31.9427C18.5699 31.9708 18.4819 31.9815 18.3948 31.974C18.3076 31.9666 18.2231 31.9412 18.1465 31.8995C13.6764 29.4995 8.81645 23.5895 13.2265 18.8895C13.4965 18.5995 13.7364 18.6195 13.9464 18.9495C15.7464 21.7195 18.2064 23.6595 21.3365 24.7695ZM39.6264 30.3494L40.7264 34.3694C40.7863 34.5769 40.9173 34.7568 41.0965 34.8775C41.2757 34.9981 41.4916 35.0519 41.7064 35.0294C45.8264 34.5994 53.3964 31.7094 55.7264 27.3894C55.9464 26.9894 55.9064 26.6194 55.5964 26.2694L51.6964 21.8594C51.4064 21.5294 51.1264 21.5294 50.8364 21.8494C47.8264 25.2194 44.2364 27.7694 40.0664 29.4794C39.6564 29.6394 39.5164 29.9294 39.6264 30.3494ZM12.6165 36.3694C13.3565 36.0994 13.4365 35.6894 12.8565 35.1494C9.88655 32.3894 8.37655 28.9694 8.33655 24.8794C8.3321 24.7577 8.37135 24.6385 8.4472 24.5432C8.52305 24.4479 8.63049 24.3829 8.75008 24.36C8.86968 24.337 8.99355 24.3576 9.09928 24.4181C9.20501 24.4785 9.28562 24.5747 9.32655 24.6894C12.6365 33.0694 21.1265 37.1594 29.5265 38.4094C29.5754 38.4222 29.6183 38.4513 29.6482 38.4919C29.6781 38.5325 29.6931 38.5822 29.6908 38.6325C29.6885 38.6829 29.6689 38.731 29.6353 38.7686C29.6018 38.8063 29.5563 38.8313 29.5065 38.8394C24.2865 39.0594 19.3365 40.0994 14.6465 41.9594C12.3165 42.8894 10.3265 43.4094 8.69655 43.5394C5.98655 43.7494 3.23655 43.7594 0.456547 43.5694C0.35397 43.5605 0.256656 43.5201 0.177901 43.4538C0.0991456 43.3874 0.0427899 43.2984 0.0165316 43.1988C-0.00972668 43.0993 -0.00460605 42.994 0.0311934 42.8975C0.0669928 42.801 0.131725 42.7178 0.216548 42.6594C4.08655 40.0694 8.22655 37.9794 12.6165 36.3694ZM38.0866 34.6695L37.6366 30.5195C37.5866 30.0495 37.3166 29.8095 36.8466 29.7895C32.3966 29.6095 28.2766 28.3795 24.4666 26.0995C24.0966 25.8795 23.8266 25.9695 23.6566 26.3695L21.3666 31.8895C21.213 32.2613 21.206 32.6774 21.347 33.0541C21.4881 33.4308 21.7666 33.74 22.1266 33.9195C26.4066 36.0195 32.7966 37.1295 37.4766 35.6095C37.9366 35.4595 38.1366 35.1495 38.0866 34.6695Z" fill="black"/>
</svg>
