<svg width="140" height="140" viewBox="0 0 140 140" fill="none" xmlns="http://www.w3.org/2000/svg">
<g clip-path="url(#clip0_0_2720)">
<path d="M45.5109 50.8085L45.4524 86.0428C45.4524 86.0751 45.4652 86.1062 45.4881 86.129C45.511 86.1519 45.542 86.1647 45.5743 86.1647L62.0697 86.194C66.5512 86.2008 70.8519 84.491 74.0257 81.4406C77.1996 78.3902 78.9868 74.249 78.9943 69.9279L79.004 67.0404C79.0077 64.9002 78.5741 62.7802 77.728 60.8014C76.8819 58.8226 75.6398 57.0239 74.0727 55.508C72.5056 53.9921 70.6441 52.7886 68.5947 51.9663C66.5452 51.1441 64.3479 50.7191 62.1282 50.7158L45.6329 50.6865C45.6005 50.6865 45.5695 50.6994 45.5466 50.7222C45.5238 50.7451 45.5109 50.7761 45.5109 50.8085Z" stroke="#000010" stroke-width="0.97548"/>
<path d="M33.4882 55.5932C33.4882 54.2971 32.9733 53.054 32.0568 52.1375C31.1402 51.221 29.8972 50.7061 28.601 50.7061C27.3049 50.7061 26.0618 51.221 25.1453 52.1375C24.2288 53.054 23.7139 54.2971 23.7139 55.5932C23.7139 56.8894 24.2288 58.1324 25.1453 59.049C26.0618 59.9655 27.3049 60.4804 28.601 60.4804C29.8972 60.4804 31.1402 59.9655 32.0568 59.049C32.9733 58.1324 33.4882 56.8894 33.4882 55.5932Z" stroke="#000010" stroke-width="0.97548"/>
<path d="M118.277 64.1581C117.17 56.5249 112.073 52.0475 104.493 50.9989C91.4218 49.1893 81.6182 57.5151 83.2521 71.045C84.3105 79.7706 89.6805 84.9846 98.3233 86.0625C101.962 86.5161 105.396 86.1893 108.619 85.0821C117.57 82.0094 119.506 72.6399 118.277 64.1581Z" stroke="#000010" stroke-width="0.97548"/>
<path d="M33.532 66.6805C33.532 66.6339 33.5135 66.5892 33.4806 66.5563C33.4477 66.5234 33.403 66.5049 33.3564 66.5049H23.8357C23.7892 66.5049 23.7445 66.5234 23.7116 66.5563C23.6787 66.5892 23.6602 66.6339 23.6602 66.6805V86.0535C23.6602 86.1001 23.6787 86.1447 23.7116 86.1777C23.7445 86.2106 23.7892 86.2291 23.8357 86.2291H33.3564C33.403 86.2291 33.4477 86.2106 33.4806 86.1777C33.5135 86.1447 33.532 86.1001 33.532 86.0535V66.6805Z" stroke="#000010" stroke-width="0.97548"/>
<path d="M82.2085 92.7304C82.1939 91.7452 81.5598 90.7404 80.4624 91.2477C80.2478 91.3501 80.1356 91.2818 80.1259 91.0428L80.1015 90.399C80.0966 90.1844 79.9844 90.0917 79.7698 90.1161L79.3357 90.1698C79.2798 90.178 79.2288 90.2057 79.1921 90.2479C79.1553 90.29 79.1353 90.3437 79.1357 90.399V93.5596C79.1357 93.7888 79.2431 93.8668 79.4625 93.7839C79.882 93.623 80.3161 93.6181 80.7599 93.7742C80.9254 93.8324 81.1024 93.8497 81.276 93.8247C81.4496 93.7998 81.6146 93.7332 81.7568 93.6306C81.8991 93.5281 82.0145 93.3927 82.0932 93.2359C82.1718 93.0792 82.2114 92.9057 82.2085 92.7304Z" stroke="#000010" stroke-width="0.97548"/>
<path d="M88.9978 91.471L89.6416 93.5439C89.672 93.6409 89.7329 93.7259 89.8151 93.7861C89.8974 93.8463 89.9966 93.8786 90.0981 93.878C90.1995 93.8775 90.2977 93.8442 90.378 93.7831C90.4584 93.722 90.5166 93.6364 90.5439 93.539L91.1243 91.5539C91.217 91.2271 91.2804 91.232 91.3097 91.5734C91.3536 92.1538 90.9829 94.0755 92.0023 93.7097C92.1242 93.6658 92.1827 93.5829 92.1827 93.4512V90.7296C92.1905 90.5084 92.1101 90.2932 91.9591 90.1313C91.8082 89.9694 91.5992 89.8741 91.378 89.8663C91.1568 89.8585 90.9415 89.939 90.7796 90.0899C90.6177 90.2408 90.5224 90.4499 90.5147 90.6711C90.4805 91.1247 90.3683 91.5636 90.1781 91.988C90.0513 92.266 89.9586 92.2562 89.8952 91.9587C89.8025 91.5149 89.7294 91.0613 89.6709 90.593C89.6497 90.3616 89.5386 90.1477 89.3615 89.9972C89.1843 89.8468 88.9553 89.7718 88.7234 89.7884C88.4916 89.805 88.2756 89.9119 88.1217 90.086C87.9678 90.2602 87.8883 90.4878 87.9004 90.7199L87.9491 93.4902C87.9491 93.6609 88.0369 93.7585 88.2076 93.7829C89.2709 93.9243 88.6515 92.1636 88.91 91.4661C88.9441 91.3783 88.9734 91.3783 88.9978 91.471Z" stroke="#000010" stroke-width="0.97548"/>
<path d="M94.2581 90.5603C94.2581 90.5059 94.2475 90.452 94.2268 90.4016C94.206 90.3513 94.1756 90.3055 94.1371 90.267C94.0987 90.2284 94.0531 90.1978 94.0028 90.1769C93.9525 90.1559 93.8986 90.1451 93.8442 90.145L93.5711 90.1445C93.5166 90.1444 93.4627 90.1551 93.4124 90.1758C93.362 90.1966 93.3163 90.227 93.2777 90.2654C93.2391 90.3039 93.2085 90.3495 93.1876 90.3998C93.1667 90.45 93.1559 90.5039 93.1558 90.5584L93.1509 93.3775C93.1508 93.432 93.1614 93.4859 93.1822 93.5362C93.2029 93.5866 93.2334 93.6323 93.2718 93.6709C93.3102 93.7094 93.3559 93.7401 93.4061 93.761C93.4564 93.7819 93.5103 93.7927 93.5647 93.7928L93.8379 93.7933C93.8923 93.7934 93.9462 93.7828 93.9966 93.762C94.0469 93.7413 94.0927 93.7108 94.1312 93.6724C94.1698 93.634 94.2004 93.5883 94.2213 93.5381C94.2423 93.4878 94.2531 93.4339 94.2532 93.3795L94.2581 90.5603Z" stroke="#000010" stroke-width="0.97548"/>
<path d="M96.5481 92.0865L97.6797 93.5303C97.7615 93.6358 97.8734 93.7142 98.0005 93.7552C98.1277 93.7961 98.2642 93.7977 98.3923 93.7598C98.5204 93.7218 98.634 93.6461 98.7183 93.5425C98.8027 93.4389 98.8537 93.3122 98.8649 93.1791C98.9088 92.7401 99.3136 89.4528 97.9577 90.2283C97.8455 90.2917 97.7918 90.3843 97.7918 90.516V91.7012C97.7918 92.0768 97.6845 92.1109 97.4651 91.8085L96.4701 90.4185C96.3859 90.3004 96.2663 90.2121 96.1286 90.1666C95.9909 90.121 95.8423 90.1204 95.7043 90.165C95.5662 90.2096 95.446 90.2969 95.3609 90.4144C95.2759 90.5319 95.2304 90.6734 95.2312 90.8184V93.501C95.2312 93.7253 95.3434 93.8229 95.5629 93.7888L95.9628 93.7351C96.1238 93.7107 96.2067 93.618 96.2067 93.4571V92.2036C96.2067 91.8378 96.3189 91.7988 96.5481 92.0865Z" stroke="#000010" stroke-width="0.97548"/>
<path d="M100.869 90.5309C100.868 90.4803 100.857 90.4304 100.837 90.384C100.817 90.3376 100.788 90.2956 100.751 90.2605C100.715 90.2253 100.672 90.1977 100.625 90.1792C100.578 90.1606 100.528 90.1515 100.477 90.1524L100.097 90.159C99.9944 90.1608 99.8972 90.2031 99.8262 90.2766C99.7552 90.3501 99.7163 90.4488 99.7181 90.551L99.7678 93.3989C99.7687 93.4495 99.7795 93.4995 99.7997 93.5459C99.8199 93.5923 99.849 93.6342 99.8854 93.6694C99.9218 93.7045 99.9647 93.7322 100.012 93.7507C100.059 93.7693 100.109 93.7784 100.16 93.7775L100.54 93.7708C100.642 93.7691 100.74 93.7268 100.811 93.6533C100.882 93.5798 100.92 93.4811 100.919 93.3789L100.869 90.5309Z" stroke="#000010" stroke-width="0.97548"/>
<path d="M103.806 90.9891L104.615 91.2915C104.786 91.3549 104.932 91.3208 105.059 91.1939L105.196 91.0574C105.308 90.9452 105.298 90.8428 105.176 90.7452C102.103 88.3846 100.128 93.1498 103.269 93.7985C104.035 93.9594 104.723 93.6814 105.327 92.9693C105.44 92.8376 105.42 92.7303 105.264 92.6523L104.815 92.4328C104.606 92.3304 104.435 92.3743 104.303 92.5645C104.157 92.7693 103.967 92.9157 103.733 92.9986C103.572 93.0571 103.42 93.0327 103.279 92.9303C102.889 92.6425 102.728 92.2036 102.796 91.6134C102.809 91.4994 102.848 91.3898 102.909 91.2929C102.971 91.196 103.053 91.1144 103.15 91.0542C103.248 90.9941 103.357 90.9569 103.471 90.9457C103.584 90.9344 103.699 90.9492 103.806 90.9891Z" stroke="#000010" stroke-width="0.97548"/>
<path d="M109.839 91.9598C109.839 91.4449 109.634 90.9512 109.27 90.5871C108.906 90.2231 108.413 90.0186 107.898 90.0186C107.383 90.0186 106.889 90.2231 106.525 90.5871C106.161 90.9512 105.957 91.4449 105.957 91.9598C105.957 92.2147 106.007 92.4671 106.104 92.7026C106.202 92.9381 106.345 93.1521 106.525 93.3324C106.705 93.5127 106.919 93.6556 107.155 93.7532C107.39 93.8508 107.643 93.901 107.898 93.901C108.413 93.901 108.906 93.6964 109.27 93.3324C109.634 92.9684 109.839 92.4746 109.839 91.9598Z" stroke="#000010" stroke-width="0.97548"/>
<path d="M112.014 92.1304L113.068 93.579C113.148 93.6916 113.263 93.7758 113.394 93.8193C113.525 93.8628 113.667 93.8634 113.799 93.8211C113.931 93.7788 114.046 93.6957 114.128 93.5838C114.209 93.4719 114.253 93.337 114.253 93.1985V90.5062C114.253 90.3355 114.17 90.238 113.999 90.2184L113.517 90.155C113.278 90.1258 113.156 90.2331 113.156 90.4721V91.7451C113.155 91.7805 113.143 91.8147 113.121 91.843C113.1 91.8713 113.07 91.8923 113.037 91.903C113.003 91.9137 112.967 91.9137 112.933 91.9028C112.899 91.892 112.87 91.871 112.848 91.8426L111.883 90.4477C111.797 90.3244 111.674 90.2316 111.532 90.1829C111.39 90.1341 111.236 90.1318 111.092 90.1764C110.949 90.2209 110.823 90.31 110.734 90.4307C110.645 90.5514 110.596 90.6974 110.595 90.8476V93.4131C110.595 93.5643 110.663 93.6668 110.8 93.7253C111.824 94.1789 111.712 92.7352 111.688 92.2474C111.685 92.2083 111.695 92.1694 111.717 92.1365C111.738 92.1037 111.77 92.0788 111.807 92.0656C111.844 92.0523 111.884 92.0515 111.921 92.0632C111.959 92.0749 111.991 92.0985 112.014 92.1304Z" stroke="#000010" stroke-width="0.97548"/>
<path d="M116.36 91.0333C116.853 90.8578 118.028 91.2967 118.043 90.4529C118.043 90.4109 118.036 90.3691 118.02 90.3301C118.004 90.2911 117.981 90.2556 117.952 90.2256C117.922 90.1956 117.887 90.1719 117.848 90.1556C117.809 90.1394 117.768 90.131 117.726 90.131L115.414 90.1261C115.209 90.1213 115.106 90.2237 115.106 90.4285V93.394C115.105 93.5261 115.152 93.6538 115.239 93.7528C115.325 93.8518 115.446 93.9152 115.577 93.9308C115.709 93.9465 115.842 93.9134 115.951 93.8378C116.06 93.7622 116.138 93.6493 116.17 93.5208C116.223 93.316 116.228 92.9989 116.184 92.5697C116.165 92.3551 116.262 92.2429 116.477 92.2332L117.54 92.1795C117.623 92.1747 117.687 92.1356 117.731 92.0625L117.813 91.9308C117.829 91.905 117.838 91.8758 117.84 91.8458C117.841 91.8158 117.836 91.7858 117.823 91.7584C117.811 91.731 117.792 91.7071 117.768 91.6887C117.744 91.6703 117.716 91.658 117.687 91.6528L116.394 91.4235C116.351 91.4144 116.312 91.3917 116.283 91.3589C116.254 91.326 116.237 91.2847 116.233 91.2411C116.229 91.1974 116.239 91.1536 116.262 91.1162C116.285 91.0789 116.319 91.0498 116.36 91.0333Z" stroke="#000010" stroke-width="0.97548"/>
<path d="M83.8961 92.3543C83.8815 91.6763 83.5449 91.2861 82.8962 91.1739C82.8513 91.167 82.8051 91.172 82.7628 91.1886C82.7204 91.2051 82.6832 91.2326 82.6553 91.268C82.6273 91.3034 82.6096 91.3456 82.6039 91.39C82.5983 91.4343 82.6049 91.4793 82.6231 91.5202L83.5742 93.6809C83.6376 93.8321 83.5937 93.9394 83.4376 93.998L82.7158 94.2516C82.6786 94.2636 82.6457 94.2863 82.6213 94.3168C82.5969 94.3473 82.5819 94.3843 82.5783 94.4232C82.5746 94.4622 82.5825 94.5013 82.6009 94.5358C82.6192 94.5703 82.6473 94.5987 82.6816 94.6174C84.4472 95.6221 85.1447 92.5738 85.5203 91.4958C85.5837 91.3056 85.5154 91.213 85.3154 91.2178L84.7106 91.2325C84.6798 91.2335 84.6495 91.2411 84.6217 91.2547C84.5939 91.2682 84.5692 91.2875 84.549 91.3113C84.5289 91.3351 84.5138 91.3629 84.5047 91.393C84.4955 91.4231 84.4926 91.4548 84.496 91.4861C84.535 91.8275 84.457 92.1494 84.257 92.4567C84.0278 92.8079 83.9107 92.7737 83.8961 92.3543Z" stroke="#000010" stroke-width="0.97548"/>
<path d="M77.3701 93.3639C77.3701 93.2811 77.3372 93.2017 77.2786 93.1432C77.2201 93.0846 77.1407 93.0518 77.0579 93.0518H23.9528C23.87 93.0518 23.7906 93.0846 23.7321 93.1432C23.6735 93.2017 23.6406 93.2811 23.6406 93.3639V93.4712C23.6406 93.554 23.6735 93.6334 23.7321 93.6919C23.7906 93.7505 23.87 93.7834 23.9528 93.7834H77.0579C77.1407 93.7834 77.2201 93.7505 77.2786 93.6919C77.3372 93.6334 77.3701 93.554 77.3701 93.4712V93.3639Z" stroke="#000010" stroke-width="0.97548"/>
<path d="M57.3093 58.6854V78.1657C57.3093 78.1862 57.3134 78.2065 57.3212 78.2254C57.3291 78.2444 57.3405 78.2616 57.355 78.2761C57.3695 78.2906 57.3867 78.3021 57.4057 78.3099C57.4246 78.3177 57.4449 78.3218 57.4654 78.3218H60.5138C62.3002 78.3218 64.0134 77.5505 65.2766 76.1775C66.5398 74.8046 67.2495 72.9424 67.2495 71.0008V65.8503C67.2495 63.9086 66.5398 62.0465 65.2766 60.6736C64.0134 59.3006 62.3002 58.5293 60.5138 58.5293H57.4654C57.424 58.5293 57.3843 58.5457 57.355 58.575C57.3258 58.6043 57.3093 58.644 57.3093 58.6854Z" stroke="#000010" stroke-width="0.97548"/>
<path d="M105.21 60.9046C102.703 58.1245 98.4601 58.2465 96.2018 61.0802C94.4948 63.2214 94.0704 66.3186 94.2167 69.0694C94.4557 73.5127 95.4215 77.6 100.894 77.6341C108.825 77.6829 109.02 65.1285 105.21 60.9046Z" stroke="#000010" stroke-width="0.97548"/>
<path d="M80.6996 93.0555C80.8157 93.0464 80.922 92.9746 80.9952 92.856C81.0685 92.7374 81.1026 92.5816 81.0901 92.423C81.0776 92.2644 81.0196 92.1159 80.9287 92.0102C80.8378 91.9045 80.7215 91.8503 80.6055 91.8594C80.4894 91.8685 80.3831 91.9403 80.3098 92.0589C80.2366 92.1775 80.2024 92.3333 80.2149 92.4919C80.2274 92.6505 80.2855 92.799 80.3764 92.9047C80.4673 93.0104 80.5835 93.0646 80.6996 93.0555Z" stroke="#000010" stroke-width="0.97548"/>
<path d="M107.963 93.0195C108.076 93.0114 108.187 92.9762 108.287 92.9159C108.388 92.8556 108.477 92.7714 108.55 92.6681C108.623 92.5648 108.678 92.4444 108.712 92.3138C108.747 92.1832 108.759 92.0449 108.749 91.9069C108.729 91.6282 108.619 91.3674 108.444 91.182C108.268 90.9965 108.041 90.9015 107.813 90.9178C107.7 90.9259 107.59 90.9611 107.489 91.0214C107.388 91.0817 107.299 91.1659 107.226 91.2692C107.153 91.3726 107.098 91.493 107.064 91.6236C107.03 91.7542 107.017 91.8924 107.027 92.0304C107.047 92.3091 107.157 92.5699 107.332 92.7554C107.508 92.9409 107.735 93.0359 107.963 93.0195Z" stroke="#000010" stroke-width="0.97548"/>
<path d="M139.494 1.58984V139.874H1.18529L1.17065 1.8581C1.17065 1.78825 1.19789 1.72126 1.24637 1.67186C1.29485 1.62247 1.3606 1.59472 1.42916 1.59472L139.494 1.58984ZM45.5111 50.8077L45.4526 86.042C45.4526 86.0744 45.4654 86.1054 45.4883 86.1283C45.5112 86.1511 45.5422 86.164 45.5745 86.164L62.0699 86.1932C66.5514 86.2 70.8521 84.4902 74.0259 81.4398C77.1998 78.3894 78.987 74.2483 78.9945 69.9271L79.0042 67.0397C79.0079 64.8994 78.5743 62.7794 77.7282 60.8006C76.8821 58.8219 75.64 57.0232 74.0729 55.5072C72.5057 53.9913 70.6443 52.7878 68.5949 51.9656C66.5454 51.1433 64.3481 50.7184 62.1284 50.715L45.633 50.6858C45.6007 50.6858 45.5697 50.6986 45.5468 50.7215C45.5239 50.7443 45.5111 50.7754 45.5111 50.8077ZM33.4883 55.5924C33.4883 54.2963 32.9734 53.0532 32.0569 52.1367C31.1404 51.2202 29.8973 50.7053 28.6012 50.7053C27.305 50.7053 26.0619 51.2202 25.1454 52.1367C24.2289 53.0532 23.714 54.2963 23.714 55.5924C23.714 56.8886 24.2289 58.1316 25.1454 59.0482C26.0619 59.9647 27.305 60.4796 28.6012 60.4796C29.8973 60.4796 31.1404 59.9647 32.0569 59.0482C32.9734 58.1316 33.4883 56.8886 33.4883 55.5924ZM118.277 64.1571C117.17 56.524 112.073 52.0466 104.494 50.9979C91.4221 49.1884 81.6185 57.5141 83.2524 71.044C84.3108 79.7697 89.6808 84.9836 98.3236 86.0615C101.962 86.5151 105.396 86.1884 108.62 85.0812C117.57 82.0084 119.506 72.6389 118.277 64.1571ZM33.5322 66.6788C33.5322 66.6322 33.5137 66.5875 33.4808 66.5546C33.4478 66.5217 33.4032 66.5032 33.3566 66.5032H23.8359C23.7894 66.5032 23.7447 66.5217 23.7118 66.5546C23.6788 66.5875 23.6603 66.6322 23.6603 66.6788V86.0518C23.6603 86.0984 23.6788 86.143 23.7118 86.176C23.7447 86.2089 23.7894 86.2274 23.8359 86.2274H33.3566C33.4032 86.2274 33.4478 86.2089 33.4808 86.176C33.5137 86.143 33.5322 86.0984 33.5322 86.0518V66.6788ZM82.2087 92.729C82.194 91.7437 81.56 90.739 80.4626 91.2462C80.248 91.3487 80.1358 91.2804 80.126 91.0414L80.1016 90.3976C80.0967 90.183 79.9846 90.0903 79.77 90.1147L79.3359 90.1683C79.28 90.1765 79.229 90.2043 79.1922 90.2464C79.1555 90.2885 79.1355 90.3422 79.1359 90.3976V93.5581C79.1359 93.7873 79.2432 93.8654 79.4627 93.7825C79.8821 93.6215 80.3162 93.6166 80.7601 93.7727C80.9255 93.8309 81.1026 93.8483 81.2762 93.8233C81.4497 93.7983 81.6147 93.7317 81.757 93.6292C81.8993 93.5267 82.0147 93.3913 82.0933 93.2345C82.172 93.0778 82.2115 92.9043 82.2087 92.729ZM88.998 91.4706L89.6418 93.5435C89.6722 93.6406 89.7331 93.7255 89.8154 93.7857C89.8976 93.846 89.9969 93.8782 90.0983 93.8776C90.1997 93.8771 90.2979 93.8438 90.3783 93.7827C90.4586 93.7216 90.5168 93.636 90.5441 93.5386L91.1246 91.5535C91.2172 91.2267 91.2806 91.2316 91.3099 91.573C91.3538 92.1534 90.9831 94.0751 92.0025 93.7093C92.1244 93.6654 92.1829 93.5825 92.1829 93.4508V90.7292C92.1907 90.508 92.1103 90.2928 91.9594 90.1309C91.8084 89.969 91.5994 89.8737 91.3782 89.8659C91.157 89.8582 90.9418 89.9386 90.7799 90.0895C90.618 90.2404 90.5226 90.4495 90.5149 90.6707C90.4807 91.1243 90.3686 91.5633 90.1783 91.9876C90.0515 92.2656 89.9589 92.2558 89.8954 91.9583C89.8028 91.5145 89.7296 91.0609 89.6711 90.5927C89.6499 90.3612 89.5389 90.1473 89.3617 89.9968C89.1846 89.8464 88.9555 89.7714 88.7237 89.788C88.4918 89.8046 88.2758 89.9115 88.1219 90.0856C87.968 90.2598 87.8885 90.4874 87.9006 90.7195L87.9494 93.4898C87.9494 93.6605 88.0372 93.7581 88.2079 93.7825C89.2711 93.9239 88.6517 92.1632 88.9102 91.4657C88.9444 91.3779 88.9736 91.3779 88.998 91.4706ZM94.2583 90.5595C94.2584 90.505 94.2478 90.4511 94.227 90.4008C94.2063 90.3504 94.1758 90.3047 94.1374 90.2661C94.0989 90.2276 94.0533 90.1969 94.003 90.176C93.9528 90.1551 93.8989 90.1443 93.8444 90.1442L93.5713 90.1437C93.5169 90.1436 93.4629 90.1542 93.4126 90.175C93.3623 90.1957 93.3165 90.2262 93.2779 90.2646C93.2394 90.303 93.2087 90.3487 93.1878 90.3989C93.1669 90.4492 93.1561 90.5031 93.156 90.5575L93.1511 93.3767C93.151 93.4311 93.1616 93.485 93.1824 93.5354C93.2031 93.5857 93.2336 93.6315 93.272 93.67C93.3105 93.7086 93.3561 93.7392 93.4064 93.7601C93.4566 93.7811 93.5105 93.7919 93.565 93.792L93.8381 93.7925C93.8925 93.7926 93.9465 93.7819 93.9968 93.7612C94.0471 93.7405 94.0929 93.71 94.1315 93.6716C94.17 93.6331 94.2006 93.5875 94.2216 93.5372C94.2425 93.487 94.2533 93.4331 94.2534 93.3786L94.2583 90.5595ZM96.5482 92.0851L97.6798 93.5288C97.7616 93.6344 97.8735 93.7128 98.0006 93.7538C98.1278 93.7947 98.2643 93.7963 98.3924 93.7584C98.5205 93.7204 98.6341 93.6447 98.7185 93.5411C98.8028 93.4375 98.8538 93.3108 98.865 93.1777C98.9089 92.7387 99.3137 89.4513 97.9578 90.2269C97.8456 90.2903 97.792 90.3829 97.792 90.5146V91.6998C97.792 92.0754 97.6847 92.1095 97.4652 91.8071L96.4702 90.4171C96.386 90.299 96.2664 90.2107 96.1287 90.1652C95.991 90.1196 95.8424 90.119 95.7044 90.1636C95.5663 90.2082 95.4461 90.2955 95.361 90.413C95.276 90.5305 95.2306 90.672 95.2313 90.817V93.4996C95.2313 93.7239 95.3435 93.8215 95.563 93.7873L95.9629 93.7337C96.1239 93.7093 96.2068 93.6166 96.2068 93.4557V92.2022C96.2068 91.8364 96.319 91.7974 96.5482 92.0851ZM100.869 90.5292C100.868 90.4786 100.857 90.4287 100.837 90.3823C100.817 90.3359 100.788 90.2939 100.751 90.2587C100.715 90.2236 100.672 90.196 100.625 90.1774C100.578 90.1589 100.528 90.1498 100.477 90.1507L100.097 90.1573C99.9945 90.1591 99.8972 90.2014 99.8262 90.2749C99.7552 90.3484 99.7164 90.4471 99.7181 90.5492L99.7678 93.3972C99.7687 93.4478 99.7796 93.4977 99.7997 93.5441C99.8199 93.5905 99.849 93.6325 99.8854 93.6677C99.9218 93.7028 99.9648 93.7305 100.012 93.749C100.059 93.7675 100.109 93.7766 100.16 93.7757L100.54 93.7691C100.642 93.7673 100.74 93.725 100.811 93.6515C100.882 93.578 100.921 93.4793 100.919 93.3772L100.869 90.5292ZM103.806 90.9877L104.615 91.2901C104.786 91.3535 104.932 91.3194 105.059 91.1926L105.196 91.056C105.308 90.9438 105.298 90.8414 105.176 90.7439C102.104 88.3832 100.128 93.1484 103.269 93.7971C104.035 93.9581 104.723 93.68 105.328 92.9679C105.44 92.8363 105.42 92.729 105.264 92.6509L104.815 92.4314C104.606 92.329 104.435 92.3729 104.303 92.5631C104.157 92.768 103.967 92.9143 103.733 92.9972C103.572 93.0557 103.42 93.0314 103.279 92.9289C102.889 92.6412 102.728 92.2022 102.796 91.612C102.809 91.498 102.848 91.3884 102.909 91.2915C102.971 91.1947 103.053 91.113 103.15 91.0529C103.248 90.9927 103.357 90.9556 103.471 90.9443C103.584 90.933 103.699 90.9479 103.806 90.9877ZM109.839 91.9583C109.839 91.4435 109.635 90.9497 109.271 90.5857C108.907 90.2216 108.413 90.0171 107.898 90.0171C107.383 90.0171 106.889 90.2216 106.525 90.5857C106.161 90.9497 105.957 91.4435 105.957 91.9583C105.957 92.2132 106.007 92.4657 106.104 92.7012C106.202 92.9367 106.345 93.1507 106.525 93.331C106.706 93.5112 106.92 93.6542 107.155 93.7518C107.391 93.8493 107.643 93.8995 107.898 93.8995C108.413 93.8995 108.907 93.695 109.271 93.331C109.635 92.9669 109.839 92.4732 109.839 91.9583ZM112.014 92.129L113.068 93.5776C113.149 93.6903 113.263 93.7744 113.394 93.8179C113.526 93.8614 113.668 93.8621 113.799 93.8198C113.931 93.7774 114.046 93.6943 114.128 93.5825C114.209 93.4706 114.253 93.3357 114.253 93.1972V90.5049C114.253 90.3342 114.17 90.2366 114 90.2171L113.517 90.1537C113.278 90.1244 113.156 90.2317 113.156 90.4707V91.7437C113.155 91.7791 113.143 91.8134 113.121 91.8417C113.1 91.87 113.071 91.8909 113.037 91.9016C113.003 91.9124 112.967 91.9123 112.933 91.9015C112.899 91.8907 112.87 91.8696 112.848 91.8413L111.883 90.4463C111.797 90.323 111.674 90.2303 111.532 90.1815C111.39 90.1327 111.236 90.1305 111.093 90.175C110.949 90.2196 110.824 90.3086 110.734 90.4293C110.645 90.55 110.596 90.6961 110.595 90.8463V93.4118C110.595 93.563 110.663 93.6654 110.8 93.7239C111.824 94.1775 111.712 92.7338 111.688 92.2461C111.685 92.2069 111.695 92.168 111.717 92.1352C111.738 92.1024 111.77 92.0774 111.807 92.0642C111.844 92.051 111.884 92.0501 111.922 92.0618C111.959 92.0735 111.992 92.0971 112.014 92.129ZM116.36 91.0316C116.853 90.856 118.028 91.295 118.043 90.4512C118.044 90.4092 118.036 90.3674 118.02 90.3284C118.005 90.2894 117.981 90.2538 117.952 90.2239C117.922 90.1939 117.887 90.1701 117.848 90.1539C117.81 90.1377 117.768 90.1293 117.726 90.1293L115.414 90.1244C115.209 90.1195 115.107 90.222 115.107 90.4268V93.3923C115.105 93.5244 115.152 93.6521 115.239 93.7511C115.326 93.8501 115.446 93.9134 115.578 93.9291C115.709 93.9448 115.842 93.9116 115.951 93.836C116.06 93.7604 116.138 93.6476 116.17 93.5191C116.224 93.3142 116.229 92.9972 116.185 92.568C116.165 92.3534 116.263 92.2412 116.477 92.2315L117.541 92.1778C117.623 92.1729 117.687 92.1339 117.731 92.0608L117.814 91.9291C117.829 91.9033 117.838 91.8741 117.84 91.8441C117.842 91.814 117.836 91.784 117.823 91.7567C117.811 91.7293 117.792 91.7054 117.768 91.687C117.744 91.6686 117.716 91.6563 117.687 91.6511L116.394 91.4218C116.351 91.4127 116.313 91.39 116.284 91.3571C116.255 91.3243 116.237 91.283 116.233 91.2393C116.229 91.1957 116.24 91.1519 116.262 91.1145C116.285 91.0771 116.32 91.0481 116.36 91.0316ZM83.8962 92.3534C83.8816 91.6754 83.5451 91.2852 82.8964 91.1731C82.8514 91.1661 82.8053 91.1712 82.7629 91.1877C82.7205 91.2043 82.6834 91.2317 82.6554 91.2671C82.6275 91.3026 82.6098 91.3447 82.6041 91.3891C82.5984 91.4335 82.605 91.4785 82.6232 91.5194L83.5743 93.68C83.6377 93.8312 83.5939 93.9386 83.4378 93.9971L82.7159 94.2507C82.6787 94.2628 82.6459 94.2854 82.6214 94.3159C82.597 94.3464 82.582 94.3834 82.5784 94.4224C82.5748 94.4613 82.5826 94.5004 82.601 94.5349C82.6194 94.5694 82.6475 94.5978 82.6818 94.6165C84.4474 95.6213 85.1449 92.5729 85.5204 91.495C85.5838 91.3048 85.5155 91.2121 85.3156 91.217L84.7108 91.2316C84.6799 91.2327 84.6497 91.2402 84.6219 91.2538C84.5941 91.2674 84.5693 91.2866 84.5492 91.3104C84.5291 91.3342 84.514 91.3621 84.5048 91.3921C84.4957 91.4222 84.4928 91.4539 84.4962 91.4852C84.5352 91.8266 84.4571 92.1485 84.2572 92.4558C84.0279 92.807 83.9109 92.7729 83.8962 92.3534ZM77.3703 93.363C77.3703 93.2802 77.3374 93.2008 77.2789 93.1423C77.2203 93.0838 77.1409 93.0509 77.0581 93.0509H23.953C23.8702 93.0509 23.7908 93.0838 23.7323 93.1423C23.6737 93.2008 23.6408 93.2802 23.6408 93.363V93.4703C23.6408 93.5531 23.6737 93.6325 23.7323 93.691C23.7908 93.7496 23.8702 93.7825 23.953 93.7825H77.0581C77.1409 93.7825 77.2203 93.7496 77.2789 93.691C77.3374 93.6325 77.3703 93.5531 77.3703 93.4703V93.363Z" fill="#000010"/>
<path d="M45.5112 50.8085C45.5112 50.7761 45.524 50.7451 45.5469 50.7222C45.5697 50.6994 45.6008 50.6865 45.6331 50.6865L62.1285 50.7158C64.3482 50.7191 66.5455 51.1441 68.5949 51.9663C70.6444 52.7886 72.5058 53.9921 74.0729 55.508C75.64 57.0239 76.8821 58.8226 77.7283 60.8014C78.5744 62.7802 79.008 64.9002 79.0043 67.0404L78.9945 69.9279C78.9871 74.249 77.1999 78.3902 74.026 81.4406C70.8521 84.491 66.5515 86.2008 62.0699 86.194L45.5746 86.1647C45.5422 86.1647 45.5112 86.1519 45.4883 86.129C45.4655 86.1062 45.4526 86.0751 45.4526 86.0428L45.5112 50.8085ZM57.3096 58.6855V78.1658C57.3096 78.1863 57.3136 78.2066 57.3215 78.2255C57.3293 78.2445 57.3408 78.2617 57.3553 78.2762C57.3698 78.2907 57.387 78.3021 57.4059 78.31C57.4249 78.3178 57.4452 78.3219 57.4657 78.3219H60.514C62.3005 78.3219 64.0137 77.5506 65.2769 76.1776C66.5401 74.8047 67.2497 72.9425 67.2497 71.0009V65.8504C67.2497 63.9087 66.5401 62.0466 65.2769 60.6736C64.0137 59.3007 62.3005 58.5294 60.514 58.5294H57.4657C57.4243 58.5294 57.3846 58.5458 57.3553 58.5751C57.326 58.6044 57.3096 58.6441 57.3096 58.6855Z" fill="white"/>
<path d="M28.601 60.4804C31.3001 60.4804 33.4882 58.2923 33.4882 55.5932C33.4882 52.8941 31.3001 50.7061 28.601 50.7061C25.9019 50.7061 23.7139 52.8941 23.7139 55.5932C23.7139 58.2923 25.9019 60.4804 28.601 60.4804Z" fill="white"/>
<path d="M104.493 50.9989C112.073 52.0475 117.17 56.5249 118.277 64.1581C119.506 72.6399 117.57 82.0094 108.62 85.0821C105.396 86.1893 101.962 86.5161 98.3235 86.0625C89.6808 84.9846 84.3108 79.7706 83.2524 71.045C81.6185 57.5151 91.422 49.1893 104.493 50.9989ZM105.21 60.9049C102.703 58.1247 98.4601 58.2467 96.2019 61.0804C94.4948 63.2216 94.0705 66.3188 94.2168 69.0696C94.4558 73.5129 95.4215 77.6002 100.894 77.6343C108.825 77.6831 109.02 65.1287 105.21 60.9049Z" fill="white"/>
<path d="M57.3096 58.6854C57.3096 58.644 57.326 58.6043 57.3553 58.575C57.3846 58.5457 57.4243 58.5293 57.4656 58.5293H60.514C62.3004 58.5293 64.0137 59.3006 65.2769 60.6736C66.5401 62.0465 67.2497 63.9086 67.2497 65.8503V71.0008C67.2497 72.9424 66.5401 74.8046 65.2769 76.1775C64.0137 77.5505 62.3004 78.3218 60.514 78.3218H57.4656C57.4452 78.3218 57.4249 78.3177 57.4059 78.3099C57.387 78.3021 57.3698 78.2906 57.3553 78.2761C57.3408 78.2616 57.3293 78.2444 57.3215 78.2254C57.3136 78.2065 57.3096 78.1862 57.3096 78.1657V58.6854Z" fill="#000010"/>
<path d="M105.21 60.9046C109.02 65.1285 108.825 77.6829 100.894 77.6341C95.4215 77.6 94.4557 73.5127 94.2167 69.0694C94.0704 66.3186 94.4948 63.2214 96.2018 61.0802C98.4601 58.2465 102.703 58.1245 105.21 60.9046Z" fill="#000010"/>
<path d="M33.3564 66.5039H23.8357C23.7388 66.5039 23.6602 66.5825 23.6602 66.6795V86.0525C23.6602 86.1495 23.7388 86.2281 23.8357 86.2281H33.3564C33.4534 86.2281 33.532 86.1495 33.532 86.0525V66.6795C33.532 66.5825 33.4534 66.5039 33.3564 66.5039Z" fill="white"/>
<path d="M80.4624 91.2467C81.5598 90.7394 82.1939 91.7442 82.2085 92.7294C82.2114 92.9048 82.1718 93.0782 82.0932 93.235C82.0145 93.3917 81.8991 93.5271 81.7568 93.6297C81.6146 93.7322 81.4496 93.7988 81.276 93.8238C81.1024 93.8488 80.9254 93.8314 80.7599 93.7732C80.3161 93.6171 79.882 93.622 79.4625 93.7829C79.2431 93.8659 79.1357 93.7878 79.1357 93.5586V90.398C79.1353 90.3427 79.1553 90.289 79.1921 90.2469C79.2288 90.2048 79.2798 90.177 79.3357 90.1688L79.7698 90.1151C79.9844 90.0907 80.0966 90.1834 80.1015 90.398L80.1259 91.0418C80.1356 91.2808 80.2478 91.3491 80.4624 91.2467ZM80.6997 93.0544C80.8157 93.0452 80.9221 92.9734 80.9953 92.8548C81.0686 92.7362 81.1027 92.5805 81.0902 92.4219C81.0777 92.2632 81.0197 92.1147 80.9288 92.009C80.8379 91.9033 80.7216 91.8491 80.6056 91.8582C80.4895 91.8674 80.3831 91.9391 80.3099 92.0577C80.2367 92.1764 80.2025 92.3321 80.215 92.4907C80.2275 92.6493 80.2856 92.7978 80.3765 92.9035C80.4674 93.0092 80.5836 93.0635 80.6997 93.0544Z" fill="white"/>
<path d="M88.9102 91.4661C88.6517 92.1636 89.2712 93.9243 88.2079 93.7829C88.0372 93.7585 87.9494 93.6609 87.9494 93.4902L87.9006 90.7199C87.8886 90.4878 87.968 90.2602 88.1219 90.086C88.2758 89.9119 88.4919 89.805 88.7237 89.7884C88.9555 89.7718 89.1846 89.8468 89.3617 89.9972C89.5389 90.1477 89.65 90.3616 89.6711 90.593C89.7296 91.0613 89.8028 91.5149 89.8955 91.9587C89.9589 92.2562 90.0515 92.266 90.1784 91.988C90.3686 91.5636 90.4808 91.1247 90.5149 90.6711C90.5227 90.4499 90.618 90.2408 90.7799 90.0899C90.9418 89.939 91.157 89.8585 91.3782 89.8663C91.5994 89.8741 91.8085 89.9694 91.9594 90.1313C92.1103 90.2932 92.1907 90.5084 92.183 90.7296V93.4512C92.183 93.5829 92.1244 93.6658 92.0025 93.7097C90.9831 94.0755 91.3538 92.1538 91.3099 91.5734C91.2807 91.232 91.2172 91.2271 91.1246 91.5539L90.5442 93.539C90.5168 93.6364 90.4586 93.722 90.3783 93.7831C90.2979 93.8442 90.1997 93.8775 90.0983 93.878C89.9969 93.8786 89.8976 93.8463 89.8154 93.7861C89.7331 93.7259 89.6723 93.6409 89.6418 93.5439L88.998 91.471C88.9736 91.3783 88.9444 91.3783 88.9102 91.4661Z" fill="white"/>
<path d="M93.8445 90.1448L93.5713 90.1443C93.3424 90.1439 93.1564 90.3292 93.156 90.5581L93.1511 93.3773C93.1507 93.6062 93.336 93.7922 93.5649 93.7926L93.8381 93.793C94.067 93.7934 94.253 93.6082 94.2534 93.3792L94.2583 90.5601C94.2587 90.3311 94.0734 90.1452 93.8445 90.1448Z" fill="white"/>
<path d="M96.2067 92.2026V93.4561C96.2067 93.6171 96.1238 93.7097 95.9628 93.7341L95.5629 93.7878C95.3434 93.8219 95.2312 93.7244 95.2312 93.5V90.8174C95.2304 90.6724 95.2759 90.5309 95.3609 90.4134C95.446 90.2959 95.5662 90.2086 95.7043 90.164C95.8423 90.1195 95.9909 90.12 96.1286 90.1656C96.2663 90.2112 96.3859 90.2994 96.4701 90.4175L97.4651 91.8076C97.6845 92.11 97.7918 92.0758 97.7918 91.7003V90.515C97.7918 90.3834 97.8455 90.2907 97.9577 90.2273C99.3136 89.4518 98.9088 92.7391 98.8649 93.1781C98.8537 93.3112 98.8027 93.4379 98.7183 93.5415C98.634 93.6451 98.5204 93.7208 98.3923 93.7588C98.2642 93.7967 98.1277 93.7951 98.0005 93.7542C97.8734 93.7132 97.7615 93.6348 97.6797 93.5293L96.5481 92.0856C96.3189 91.7978 96.2067 91.8368 96.2067 92.2026Z" fill="white"/>
<path d="M100.477 90.1507L100.097 90.1573C99.8839 90.1611 99.7144 90.3365 99.7182 90.5493L99.7679 93.3973C99.7716 93.6101 99.9471 93.7795 100.16 93.7758L100.54 93.7692C100.753 93.7655 100.922 93.59 100.919 93.3772L100.869 90.5292C100.865 90.3165 100.69 90.147 100.477 90.1507Z" fill="white"/>
<path d="M103.806 90.9881C103.699 90.9482 103.584 90.9334 103.471 90.9447C103.357 90.956 103.248 90.9931 103.15 91.0533C103.053 91.1134 102.971 91.195 102.909 91.2919C102.848 91.3888 102.809 91.4984 102.796 91.6124C102.728 92.2026 102.889 92.6416 103.279 92.9293C103.42 93.0317 103.572 93.0561 103.733 92.9976C103.967 92.9147 104.157 92.7684 104.303 92.5635C104.435 92.3733 104.606 92.3294 104.815 92.4318L105.264 92.6513C105.42 92.7293 105.44 92.8367 105.327 92.9683C104.723 93.6804 104.035 93.9585 103.269 93.7975C100.128 93.1488 102.103 88.3836 105.176 90.7442C105.298 90.8418 105.308 90.9442 105.196 91.0564L105.059 91.193C104.932 91.3198 104.786 91.3539 104.615 91.2905L103.806 90.9881Z" fill="white"/>
<path d="M109.839 91.9588C109.839 92.4736 109.634 92.9674 109.27 93.3314C108.906 93.6955 108.413 93.9 107.898 93.9C107.643 93.9 107.39 93.8498 107.155 93.7522C106.919 93.6547 106.705 93.5117 106.525 93.3314C106.345 93.1512 106.202 92.9372 106.104 92.7017C106.007 92.4661 105.957 92.2137 105.957 91.9588C105.957 91.4439 106.161 90.9502 106.525 90.5861C106.889 90.2221 107.383 90.0176 107.898 90.0176C108.413 90.0176 108.906 90.2221 109.27 90.5861C109.634 90.9502 109.839 91.4439 109.839 91.9588ZM107.963 93.0194C108.076 93.0113 108.186 92.9761 108.287 92.9158C108.388 92.8555 108.477 92.7713 108.55 92.668C108.623 92.5646 108.678 92.4442 108.712 92.3136C108.747 92.183 108.759 92.0448 108.749 91.9068C108.729 91.6281 108.619 91.3673 108.444 91.1818C108.268 90.9963 108.041 90.9013 107.813 90.9177C107.7 90.9258 107.59 90.961 107.489 91.0213C107.388 91.0816 107.299 91.1658 107.226 91.2691C107.153 91.3724 107.098 91.4928 107.064 91.6234C107.029 91.754 107.017 91.8923 107.027 92.0303C107.047 92.309 107.157 92.5698 107.332 92.7552C107.508 92.9407 107.735 93.0357 107.963 93.0194Z" fill="white"/>
<path d="M111.688 92.2474C111.712 92.7352 111.824 94.1789 110.8 93.7253C110.663 93.6668 110.595 93.5643 110.595 93.4131V90.8476C110.596 90.6974 110.645 90.5514 110.734 90.4307C110.823 90.31 110.949 90.2209 111.092 90.1764C111.236 90.1318 111.39 90.1341 111.532 90.1829C111.674 90.2316 111.797 90.3244 111.883 90.4477L112.848 91.8426C112.87 91.871 112.899 91.892 112.933 91.9028C112.967 91.9137 113.003 91.9137 113.037 91.903C113.07 91.8923 113.1 91.8713 113.121 91.843C113.143 91.8147 113.155 91.7805 113.156 91.7451V90.4721C113.156 90.2331 113.278 90.1258 113.517 90.155L113.999 90.2184C114.17 90.238 114.253 90.3355 114.253 90.5062V93.1985C114.253 93.337 114.209 93.4719 114.128 93.5838C114.046 93.6957 113.931 93.7788 113.799 93.8211C113.667 93.8634 113.525 93.8628 113.394 93.8193C113.263 93.7758 113.148 93.6916 113.068 93.579L112.014 92.1304C111.991 92.0985 111.959 92.0749 111.921 92.0632C111.884 92.0515 111.844 92.0523 111.807 92.0656C111.77 92.0788 111.738 92.1037 111.717 92.1365C111.695 92.1694 111.685 92.2083 111.688 92.2474Z" fill="white"/>
<path d="M116.394 91.4226L117.687 91.6518C117.717 91.657 117.744 91.6693 117.768 91.6877C117.792 91.7061 117.811 91.7301 117.823 91.7574C117.836 91.7848 117.842 91.8148 117.84 91.8448C117.838 91.8749 117.829 91.904 117.814 91.9298L117.731 92.0615C117.687 92.1347 117.623 92.1737 117.541 92.1786L116.477 92.2322C116.263 92.242 116.165 92.3541 116.185 92.5687C116.229 92.998 116.224 93.315 116.17 93.5198C116.138 93.6484 116.06 93.7612 115.951 93.8368C115.842 93.9124 115.709 93.9455 115.578 93.9298C115.446 93.9142 115.326 93.8508 115.239 93.7518C115.152 93.6528 115.105 93.5251 115.107 93.393V90.4276C115.107 90.2227 115.209 90.1203 115.414 90.1252L117.726 90.13C117.768 90.13 117.81 90.1384 117.848 90.1546C117.887 90.1709 117.922 90.1947 117.952 90.2246C117.981 90.2546 118.005 90.2901 118.02 90.3291C118.036 90.3682 118.044 90.4099 118.043 90.452C118.028 91.2957 116.853 90.8568 116.36 91.0324C116.32 91.0488 116.285 91.0779 116.262 91.1153C116.24 91.1527 116.229 91.1964 116.233 91.2401C116.237 91.2837 116.255 91.325 116.284 91.3579C116.313 91.3907 116.351 91.4134 116.394 91.4226Z" fill="white"/>
<path d="M107.027 92.0297C107.069 92.6101 107.488 93.0529 107.963 93.0188C108.439 92.9847 108.791 92.4866 108.749 91.9063C108.708 91.3259 108.288 90.8831 107.813 90.9172C107.337 90.9513 106.985 91.4494 107.027 92.0297Z" fill="#000010"/>
<path d="M84.257 92.4567C84.457 92.1494 84.535 91.8275 84.496 91.4861C84.4926 91.4548 84.4955 91.4231 84.5047 91.393C84.5138 91.3629 84.5289 91.3351 84.549 91.3113C84.5692 91.2875 84.5939 91.2682 84.6217 91.2547C84.6495 91.2411 84.6798 91.2335 84.7106 91.2325L85.3154 91.2178C85.5154 91.213 85.5837 91.3056 85.5203 91.4958C85.1447 92.5738 84.4472 95.6221 82.6816 94.6174C82.6473 94.5987 82.6192 94.5703 82.6009 94.5358C82.5825 94.5013 82.5746 94.4622 82.5783 94.4232C82.5819 94.3843 82.5969 94.3473 82.6213 94.3168C82.6457 94.2863 82.6786 94.2636 82.7158 94.2516L83.4376 93.998C83.5937 93.9394 83.6376 93.8321 83.5742 93.6809L82.6231 91.5202C82.6049 91.4793 82.5983 91.4343 82.6039 91.39C82.6096 91.3456 82.6273 91.3034 82.6553 91.268C82.6832 91.2326 82.7204 91.2051 82.7628 91.1886C82.8051 91.172 82.8513 91.167 82.8962 91.1739C83.5449 91.2861 83.8815 91.6763 83.8961 92.3543C83.9107 92.7737 84.0278 92.8079 84.257 92.4567Z" fill="white"/>
<path d="M80.2151 92.4902C80.2411 92.8205 80.4581 93.0728 80.6997 93.0538C80.9414 93.0348 81.1163 92.7516 81.0903 92.4213C81.0643 92.091 80.8473 91.8387 80.6056 91.8577C80.3639 91.8767 80.1891 92.1599 80.2151 92.4902Z" fill="#000010"/>
<path d="M77.0579 93.0508H23.9528C23.7804 93.0508 23.6406 93.1905 23.6406 93.3629V93.4702C23.6406 93.6426 23.7804 93.7824 23.9528 93.7824H77.0579C77.2303 93.7824 77.3701 93.6426 77.3701 93.4702V93.3629C77.3701 93.1905 77.2303 93.0508 77.0579 93.0508Z" fill="white"/>
</g>
<defs>
<clipPath id="clip0_0_2720">
<rect width="139.494" height="139.494" fill="white" transform="translate(0 0.380859)"/>
</clipPath>
</defs>
</svg>
