<svg width="258" height="132" viewBox="0 0 258 132" fill="none" xmlns="http://www.w3.org/2000/svg">
<path fill-rule="evenodd" clip-rule="evenodd" d="M204.999 8.30376C201.002 18.3057 186.397 22.4737 176.878 23.7137C173.486 24.1715 170.068 24.4608 166.631 24.5848C148.363 25.0748 131.496 23.1828 110.765 20.8574L110.756 20.8564L110.74 20.8545C109.554 20.7216 108.356 20.5872 107.144 20.4517C100.496 19.711 94.1854 19.73 87.563 20.7697C84.9147 21.1861 74.5153 23.1891 78.0984 28.2536C80.025 30.9783 85.6873 32.8477 88.7457 33.4422C100.891 35.798 114.008 34.768 126.239 32.8636C126.271 32.8586 126.304 32.8624 126.334 32.8744C126.364 32.8864 126.39 32.9063 126.41 32.9319C126.43 32.9576 126.442 32.9881 126.446 33.0202C126.45 33.0524 126.446 33.085 126.433 33.1147L124.849 36.7073C124.802 36.8122 124.722 36.8758 124.608 36.8917C116.981 38.0808 109.312 38.7802 101.603 38.9932C92.8025 39.2316 73.5011 38.7579 68.9103 29.4109C64.7677 20.9763 80.1331 17.2947 85.4202 16.6303C93.933 15.5631 100.802 16.5482 110.02 17.87C110.524 17.9422 111.035 18.0155 111.554 18.0895C121.066 19.4471 132.677 20.6329 146.389 21.6408C153.66 22.1749 163.067 22.4674 171.327 22.0255L174.265 21.8538C182.35 21.2052 191.328 18.7922 197.871 13.8865C200.716 11.7533 204.169 7.2387 201.978 3.64613C201.613 3.04843 201.292 2.42848 201.009 1.78945L200.821 1.19492C200.786 1.08365 200.805 0.978734 200.878 0.886535C201.101 0.613119 201.422 0.457331 201.845 0.416001C207.065 -0.0958609 206.289 5.10224 204.999 8.30376ZM180.487 45.2086C181.192 35.1176 175.578 28.7559 165.98 26.2125C163.131 25.6211 160.241 25.4113 157.313 25.5862C148.449 26.1139 140.361 28.3903 132.105 31.5091C132.087 31.5154 132.072 31.5256 132.059 31.539C132.046 31.5524 132.037 31.5685 132.032 31.5861C132.027 31.6037 132.026 31.6223 132.029 31.6404C132.032 31.6585 132.039 31.6756 132.05 31.6903L134.158 34.6407C134.362 34.9236 134.626 35 134.95 34.8696C143.928 31.2007 156.982 27.8498 165.426 34.7138C174.971 42.468 174.233 59.4962 161.01 63.2128C155.383 64.796 149.056 63.2 143.62 61.4228L143.391 61.348C141.248 60.6468 137.129 59.2988 136.044 59.8078C133.974 60.7838 134.187 62.472 135.567 63.8836C136.673 65.0122 137.589 66.02 137.471 67.6097C137.134 72.0765 136.915 76.5657 137.277 81.0357C137.284 81.1025 137.315 81.1645 137.364 81.2093C137.414 81.2541 137.478 81.2784 137.544 81.2773L148.532 81.1724C148.55 81.1726 148.568 81.1683 148.585 81.1598C148.601 81.1513 148.615 81.1389 148.625 81.1236L148.629 81.1183L148.631 81.114C148.639 81.1011 148.643 81.0869 148.645 81.0721C148.647 81.0595 148.647 81.0469 148.645 81.0345C148.643 81.0285 148.642 81.0225 148.64 81.0166C147.588 78.0059 146.863 74.9188 146.465 71.7523C146.46 71.7179 146.467 71.6827 146.484 71.6528C146.502 71.6229 146.53 71.6001 146.563 71.5884C146.596 71.5767 146.631 71.5769 146.664 71.5888C146.697 71.6007 146.724 71.6237 146.742 71.6537C147.082 72.2037 147.495 72.7283 147.985 73.2243C152.98 78.3015 158.117 83.2326 163.398 88.0142C163.795 88.3735 164.132 88.7232 164.412 89.0634C164.517 89.1873 164.485 89.2446 164.323 89.2319C138.609 87.3243 113.086 87.2035 87.7125 90.2079C71.015 92.4238 54.4128 95.9624 38.4243 101.291C38.2726 101.341 38.1289 101.366 37.9875 101.391C37.8327 101.419 37.6808 101.446 37.5246 101.504C28.2348 104.912 19.2724 108.581 10.9587 114.024C8.35484 115.728 5.81461 117.718 3.75127 119.797C1.58937 121.978 -1.95233 125.701 1.34139 128.302C1.90412 128.747 2.92784 129.634 4.41574 130.96C6.52254 132.842 10.3543 127.943 12.1655 125.628L12.1656 125.627C12.4042 125.322 12.6078 125.062 12.7677 124.868C20.7826 115.162 32.6699 108.578 44.0834 103.761L53.99 100.162C65.8614 96.3312 77.6533 94.1406 90.0143 92.5383C115.696 89.3876 142.523 89.1524 168.234 92.7068C168.358 92.7226 168.474 92.7677 168.591 92.8134C168.662 92.8414 168.734 92.8695 168.809 92.8912C168.965 92.9389 169.095 93.0056 169.2 93.0947C175.804 98.8396 182.683 104.238 189.834 109.29C202.28 117.702 215.697 124.089 230.089 128.448C235.866 130.197 242.279 131.545 248.504 131.211C252.456 130.998 257.18 129.249 257.841 124.738C259.202 115.467 232.258 104.991 225.527 102.515C214.645 98.5121 203.546 95.2534 192.224 92.7386C185.685 91.2857 179.396 90.2619 173.359 89.6674C172.612 89.5911 172.297 89.4163 171.779 88.933C164.864 82.53 158.845 75.5006 153.72 67.8481C153.495 67.5111 153.587 67.349 153.991 67.3585C168.405 67.7273 179.428 60.361 180.487 45.2086ZM197.337 109.716C189.735 104.368 182.404 98.5598 175.336 92.2903C175.219 92.1854 175.238 92.1345 175.397 92.1377C175.842 92.1504 176.338 92.2013 176.881 92.2871C198.192 95.6635 219.267 100.992 238.031 111.855C241.544 113.89 246.358 117.035 248.167 120.786C248.981 122.477 247.312 123.39 246.04 123.81C240.238 125.723 233.692 125.288 227.457 123.854C216.803 121.403 206.372 116.074 197.337 109.716ZM117.257 66.9167C115.941 69.7367 114.589 72.5536 113.203 75.3736C112.389 77.03 111.611 77.9424 109.693 77.4592C109.669 77.453 109.645 77.4418 109.625 77.4262C109.605 77.4106 109.588 77.391 109.576 77.3686C109.564 77.3462 109.556 77.3214 109.554 77.296C109.552 77.2705 109.555 77.2449 109.563 77.2207L113.257 66.5893C113.358 66.3041 113.352 65.9915 113.241 65.7086L109.983 57.3948L107.656 51.4496C107.648 51.4299 107.635 51.4132 107.618 51.4016C107.6 51.39 107.58 51.3842 107.558 51.3849C107.537 51.3856 107.517 51.3928 107.499 51.4055C107.482 51.4182 107.469 51.4358 107.462 51.456C106.293 54.9271 105.328 58.4702 104.364 62.0118L104.364 62.0118L104.364 62.0119L104.364 62.0119L104.364 62.012L104.364 62.0121L104.364 62.0121L104.364 62.0122L104.363 62.0143C103.952 63.5224 103.542 65.0302 103.116 66.532C102.68 68.0676 102.187 69.3044 101.64 70.2486C100.329 72.517 98.3883 68.0742 97.8821 66.9153L97.8284 66.7927C97.0252 64.9763 96.2409 63.147 95.4565 61.3175C94.1513 58.2734 92.8461 55.2291 91.454 52.2444C91.3046 51.9233 91.1774 51.9328 91.0693 52.2667L87.8423 62.3386C87.801 62.4658 87.747 62.4721 87.6802 62.3577C86.7073 60.6504 85.6963 58.9717 84.644 57.3185C84.1957 56.6159 84.148 56.6445 84.4977 57.398C86.1128 60.892 87.8455 64.5609 89.6959 68.4046C91.5551 72.2684 93.9453 75.7685 96.3522 79.2931L96.3537 79.2954C96.5803 79.6272 96.8071 79.9593 97.0336 80.2919C97.2848 80.6607 97.5009 81.0104 97.679 81.3379C97.6981 81.3724 97.7084 81.4111 97.7089 81.4506C97.7094 81.49 97.7001 81.529 97.6818 81.564C97.6635 81.5989 97.6369 81.6288 97.6042 81.651C97.5715 81.6731 97.5339 81.6868 97.4946 81.6908C96.4104 81.8066 95.3239 81.9133 94.2368 82.02C90.6698 82.3701 87.0981 82.7206 83.5917 83.398C83.5148 83.4131 83.435 83.4007 83.366 83.363C83.297 83.3253 83.243 83.2646 83.2133 83.1914C82.2532 80.8578 81.522 78.4257 81.0165 75.895C79.2869 67.1901 77.5479 58.4885 75.8025 49.7868C75.7997 49.7696 75.7913 49.7538 75.7786 49.7418C75.7659 49.7298 75.7496 49.7223 75.7322 49.7205C75.7149 49.7187 75.6974 49.7227 75.6825 49.7318C75.6676 49.7409 75.6562 49.7547 75.6499 49.771L72.4611 57.2867L68.6205 66.9644L60.2622 88.1955C60.2145 88.3132 60.1668 88.3132 60.116 88.1987C59.922 87.7568 59.9348 87.2577 60.1509 86.7013L65.8641 65.3048L66.519 62.8536C66.8401 61.8458 67.0309 60.9492 66.6589 59.8906C65.1742 55.6431 63.486 51.4782 61.5943 47.3929C61.2192 46.579 60.7518 45.7969 60.1955 45.0434C60.1287 44.9544 60.0492 44.9385 59.957 44.9989C59.531 45.2691 59.1844 45.568 58.9174 45.8954C53.9204 52.0183 51.1646 59.7014 48.5031 67.1217C48.3012 67.6846 48.0998 68.2461 47.8981 68.8052C47.4307 70.0992 46.7186 71.6348 45.7616 73.4088C43.3708 77.7612 40.1979 74.6551 38.8372 71.7333C36.0299 65.7245 36.5926 58.5489 37.4733 51.9487C38.1504 46.881 38.6464 43.4315 38.9675 41.6002C39.1169 40.7418 38.977 40.0456 38.5478 39.5146C38.5277 39.4906 38.5031 39.4707 38.4755 39.456C38.4478 39.4414 38.4176 39.4324 38.3866 39.4294C38.3556 39.4265 38.3244 39.4297 38.2948 39.4388C38.2652 39.448 38.2377 39.463 38.214 39.4829C36.1544 41.2209 34.6157 44.9791 33.6642 47.303L33.531 47.6281C31.8046 51.8279 30.1896 56.0723 28.6826 60.3579C24.5686 72.0671 20.8362 83.9576 17.7268 95.972C16.7921 100.928 10.3192 104 5.76963 104.877C11.8579 88.5452 17.9367 72.242 24.7657 56.2121C27.8846 48.8967 30.8731 42.8433 33.7344 38.0522C34.8027 36.2654 40.5031 28.9372 43.2691 29.287C45.1098 29.519 45.7266 32.8 45.787 34.3038C45.7975 34.566 45.8216 34.9381 45.85 35.3751L45.85 35.3752V35.3753V35.3753C45.9678 37.1907 46.1582 40.1272 45.7457 40.9676C45.698 41.063 45.6758 41.1647 45.6758 41.2696C45.6471 43.0468 45.5168 51.8375 48.1429 51.7675C49.7668 51.7269 51.3678 47.8106 52.2355 45.6878L52.2355 45.6877C52.3871 45.3171 52.5162 45.0011 52.6193 44.77C53.6684 42.411 58.6472 33.7729 62.3287 36.5675C65.8016 39.2029 68.0043 44.939 69.5751 49.0293L69.7269 49.4244C70.3246 50.9727 69.9622 52.4002 69.3772 53.8627C69.3748 53.8684 69.373 53.8743 69.3718 53.8803C69.3696 53.8912 69.3694 53.9025 69.3713 53.9136C69.3742 53.9308 69.3819 53.9469 69.3936 53.9599C69.4053 53.9728 69.4203 53.9822 69.4371 53.987C69.4539 53.9917 69.4717 53.9916 69.4884 53.9867C69.5711 53.9644 69.6061 53.9263 69.5934 53.8722C70.9032 50.8042 72.2035 47.733 73.4975 44.6587C73.7868 43.9688 74.1524 43.2757 74.588 42.5858C74.6692 42.4571 74.798 42.3657 74.9464 42.3317C75.0947 42.2978 75.2505 42.324 75.3796 42.4046C76.5432 43.1327 77.5065 44.1437 78.2664 45.4344C79.9578 48.3021 81.5442 51.1921 83.0289 54.1011C83.043 54.1277 83.064 54.15 83.0898 54.1656C83.1155 54.1811 83.1451 54.1893 83.1752 54.1893C83.2053 54.1893 83.2348 54.1811 83.2606 54.1656C83.2863 54.15 83.3074 54.1277 83.3214 54.1011C85.5056 49.8441 87.5276 45.5584 89.3875 41.241C89.5496 40.8595 89.9566 40.5606 90.6083 40.3444C90.7069 40.3126 90.7991 40.319 90.8913 40.3603C92.2356 40.9534 92.8462 42.4908 93.4856 44.101L93.4858 44.1012L93.4859 44.1015L93.486 44.1017C93.604 44.3991 93.7231 44.6989 93.848 44.9957C95.7555 49.5261 97.8284 53.9835 100.067 58.3613C100.168 58.5616 100.264 58.7174 100.35 58.8319C100.381 58.8724 100.422 58.9042 100.469 58.9242C100.516 58.9442 100.568 58.9517 100.619 58.946C100.669 58.9402 100.717 58.9214 100.758 58.8913C100.799 58.8613 100.831 58.8211 100.852 58.7746C102.508 54.9945 103.942 51.1221 105.157 47.1576C105.408 46.3437 105.723 45.6506 106.104 45.0784C106.134 45.0336 106.177 44.9983 106.227 44.9764C106.277 44.9544 106.332 44.9468 106.387 44.9544C108.05 45.1928 109.515 45.7301 110.526 47.1608C112.682 50.216 114.818 53.2173 116.933 56.1645C117.066 56.352 117.092 56.5523 117.012 56.7685C116.405 58.4058 115.817 60.0527 115.248 61.7059C114.631 63.5054 114.71 63.5372 115.483 61.7981C119.61 52.5369 123.892 42.8688 128.33 32.7873C128.371 32.6933 128.41 32.6019 128.447 32.5132L128.458 32.4861L128.459 32.485C128.737 31.82 128.952 31.3082 129.72 30.9561C129.82 30.9091 129.934 30.9023 130.038 30.937C131.583 31.426 132.883 33.5629 133.733 34.9614L133.849 35.1527C138.863 43.3711 143.896 51.5736 148.951 59.7666C149.018 59.8778 148.989 59.9414 148.862 59.9605C148.484 60.0145 148.131 60.0241 147.797 59.9891C144.875 59.7062 141.988 59.2293 139.13 58.5584C138.641 58.444 138.237 58.2437 138.043 57.7318C136.491 53.6624 134.663 49.7264 132.556 45.9209C131.853 44.6492 131.068 43.6858 130.044 42.7639C130.016 42.7389 129.983 42.7207 129.947 42.7107C129.911 42.7008 129.873 42.6993 129.837 42.7064C129.8 42.7134 129.765 42.7289 129.736 42.7516C129.706 42.7742 129.682 42.8035 129.666 42.837C129.523 43.1297 129.306 43.4027 129.095 43.6671C128.919 43.888 128.748 44.1029 128.629 44.3185C124.595 51.7071 120.805 59.2388 117.257 66.9167ZM199.8 59.6866C207.316 53.4012 216.199 48.1681 225.593 45.3068C229.94 44.0018 234.171 43.4328 238.556 42.8429L238.557 42.8428L238.557 42.8428L238.558 42.8427L238.558 42.8427L238.558 42.8426L238.559 42.8426C239.472 42.7197 240.392 42.596 241.321 42.4645C242.017 42.366 242.481 42.0004 242.707 41.3741C242.742 41.2758 242.738 41.17 242.698 41.0784C241.477 38.3665 238.355 36.2809 235.751 35.0632C233.718 34.1132 229.098 35.5205 225.956 36.4776L225.954 36.4782L225.946 36.4808C225.705 36.5539 225.474 36.6244 225.253 36.691C225.154 36.7196 225.062 36.7673 224.983 36.8309C224.903 36.8945 224.814 36.9453 224.713 36.9867C220.227 38.7448 216.008 40.9703 212.056 43.6663C208.393 46.1652 204.604 49.0297 201.215 52.1136C201.193 52.1321 201.166 52.1431 201.138 52.145C201.11 52.1469 201.082 52.1396 201.058 52.1241C201.035 52.1087 201.017 52.086 201.007 52.0595C200.997 52.0329 200.997 52.0039 201.005 51.9769C201.466 50.5812 201.908 49.1569 202.334 47.704C202.604 46.782 202.321 46.1207 201.485 45.7201C199.93 44.9762 199.148 45.7424 198.328 47.0808C197.02 49.2271 195.446 50.5894 193.729 52.0754C193.459 52.3086 193.186 52.5448 192.91 52.7876C192.804 52.8808 192.719 52.9948 192.659 53.1223C192.599 53.2498 192.567 53.3881 192.564 53.5284C192.516 55.49 192.526 57.5088 192.599 59.5849C192.628 60.4383 191.789 61.2903 190.884 62.2089C189.813 63.2957 188.651 64.4755 188.726 65.8607C188.831 67.7874 190.841 70.0574 192.23 71.4626C192.33 71.5623 192.409 71.681 192.463 71.8119C192.517 71.9428 192.545 72.0834 192.545 72.2256V81.5154C192.545 81.616 192.581 81.714 192.646 81.792C192.821 81.9972 192.998 82.213 193.178 82.4325C194.192 83.6687 195.303 85.0221 196.497 85.2543C196.548 85.2648 196.601 85.2602 196.651 85.2411C196.7 85.222 196.744 85.1891 196.776 85.1462C197.04 84.8028 197.206 84.3704 197.279 83.8459C197.613 81.4328 197.915 79.007 198.182 76.5685C198.184 76.5432 198.193 76.5189 198.209 76.4983C198.224 76.4778 198.244 76.4617 198.267 76.4519C198.29 76.442 198.316 76.4388 198.34 76.4426C198.365 76.4463 198.388 76.4569 198.407 76.4731C203.268 80.4631 208.254 84.3259 213.366 88.0647C214.332 88.7737 216.917 90.6081 218.052 90.5795C218.151 90.5765 218.247 90.5487 218.333 90.4986C218.418 90.4486 218.489 90.3781 218.54 90.2934C218.591 90.2088 218.619 90.1129 218.623 90.0145C218.626 89.9161 218.605 89.8185 218.561 89.7307C218.087 88.7864 217.451 87.8962 216.659 87.0537C213.703 83.9158 210.67 80.8637 207.557 77.8943C207.176 77.5175 206.706 77.0775 206.185 76.5897C203.371 73.9534 199.062 69.9177 199.132 66.8781C199.186 64.5541 199.361 62.2459 199.657 59.9505C199.669 59.8466 199.72 59.752 199.8 59.6866ZM186.59 52.9275C183.179 56.0941 180.766 51.6145 181.542 48.6609C181.812 47.6404 182.514 46.6389 183.649 45.6629C185.036 44.4707 189.757 41.4027 189.744 45.6375C189.734 48.5529 188.685 50.985 186.59 52.9275ZM219.258 89.696C219.299 89.7564 219.356 89.7913 219.426 89.8041C220.024 89.9185 220.361 89.7055 220.44 89.1618C220.599 88.0586 220.733 86.9491 220.844 85.8363C221.413 80.0787 222.176 74.3497 223.139 68.6429L223.158 68.5322C223.788 64.7917 224.449 60.8713 225.998 57.8207C226.02 57.7777 226.053 57.7413 226.093 57.7151C226.134 57.6889 226.18 57.6737 226.229 57.6711C226.277 57.6686 226.325 57.6787 226.368 57.7004C226.411 57.7222 226.448 57.7549 226.474 57.7952C227.562 59.4771 228.481 61.108 229.285 63.0315C232.918 71.689 236.23 80.4514 239.547 89.2262L239.552 89.2371L239.556 89.248L239.56 89.2588L239.564 89.2697C240.244 91.069 240.924 92.8688 241.608 94.6683C242.542 97.1259 244.129 99.0112 246.364 100.318C247.626 101.059 249.041 100.525 248.65 98.8586C248.453 98.0129 248.113 96.9447 247.629 95.6539C242.86 82.9241 238.142 71.3643 233.478 60.9745C232.178 58.075 230.763 55.4521 229.215 52.8006C228.376 51.3699 226.563 48.3369 224.576 49.8884C224.267 50.1293 223.941 50.3756 223.609 50.6263C221.89 51.9245 220.014 53.3421 219.483 54.7463C216.488 62.65 213.742 70.7158 211.239 78.9437C211.217 79.0171 211.21 79.0947 211.221 79.1706C211.232 79.2465 211.26 79.3189 211.303 79.3824C212.621 81.3459 214.126 83.1968 215.637 85.0547C216.873 86.5753 218.113 88.1005 219.258 89.696ZM178.77 82.3997C178.622 82.3484 178.492 82.2559 178.396 82.1332C178.299 82.0104 178.239 81.8624 178.223 81.7066C178.054 80.0979 178 78.4128 178.057 76.6484C178.264 70.2231 178.582 63.6325 179.59 57.2803C179.598 57.2291 179.616 57.1801 179.644 57.1364C179.671 57.0927 179.707 57.0551 179.749 57.0259C180.28 56.6476 180.865 56.3806 181.51 56.2248C184.044 55.6175 186.572 55.0166 189.093 54.4221C189.198 54.3974 189.309 54.4119 189.404 54.4628C189.499 54.5137 189.573 54.5976 189.611 54.6987C189.773 55.1343 189.789 55.6207 189.665 56.1612C189.287 57.7971 188.906 59.5049 188.517 61.2563L188.517 61.2568C187.508 65.7886 186.434 70.6127 185.157 75.2399C185.131 75.3346 185.104 75.4323 185.076 75.5327L185.075 75.5369C184.262 78.4995 182.805 83.8043 178.77 82.3997ZM132.62 72.1432C133.189 69.959 133.856 64.354 131.841 62.901C130.588 61.995 125.953 59.938 125.409 62.688C125.241 63.5401 125.158 64.2014 125.161 64.6687C125.177 68.0197 125.396 71.3547 125.822 74.677C125.899 75.262 126.067 75.7357 126.325 76.0982C126.416 76.2269 126.547 76.3219 126.697 76.3685C126.848 76.4151 127.01 76.4106 127.158 76.3557C128.862 75.7262 132.124 74.038 132.62 72.1432ZM68.376 83.9225C65.0092 83.6587 70.0801 72.9096 70.6301 71.9176C71.0752 71.1133 73.1863 70.0864 73.6822 71.5934C74.6328 74.4928 75.097 77.2747 75.0684 79.9421C75.0415 82.5004 73.3694 82.9565 71.2704 83.529C71.1339 83.5662 70.9956 83.6039 70.8559 83.6428C69.9688 83.8907 69.1422 83.9829 68.376 83.9225ZM226.768 85.3404C227.658 90.192 236.372 90.0171 235.088 85.5661C234.5 83.5219 233.642 81.3886 232.513 79.1663C231.775 77.7102 230.605 76.6706 229.044 77.8024C226.968 79.3093 226.31 82.8479 226.768 85.3404Z" fill="black"/>
</svg>
