<svg width="212" height="93" viewBox="0 0 212 93" fill="none" xmlns="http://www.w3.org/2000/svg">
<g clip-path="url(#clip0_0_1544)">
<path d="M26.2156 32.0633C27.2416 26.8398 18.3875 25.6546 15.1082 24.98C10.6202 24.0524 5.53727 21.6585 3.36356 17.5078C-0.370169 10.373 4.38014 3.33188 11.4822 1.29402C18.7107 -0.785996 26.5623 0.933297 32.7134 5.10739C33.1725 5.41658 33.5613 5.79136 33.8845 6.22704C33.9353 6.29417 33.9619 6.37642 33.9602 6.46055C33.9585 6.54468 33.9286 6.62579 33.8752 6.69082L29.5277 12.0595C29.5032 12.0905 29.4727 12.1162 29.438 12.1351C29.4033 12.1541 29.3652 12.1659 29.3258 12.1698C29.2865 12.1737 29.2468 12.1697 29.2091 12.158C29.1713 12.1463 29.1363 12.1272 29.1061 12.1017C24.8524 8.52255 19.6477 6.49406 14.0869 8.0166C10.2314 9.07066 8.61513 13.7366 12.2786 16.1727C13.9698 17.297 16.0592 17.9248 18.3312 18.3183C27.2182 19.8643 36.3159 23.0171 34.0391 34.3073C32.5072 41.9059 22.9457 43.8875 16.5089 43.4612C11.1449 43.1005 6.03385 41.5217 1.17579 38.7156C1.07819 38.659 1.00657 38.5664 0.975988 38.4572C0.945407 38.3479 0.958253 38.2307 1.01182 38.13L4.4832 31.7119C4.49579 31.6888 4.51299 31.6685 4.53373 31.6523C4.55448 31.6362 4.57833 31.6244 4.60381 31.6178C4.62929 31.6112 4.65585 31.6099 4.68184 31.614C4.70783 31.6181 4.73271 31.6275 4.75492 31.6417C10.386 35.2348 16.5229 37.5444 22.9598 35.5253C24.2668 35.113 25.9346 33.4874 26.2156 32.0633Z" fill="#000010"/>
<path d="M51.649 17.334H69.1418C69.1927 17.334 69.2416 17.3138 69.2776 17.2778C69.3136 17.2418 69.3339 17.1929 69.3339 17.142V1.34507C69.3339 1.23698 69.3773 1.13331 69.4546 1.05687C69.5319 0.98044 69.6368 0.9375 69.7461 0.9375H77.3026C77.4454 0.9375 77.5825 0.993767 77.6835 1.09392C77.7845 1.19408 77.8413 1.32992 77.8413 1.47156C77.8975 14.1109 77.8975 26.7363 77.846 39.3522C77.8413 40.3829 77.8038 41.4182 77.7382 42.4535C77.7335 42.5335 77.6983 42.6086 77.6399 42.6634C77.5816 42.7183 77.5045 42.7488 77.4244 42.7487H69.8632C69.7228 42.7487 69.5882 42.6929 69.4889 42.5936C69.3896 42.4943 69.3339 42.3597 69.3339 42.2193V25.6494C69.3339 25.5252 69.2845 25.406 69.1966 25.3182C69.1088 25.2303 68.9896 25.1809 68.8654 25.1809H51.7099C51.5695 25.1809 51.4349 25.2362 51.3356 25.3346C51.2363 25.433 51.1805 25.5665 51.1805 25.7056V42.3364C51.1805 42.4457 51.1371 42.5506 51.0598 42.6279C50.9825 42.7052 50.8776 42.7487 50.7683 42.7487H43.1603C43.051 42.7487 42.9461 42.7057 42.8688 42.6293C42.7915 42.5529 42.748 42.4492 42.748 42.3411V1.79949C42.748 1.71749 42.7806 1.63884 42.8386 1.58086C42.8966 1.52287 42.9752 1.4903 43.0572 1.4903L50.6043 1.53714C50.7576 1.53838 50.9041 1.60013 51.0121 1.70894C51.12 1.81774 51.1806 1.96479 51.1805 2.11805V16.8656C51.1805 16.9898 51.2299 17.109 51.3178 17.1968C51.4056 17.2847 51.5248 17.334 51.649 17.334Z" fill="#000010"/>
<path d="M182.999 17.6982C182.995 18.4572 183.262 18.5696 183.8 18.0309C189.221 12.5872 194.589 7.39185 199.907 2.44478C201.096 1.33919 201.321 1.51252 203.102 1.52658C205.636 1.54063 208.095 1.53595 210.475 1.50784C210.568 1.50689 210.659 1.53374 210.736 1.58493C210.813 1.63612 210.874 1.70929 210.909 1.79501C210.944 1.88073 210.953 1.97506 210.934 2.06583C210.915 2.1566 210.87 2.23964 210.803 2.30424L191.999 20.6309C191.897 20.7295 191.838 20.8637 191.832 21.0058C191.827 21.1479 191.877 21.287 191.971 21.3945L210.185 42.2087C210.433 42.4945 210.368 42.635 209.993 42.635L200.169 42.6257C200.005 42.6257 199.864 42.5648 199.757 42.443L183.271 24.2662C183.252 24.2456 183.227 24.2312 183.2 24.2249C183.172 24.2185 183.144 24.2205 183.118 24.2306C183.091 24.2407 183.069 24.2584 183.053 24.2814C183.037 24.3045 183.028 24.3318 183.027 24.3599L183.07 42.0963C183.07 42.2379 183.013 42.3738 182.913 42.4739C182.813 42.5741 182.677 42.6303 182.536 42.6303H175.209C174.815 42.6303 174.618 42.4336 174.618 42.0448L174.623 1.81234C174.623 1.62027 174.721 1.52189 174.918 1.52189H182.601C182.664 1.52189 182.727 1.5344 182.785 1.55871C182.843 1.58301 182.896 1.61863 182.941 1.6635C182.985 1.70837 183.02 1.7616 183.044 1.82012C183.068 1.87863 183.08 1.94127 183.079 2.00442L182.999 17.6982Z" fill="#000010"/>
<path d="M114.855 33.7215L96.3272 33.7356C96.1492 33.7356 96.0274 33.8199 95.9618 33.9839L92.9402 41.8261C92.884 41.9713 92.7856 42.0697 92.645 42.1259C92.3171 42.2618 91.9611 42.318 91.5816 42.2946C89.2158 42.1494 86.7751 42.1166 84.2594 42.2009C84.2079 42.2024 84.1568 42.191 84.1109 42.1678C84.0649 42.1445 84.0255 42.1102 83.9961 42.0678C83.9668 42.0255 83.9485 41.9765 83.943 41.9253C83.9374 41.874 83.9447 41.8223 83.9643 41.7746L100.487 1.81389C100.523 1.72797 100.584 1.65457 100.661 1.6029C100.739 1.55123 100.83 1.52359 100.923 1.52344H110.363C110.855 1.52344 111.192 1.7483 111.379 2.20272L127.72 41.8027C127.736 41.8427 127.742 41.8861 127.738 41.929C127.734 41.9719 127.719 42.0131 127.696 42.0487C127.672 42.0844 127.64 42.1136 127.602 42.1336C127.565 42.1536 127.523 42.1638 127.481 42.1634H118.983C118.831 42.1636 118.683 42.1181 118.558 42.0329C118.432 41.9476 118.335 41.8266 118.28 41.6856L115.207 33.9558C115.177 33.8862 115.128 33.8269 115.066 33.7852C115.003 33.7436 114.93 33.7214 114.855 33.7215ZM98.9601 25.8559C98.9416 25.9006 98.9345 25.9492 98.9392 25.9974C98.944 26.0455 98.9605 26.0918 98.9874 26.132C99.0142 26.1723 99.0505 26.2054 99.0932 26.2283C99.1358 26.2512 99.1834 26.2633 99.2318 26.2635H112.124C112.173 26.2633 112.22 26.2512 112.263 26.2283C112.305 26.2054 112.342 26.1723 112.369 26.132C112.395 26.0918 112.412 26.0455 112.417 25.9974C112.421 25.9492 112.414 25.9006 112.396 25.8559L105.954 9.56242C105.933 9.50614 105.896 9.45762 105.846 9.42338C105.797 9.38913 105.738 9.37078 105.678 9.37078C105.618 9.37078 105.559 9.38913 105.51 9.42338C105.46 9.45762 105.423 9.50614 105.402 9.56242L98.9601 25.8559Z" fill="#000010"/>
<path d="M150.497 1.65891C164.499 1.78071 168.486 17.5635 157.959 25.5463C157.81 25.6578 157.708 25.8208 157.673 26.0035C157.637 26.1862 157.671 26.3756 157.767 26.5348L167.263 42.3598C167.287 42.3991 167.299 42.444 167.299 42.4897C167.299 42.5354 167.288 42.5804 167.265 42.62C167.242 42.6596 167.209 42.6923 167.169 42.7149C167.129 42.7375 167.084 42.7492 167.038 42.7486H158.18C158.03 42.7488 157.882 42.7101 157.752 42.6362C157.621 42.5623 157.512 42.4557 157.435 42.327L148.988 28.1744C148.913 28.048 148.801 27.9871 148.656 27.9917L142.753 28.1276C142.632 28.13 142.516 28.18 142.431 28.2667C142.346 28.3534 142.298 28.47 142.298 28.5914V42.4394C142.298 42.5132 142.27 42.584 142.218 42.6365C142.166 42.6891 142.096 42.7193 142.022 42.7205L134.166 42.7627C134.086 42.7627 134.01 42.7311 133.954 42.6749C133.898 42.6186 133.866 42.5424 133.866 42.4629V1.98684C133.866 1.92123 133.879 1.85627 133.904 1.79572C133.929 1.73516 133.966 1.68021 134.013 1.63403C134.06 1.58786 134.115 1.55138 134.176 1.5267C134.237 1.50203 134.302 1.48964 134.367 1.49026C139.741 1.55584 145.114 1.61206 150.497 1.65891ZM142.275 8.68131L142.294 20.2619C142.295 20.3667 142.338 20.4668 142.412 20.5405C142.487 20.6142 142.587 20.6555 142.692 20.6555L149.026 20.6461C149.942 20.6446 150.849 20.4853 151.695 20.1773C152.541 19.8692 153.31 19.4184 153.957 18.8507C154.604 18.283 155.116 17.6094 155.466 16.8685C155.815 16.1275 155.994 15.3338 155.992 14.5325V14.3545C155.989 12.7373 155.251 11.1878 153.941 10.0467C152.631 8.90552 150.856 8.26612 149.007 8.26905L142.673 8.27842C142.621 8.27842 142.568 8.28887 142.52 8.30917C142.471 8.32948 142.427 8.35923 142.39 8.3967C142.353 8.43418 142.324 8.47863 142.304 8.52748C142.284 8.57634 142.274 8.62862 142.275 8.68131Z" fill="#000010"/>
<path d="M59.2101 92.2888H49.0677L48.9225 60.8308C48.9225 60.6435 48.8288 60.5498 48.6414 60.5498H37.3231C37.2436 60.5498 37.1673 60.5182 37.1111 60.4619C37.0548 60.4057 37.0233 60.3295 37.0233 60.2499L36.9858 52.4827C36.9811 52.3187 37.0654 52.2344 37.2294 52.2344H71.0859C71.1853 52.2344 71.2806 52.2739 71.3509 52.3441C71.4212 52.4144 71.4607 52.5098 71.4607 52.6092L71.4044 60.278C71.4044 60.4607 71.3108 60.5498 71.1281 60.5498H59.5146C59.3553 60.5498 59.2757 60.6294 59.2757 60.7887L59.2101 92.2888Z" fill="#000010"/>
<path d="M111.417 92.2888H100.586L97.7468 85.3554C97.6929 85.224 97.6009 85.1115 97.4825 85.0323C97.364 84.953 97.2245 84.9106 97.0816 84.9104H80.4742C80.3194 84.9102 80.1679 84.9569 80.0393 85.0446C79.9107 85.1323 79.8109 85.2569 79.7528 85.4023L76.9841 92.2888H66.481L83.6692 52.7826C83.7957 52.4968 84.0112 52.3516 84.3251 52.3516H94.1489C94.3316 52.3516 94.4534 52.4359 94.5237 52.5999L111.417 92.2888ZM83.0602 77.0635C83.0465 77.0981 83.0415 77.1355 83.0455 77.1725C83.0495 77.2095 83.0624 77.2449 83.0831 77.2758C83.1039 77.3067 83.1318 77.3321 83.1645 77.3498C83.1973 77.3675 83.2338 77.3769 83.271 77.3774L94.3176 77.3961C94.3552 77.3964 94.3923 77.3875 94.4256 77.3701C94.459 77.3528 94.4875 77.3275 94.5088 77.2965C94.5301 77.2655 94.5434 77.2297 94.5477 77.1924C94.5519 77.155 94.5469 77.1172 94.5331 77.0822L89.0332 63.0234C89.0162 62.9808 88.9868 62.9442 88.9488 62.9185C88.9108 62.8928 88.8659 62.879 88.8201 62.879C88.7742 62.879 88.7293 62.8928 88.6913 62.9185C88.6533 62.9442 88.6239 62.9808 88.6069 63.0234L83.0602 77.0635Z" fill="#000010"/>
<path d="M158.301 92.2888H146.051L137.548 79.8415C137.528 79.813 137.501 79.7897 137.47 79.7736C137.439 79.7575 137.405 79.7491 137.37 79.7491C137.336 79.7491 137.302 79.7575 137.272 79.7736C137.241 79.7897 137.216 79.813 137.197 79.8415L128.61 92.2888H116.781L130.99 72.1398C131.088 72.004 131.088 71.8681 130.994 71.7323L117.802 52.6045C117.685 52.4359 117.732 52.3516 117.938 52.3516H129.294C129.386 52.3515 129.476 52.3742 129.557 52.4175C129.638 52.4609 129.707 52.5235 129.757 52.5999L137.084 63.6792C137.114 63.7234 137.155 63.7598 137.202 63.7851C137.249 63.8104 137.301 63.8238 137.355 63.8243C137.408 63.8247 137.46 63.8122 137.507 63.7877C137.554 63.7633 137.593 63.7276 137.623 63.6839L145.048 52.5436C145.087 52.4846 145.14 52.4362 145.202 52.4027C145.264 52.3692 145.334 52.3516 145.404 52.3516H156.592C157.008 52.3516 157.102 52.5249 156.863 52.8669L144.149 71.0717C144.073 71.1807 144.033 71.3098 144.032 71.4419C144.031 71.574 144.07 71.7031 144.144 71.8119L158.301 92.2888Z" fill="#000010"/>
<path d="M175.588 92.2888H165.254L165.235 52.6186C165.235 52.5478 165.263 52.4798 165.313 52.4298C165.363 52.3797 165.431 52.3516 165.502 52.3516H175.401C175.413 52.3516 175.425 52.3565 175.434 52.3653C175.443 52.3741 175.448 52.386 175.448 52.3984L175.588 92.2888Z" fill="#000010"/>
</g>
<defs>
<clipPath id="clip0_0_1544">
<rect width="211.281" height="92.2891" fill="white"/>
</clipPath>
</defs>
</svg>
