<svg width="284" height="181" viewBox="0 0 284 181" fill="none" xmlns="http://www.w3.org/2000/svg">
<path fill-rule="evenodd" clip-rule="evenodd" d="M227.105 8.64997L218.615 36.1484L216.43 42.8963C215.087 47.727 213.653 52.4732 212.124 57.135C211.503 59.0264 210.922 60.9594 210.337 62.9044C209.484 65.7381 208.624 68.5974 207.625 71.3911C207.468 71.8369 207.162 72.0904 206.704 72.1516L206.547 72.2157C206.244 72.1137 206.052 71.9185 205.967 71.633C205.003 68.2794 204.097 65.2784 203.255 62.63C202.972 61.7412 202.722 60.8022 202.469 59.856L202.469 59.8553L202.469 59.8544C202.258 59.0641 202.046 58.2688 201.812 57.4933C200.945 54.6069 200.105 51.715 199.263 48.8207L199.263 48.8197L199.263 48.8188L199.262 48.8179L199.262 48.8169L199.262 48.816L199.262 48.8151L199.261 48.8141L199.261 48.8132L199.261 48.8122L199.261 48.8113L199.26 48.8104C198.605 46.5544 197.948 44.2971 197.279 42.0397L196.247 38.5259L192.314 25.473C192.3 25.4266 192.272 25.3859 192.233 25.3568C192.194 25.3278 192.147 25.3119 192.098 25.3116C192.05 25.3113 192.002 25.3265 191.963 25.355C191.924 25.3835 191.895 25.4239 191.88 25.4701L184.445 49.1721L182.099 56.1239C180.552 61.616 178.827 67.0586 176.919 72.4517C176.823 72.7221 176.735 73.0631 176.64 73.4341C176.32 74.6781 175.913 76.2597 174.827 76.6501C174.719 76.688 174.632 76.6618 174.565 76.5715C174.369 76.3122 174.206 75.9509 174.078 75.4876C173.154 72.1836 172.292 68.8621 171.491 65.5261C171.095 63.8762 170.596 62.2576 170.096 60.6363C169.643 59.1652 169.189 57.6919 168.81 56.191C167.968 52.8432 166.712 48.1786 165.043 42.1999C164.573 40.5169 164.137 38.8174 163.701 37.1218C163.148 34.9691 162.597 32.8225 161.981 30.7233C160.559 25.8838 159.248 20.9628 158.045 15.9572C157.581 14.6199 157.147 13.1952 156.739 11.6801L156.732 11.6537C156.593 11.1326 156.324 10.1261 156.733 9.72509C157.112 9.35215 158.074 9.45413 158.211 10.0747C158.639 11.9889 159.134 13.8886 159.702 15.7679L161.398 21.6446L163.143 27.9845L166.348 39.9419L171.042 57.2224L171.569 59.3668L174.935 72.07C174.942 72.0967 174.955 72.121 174.975 72.1407C174.994 72.1603 175.018 72.1745 175.045 72.1819C175.071 72.1893 175.099 72.1896 175.126 72.1827C175.153 72.1758 175.177 72.1621 175.197 72.1428C175.217 72.1224 175.246 72.0933 175.281 72.0554C175.308 72.0263 175.328 71.9913 175.34 71.9534C177.079 66.2545 178.868 60.5701 180.706 54.9031C182.343 49.8534 183.939 44.7907 185.536 39.7279C186.969 35.1831 188.401 30.6381 189.864 26.1023C189.967 25.7824 190.078 25.3623 190.202 24.8969L190.202 24.8962C190.529 23.662 190.941 22.1099 191.501 21.2658C191.962 20.5695 192.655 20.8521 192.92 21.5542C193.851 24.0185 194.605 26.6045 195.356 29.1797L195.356 29.1798L195.356 29.1799L195.356 29.18L195.356 29.1802L195.356 29.1803L195.357 29.1806L195.357 29.181C195.75 30.5299 196.143 31.8759 196.559 33.1998L198.173 38.8522L202.136 52.2955L203.639 57.4321L205.504 63.6789L206.675 67.6996C206.688 67.7458 206.716 67.7865 206.754 67.8156C206.792 67.8447 206.839 67.8606 206.887 67.8609C206.935 67.8613 206.982 67.846 207.02 67.8174C207.059 67.7888 207.087 67.7485 207.101 67.7025L209.021 61.1324L209.67 58.8481C212.499 49.8364 215.305 40.8218 218.085 31.8072C218.405 30.7664 218.701 29.7845 218.986 28.839L218.986 28.8388L218.987 28.838L218.987 28.8364C219.782 26.1992 220.491 23.8458 221.409 21.292L225.328 8.27703C226.056 6.14137 226.732 4.00571 227.356 1.87588C227.481 1.4505 227.714 1.0426 227.927 0.672575C227.997 0.54926 228.109 0.456033 228.243 0.410848C228.377 0.365663 228.523 0.371711 228.652 0.427831C229.229 0.678399 229.398 1.12127 229.156 1.75934C228.32 3.98241 227.638 6.27831 227.105 8.64997ZM140.755 17.0265C143.276 18.5095 145.289 20.415 146.795 22.7429C147.81 24.3179 148.415 25.8638 149.075 27.5484L149.079 27.5579C149.141 27.7182 149.205 27.8798 149.269 28.0427C150.326 31.8362 150.461 34.9479 150.472 39.0707V56.8057C150.574 61.9598 150.274 66.6798 147.655 71.2425C146.687 73.1538 145.467 74.8524 143.989 76.3383L140.007 79.3452C132.134 83.229 119.824 84.3361 113.012 77.495C111.59 76.146 110.335 74.6281 109.245 72.9411L107.054 68.7135C107.083 68.2036 106.961 67.8627 106.687 67.685C106.527 67.3761 106.43 67.1605 106.401 67.0411C105.676 64.1129 105.387 61.077 105.53 57.939L105.495 39.9039C105.384 35.1839 105.396 30.461 107.348 26.2829C108.1 24.6018 109.155 23.1887 110.509 22.0466C111.308 21.4231 111.992 20.9103 112.762 22.1048C112.269 22.7138 111.721 23.2878 111.121 23.8209C109.796 25.001 109.21 25.843 108.639 27.3668C107.077 31.2943 107.173 35.7346 107.287 40.0059L107.284 57.3214C107.229 59.4046 107.267 61.1469 107.404 62.5425C107.913 67.8132 110.067 72.3118 113.866 76.0353C115.987 77.8767 118.429 79.3976 121.179 80.126C125.118 81.172 129.296 80.9535 133.445 79.9628C137.143 79.08 140.304 77.4193 142.929 74.9864C144.517 73.4801 145.767 71.6999 146.682 69.6488C149.013 64.5648 148.931 58.8004 148.855 53.4838V53.483V53.4822V53.4815V53.4806V53.4798V53.479V53.4782V53.4773V53.4765V53.4757V53.4749C148.843 52.6489 148.831 51.8339 148.829 51.0338C148.826 49.8612 148.835 48.6359 148.844 47.3812V47.3804C148.866 44.4518 148.888 41.3635 148.768 38.4122C148.855 34.3069 148.237 30.3299 146.912 26.4869C146.204 24.8698 145.286 23.3664 144.153 21.9766C143.185 20.9248 142.087 19.9692 140.854 19.1097C139.91 18.3259 138.859 17.7316 137.699 17.3266C137.474 17.2484 137.237 17.1587 136.987 17.0647L136.987 17.0645L136.987 17.0644C135.981 16.6851 134.79 16.2358 133.541 16.1961C130.607 15.5056 127.542 15.5231 124.346 16.2485C122.146 16.7963 119.987 17.5859 117.869 18.6144C117.792 18.6519 117.707 18.6698 117.621 18.6666C117.536 18.6634 117.452 18.6391 117.378 18.5959C117.304 18.5526 117.242 18.4918 117.197 18.4188C117.152 18.3458 117.126 18.2629 117.12 18.1773L117.08 17.4431C117.077 17.4008 117.087 17.3588 117.108 17.3224C117.13 17.2861 117.161 17.2571 117.199 17.2392C118.764 16.4962 120.116 15.9077 121.261 15.4735C128.247 12.8105 134.139 14.0983 140.755 17.0265ZM91.067 28.0137L90.9737 20.9395L90.8659 19.372C90.8601 19.27 90.8106 19.2059 90.7144 19.1738C89.6947 18.83 89.345 19.4244 89.3421 20.3393C89.3334 24.0541 89.3363 27.7777 89.3538 31.5071L89.2605 78.914L89.313 87.9024C90.0967 88.1355 90.7552 88.2258 90.8455 87.2381C91.034 85.1816 91.0241 83.0437 91.014 80.8797V80.8795C91.0084 79.665 91.0027 78.4424 91.032 77.2212L91.0087 66.1845L91.0728 36.5825L91.067 28.0137ZM53.9188 55.7364L53.9712 77.1367L53.9479 84.5867L53.8954 92.4825C53.8954 92.5903 53.843 92.6544 53.7352 92.669L52.7125 92.8293C52.6656 92.8363 52.6178 92.8334 52.5722 92.8206C52.5265 92.8078 52.4842 92.7855 52.4481 92.7551C52.4119 92.7248 52.3827 92.6871 52.3625 92.6446C52.3423 92.6021 52.3315 92.5558 52.3309 92.5088L52.2376 86.635L52.1648 75.9275C52.2493 62.2337 52.3017 48.5398 52.3221 34.846C52.325 31.3235 52.2901 27.798 52.2143 24.2755C52.2114 24.1269 52.2842 24.0424 52.4328 24.0278L53.7177 23.888C53.8284 23.8763 53.8838 23.9259 53.8867 24.0366C53.995 29.4017 53.949 34.747 53.9032 40.0577C53.8579 45.3227 53.8129 50.5538 53.9188 55.7364ZM40.9273 45.0115C40.6913 43.1847 40.3271 41.4569 39.8347 39.834C36.9241 31.3905 29.2555 27.3027 20.5818 28.2351C11.3603 29.2257 3.07403 33.2348 2.84386 43.7994C2.73606 48.7642 3.82282 52.7791 7.88144 55.9374C9.7811 57.5341 11.8701 58.8394 14.1486 59.8562L20.7071 62.5891C29.0195 65.5027 38.4858 68.9233 39.3744 79.2811C39.9484 85.9444 35.7528 91.4278 29.7275 93.7295C28.9787 94.0355 28.3144 94.2452 27.7346 94.356C22.4931 95.3553 17.4497 94.9241 12.6073 93.0623C8.20776 91.5735 5.06983 88.8085 3.19348 84.7615C2.05136 82.7861 1.69882 80.0503 1.4803 77.9117C1.47156 77.8126 1.42203 77.7427 1.33171 77.7048C0.687805 77.428 -0.0755596 77.9233 0.00602076 78.7071C0.314861 81.7343 1.14815 84.1409 2.33981 86.9147C3.4324 88.6978 4.78722 90.2536 6.40717 91.5822C11.3865 95.7457 19.2415 97.0976 25.4358 96.4625C30.9396 95.8972 35.3682 93.3071 38.5615 88.7939C40.974 85.3879 41.2857 81.743 40.8195 77.6932L40.3388 75.3361L40.0999 74.4183C37.6758 67.5452 29.0982 63.8012 22.7699 61.6043C20.3953 60.8381 18.0907 59.8853 15.8501 58.7461C7.95428 54.9992 3.17018 51.1154 4.80179 41.4015C6.29646 32.518 15.515 29.8026 23.2914 29.855C30.2461 29.9016 35.1031 33.0658 37.8652 39.3446C38.4741 40.6877 38.882 42.0804 39.0889 43.5226L39.2316 44.1782L39.2782 48.4C39.2783 48.4844 39.3083 48.5652 39.3627 48.6272C39.7007 49.0147 40.1115 49.1284 40.5952 48.9623C40.6797 48.9332 40.735 48.8749 40.7554 48.7875C41.073 47.4939 41.1313 46.2352 40.9273 45.0115ZM77.7318 55.1624L70.6576 56.1647C68.1906 56.4783 65.7344 56.826 63.28 57.1735L63.28 57.1735L63.2799 57.1735C61.3109 57.4523 59.343 57.7308 57.3716 57.9915C57.0191 58.0381 56.7831 58.0003 56.6695 57.875C56.5092 57.7031 56.4859 57.403 56.5937 56.9805C56.5092 56.6833 56.5791 56.5173 56.7976 56.4794C60.4309 55.8617 65.317 55.1799 71.4559 54.437C72.6883 54.3495 73.9499 54.198 75.2436 53.9853C76.3371 53.8065 77.4059 53.6563 78.4628 53.5077C80.1431 53.2716 81.7934 53.0396 83.4657 52.7034L86.1579 52.3916C86.2366 52.382 86.316 52.4025 86.3803 52.4489C86.4446 52.4954 86.489 52.5644 86.5046 52.6422C86.6881 53.5483 86.321 54.0611 85.4032 54.1806C82.8189 54.5244 80.2637 54.8507 77.7318 55.1624ZM277.359 96.0343L280.844 84.6713C281.604 82.186 282.359 79.7095 283.11 77.2387C283.177 77.0202 283.198 76.7114 283.177 76.3064C283.175 76.219 283.131 76.1607 283.049 76.1345C282.094 75.7994 281.642 76.1957 281.38 77.1018C280.701 79.4414 279.975 81.7781 279.209 84.1119L273.551 102.505L270.264 113.14C269.015 117.104 267.958 120.582 266.945 123.914L266.942 123.922C265.818 127.618 264.749 131.136 263.531 134.942C263.293 135.684 263.061 136.53 262.816 137.423L262.816 137.426L262.815 137.427C262.317 139.244 261.765 141.26 260.993 143.013C260.985 143.032 260.975 143.05 260.963 143.066C260.944 143.091 260.921 143.112 260.894 143.128C260.85 143.155 260.798 143.168 260.746 143.164C260.694 143.161 260.645 143.141 260.604 143.108C260.564 143.076 260.535 143.031 260.521 142.981L256.856 130.202L247.384 98.3739C247.206 98.0039 247.119 97.6513 247.125 97.3221C247.317 96.4626 246.073 96.4334 245.601 96.6461C245.555 96.6672 245.514 96.6975 245.481 96.7352C245.448 96.7729 245.423 96.817 245.409 96.8647C244.493 99.7869 243.551 102.699 242.608 105.611L242.607 105.614C241.642 108.595 240.678 111.576 239.742 114.568C239.104 116.61 238.288 119.098 237.289 122.032C236.975 122.953 236.646 124.08 236.302 125.257L236.302 125.258C235.947 126.474 235.576 127.744 235.191 128.894C233.108 135.126 231.15 141.341 229.314 147.535C229.298 147.591 229.263 147.64 229.216 147.675C229.169 147.709 229.112 147.728 229.054 147.727C228.995 147.726 228.938 147.706 228.891 147.669C228.845 147.633 228.811 147.583 228.795 147.526C227.767 143.625 226.762 139.776 225.783 135.982C225.661 135.511 225.501 135.023 225.343 134.544L225.343 134.544L225.343 134.544L225.343 134.544L225.343 134.543L225.343 134.543L225.343 134.543C225.206 134.126 225.071 133.716 224.967 133.331C223.245 127.02 221.517 120.712 219.787 114.41L218.228 108.807L214.23 94.2249L211.856 85.7406C211.818 85.6095 211.733 85.5483 211.597 85.557L210.521 85.6386C210.373 85.6474 210.317 85.726 210.355 85.8717L213.167 96.4305L228.373 152.118C229.285 152.071 229.76 151.675 230.031 150.772C230.682 148.625 231.395 146.468 232.103 144.326C232.834 142.11 233.562 139.909 234.212 137.748C234.891 135.493 235.578 133.241 236.272 130.991L238.431 124.261C239.329 121.376 240.265 118.501 241.201 115.626C242.507 111.618 243.812 107.608 245.015 103.569C245.076 103.365 245.145 103.159 245.215 102.948C245.428 102.309 245.656 101.628 245.715 100.868C245.721 100.786 245.754 100.708 245.808 100.646C245.863 100.584 245.936 100.541 246.016 100.524C246.097 100.507 246.181 100.516 246.256 100.551C246.331 100.586 246.392 100.644 246.431 100.716C246.562 100.961 246.685 101.296 246.793 101.725C248.223 107.386 249.861 112.986 251.705 118.524C251.82 118.869 251.905 119.248 251.991 119.632L251.991 119.632L251.991 119.632C252.067 119.969 252.143 120.31 252.241 120.634C252.806 122.521 253.375 124.408 253.945 126.294L253.946 126.295L253.946 126.296L253.946 126.296L253.946 126.297L253.946 126.298L253.946 126.298C255.652 131.946 257.358 137.596 258.931 143.275C259.347 144.779 259.84 146.23 260.411 147.631C261.133 147.482 261.559 147.174 261.684 146.71C262.26 144.622 263.016 142.369 263.713 140.293L263.713 140.291C264.144 139.007 264.552 137.792 264.88 136.725C267.205 129.182 269.539 121.639 271.879 114.101C272.89 110.846 273.87 107.584 274.85 104.321L274.85 104.319L274.851 104.317L274.852 104.315L274.852 104.313L274.853 104.311L274.854 104.308C275.683 101.548 276.512 98.7884 277.359 96.0343ZM203.718 120.229L203.616 138.27L202.905 142.637C202.209 145.175 201.271 147.465 200.091 149.507C198.322 151.984 196.25 154.047 193.879 155.696C185.945 160.098 173.478 161.232 166.34 154.533C162.96 151.363 160.667 147.616 159.461 143.293C158.858 141.14 158.423 138.986 158.453 136.822C158.578 128.066 158.589 120.264 158.49 113.417C158.388 109.69 159.137 105.192 161.063 101.961C161.958 100.338 163.097 99.0819 164.478 98.1962C164.572 98.1358 164.679 98.099 164.79 98.089C164.902 98.079 165.014 98.0961 165.117 98.1387C165.22 98.1813 165.312 98.2483 165.384 98.3339C165.455 98.4195 165.506 98.5212 165.53 98.6303L165.626 99.0673C165.652 99.1839 165.617 99.2771 165.521 99.347C160.547 102.969 160.07 109.233 160.285 114.818C160.306 120.672 160.306 126.51 160.285 132.338C160.283 132.94 160.273 133.54 160.263 134.138C160.211 137.321 160.159 140.439 161.258 143.534C161.34 143.782 161.381 143.858 161.378 143.765L162.671 146.981C163.414 148.587 164.347 149.982 165.468 151.162C168.117 154.303 171.47 156.488 175.584 157.138C184.523 158.545 194.039 156.072 198.943 147.975C200.81 144.889 201.83 140.953 201.798 137.358C201.731 128.926 201.748 120.491 201.856 112.05C201.308 103.54 198.197 96.9899 189.73 93.8811C184.82 91.9436 179.897 91.9028 174.961 93.7646L170.993 95.2797C170.888 95.3193 170.775 95.3336 170.665 95.3215C170.554 95.3093 170.447 95.271 170.355 95.2097C169.649 94.7494 170.113 94.0443 170.69 93.7646C171.823 93.2139 172.98 92.7157 174.157 92.2758C180.605 89.6361 188.06 90.379 194.042 94.0035C200.149 97.7038 202.468 103.269 203.328 110.25C203.563 112.171 203.59 114.251 203.617 116.345V116.346C203.634 117.646 203.651 118.951 203.718 120.229ZM143.982 106.761C143.983 105.517 143.985 104.274 143.986 103.03L144.013 95.941C144.013 95.804 143.946 95.737 143.809 95.7341L142.364 95.7108C142.25 95.7079 142.195 95.7632 142.203 95.8769C142.355 98.2136 142.361 100.547 142.224 102.878C142.297 115.995 142.299 129.112 142.232 142.229C142.218 145 142.224 147.818 142.23 150.592V150.597V150.597V150.597V150.597V150.598C142.24 155.207 142.249 159.691 142.165 163.626C142.145 164.646 143.337 164.757 144.056 164.731C144.164 164.728 144.214 164.67 144.211 164.562C143.978 157.726 144.024 150.93 144.07 144.097V144.097V144.097V144.096V144.096C144.104 139.147 144.137 134.178 144.065 129.159C143.96 121.692 143.971 114.226 143.982 106.763V106.761ZM107.127 126.982L107.124 128.946L107.133 164.489L107.08 169.492C107.08 169.509 107.076 169.527 107.069 169.543C107.061 169.559 107.051 169.573 107.038 169.585C107.025 169.596 107.01 169.605 106.994 169.611C106.978 169.616 106.96 169.618 106.943 169.617L105.67 169.506C105.616 169.501 105.565 169.478 105.526 169.44C105.488 169.402 105.463 169.353 105.457 169.299C105.213 167.199 105.143 165.185 105.25 163.265C105.457 159.527 105.419 155.588 105.384 151.889C105.378 151.254 105.372 150.627 105.367 150.008C105.242 133.73 105.285 117.44 105.39 101.145C105.391 101.061 105.423 100.98 105.48 100.918C105.537 100.857 105.615 100.819 105.699 100.812L107.06 100.711C107.191 100.702 107.255 100.763 107.246 100.894C106.945 106.148 107.014 111.251 107.082 116.265V116.265V116.265V116.265C107.091 116.874 107.099 117.481 107.106 118.087C107.144 121.056 107.153 124.019 107.127 126.982ZM93.0805 125.846C94.4528 125.584 94.3508 123.652 94.2692 122.6C93.2757 112.531 87.2446 105.378 76.7644 105.04C69.1687 104.792 59.2246 107.528 56.7947 115.879C55.7312 119.532 55.7108 123.157 56.7306 126.749C57.1268 128.005 57.7328 129.188 58.5457 130.298C60.0666 132.096 61.6749 133.512 63.3706 134.546C66.9922 136.755 71.1528 138.602 75.8583 140.085L81.3125 142.322C85.1584 144.044 88.9024 146.71 91.0235 150.445C92.3142 152.715 92.6318 156.019 92.4744 158.574C92.1481 163.924 87.9205 168.416 83.151 170.369C79.8178 171.735 76.5867 171.919 73.0641 171.566C65.2907 170.791 58.2544 167.86 55.6904 159.789L54.5192 154.661C54.5071 154.608 54.4829 154.559 54.4482 154.516C54.4136 154.474 54.3696 154.441 54.3196 154.419C54.2697 154.396 54.2151 154.386 54.1602 154.388C54.1054 154.39 54.0517 154.405 54.0034 154.431C53.4149 154.755 53.1352 155.302 53.1993 156.007C53.377 157.907 53.817 159.743 54.5162 161.517L56.3547 165.15C59.3732 169.133 63.2075 171.208 67.9624 172.484C69.9283 173.013 72.0463 173.165 74.1407 173.315H74.1409L74.1413 173.315L74.1456 173.315C74.3311 173.328 74.5165 173.341 74.7016 173.355C79.2497 173.684 83.3986 172.589 87.1484 170.068C93.5787 165.751 95.525 158.988 93.3893 151.663C91.6208 146.483 87.1193 143.281 82.2856 140.994L77.4724 138.946C77.0221 138.779 76.5764 138.616 76.1349 138.454L76.1348 138.454C71.0352 136.587 66.4959 134.924 61.806 131.248C60.2298 129.945 59.0673 128.355 58.3185 126.478C57.4794 123.3 57.4298 120.144 58.167 117.006C59.2858 112.245 63.7144 108.956 68.3121 107.7C77.7579 105.119 87.5068 106.622 91.2566 116.98C91.4867 117.219 91.6033 117.528 91.6062 117.907C91.6557 117.822 91.6878 117.912 91.7053 118.172C91.8801 118.431 91.9646 118.775 91.9587 119.2L92.3113 121.382C92.325 121.696 92.3149 122.059 92.3041 122.445C92.2716 123.611 92.2334 124.978 92.8357 125.753C92.864 125.789 92.9017 125.817 92.9448 125.833C92.9879 125.85 93.0348 125.854 93.0805 125.846ZM33.6027 110.267C34.7216 110.684 35.6219 111.275 36.3007 112.044C42.7397 116.93 43.7362 125.528 40.5516 132.641C37.9195 137.134 34.2249 141.6 30.7064 145.853L30.7062 145.854L30.7031 145.857C30.2072 146.457 29.7149 147.052 29.2294 147.643C22.1378 156.27 15.0723 164.92 8.03311 173.594C7.7857 173.899 7.48233 174.242 7.16063 174.606C6.56552 175.28 5.90771 176.024 5.42545 176.726C5.15448 177.125 5.25646 177.291 5.73429 177.227L38.6462 172.883C39.9281 172.752 40.8051 172.731 41.28 172.816C42.5387 173.043 42.5795 174.625 41.3587 174.972C39.5902 175.476 37.7429 175.779 35.8112 175.887C26.9685 177.143 18.1083 178.308 9.23642 179.389C7.44457 179.608 5.66437 179.881 3.89291 180.208C1.70189 180.61 -0.768831 180.514 1.44258 177.673C4.60382 173.611 7.81459 169.585 11.0749 165.593L31.2515 140.973L36.8485 133.786C38.684 131.423 39.2726 128.8 39.6397 125.843C39.9252 122.003 38.9055 117.682 35.9482 115.057C29.0838 108.968 17.7703 108.863 10.4106 113.868C8.67119 114.932 7.23188 116.322 6.08684 118.043L4.63587 120.581C4.11434 121.942 3.63068 123.343 3.1849 124.786C2.95473 125.537 2.58179 125.703 1.84756 125.438C0.979316 125.129 0.6967 124.456 1.00263 123.419C1.52999 121.621 1.87961 120.5 2.04569 120.054C7.5611 107.881 22.2602 105.084 33.6027 110.267ZM139.337 130.837C139.555 130.371 139.616 129.823 139.52 129.191C139.398 129.001 139.238 128.929 139.037 128.969C135.657 129.677 132.228 130.208 128.749 130.563L120.955 131.627C117.415 132.154 113.852 132.608 110.265 132.993C110.006 133.022 109.851 133.206 109.802 133.547C109.627 134.7 110.099 134.869 111.127 134.759C113.653 134.484 116.214 134.066 118.747 133.651C121.436 133.211 124.095 132.776 126.651 132.524C127.825 132.41 128.81 132.294 129.605 132.18C131.022 131.976 132.44 131.788 133.859 131.599C135.685 131.356 137.512 131.112 139.337 130.837Z" fill="black"/>
</svg>
