<svg width="303" height="51" viewBox="0 0 303 51" fill="none" xmlns="http://www.w3.org/2000/svg">
<g clip-path="url(#clip0_0_2604)">
<path d="M40.3835 31.4863C40.9226 31.6543 41.4226 31.7285 41.8875 31.7129C42.196 31.7051 42.2 31.6621 41.8992 31.584L40.5203 31.2324" stroke="#000010" stroke-width="0.78125"/>
<path d="M68.4299 50.3809H59.9065C55.3792 48.7949 52.7112 45.6035 51.8987 40.8066C51.8635 40.584 51.8206 40.584 51.7698 40.8027C50.7307 45.5215 47.9885 48.7129 43.5432 50.3809H37.7737C37.1721 41.5449 27.7698 37.3184 20.3049 41.5801C19.1526 42.2363 18.2463 43.2207 17.2815 44.166C14.0706 47.3105 10.4338 49.3613 6.01587 50.3809H1.07837C1.20728 42.4902 3.16821 32.8105 7.63306 26.1543C7.65487 26.1205 7.66656 26.0811 7.66671 26.0408C7.66685 26.0005 7.65544 25.9612 7.63387 25.9276C7.61231 25.894 7.58152 25.8676 7.54529 25.8517C7.50906 25.8357 7.46897 25.8309 7.42993 25.8379C6.04321 26.0762 4.87524 26.7168 3.92993 27.7559C3.90498 27.7787 3.8728 27.7921 3.839 27.7937C3.8052 27.7952 3.77192 27.7849 3.74496 27.7644C3.718 27.744 3.69907 27.7147 3.69147 27.6817C3.68387 27.6488 3.68808 27.6142 3.70337 27.584C8.79321 19.4941 16.5549 13.3809 24.6604 8.6582C24.6887 8.64221 24.7207 8.63372 24.7533 8.63351C24.7858 8.63331 24.8179 8.64142 24.8464 8.65706C24.875 8.6727 24.899 8.69536 24.9164 8.7229C24.9337 8.75044 24.9438 8.78195 24.9456 8.81445C25.4299 18.6348 29.6682 29.127 40.3831 31.4863C40.9221 31.6543 41.4221 31.7285 41.887 31.7129C42.1956 31.7051 42.1995 31.6621 41.8987 31.584L40.5198 31.2324C29.2893 26.9902 26.5198 11.8691 26.5666 1.55273C26.5666 1.39258 26.6409 1.3418 26.7893 1.39258C30.1487 2.54883 32.8635 3.5293 36.4885 3.41211C36.7073 3.4082 36.7502 3.31836 36.6174 3.14258L35.3479 1.4668C35.3329 1.44585 35.3239 1.42117 35.3219 1.39545C35.3199 1.36974 35.3251 1.34398 35.3368 1.321C35.3485 1.29801 35.3663 1.27868 35.3882 1.26513C35.4101 1.25157 35.4354 1.24431 35.4612 1.24414C39.9456 1.26367 44.4338 1.29102 48.9299 1.33398C52.5276 1.36523 55.1252 1.50195 56.7151 1.74023C71.3752 3.92773 82.0823 15.1465 83.0432 30.0918C83.6799 39.9707 77.9416 47.9238 68.4299 50.3809ZM54.9456 15.0254C56.1018 16.5254 57.9807 16.9082 59.6526 16.1309C59.7737 16.0723 59.844 15.9785 59.8557 15.8418C60.1448 12.7754 56.1877 11.7754 54.9026 14.6699C54.8767 14.7278 54.867 14.7916 54.8745 14.8542C54.8821 14.9169 54.9067 14.9761 54.9456 15.0254ZM62.8635 33.959C59.676 32.834 54.7385 33.166 55.5041 38.0176C56.9221 46.9863 70.3792 46.2715 70.5706 37.3496C70.6995 31.2441 64.0432 30.0566 59.5432 31.6816C59.5232 31.6897 59.5063 31.7041 59.4953 31.7227C59.4844 31.7413 59.4799 31.763 59.4825 31.7844C59.4852 31.8059 59.4949 31.8258 59.5101 31.8411C59.5254 31.8565 59.5452 31.8663 59.5667 31.8691C60.9963 31.9902 62.137 32.6309 62.9924 33.7832C63.1409 33.9824 63.0979 34.041 62.8635 33.959ZM81.6838 36.1738C78.8909 37.209 76.6487 36.7168 73.8518 36.4629C73.7151 36.4512 73.7073 36.4707 73.8362 36.5215C75.2385 37.0762 82.1604 38.6543 81.8401 36.2676C81.8284 36.1699 81.7737 36.1387 81.6838 36.1738ZM76.8401 43.248C75.1838 42.8418 73.6018 42.2324 72.094 41.4238C71.7971 41.2637 71.7776 41.291 72.0393 41.502C73.7776 42.9316 75.7659 43.7832 77.9963 44.0566C78.0807 44.0684 78.1662 44.049 78.237 44.0022C78.3077 43.9554 78.359 43.8843 78.3814 43.8019C78.4038 43.7196 78.3957 43.6316 78.3587 43.5542C78.3216 43.4768 78.2582 43.4153 78.1799 43.3809C77.9495 43.2793 77.1995 43.334 76.8401 43.248ZM69.6917 46.2285C70.1174 46.791 72.1487 48.8652 72.9182 48.3457C72.9464 48.3274 72.969 48.3017 72.9836 48.2715C72.9982 48.2412 73.0042 48.2075 73.001 48.1741C72.9977 48.1407 72.9854 48.1088 72.9653 48.0819C72.9452 48.0549 72.9181 48.0341 72.887 48.0215C71.7659 47.5605 70.7932 46.8848 69.9651 45.998C68.3752 44.2949 68.2815 44.373 69.6917 46.2285Z" fill="#000010"/>
<path d="M174.164 18.2674C170.371 18.8182 168.789 22.5252 173.926 23.0369C177.484 23.3924 183.598 23.4236 186.055 26.49C187.922 28.8221 187.801 32.5408 185.941 34.8025C185.117 35.8064 183.859 36.6033 182.168 37.1893C176.738 39.0721 171.394 37.5252 166.387 34.9549C166.172 34.8455 166.105 34.6775 166.195 34.451L167.484 31.1346C167.551 30.9744 167.656 30.9393 167.801 31.033C170.48 32.7479 173.117 33.7479 175.711 34.0252C177.937 34.2635 182.035 33.9588 182.93 31.365C183.441 29.8807 182.191 29.2791 180.937 28.9939C177.5 28.2127 173.637 28.3455 170.613 27.4197C165.676 25.9119 165.254 19.201 168.918 16.2557C173.652 12.4432 182.023 14.3729 186.617 17.5486C186.73 17.6268 186.754 17.7244 186.687 17.8416L184.887 21.0877C184.828 21.1971 184.75 21.2127 184.652 21.1346C181.539 18.6541 178.043 17.701 174.164 18.2674Z" fill="#000010"/>
<path d="M111.461 18.3496H102.82C102.796 18.3496 102.772 18.3449 102.75 18.3356C102.728 18.3264 102.708 18.3129 102.69 18.2958C102.673 18.2788 102.66 18.2585 102.651 18.2363C102.641 18.214 102.637 18.1901 102.637 18.166V14.8223C102.637 14.7982 102.641 14.7743 102.651 14.752C102.66 14.7297 102.673 14.7095 102.69 14.6924C102.708 14.6754 102.728 14.6619 102.75 14.6526C102.772 14.6434 102.796 14.6387 102.82 14.6387H125.109C125.158 14.6387 125.205 14.658 125.239 14.6924C125.274 14.7269 125.293 14.7736 125.293 14.8223V18.166C125.293 18.2147 125.274 18.2614 125.239 18.2958C125.205 18.3303 125.158 18.3496 125.109 18.3496H116.395C116.346 18.3496 116.299 18.369 116.265 18.4034C116.23 18.4378 116.211 18.4845 116.211 18.5332V37.4043C116.211 37.4284 116.206 37.4523 116.197 37.4746C116.188 37.4968 116.174 37.5171 116.157 37.5341C116.14 37.5512 116.12 37.5647 116.098 37.5739C116.075 37.5831 116.051 37.5879 116.027 37.5879H111.84C111.816 37.5879 111.792 37.5831 111.77 37.5739C111.747 37.5647 111.727 37.5512 111.71 37.5341C111.693 37.5171 111.679 37.4968 111.67 37.4746C111.661 37.4523 111.656 37.4284 111.656 37.4043L111.645 18.5332C111.645 18.4845 111.625 18.4378 111.591 18.4034C111.556 18.369 111.51 18.3496 111.461 18.3496Z" fill="#000010"/>
<path d="M133.587 14.6387H129.305C129.247 14.6387 129.2 14.6859 129.2 14.7441V37.4863C129.2 37.5446 129.247 37.5918 129.305 37.5918H133.587C133.645 37.5918 133.692 37.5446 133.692 37.4863V14.7441C133.692 14.6859 133.645 14.6387 133.587 14.6387Z" fill="#000010"/>
<path d="M145.216 28.5137V37.3926C145.216 37.4211 145.21 37.4494 145.199 37.4757C145.188 37.502 145.172 37.5259 145.151 37.5459C145.131 37.5659 145.107 37.5817 145.08 37.5922C145.054 37.6028 145.025 37.608 144.997 37.6074L140.864 37.5801C140.704 37.5762 140.626 37.4981 140.626 37.3379V14.8418C140.626 14.789 140.647 14.7383 140.685 14.7009C140.723 14.6636 140.775 14.6426 140.829 14.6426C145.446 14.6387 150.098 14.6348 154.786 14.6309C160.18 14.6231 164.212 18.0488 162.364 23.7832C161.087 27.7402 157.473 28.2871 153.704 28.2949C150.942 28.3027 148.18 28.3106 145.415 28.3145C145.282 28.3145 145.216 28.3809 145.216 28.5137ZM145.219 18.5332L145.212 24.3067C145.212 24.3553 145.231 24.402 145.265 24.4365C145.3 24.4709 145.347 24.4902 145.395 24.4902L154.458 24.5059C155.422 24.5073 156.347 24.1995 157.029 23.6502C157.712 23.1008 158.097 22.3548 158.098 21.5762V21.3106C158.099 20.9246 158.006 20.5422 157.824 20.1853C157.642 19.8283 157.374 19.5038 157.037 19.2303C156.7 18.9567 156.299 18.7396 155.858 18.5911C155.416 18.4427 154.943 18.366 154.466 18.3652L145.403 18.3496C145.354 18.3496 145.308 18.369 145.273 18.4034C145.239 18.4378 145.219 18.4845 145.219 18.5332Z" fill="#000010"/>
<path d="M214.68 22.1387L205.703 37.1309C205.69 37.1517 205.672 37.1689 205.651 37.1807C205.629 37.1925 205.605 37.1984 205.581 37.1981C205.556 37.1977 205.533 37.1909 205.511 37.1784C205.49 37.166 205.473 37.1482 205.461 37.127L196.941 22.1191C196.926 22.0929 196.902 22.0724 196.874 22.0607C196.846 22.049 196.815 22.0467 196.786 22.0542C196.756 22.0617 196.73 22.0785 196.711 22.1022C196.692 22.1259 196.681 22.1551 196.68 22.1855V37.4473C196.68 37.4846 196.665 37.5203 196.639 37.5467C196.612 37.5731 196.576 37.5879 196.539 37.5879H192.719C192.681 37.5879 192.646 37.5731 192.619 37.5467C192.593 37.5203 192.578 37.4846 192.578 37.4473V14.7793C192.578 14.742 192.593 14.7062 192.619 14.6799C192.646 14.6535 192.681 14.6387 192.719 14.6387H198.199C198.224 14.6388 198.248 14.6453 198.269 14.6577C198.29 14.67 198.308 14.6877 198.32 14.709L205.891 28.209C205.902 28.2312 205.92 28.2498 205.941 28.2629C205.963 28.276 205.987 28.2831 206.013 28.2835C206.038 28.2839 206.062 28.2776 206.084 28.2651C206.106 28.2527 206.124 28.2347 206.137 28.2129L214.105 14.709C214.118 14.6877 214.135 14.67 214.157 14.6577C214.178 14.6453 214.202 14.6388 214.227 14.6387H219.293C219.33 14.6387 219.366 14.6535 219.392 14.6799C219.419 14.7062 219.434 14.742 219.434 14.7793V37.4473C219.434 37.4846 219.419 37.5203 219.392 37.5467C219.366 37.5731 219.33 37.5879 219.293 37.5879H215.082C215.045 37.5879 215.009 37.5731 214.983 37.5467C214.956 37.5203 214.941 37.4846 214.941 37.4473V22.209C214.941 22.1782 214.931 22.1484 214.912 22.1241C214.893 22.0998 214.867 22.0823 214.837 22.0743C214.808 22.0664 214.776 22.0683 214.748 22.08C214.719 22.0916 214.695 22.1122 214.68 22.1387Z" fill="#000010"/>
<path d="M235.184 14.6387H239.122C239.144 14.6387 239.166 14.6449 239.184 14.6567C239.203 14.6684 239.218 14.6852 239.227 14.7051L250.138 37.4355C250.146 37.4534 250.15 37.4731 250.149 37.4929C250.148 37.5127 250.142 37.5319 250.131 37.5486C250.121 37.5654 250.106 37.5793 250.089 37.5889C250.071 37.5984 250.052 37.6035 250.032 37.6035L245.427 37.5801C245.406 37.5797 245.385 37.5737 245.367 37.5627C245.349 37.5517 245.335 37.5361 245.325 37.5176L242.438 31.791C242.429 31.7725 242.414 31.7569 242.396 31.7459C242.378 31.7349 242.358 31.7289 242.337 31.7285H231.571C231.549 31.7285 231.527 31.7348 231.509 31.7465C231.49 31.7583 231.475 31.7751 231.466 31.7949L228.595 37.5215C228.585 37.5414 228.57 37.5581 228.551 37.5699C228.533 37.5816 228.511 37.5879 228.489 37.5879H224.54C224.52 37.5879 224.501 37.5828 224.483 37.5732C224.466 37.5636 224.451 37.5498 224.441 37.533C224.43 37.5162 224.424 37.4971 224.423 37.4773C224.422 37.4575 224.426 37.4378 224.434 37.4199L235.079 14.7051C235.088 14.6852 235.103 14.6684 235.122 14.6567C235.141 14.6449 235.162 14.6387 235.184 14.6387ZM232.907 28.3887C232.896 28.4113 232.89 28.4365 232.892 28.4617C232.893 28.487 232.9 28.5116 232.914 28.5331C232.927 28.5547 232.945 28.5724 232.968 28.5847C232.99 28.5971 233.015 28.6035 233.04 28.6035H240.946C240.971 28.6035 240.996 28.5971 241.018 28.5847C241.041 28.5724 241.059 28.5547 241.072 28.5331C241.086 28.5116 241.093 28.487 241.094 28.4617C241.096 28.4365 241.09 28.4113 241.079 28.3887L237.126 20.6582C237.113 20.6335 237.095 20.6128 237.071 20.5983C237.048 20.5837 237.021 20.5761 236.993 20.5761C236.965 20.5761 236.938 20.5837 236.915 20.5983C236.891 20.6128 236.873 20.6335 236.86 20.6582L232.907 28.3887Z" fill="#000010"/>
<path d="M259.454 28.4351L259.481 37.3374C259.482 37.3701 259.476 37.4025 259.464 37.4328C259.451 37.4631 259.433 37.4907 259.411 37.514C259.388 37.5372 259.36 37.5557 259.33 37.5683C259.3 37.5809 259.268 37.5874 259.235 37.5874H255.079C254.95 37.5874 254.884 37.521 254.884 37.3921V14.8413C254.884 14.7163 254.946 14.6538 255.071 14.6499C259.356 14.6226 263.63 14.6226 267.895 14.6538C271.469 14.6812 275.516 14.607 276.958 18.7085C278.723 23.7359 275.977 27.1304 271.098 27.9741C270.95 28.0015 270.919 28.0757 271.005 28.1968L277.309 37.2906C277.45 37.4898 277.399 37.5913 277.153 37.5913L272.762 37.5874C272.701 37.5876 272.64 37.5723 272.585 37.5431C272.53 37.5138 272.482 37.4714 272.446 37.4195L266.173 28.4624C266.098 28.3531 265.993 28.2984 265.864 28.2984L259.618 28.271C259.509 28.271 259.454 28.3257 259.454 28.4351ZM259.454 18.4429L259.446 24.3023C259.446 24.3282 259.456 24.353 259.475 24.3713C259.493 24.3896 259.518 24.3999 259.544 24.3999L269.317 24.4156C270.256 24.4171 271.157 24.1406 271.823 23.6469C272.488 23.1532 272.862 22.4827 272.864 21.7827V21.0093C272.865 20.6624 272.774 20.3186 272.597 19.9977C272.419 19.6768 272.159 19.385 271.83 19.139C271.501 18.8931 271.111 18.6978 270.681 18.5642C270.251 18.4307 269.79 18.3616 269.325 18.3609L259.552 18.3452C259.526 18.3452 259.501 18.3555 259.482 18.3738C259.464 18.3922 259.454 18.417 259.454 18.4429Z" fill="#000010"/>
<path d="M302.344 14.6543V18.3027L294.071 18.3301C293.985 18.3311 293.904 18.3657 293.844 18.4264C293.784 18.4871 293.75 18.569 293.75 18.6543V37.3613C293.75 37.5176 293.672 37.5957 293.516 37.5957L289.449 37.584C289.321 37.584 289.258 37.5176 289.258 37.3887V18.5449C289.258 18.4931 289.237 18.4434 289.201 18.4068C289.164 18.3702 289.115 18.3496 289.063 18.3496H280.422C280.258 18.3496 280.176 18.2676 280.176 18.1035V14.8613C280.176 14.7168 280.25 14.6426 280.395 14.6426L302.344 14.6543Z" fill="#000010"/>
<path d="M40.5203 31.2324L41.8992 31.584C42.2 31.6621 42.196 31.7051 41.8875 31.7129C41.4226 31.7285 40.9226 31.6543 40.3835 31.4863C40.5203 31.4199 40.5632 31.3379 40.5203 31.2324Z" fill="#000010"/>
</g>
<defs>
<clipPath id="clip0_0_2604">
<rect width="302.344" height="50" fill="white" transform="translate(0 0.380859)"/>
</clipPath>
</defs>
</svg>
